<?xml version="1.0" encoding="UTF-8" standalone="no" ?><!DOCTYPE svg PUBLIC "-//W3C//DTD SVG 1.1//EN" "http://www.w3.org/Graphics/SVG/1.1/DTD/svg11.dtd"><svg xmlns="http://www.w3.org/2000/svg" xmlns:xlink="http://www.w3.org/1999/xlink" version="1.1" width="750" height="598" viewBox="0 0 750 598" xml:space="preserve"><desc>Created with Fabric.js 1.7.19</desc><defs></defs><rect x="0" y="0" width="750" height="598" fill="#FFFFFF"></rect><g style="stroke: none; stroke-width: 1; stroke-dasharray: none; stroke-linecap: butt; stroke-linejoin: miter; stroke-miterlimit: 10; fill: none; fill-rule: nonzero; opacity: 1" transform="translate(0 0)" ><path d="M 0.5 0.5 L 749.5 0.5 L 749.5 499.5 L 0.5 499.5 Z" style="stroke:#000000;stroke-opacity:1; stroke-opacity: 0; stroke-width: 1; stroke-dasharray: none; stroke-linecap: butt; stroke-linejoin: miter; stroke-miterlimit: 10;fill:#FFFFFF;fill-opacity:1; fill-opacity: 0; fill-rule: nonzero; opacity: 1" transform="" stroke-linecap="round" /><path d="M 0.5 0.5 L 633.5 0.5 L 633.5 412.5 L 0.5 412.5 L 0.5 0.5 Z" style="stroke:#000000;stroke-opacity:1; stroke-opacity: 0; stroke-width: 1; stroke-dasharray: none; stroke-linecap: butt; stroke-linejoin: miter; stroke-miterlimit: 10;fill:#FFFFFF;fill-opacity:1; fill-opacity: 0; fill-rule: nonzero; opacity: 1" transform=" matrix(1 0 0 1 15 55) " stroke-linecap="round" /><path d="M 0.5 0.5 L 0.5 5.5" style="stroke:#000000;stroke-opacity:1; stroke-opacity: 0.3; stroke-width: 1; stroke-dasharray: none; stroke-linecap: butt; stroke-linejoin: miter; stroke-miterlimit: 10; fill: none; fill-rule: nonzero; opacity: 1" transform=" matrix(1 0 0 1 15 467) " stroke-linecap="round" /><path d="M 0.5 412.5 L 0.5 412.5 L 0.5 0.5" style="stroke:#000000;stroke-opacity:1; stroke-opacity: 0.1; stroke-width: 1; stroke-dasharray: 1 1; stroke-linecap: butt; stroke-linejoin: miter; stroke-miterlimit: 10; fill: none; fill-rule: nonzero; opacity: 1" transform=" matrix(1 0 0 1 15 55) " stroke-linecap="round" /><path d="M 105.5 0.5 L 105.5 5.5" style="stroke:#000000;stroke-opacity:1; stroke-opacity: 0.3; stroke-width: 1; stroke-dasharray: none; stroke-linecap: butt; stroke-linejoin: miter; stroke-miterlimit: 10; fill: none; fill-rule: nonzero; opacity: 1" transform=" matrix(1 0 0 1 15 467) " stroke-linecap="round" /><path d="M 105.5 412.5 L 105.5 412.5 L 105.5 0.5" style="stroke:#000000;stroke-opacity:1; stroke-opacity: 0.1; stroke-width: 1; stroke-dasharray: 1 1; stroke-linecap: butt; stroke-linejoin: miter; stroke-miterlimit: 10; fill: none; fill-rule: nonzero; opacity: 1" transform=" matrix(1 0 0 1 15 55) " stroke-linecap="round" /><path d="M 210.5 0.5 L 210.5 5.5" style="stroke:#000000;stroke-opacity:1; stroke-opacity: 0.3; stroke-width: 1; stroke-dasharray: none; stroke-linecap: butt; stroke-linejoin: miter; stroke-miterlimit: 10; fill: none; fill-rule: nonzero; opacity: 1" transform=" matrix(1 0 0 1 15 467) " stroke-linecap="round" /><path d="M 210.5 412.5 L 210.5 412.5 L 210.5 0.5" style="stroke:#000000;stroke-opacity:1; stroke-opacity: 0.1; stroke-width: 1; stroke-dasharray: 1 1; stroke-linecap: butt; stroke-linejoin: miter; stroke-miterlimit: 10; fill: none; fill-rule: nonzero; opacity: 1" transform=" matrix(1 0 0 1 15 55) " stroke-linecap="round" /><path d="M 314.5 0.5 L 314.5 5.5" style="stroke:#000000;stroke-opacity:1; stroke-opacity: 0.3; stroke-width: 1; stroke-dasharray: none; stroke-linecap: butt; stroke-linejoin: miter; stroke-miterlimit: 10; fill: none; fill-rule: nonzero; opacity: 1" transform=" matrix(1 0 0 1 15 467) " stroke-linecap="round" /><path d="M 314.5 412.5 L 314.5 412.5 L 314.5 0.5" style="stroke:#000000;stroke-opacity:1; stroke-opacity: 0.1; stroke-width: 1; stroke-dasharray: 1 1; stroke-linecap: butt; stroke-linejoin: miter; stroke-miterlimit: 10; fill: none; fill-rule: nonzero; opacity: 1" transform=" matrix(1 0 0 1 15 55) " stroke-linecap="round" /><path d="M 419.5 0.5 L 419.5 5.5" style="stroke:#000000;stroke-opacity:1; stroke-opacity: 0.3; stroke-width: 1; stroke-dasharray: none; stroke-linecap: butt; stroke-linejoin: miter; stroke-miterlimit: 10; fill: none; fill-rule: nonzero; opacity: 1" transform=" matrix(1 0 0 1 15 467) " stroke-linecap="round" /><path d="M 419.5 412.5 L 419.5 412.5 L 419.5 0.5" style="stroke:#000000;stroke-opacity:1; stroke-opacity: 0.1; stroke-width: 1; stroke-dasharray: 1 1; stroke-linecap: butt; stroke-linejoin: miter; stroke-miterlimit: 10; fill: none; fill-rule: nonzero; opacity: 1" transform=" matrix(1 0 0 1 15 55) " stroke-linecap="round" /><path d="M 524.5 0.5 L 524.5 5.5" style="stroke:#000000;stroke-opacity:1; stroke-opacity: 0.3; stroke-width: 1; stroke-dasharray: none; stroke-linecap: butt; stroke-linejoin: miter; stroke-miterlimit: 10; fill: none; fill-rule: nonzero; opacity: 1" transform=" matrix(1 0 0 1 15 467) " stroke-linecap="round" /><path d="M 524.5 412.5 L 524.5 412.5 L 524.5 0.5" style="stroke:#000000;stroke-opacity:1; stroke-opacity: 0.1; stroke-width: 1; stroke-dasharray: 1 1; stroke-linecap: butt; stroke-linejoin: miter; stroke-miterlimit: 10; fill: none; fill-rule: nonzero; opacity: 1" transform=" matrix(1 0 0 1 15 55) " stroke-linecap="round" /><path d="M 629.5 0.5 L 629.5 5.5" style="stroke:#000000;stroke-opacity:1; stroke-opacity: 0.3; stroke-width: 1; stroke-dasharray: none; stroke-linecap: butt; stroke-linejoin: miter; stroke-miterlimit: 10; fill: none; fill-rule: nonzero; opacity: 1" transform=" matrix(1 0 0 1 15 467) " stroke-linecap="round" /><path d="M 629.5 412.5 L 629.5 412.5 L 629.5 0.5" style="stroke:#000000;stroke-opacity:1; stroke-opacity: 0.1; stroke-width: 1; stroke-dasharray: 1 1; stroke-linecap: butt; stroke-linejoin: miter; stroke-miterlimit: 10; fill: none; fill-rule: nonzero; opacity: 1" transform=" matrix(1 0 0 1 15 55) " stroke-linecap="round" /><path d="M 0.5 412.5 L 0.5 412.5 L 633.5 412.5" style="stroke:#000000;stroke-opacity:1; stroke-opacity: 0.1; stroke-width: 1; stroke-dasharray: none; stroke-linecap: butt; stroke-linejoin: miter; stroke-miterlimit: 10; fill: none; fill-rule: nonzero; opacity: 1" transform=" matrix(1 0 0 1 15 55) " stroke-linecap="round" /><path d="M 0.5 353.5 L 0.5 353.5 L 633.5 353.5" style="stroke:#000000;stroke-opacity:1; stroke-opacity: 0.1; stroke-width: 1; stroke-dasharray: none; stroke-linecap: butt; stroke-linejoin: miter; stroke-miterlimit: 10; fill: none; fill-rule: nonzero; opacity: 1" transform=" matrix(1 0 0 1 15 55) " stroke-linecap="round" /><path d="M 0.5 294.5 L 0.5 294.5 L 633.5 294.5" style="stroke:#000000;stroke-opacity:1; stroke-opacity: 0.1; stroke-width: 1; stroke-dasharray: none; stroke-linecap: butt; stroke-linejoin: miter; stroke-miterlimit: 10; fill: none; fill-rule: nonzero; opacity: 1" transform=" matrix(1 0 0 1 15 55) " stroke-linecap="round" /><path d="M 0.5 235.5 L 0.5 235.5 L 633.5 235.5" style="stroke:#000000;stroke-opacity:1; stroke-opacity: 0.1; stroke-width: 1; stroke-dasharray: none; stroke-linecap: butt; stroke-linejoin: miter; stroke-miterlimit: 10; fill: none; fill-rule: nonzero; opacity: 1" transform=" matrix(1 0 0 1 15 55) " stroke-linecap="round" /><path d="M 0.5 177.5 L 0.5 177.5 L 633.5 177.5" style="stroke:#000000;stroke-opacity:1; stroke-opacity: 0.1; stroke-width: 1; stroke-dasharray: none; stroke-linecap: butt; stroke-linejoin: miter; stroke-miterlimit: 10; fill: none; fill-rule: nonzero; opacity: 1" transform=" matrix(1 0 0 1 15 55) " stroke-linecap="round" /><path d="M 0.5 118.5 L 0.5 118.5 L 633.5 118.5" style="stroke:#000000;stroke-opacity:1; stroke-opacity: 0.1; stroke-width: 1; stroke-dasharray: none; stroke-linecap: butt; stroke-linejoin: miter; stroke-miterlimit: 10; fill: none; fill-rule: nonzero; opacity: 1" transform=" matrix(1 0 0 1 15 55) " stroke-linecap="round" /><path d="M 0.5 59.5 L 0.5 59.5 L 633.5 59.5" style="stroke:#000000;stroke-opacity:1; stroke-opacity: 0.1; stroke-width: 1; stroke-dasharray: none; stroke-linecap: butt; stroke-linejoin: miter; stroke-miterlimit: 10; fill: none; fill-rule: nonzero; opacity: 1" transform=" matrix(1 0 0 1 15 55) " stroke-linecap="round" /><path d="M 0.5 0.5 L 0.5 0.5 L 633.5 0.5" style="stroke:#000000;stroke-opacity:1; stroke-opacity: 0.1; stroke-width: 1; stroke-dasharray: none; stroke-linecap: butt; stroke-linejoin: miter; stroke-miterlimit: 10; fill: none; fill-rule: nonzero; opacity: 1" transform=" matrix(1 0 0 1 15 55) " stroke-linecap="round" /><path d="M 2.5 353.55163 L 7.5 356.04423 L 11.5 357.19489 L 15.5 364.60794 L 20.5 358.90763 L 24.5 348.99903 L 28.5 347.11266 L 33.5 344.15214 L 37.5 346.29454 L 42.5 376.347 L 46.5 378.42171 L 50.5 378.01854 L 55.5 378.76014 L 59.5 374.15751 L 63.5 369.55489 L 68.5 373.86029 L 72.5 370.47894 L 76.5 369.88743 L 81.5 372.89797 L 85.5 373.10986 L 89.5 372.00923 L 94.5 369.80503 L 98.5 370.45834 L 103.5 372.22994 L 107.5 370.75263 L 111.5 368.8486 L 116.5 366.52669 L 120.5 363.19243 L 124.5 358.50446 L 129.5 351.45926 L 133.5 344.29929 L 137.5 337.36886 L 142.5 338.47537 L 146.5 338.90797 L 151.5 338.47831 L 155.5 339.2052 L 159.5 344.17274 L 164.5 348.57231 L 168.5 354.00483 L 172.5 354.95243 L 177.5 352.1626 L 181.5 347.83071 L 185.5 350.53814 L 190.5 347.34514 L 194.5 349.49049 L 199.5 350.597 L 203.5 353.96363 L 207.5 357.92177 L 212.5 359.68454 L 216.5 360.34963 L 220.5 359.93174 L 225.5 358.04537 L 229.5 356.54746 L 233.5 352.20086 L 238.5 353.90183 L 242.5 356.86529 L 247.5 356.056 L 251.5 356.4886 L 255.5 357.35969 L 260.5 356.62397 L 264.5 359.93174 L 268.5 356.92414 L 273.5 354.00189 L 277.5 348.86071 L 281.5 342.77783 L 286.5 338.3194 L 290.5 338.36943 L 295.5 342.48943 L 299.5 346.44463 L 303.5 345.69126 L 308.5 345.03206 L 312.5 348.97549 L 317.5 352.35389 L 321.5 352.42451 L 325.5 353.81649 L 329.5 349.57583 L 334.5 344.88491 L 338.5 344.21983 L 343.5 341.45649 L 347.5 345.19097 L 351.5 346.34751 L 356.5 351.18263 L 360.5 353.67817 L 364.5 355.44977 L 369.5 350.81771 L 373.5 352.72763 L 377.5 357.04774 L 382.5 355.16726 L 386.5 352.74529 L 390.5 350.00549 L 395.5 346.08854 L 399.5 346.30631 L 404.5 347.92783 L 408.5 350.7206 L 412.5 355.50274 L 417.5 358.88114 L 421.5 362.33017 L 426.5 366.22357 L 430.5 369.89037 L 434.5 368.73089 L 439.5 363.7398 L 443.5 358.4456 L 447.5 358.23371 L 452.5 356.69166 L 456.5 357.78346 L 461.5 359.39614 L 465.5 363.5132 L 469.5 363.08354 L 474.5 361.82989 L 478.5 360.5056 L 482.5 363.58677 L 487.5 360.8764 L 491.5 358.82229 L 495.5 351.90363 L 500.5 349.73474 L 504.5 349.95546 L 509.5 349.39926 L 513.5 350.62349 L 517.5 357.67751 L 522.5 358.43971 L 526.5 359.53151 L 530.5 355.35854 L 535.5 355.79114 L 539.5 353.53691 L 543.5 346.1268 L 548.5 342.68366 L 552.5 342.32463 L 556.5 336.12403 L 561.5 335.32946 L 565.5 335.76206 L 570.5 338.83146 L 574.5 341.22989 L 578.5 342.60714 L 583.5 342.3776 L 587.5 341.48591 L 591.5 341.32111 L 596.5 337.05103 L 600.5 336.0122 L 604.5 334.36714 L 609.5 331.36543 L 613.5 336.18877 L 618.5 338.69314 L 622.5 343.387 L 626.5 343.73426 L 631.5 342.91909 L 631.5 412.5 L 626.5 412.5 L 622.5 412.5 L 618.5 412.5 L 613.5 412.5 L 609.5 412.5 L 604.5 412.5 L 600.5 412.5 L 596.5 412.5 L 591.5 412.5 L 587.5 412.5 L 583.5 412.5 L 578.5 412.5 L 574.5 412.5 L 570.5 412.5 L 565.5 412.5 L 561.5 412.5 L 556.5 412.5 L 552.5 412.5 L 548.5 412.5 L 543.5 412.5 L 539.5 412.5 L 535.5 412.5 L 530.5 412.5 L 526.5 412.5 L 522.5 412.5 L 517.5 412.5 L 513.5 412.5 L 509.5 412.5 L 504.5 412.5 L 500.5 412.5 L 495.5 412.5 L 491.5 412.5 L 487.5 412.5 L 482.5 412.5 L 478.5 412.5 L 474.5 412.5 L 469.5 412.5 L 465.5 412.5 L 461.5 412.5 L 456.5 412.5 L 452.5 412.5 L 447.5 412.5 L 443.5 412.5 L 439.5 412.5 L 434.5 412.5 L 430.5 412.5 L 426.5 412.5 L 421.5 412.5 L 417.5 412.5 L 412.5 412.5 L 408.5 412.5 L 404.5 412.5 L 399.5 412.5 L 395.5 412.5 L 390.5 412.5 L 386.5 412.5 L 382.5 412.5 L 377.5 412.5 L 373.5 412.5 L 369.5 412.5 L 364.5 412.5 L 360.5 412.5 L 356.5 412.5 L 351.5 412.5 L 347.5 412.5 L 343.5 412.5 L 338.5 412.5 L 334.5 412.5 L 329.5 412.5 L 325.5 412.5 L 321.5 412.5 L 317.5 412.5 L 312.5 412.5 L 308.5 412.5 L 303.5 412.5 L 299.5 412.5 L 295.5 412.5 L 290.5 412.5 L 286.5 412.5 L 281.5 412.5 L 277.5 412.5 L 273.5 412.5 L 268.5 412.5 L 264.5 412.5 L 260.5 412.5 L 255.5 412.5 L 251.5 412.5 L 247.5 412.5 L 242.5 412.5 L 238.5 412.5 L 233.5 412.5 L 229.5 412.5 L 225.5 412.5 L 220.5 412.5 L 216.5 412.5 L 212.5 412.5 L 207.5 412.5 L 203.5 412.5 L 199.5 412.5 L 194.5 412.5 L 190.5 412.5 L 185.5 412.5 L 181.5 412.5 L 177.5 412.5 L 172.5 412.5 L 168.5 412.5 L 164.5 412.5 L 159.5 412.5 L 155.5 412.5 L 151.5 412.5 L 146.5 412.5 L 142.5 412.5 L 137.5 412.5 L 133.5 412.5 L 129.5 412.5 L 124.5 412.5 L 120.5 412.5 L 116.5 412.5 L 111.5 412.5 L 107.5 412.5 L 103.5 412.5 L 98.5 412.5 L 94.5 412.5 L 89.5 412.5 L 85.5 412.5 L 81.5 412.5 L 76.5 412.5 L 72.5 412.5 L 68.5 412.5 L 63.5 412.5 L 59.5 412.5 L 55.5 412.5 L 50.5 412.5 L 46.5 412.5 L 42.5 412.5 L 37.5 412.5 L 33.5 412.5 L 28.5 412.5 L 24.5 412.5 L 20.5 412.5 L 15.5 412.5 L 11.5 412.5 L 7.5 412.5 L 2.5 412.5 Z" style="stroke:#000000;stroke-opacity:1; stroke-opacity: 0; stroke-width: 1; stroke-dasharray: none; stroke-linecap: butt; stroke-linejoin: miter; stroke-miterlimit: 10;fill:#67B7DC;fill-opacity:1; fill-opacity: 0.5; fill-rule: nonzero; opacity: 1" transform=" matrix(1 0 0 1 15 55) " stroke-linecap="round"  clip-path="url(#AmChartsEl-55)" /><path d="M 2.5 353.55163 L 7.5 356.04423 L 11.5 357.19489 L 15.5 364.60794 L 20.5 358.90763 L 24.5 348.99903 L 28.5 347.11266 L 33.5 344.15214 L 37.5 346.29454 L 42.5 376.347 L 46.5 378.42171 L 50.5 378.01854 L 55.5 378.76014 L 59.5 374.15751 L 63.5 369.55489 L 68.5 373.86029 L 72.5 370.47894 L 76.5 369.88743 L 81.5 372.89797 L 85.5 373.10986 L 89.5 372.00923 L 94.5 369.80503 L 98.5 370.45834 L 103.5 372.22994 L 107.5 370.75263 L 111.5 368.8486 L 116.5 366.52669 L 120.5 363.19243 L 124.5 358.50446 L 129.5 351.45926 L 133.5 344.29929 L 137.5 337.36886 L 142.5 338.47537 L 146.5 338.90797 L 151.5 338.47831 L 155.5 339.2052 L 159.5 344.17274 L 164.5 348.57231 L 168.5 354.00483 L 172.5 354.95243 L 177.5 352.1626 L 181.5 347.83071 L 185.5 350.53814 L 190.5 347.34514 L 194.5 349.49049 L 199.5 350.597 L 203.5 353.96363 L 207.5 357.92177 L 212.5 359.68454 L 216.5 360.34963 L 220.5 359.93174 L 225.5 358.04537 L 229.5 356.54746 L 233.5 352.20086 L 238.5 353.90183 L 242.5 356.86529 L 247.5 356.056 L 251.5 356.4886 L 255.5 357.35969 L 260.5 356.62397 L 264.5 359.93174 L 268.5 356.92414 L 273.5 354.00189 L 277.5 348.86071 L 281.5 342.77783 L 286.5 338.3194 L 290.5 338.36943 L 295.5 342.48943 L 299.5 346.44463 L 303.5 345.69126 L 308.5 345.03206 L 312.5 348.97549 L 317.5 352.35389 L 321.5 352.42451 L 325.5 353.81649 L 329.5 349.57583 L 334.5 344.88491 L 338.5 344.21983 L 343.5 341.45649 L 347.5 345.19097 L 351.5 346.34751 L 356.5 351.18263 L 360.5 353.67817 L 364.5 355.44977 L 369.5 350.81771 L 373.5 352.72763 L 377.5 357.04774 L 382.5 355.16726 L 386.5 352.74529 L 390.5 350.00549 L 395.5 346.08854 L 399.5 346.30631 L 404.5 347.92783 L 408.5 350.7206 L 412.5 355.50274 L 417.5 358.88114 L 421.5 362.33017 L 426.5 366.22357 L 430.5 369.89037 L 434.5 368.73089 L 439.5 363.7398 L 443.5 358.4456 L 447.5 358.23371 L 452.5 356.69166 L 456.5 357.78346 L 461.5 359.39614 L 465.5 363.5132 L 469.5 363.08354 L 474.5 361.82989 L 478.5 360.5056 L 482.5 363.58677 L 487.5 360.8764 L 491.5 358.82229 L 495.5 351.90363 L 500.5 349.73474 L 504.5 349.95546 L 509.5 349.39926 L 513.5 350.62349 L 517.5 357.67751 L 522.5 358.43971 L 526.5 359.53151 L 530.5 355.35854 L 535.5 355.79114 L 539.5 353.53691 L 543.5 346.1268 L 548.5 342.68366 L 552.5 342.32463 L 556.5 336.12403 L 561.5 335.32946 L 565.5 335.76206 L 570.5 338.83146 L 574.5 341.22989 L 578.5 342.60714 L 583.5 342.3776 L 587.5 341.48591 L 591.5 341.32111 L 596.5 337.05103 L 600.5 336.0122 L 604.5 334.36714 L 609.5 331.36543 L 613.5 336.18877 L 618.5 338.69314 L 622.5 343.387 L 626.5 343.73426 L 631.5 342.91909" style="stroke:#67B7DC;stroke-opacity:1; stroke-opacity: 0.5; stroke-width: 0; stroke-dasharray: none; stroke-linecap: butt; stroke-linejoin: round; stroke-miterlimit: 10; fill: none; fill-rule: nonzero; opacity: 1" transform=" matrix(1 0 0 1 15 55) " stroke-linecap="round"  clip-path="url(#AmChartsEl-55)" /><path d="M 2.5 266.29886 L 7.5 266.35771 L 11.5 267.60843 L 15.5 273.48826 L 20.5 264.96869 L 24.5 261.30777 L 28.5 257.90289 L 33.5 252.08191 L 37.5 258.37669 L 42.5 287.05483 L 46.5 288.76463 L 50.5 291.887 L 55.5 289.38557 L 59.5 282.74943 L 63.5 275.05091 L 68.5 278.11443 L 72.5 272.90851 L 76.5 276.8902 L 81.5 278.68534 L 85.5 276.4576 L 89.5 277.86429 L 94.5 274.68894 L 98.5 273.60303 L 103.5 278.09971 L 107.5 275.39523 L 111.5 272.03449 L 116.5 268.28823 L 120.5 263.65617 L 124.5 257.07006 L 129.5 256.05771 L 133.5 247.67351 L 137.5 238.945 L 142.5 242.88843 L 146.5 242.15566 L 151.5 237.8738 L 155.5 240.4694 L 159.5 242.4058 L 164.5 243.76246 L 168.5 245.56054 L 172.5 243.08266 L 177.5 233.02397 L 181.5 236.95857 L 185.5 236.19343 L 190.5 228.6862 L 194.5 234.22466 L 199.5 230.75797 L 203.5 226.89106 L 207.5 229.75151 L 212.5 227.36191 L 216.5 222.10597 L 220.5 219.89883 L 225.5 213.97486 L 229.5 205.47589 L 233.5 205.573 L 238.5 203.3894 L 242.5 200.48774 L 247.5 199.07811 L 251.5 195.91454 L 255.5 192.57734 L 260.5 191.0088 L 264.5 190.03177 L 268.5 181.78 L 273.5 179.14909 L 277.5 168.4312 L 281.5 155.77397 L 286.5 157.59266 L 290.5 151.75109 L 295.5 155.32666 L 299.5 156.68626 L 303.5 150.36206 L 308.5 149.26437 L 312.5 152.82229 L 317.5 150.27083 L 321.5 151.4362 L 325.5 155.34137 L 329.5 147.10726 L 334.5 140.94197 L 338.5 145.2768 L 343.5 138.75249 L 347.5 144.68529 L 351.5 142.20151 L 356.5 139.26454 L 360.5 143.09614 L 364.5 146.25677 L 369.5 136.18631 L 373.5 142.17209 L 377.5 142.84011 L 382.5 134.93854 L 386.5 133.10809 L 390.5 133.30231 L 395.5 123.43786 L 399.5 128.75266 L 404.5 128.4054 L 408.5 124.8828 L 412.5 131.48069 L 417.5 135.92146 L 421.5 134.63837 L 426.5 142.18386 L 430.5 144.25563 L 434.5 137.99323 L 439.5 132.58426 L 443.5 134.09983 L 447.5 126.89571 L 452.5 129.13523 L 456.5 131.55426 L 461.5 126.66911 L 465.5 130.80971 L 469.5 128.10817 L 474.5 121.71629 L 478.5 125.54494 L 482.5 130.25057 L 487.5 123.99111 L 491.5 121.46614 L 495.5 112.90243 L 500.5 105.90137 L 504.5 112.23734 L 509.5 113.27617 L 513.5 108.40869 L 517.5 116.87529 L 522.5 116.8694 L 526.5 113.70583 L 530.5 115.08603 L 535.5 118.40557 L 539.5 111.8224 L 543.5 108.12617 L 548.5 107.9908 L 552.5 102.64657 L 556.5 100.41 L 561.5 103.47057 L 565.5 99.3594 L 570.5 105.29809 L 574.5 106.90489 L 578.5 104.36814 L 583.5 108.44989 L 587.5 110.63349 L 591.5 105.5394 L 596.5 103.98557 L 600.5 104.53 L 604.5 98.65311 L 609.5 96.38123 L 613.5 108.18797 L 618.5 105.354 L 622.5 110.8748 L 626.5 111.16026 L 631.5 106.38106 L 631.5 342.91909 L 626.5 343.73426 L 622.5 343.387 L 618.5 338.69314 L 613.5 336.18877 L 609.5 331.36543 L 604.5 334.36714 L 600.5 336.0122 L 596.5 337.05103 L 591.5 341.32111 L 587.5 341.48591 L 583.5 342.3776 L 578.5 342.60714 L 574.5 341.22989 L 570.5 338.83146 L 565.5 335.76206 L 561.5 335.32946 L 556.5 336.12403 L 552.5 342.32463 L 548.5 342.68366 L 543.5 346.1268 L 539.5 353.53691 L 535.5 355.79114 L 530.5 355.35854 L 526.5 359.53151 L 522.5 358.43971 L 517.5 357.67751 L 513.5 350.62349 L 509.5 349.39926 L 504.5 349.95546 L 500.5 349.73474 L 495.5 351.90363 L 491.5 358.82229 L 487.5 360.8764 L 482.5 363.58677 L 478.5 360.5056 L 474.5 361.82989 L 469.5 363.08354 L 465.5 363.5132 L 461.5 359.39614 L 456.5 357.78346 L 452.5 356.69166 L 447.5 358.23371 L 443.5 358.4456 L 439.5 363.7398 L 434.5 368.73089 L 430.5 369.89037 L 426.5 366.22357 L 421.5 362.33017 L 417.5 358.88114 L 412.5 355.50274 L 408.5 350.7206 L 404.5 347.92783 L 399.5 346.30631 L 395.5 346.08854 L 390.5 350.00549 L 386.5 352.74529 L 382.5 355.16726 L 377.5 357.04774 L 373.5 352.72763 L 369.5 350.81771 L 364.5 355.44977 L 360.5 353.67817 L 356.5 351.18263 L 351.5 346.34751 L 347.5 345.19097 L 343.5 341.45649 L 338.5 344.21983 L 334.5 344.88491 L 329.5 349.57583 L 325.5 353.81649 L 321.5 352.42451 L 317.5 352.35389 L 312.5 348.97549 L 308.5 345.03206 L 303.5 345.69126 L 299.5 346.44463 L 295.5 342.48943 L 290.5 338.36943 L 286.5 338.3194 L 281.5 342.77783 L 277.5 348.86071 L 273.5 354.00189 L 268.5 356.92414 L 264.5 359.93174 L 260.5 356.62397 L 255.5 357.35969 L 251.5 356.4886 L 247.5 356.056 L 242.5 356.86529 L 238.5 353.90183 L 233.5 352.20086 L 229.5 356.54746 L 225.5 358.04537 L 220.5 359.93174 L 216.5 360.34963 L 212.5 359.68454 L 207.5 357.92177 L 203.5 353.96363 L 199.5 350.597 L 194.5 349.49049 L 190.5 347.34514 L 185.5 350.53814 L 181.5 347.83071 L 177.5 352.1626 L 172.5 354.95243 L 168.5 354.00483 L 164.5 348.57231 L 159.5 344.17274 L 155.5 339.2052 L 151.5 338.47831 L 146.5 338.90797 L 142.5 338.47537 L 137.5 337.36886 L 133.5 344.29929 L 129.5 351.45926 L 124.5 358.50446 L 120.5 363.19243 L 116.5 366.52669 L 111.5 368.8486 L 107.5 370.75263 L 103.5 372.22994 L 98.5 370.45834 L 94.5 369.80503 L 89.5 372.00923 L 85.5 373.10986 L 81.5 372.89797 L 76.5 369.88743 L 72.5 370.47894 L 68.5 373.86029 L 63.5 369.55489 L 59.5 374.15751 L 55.5 378.76014 L 50.5 378.01854 L 46.5 378.42171 L 42.5 376.347 L 37.5 346.29454 L 33.5 344.15214 L 28.5 347.11266 L 24.5 348.99903 L 20.5 358.90763 L 15.5 364.60794 L 11.5 357.19489 L 7.5 356.04423 L 2.5 353.55163 Z" style="stroke:#000000;stroke-opacity:1; stroke-opacity: 0; stroke-width: 1; stroke-dasharray: none; stroke-linecap: butt; stroke-linejoin: miter; stroke-miterlimit: 10;fill:#FDD400;fill-opacity:1; fill-opacity: 0.5; fill-rule: nonzero; opacity: 1" transform=" matrix(1 0 0 1 15 55) " stroke-linecap="round"  clip-path="url(#AmChartsEl-56)" /><path d="M 2.5 266.29886 L 7.5 266.35771 L 11.5 267.60843 L 15.5 273.48826 L 20.5 264.96869 L 24.5 261.30777 L 28.5 257.90289 L 33.5 252.08191 L 37.5 258.37669 L 42.5 287.05483 L 46.5 288.76463 L 50.5 291.887 L 55.5 289.38557 L 59.5 282.74943 L 63.5 275.05091 L 68.5 278.11443 L 72.5 272.90851 L 76.5 276.8902 L 81.5 278.68534 L 85.5 276.4576 L 89.5 277.86429 L 94.5 274.68894 L 98.5 273.60303 L 103.5 278.09971 L 107.5 275.39523 L 111.5 272.03449 L 116.5 268.28823 L 120.5 263.65617 L 124.5 257.07006 L 129.5 256.05771 L 133.5 247.67351 L 137.5 238.945 L 142.5 242.88843 L 146.5 242.15566 L 151.5 237.8738 L 155.5 240.4694 L 159.5 242.4058 L 164.5 243.76246 L 168.5 245.56054 L 172.5 243.08266 L 177.5 233.02397 L 181.5 236.95857 L 185.5 236.19343 L 190.5 228.6862 L 194.5 234.22466 L 199.5 230.75797 L 203.5 226.89106 L 207.5 229.75151 L 212.5 227.36191 L 216.5 222.10597 L 220.5 219.89883 L 225.5 213.97486 L 229.5 205.47589 L 233.5 205.573 L 238.5 203.3894 L 242.5 200.48774 L 247.5 199.07811 L 251.5 195.91454 L 255.5 192.57734 L 260.5 191.0088 L 264.5 190.03177 L 268.5 181.78 L 273.5 179.14909 L 277.5 168.4312 L 281.5 155.77397 L 286.5 157.59266 L 290.5 151.75109 L 295.5 155.32666 L 299.5 156.68626 L 303.5 150.36206 L 308.5 149.26437 L 312.5 152.82229 L 317.5 150.27083 L 321.5 151.4362 L 325.5 155.34137 L 329.5 147.10726 L 334.5 140.94197 L 338.5 145.2768 L 343.5 138.75249 L 347.5 144.68529 L 351.5 142.20151 L 356.5 139.26454 L 360.5 143.09614 L 364.5 146.25677 L 369.5 136.18631 L 373.5 142.17209 L 377.5 142.84011 L 382.5 134.93854 L 386.5 133.10809 L 390.5 133.30231 L 395.5 123.43786 L 399.5 128.75266 L 404.5 128.4054 L 408.5 124.8828 L 412.5 131.48069 L 417.5 135.92146 L 421.5 134.63837 L 426.5 142.18386 L 430.5 144.25563 L 434.5 137.99323 L 439.5 132.58426 L 443.5 134.09983 L 447.5 126.89571 L 452.5 129.13523 L 456.5 131.55426 L 461.5 126.66911 L 465.5 130.80971 L 469.5 128.10817 L 474.5 121.71629 L 478.5 125.54494 L 482.5 130.25057 L 487.5 123.99111 L 491.5 121.46614 L 495.5 112.90243 L 500.5 105.90137 L 504.5 112.23734 L 509.5 113.27617 L 513.5 108.40869 L 517.5 116.87529 L 522.5 116.8694 L 526.5 113.70583 L 530.5 115.08603 L 535.5 118.40557 L 539.5 111.8224 L 543.5 108.12617 L 548.5 107.9908 L 552.5 102.64657 L 556.5 100.41 L 561.5 103.47057 L 565.5 99.3594 L 570.5 105.29809 L 574.5 106.90489 L 578.5 104.36814 L 583.5 108.44989 L 587.5 110.63349 L 591.5 105.5394 L 596.5 103.98557 L 600.5 104.53 L 604.5 98.65311 L 609.5 96.38123 L 613.5 108.18797 L 618.5 105.354 L 622.5 110.8748 L 626.5 111.16026 L 631.5 106.38106" style="stroke:#FDD400;stroke-opacity:1; stroke-opacity: 0.5; stroke-width: 0; stroke-dasharray: none; stroke-linecap: butt; stroke-linejoin: round; stroke-miterlimit: 10; fill: none; fill-rule: nonzero; opacity: 1" transform=" matrix(1 0 0 1 15 55) " stroke-linecap="round"  clip-path="url(#AmChartsEl-56)" /><path d="M 574.5 106.16623 L 578.5 103.62654 L 583.5 107.70829 L 587.5 109.11497 L 591.5 104.01794 L 596.5 102.46117 L 600.5 103.02326 L 604.5 97.14343 L 609.5 94.8686 L 613.5 106.6724 L 618.5 103.83549 L 622.5 109.35334 L 626.5 109.65646 L 631.5 104.87431 L 631.5 106.38106 L 626.5 111.16026 L 622.5 110.8748 L 618.5 105.354 L 613.5 108.18797 L 609.5 96.38123 L 604.5 98.65311 L 600.5 104.53 L 596.5 103.98557 L 591.5 105.5394 L 587.5 110.63349 L 583.5 108.44989 L 578.5 104.36814 L 574.5 106.90489 Z" style="stroke:#000000;stroke-opacity:1; stroke-opacity: 0; stroke-width: 1; stroke-dasharray: none; stroke-linecap: butt; stroke-linejoin: miter; stroke-miterlimit: 10;fill:#0EB663;fill-opacity:1; fill-opacity: 0.5; fill-rule: nonzero; opacity: 1" transform=" matrix(1 0 0 1 15 55) " stroke-linecap="round"  clip-path="url(#AmChartsEl-57)" /><path d="M 574.5 106.16623 L 578.5 103.62654 L 583.5 107.70829 L 587.5 109.11497 L 591.5 104.01794 L 596.5 102.46117 L 600.5 103.02326 L 604.5 97.14343 L 609.5 94.8686 L 613.5 106.6724 L 618.5 103.83549 L 622.5 109.35334 L 626.5 109.65646 L 631.5 104.87431" style="stroke:#0EB663;stroke-opacity:1; stroke-opacity: 0.5; stroke-width: 0; stroke-dasharray: none; stroke-linecap: butt; stroke-linejoin: round; stroke-miterlimit: 10; fill: none; fill-rule: nonzero; opacity: 1" transform=" matrix(1 0 0 1 15 55) " stroke-linecap="round"  clip-path="url(#AmChartsEl-57)" /><path d="M 2.5 266.20763 L 7.5 266.25766 L 11.5 267.60843 L 15.5 273.48826 L 20.5 264.92454 L 24.5 260.85163 L 28.5 257.90289 L 33.5 251.92006 L 37.5 258.3502 L 42.5 287.04894 L 46.5 280.20386 L 50.5 286.28969 L 55.5 289.01771 L 59.5 282.71706 L 63.5 275.05091 L 68.5 278.11443 L 72.5 272.90851 L 76.5 276.8902 L 81.5 278.67357 L 85.5 276.4576 L 89.5 277.86429 L 94.5 274.68894 L 98.5 273.60303 L 103.5 278.09971 L 107.5 275.39523 L 111.5 272.03449 L 116.5 268.28823 L 120.5 263.65617 L 124.5 257.07006 L 129.5 256.01356999999996 L 133.5 247.65586 L 137.5 238.93029 L 142.5 242.88843 L 146.5 242.15566 L 151.5 237.71489 L 155.5 240.40466 L 159.5 242.4058 L 164.5 243.76246 L 168.5 245.53111 L 172.5 242.86489 L 177.5 233.02397 L 181.5 236.19637 L 185.5 236.19343 L 190.5 228.6656 L 194.5 234.22171 L 199.5 230.7462 L 203.5 226.89106 L 207.5 229.51314 L 212.5 227.36191 L 216.5 222.10597 L 220.5 219.89883 L 225.5 213.97486 L 229.5 205.47589 L 233.5 205.48766 L 238.5 203.3894 L 242.5 200.48774 L 247.5 198.78971 L 251.5 195.91454 L 255.5 192.55674 L 260.5 190.82634 L 264.5 190.03177 L 268.5 181.78 L 273.5 179.14909 L 277.5 168.4312 L 281.5 155.77397 L 286.5 157.51614 L 290.5 151.75109 L 295.5 155.32666 L 299.5 156.68626 L 303.5 150.36206 L 308.5 149.26437 L 312.5 152.82229 L 317.5 150.27083 L 321.5 151.28023 L 325.5 155.34137 L 329.5 147.10726 L 334.5 140.94197 L 338.5 145.2768 L 343.5 138.75249 L 347.5 144.68529 L 351.5 142.20151 L 356.5 139.26454 L 360.5 143.09614 L 364.5 146.25677 L 369.5 136.18631 L 373.5 142.16914 L 377.5 142.60469 L 382.5 134.93854 L 386.5 133.10809 L 390.5 133.30231 L 395.5 123.43786 L 399.5 128.75266 L 404.5 127.91394 L 408.5 124.8828 L 412.5 131.48069 L 417.5 135.92146 L 421.5 134.63837 L 426.5 142.18386 L 430.5 144.25563 L 434.5 137.85491 L 439.5 132.58426 L 443.5 134.09983 L 447.5 126.89571 L 452.5 129.13523 L 456.5 131.55426 L 461.5 126.66911 L 465.5 130.80971 L 469.5 128.10817 L 474.5 121.71629 L 478.5 125.54494 L 482.5 130.25057 L 487.5 123.99111 L 491.5 121.46614 L 495.5 112.90243 L 500.5 105.85429 L 504.5 112.23734 L 509.5 113.27617 L 513.5 108.21446 L 517.5 116.87529 L 522.5 116.8694 L 526.5 113.70583 L 530.5 115.08603 L 535.5 118.40557 L 539.5 111.8224 L 543.5 107.96431 L 548.5 107.9908 L 552.5 102.64657 L 556.5 100.41 L 561.5 103.47057 L 565.5 99.3594 L 570.5 105.29809 L 574.5 106.16623 L 578.5 103.20571 L 583.5 107.70829 L 587.5 109.11497 L 591.5 104.01794 L 596.5 102.46117 L 600.5 103.02326 L 604.5 97.14343 L 609.5 94.8686 L 613.5 106.6724 L 618.5 103.83549 L 622.5 108.36749 L 626.5 109.65646 L 631.5 104.87431 L 631.5 104.87431 L 626.5 109.65646 L 622.5 109.35334 L 618.5 103.83549 L 613.5 106.6724 L 609.5 94.8686 L 604.5 97.14343 L 600.5 103.02326 L 596.5 102.46117 L 591.5 104.01794 L 587.5 109.11497 L 583.5 107.70829 L 578.5 103.62654 L 574.5 106.16623 L 570.5 105.29809 L 565.5 99.3594 L 561.5 103.47057 L 556.5 100.41 L 552.5 102.64657 L 548.5 107.9908 L 543.5 108.12617 L 539.5 111.8224 L 535.5 118.40557 L 530.5 115.08603 L 526.5 113.70583 L 522.5 116.8694 L 517.5 116.87529 L 513.5 108.40869 L 509.5 113.27617 L 504.5 112.23734 L 500.5 105.90137 L 495.5 112.90243 L 491.5 121.46614 L 487.5 123.99111 L 482.5 130.25057 L 478.5 125.54494 L 474.5 121.71629 L 469.5 128.10817 L 465.5 130.80971 L 461.5 126.66911 L 456.5 131.55426 L 452.5 129.13523 L 447.5 126.89571 L 443.5 134.09983 L 439.5 132.58426 L 434.5 137.99323 L 430.5 144.25563 L 426.5 142.18386 L 421.5 134.63837 L 417.5 135.92146 L 412.5 131.48069 L 408.5 124.8828 L 404.5 128.4054 L 399.5 128.75266 L 395.5 123.43786 L 390.5 133.30231 L 386.5 133.10809 L 382.5 134.93854 L 377.5 142.84011 L 373.5 142.17209 L 369.5 136.18631 L 364.5 146.25677 L 360.5 143.09614 L 356.5 139.26454 L 351.5 142.20151 L 347.5 144.68529 L 343.5 138.75249 L 338.5 145.2768 L 334.5 140.94197 L 329.5 147.10726 L 325.5 155.34137 L 321.5 151.4362 L 317.5 150.27083 L 312.5 152.82229 L 308.5 149.26437 L 303.5 150.36206 L 299.5 156.68626 L 295.5 155.32666 L 290.5 151.75109 L 286.5 157.59266 L 281.5 155.77397 L 277.5 168.4312 L 273.5 179.14909 L 268.5 181.78 L 264.5 190.03177 L 260.5 191.0088 L 255.5 192.57734 L 251.5 195.91454 L 247.5 199.07811 L 242.5 200.48774 L 238.5 203.3894 L 233.5 205.573 L 229.5 205.47589 L 225.5 213.97486 L 220.5 219.89883 L 216.5 222.10597 L 212.5 227.36191 L 207.5 229.75151 L 203.5 226.89106 L 199.5 230.75797 L 194.5 234.22466 L 190.5 228.6862 L 185.5 236.19343 L 181.5 236.95857 L 177.5 233.02397 L 172.5 243.08266 L 168.5 245.56054 L 164.5 243.76246 L 159.5 242.4058 L 155.5 240.4694 L 151.5 237.8738 L 146.5 242.15566 L 142.5 242.88843 L 137.5 238.945 L 133.5 247.67351 L 129.5 256.05771 L 124.5 257.07006 L 120.5 263.65617 L 116.5 268.28823 L 111.5 272.03449 L 107.5 275.39523 L 103.5 278.09971 L 98.5 273.60303 L 94.5 274.68894 L 89.5 277.86429 L 85.5 276.4576 L 81.5 278.68534 L 76.5 276.8902 L 72.5 272.90851 L 68.5 278.11443 L 63.5 275.05091 L 59.5 282.74943 L 55.5 289.38557 L 50.5 291.887 L 46.5 288.76463 L 42.5 287.05483 L 37.5 258.37669 L 33.5 252.08191 L 28.5 257.90289 L 24.5 261.30777 L 20.5 264.96869 L 15.5 273.48826 L 11.5 267.60843 L 7.5 266.35771 L 2.5 266.29886 Z" style="stroke:#000000;stroke-opacity:1; stroke-opacity: 0; stroke-width: 1; stroke-dasharray: none; stroke-linecap: butt; stroke-linejoin: miter; stroke-miterlimit: 10;fill:#B92020;fill-opacity:1; fill-opacity: 0.5; fill-rule: nonzero; opacity: 1" transform=" matrix(1 0 0 1 15 55) " stroke-linecap="round"  clip-path="url(#AmChartsEl-58)" /><path d="M 2.5 266.20763 L 7.5 266.25766 L 11.5 267.60843 L 15.5 273.48826 L 20.5 264.92454 L 24.5 260.85163 L 28.5 257.90289 L 33.5 251.92006 L 37.5 258.3502 L 42.5 287.04894 L 46.5 280.20386 L 50.5 286.28969 L 55.5 289.01771 L 59.5 282.71706 L 63.5 275.05091 L 68.5 278.11443 L 72.5 272.90851 L 76.5 276.8902 L 81.5 278.67357 L 85.5 276.4576 L 89.5 277.86429 L 94.5 274.68894 L 98.5 273.60303 L 103.5 278.09971 L 107.5 275.39523 L 111.5 272.03449 L 116.5 268.28823 L 120.5 263.65617 L 124.5 257.07006 L 129.5 256.01356999999996 L 133.5 247.65586 L 137.5 238.93029 L 142.5 242.88843 L 146.5 242.15566 L 151.5 237.71489 L 155.5 240.40466 L 159.5 242.4058 L 164.5 243.76246 L 168.5 245.53111 L 172.5 242.86489 L 177.5 233.02397 L 181.5 236.19637 L 185.5 236.19343 L 190.5 228.6656 L 194.5 234.22171 L 199.5 230.7462 L 203.5 226.89106 L 207.5 229.51314 L 212.5 227.36191 L 216.5 222.10597 L 220.5 219.89883 L 225.5 213.97486 L 229.5 205.47589 L 233.5 205.48766 L 238.5 203.3894 L 242.5 200.48774 L 247.5 198.78971 L 251.5 195.91454 L 255.5 192.55674 L 260.5 190.82634 L 264.5 190.03177 L 268.5 181.78 L 273.5 179.14909 L 277.5 168.4312 L 281.5 155.77397 L 286.5 157.51614 L 290.5 151.75109 L 295.5 155.32666 L 299.5 156.68626 L 303.5 150.36206 L 308.5 149.26437 L 312.5 152.82229 L 317.5 150.27083 L 321.5 151.28023 L 325.5 155.34137 L 329.5 147.10726 L 334.5 140.94197 L 338.5 145.2768 L 343.5 138.75249 L 347.5 144.68529 L 351.5 142.20151 L 356.5 139.26454 L 360.5 143.09614 L 364.5 146.25677 L 369.5 136.18631 L 373.5 142.16914 L 377.5 142.60469 L 382.5 134.93854 L 386.5 133.10809 L 390.5 133.30231 L 395.5 123.43786 L 399.5 128.75266 L 404.5 127.91394 L 408.5 124.8828 L 412.5 131.48069 L 417.5 135.92146 L 421.5 134.63837 L 426.5 142.18386 L 430.5 144.25563 L 434.5 137.85491 L 439.5 132.58426 L 443.5 134.09983 L 447.5 126.89571 L 452.5 129.13523 L 456.5 131.55426 L 461.5 126.66911 L 465.5 130.80971 L 469.5 128.10817 L 474.5 121.71629 L 478.5 125.54494 L 482.5 130.25057 L 487.5 123.99111 L 491.5 121.46614 L 495.5 112.90243 L 500.5 105.85429 L 504.5 112.23734 L 509.5 113.27617 L 513.5 108.21446 L 517.5 116.87529 L 522.5 116.8694 L 526.5 113.70583 L 530.5 115.08603 L 535.5 118.40557 L 539.5 111.8224 L 543.5 107.96431 L 548.5 107.9908 L 552.5 102.64657 L 556.5 100.41 L 561.5 103.47057 L 565.5 99.3594 L 570.5 105.29809 L 574.5 106.16623 L 578.5 103.20571 L 583.5 107.70829 L 587.5 109.11497 L 591.5 104.01794 L 596.5 102.46117 L 600.5 103.02326 L 604.5 97.14343 L 609.5 94.8686 L 613.5 106.6724 L 618.5 103.83549 L 622.5 108.36749 L 626.5 109.65646 L 631.5 104.87431" style="stroke:#B92020;stroke-opacity:1; stroke-opacity: 0.5; stroke-width: 0; stroke-dasharray: none; stroke-linecap: butt; stroke-linejoin: round; stroke-miterlimit: 10; fill: none; fill-rule: nonzero; opacity: 1" transform=" matrix(1 0 0 1 15 55) " stroke-linecap="round"  clip-path="url(#AmChartsEl-58)" /><path d="M 2.5 266.20763 L 7.5 266.25766 L 11.5 257.99117 L 15.5 257.073 L 20.5 256.0636 L 24.5 257.97646 L 28.5 252.87354 L 33.5 251.92006 L 37.5 247.05551 L 42.5 213.38334 L 46.5 181.27971 L 50.5 182.32737 L 55.5 181.05017 L 59.5 175.91489 L 63.5 174.24334 L 68.5 191.59443 L 72.5 202.2976 L 76.5 189.58446 L 81.5 181.42686 L 85.5 191.0294 L 89.5 190.19657 L 94.5 192.44786 L 98.5 195.04346 L 103.5 203.42471 L 107.5 204.15749 L 111.5 203.89557 L 116.5 203.41294 L 120.5 205.02857 L 124.5 218.66577 L 129.5 238.53006 L 133.5 238.99797 L 137.5 238.93029 L 142.5 242.88843 L 146.5 242.15566 L 151.5 237.71489 L 155.5 234.33649 L 159.5 242.4058 L 164.5 243.76246 L 168.5 245.53111 L 172.5 242.86489 L 177.5 230.30477 L 181.5 236.19637 L 185.5 236.19343 L 190.5 228.6656 L 194.5 234.22171 L 199.5 230.36069 L 203.5 226.89106 L 207.5 225.25189 L 212.5 227.36191 L 216.5 222.10597 L 220.5 213.17734 L 225.5 212.17089 L 229.5 205.47589 L 233.5 205.48766 L 238.5 203.3894 L 242.5 200.48774 L 247.5 198.78971 L 251.5 194.23417 L 255.5 192.55674 L 260.5 185.41737 L 264.5 186.64454 L 268.5 180.79709 L 273.5 175.36163 L 277.5 168.4312 L 281.5 155.77397 L 286.5 155.75043 L 290.5 151.75109 L 295.5 155.32666 L 299.5 156.68626 L 303.5 150.36206 L 308.5 149.26437 L 312.5 146.33034 L 317.5 150.27083 L 321.5 151.28023 L 325.5 155.34137 L 329.5 147.10726 L 334.5 140.94197 L 338.5 145.2768 L 343.5 138.75249 L 347.5 144.68529 L 351.5 140.43874 L 356.5 139.26454 L 360.5 141.04497 L 364.5 138.11977 L 369.5 136.18631 L 373.5 140.09737 L 377.5 142.60469 L 382.5 134.93854 L 386.5 133.10809 L 390.5 133.30231 L 395.5 116.76934 L 399.5 124.8004 L 404.5 127.91394 L 408.5 116.34851 L 412.5 119.41203 L 417.5 118.0024 L 421.5 119.92997 L 426.5 124.23537 L 430.5 123.64974 L 434.5 117.24609 L 439.5 111.97543 L 443.5 109.165 L 447.5 100.44826 L 452.5 108.52346 L 456.5 106.53703 L 461.5 106.06617 L 465.5 110.20383 L 469.5 103.75014 L 474.5 101.15749 L 478.5 104.93906 L 482.5 109.6594 L 487.5 103.38229 L 491.5 100.85731 L 495.5 92.38483 L 500.5 83.81817 L 504.5 91.63146 L 509.5 92.67323 L 513.5 86.42554 L 517.5 93.90629 L 522.5 88.97406 L 526.5 87.82634 L 530.5 90.63971 L 535.5 95.14229 L 539.5 87.37903 L 543.5 83.51506 L 548.5 84.80991 L 552.5 76.4728 L 556.5 75.08377 L 561.5 78.14434 L 565.5 75.49871 L 570.5 81.14017 L 574.5 74.75711 L 578.5 75.57229 L 583.5 79.13314 L 587.5 79.65991 L 591.5 74.55111 L 596.5 72.10854 L 600.5 72.95314 L 604.5 67.7384 L 609.5 62.76497 L 613.5 72.51171 L 618.5 67.92969 L 622.5 70.65477 L 626.5 63.99509 L 631.5 66.35231 L 631.5 104.87431 L 626.5 109.65646 L 622.5 108.36749 L 618.5 103.83549 L 613.5 106.6724 L 609.5 94.8686 L 604.5 97.14343 L 600.5 103.02326 L 596.5 102.46117 L 591.5 104.01794 L 587.5 109.11497 L 583.5 107.70829 L 578.5 103.20571 L 574.5 106.16623 L 570.5 105.29809 L 565.5 99.3594 L 561.5 103.47057 L 556.5 100.41 L 552.5 102.64657 L 548.5 107.9908 L 543.5 107.96431 L 539.5 111.8224 L 535.5 118.40557 L 530.5 115.08603 L 526.5 113.70583 L 522.5 116.8694 L 517.5 116.87529 L 513.5 108.21446 L 509.5 113.27617 L 504.5 112.23734 L 500.5 105.85429 L 495.5 112.90243 L 491.5 121.46614 L 487.5 123.99111 L 482.5 130.25057 L 478.5 125.54494 L 474.5 121.71629 L 469.5 128.10817 L 465.5 130.80971 L 461.5 126.66911 L 456.5 131.55426 L 452.5 129.13523 L 447.5 126.89571 L 443.5 134.09983 L 439.5 132.58426 L 434.5 137.85491 L 430.5 144.25563 L 426.5 142.18386 L 421.5 134.63837 L 417.5 135.92146 L 412.5 131.48069 L 408.5 124.8828 L 404.5 127.91394 L 399.5 128.75266 L 395.5 123.43786 L 390.5 133.30231 L 386.5 133.10809 L 382.5 134.93854 L 377.5 142.60469 L 373.5 142.16914 L 369.5 136.18631 L 364.5 146.25677 L 360.5 143.09614 L 356.5 139.26454 L 351.5 142.20151 L 347.5 144.68529 L 343.5 138.75249 L 338.5 145.2768 L 334.5 140.94197 L 329.5 147.10726 L 325.5 155.34137 L 321.5 151.28023 L 317.5 150.27083 L 312.5 152.82229 L 308.5 149.26437 L 303.5 150.36206 L 299.5 156.68626 L 295.5 155.32666 L 290.5 151.75109 L 286.5 157.51614 L 281.5 155.77397 L 277.5 168.4312 L 273.5 179.14909 L 268.5 181.78 L 264.5 190.03177 L 260.5 190.82634 L 255.5 192.55674 L 251.5 195.91454 L 247.5 198.78971 L 242.5 200.48774 L 238.5 203.3894 L 233.5 205.48766 L 229.5 205.47589 L 225.5 213.97486 L 220.5 219.89883 L 216.5 222.10597 L 212.5 227.36191 L 207.5 229.51314 L 203.5 226.89106 L 199.5 230.7462 L 194.5 234.22171 L 190.5 228.6656 L 185.5 236.19343 L 181.5 236.19637 L 177.5 233.02397 L 172.5 242.86489 L 168.5 245.53111 L 164.5 243.76246 L 159.5 242.4058 L 155.5 240.40466 L 151.5 237.71489 L 146.5 242.15566 L 142.5 242.88843 L 137.5 238.93029 L 133.5 247.65586 L 129.5 256.01356999999996 L 124.5 257.07006 L 120.5 263.65617 L 116.5 268.28823 L 111.5 272.03449 L 107.5 275.39523 L 103.5 278.09971 L 98.5 273.60303 L 94.5 274.68894 L 89.5 277.86429 L 85.5 276.4576 L 81.5 278.67357 L 76.5 276.8902 L 72.5 272.90851 L 68.5 278.11443 L 63.5 275.05091 L 59.5 282.71706 L 55.5 289.01771 L 50.5 286.28969 L 46.5 280.20386 L 42.5 287.04894 L 37.5 258.3502 L 33.5 251.92006 L 28.5 257.90289 L 24.5 260.85163 L 20.5 264.92454 L 15.5 273.48826 L 11.5 267.60843 L 7.5 266.25766 L 2.5 266.20763 Z" style="stroke:#000000;stroke-opacity:1; stroke-opacity: 0; stroke-width: 1; stroke-dasharray: none; stroke-linecap: butt; stroke-linejoin: miter; stroke-miterlimit: 10;fill:#F6871E;fill-opacity:1; fill-opacity: 0.5; fill-rule: nonzero; opacity: 1" transform=" matrix(1 0 0 1 15 55) " stroke-linecap="round"  clip-path="url(#AmChartsEl-59)" /><path d="M 2.5 266.20763 L 7.5 266.25766 L 11.5 257.99117 L 15.5 257.073 L 20.5 256.0636 L 24.5 257.97646 L 28.5 252.87354 L 33.5 251.92006 L 37.5 247.05551 L 42.5 213.38334 L 46.5 181.27971 L 50.5 182.32737 L 55.5 181.05017 L 59.5 175.91489 L 63.5 174.24334 L 68.5 191.59443 L 72.5 202.2976 L 76.5 189.58446 L 81.5 181.42686 L 85.5 191.0294 L 89.5 190.19657 L 94.5 192.44786 L 98.5 195.04346 L 103.5 203.42471 L 107.5 204.15749 L 111.5 203.89557 L 116.5 203.41294 L 120.5 205.02857 L 124.5 218.66577 L 129.5 238.53006 L 133.5 238.99797 L 137.5 238.93029 L 142.5 242.88843 L 146.5 242.15566 L 151.5 237.71489 L 155.5 234.33649 L 159.5 242.4058 L 164.5 243.76246 L 168.5 245.53111 L 172.5 242.86489 L 177.5 230.30477 L 181.5 236.19637 L 185.5 236.19343 L 190.5 228.6656 L 194.5 234.22171 L 199.5 230.36069 L 203.5 226.89106 L 207.5 225.25189 L 212.5 227.36191 L 216.5 222.10597 L 220.5 213.17734 L 225.5 212.17089 L 229.5 205.47589 L 233.5 205.48766 L 238.5 203.3894 L 242.5 200.48774 L 247.5 198.78971 L 251.5 194.23417 L 255.5 192.55674 L 260.5 185.41737 L 264.5 186.64454 L 268.5 180.79709 L 273.5 175.36163 L 277.5 168.4312 L 281.5 155.77397 L 286.5 155.75043 L 290.5 151.75109 L 295.5 155.32666 L 299.5 156.68626 L 303.5 150.36206 L 308.5 149.26437 L 312.5 146.33034 L 317.5 150.27083 L 321.5 151.28023 L 325.5 155.34137 L 329.5 147.10726 L 334.5 140.94197 L 338.5 145.2768 L 343.5 138.75249 L 347.5 144.68529 L 351.5 140.43874 L 356.5 139.26454 L 360.5 141.04497 L 364.5 138.11977 L 369.5 136.18631 L 373.5 140.09737 L 377.5 142.60469 L 382.5 134.93854 L 386.5 133.10809 L 390.5 133.30231 L 395.5 116.76934 L 399.5 124.8004 L 404.5 127.91394 L 408.5 116.34851 L 412.5 119.41203 L 417.5 118.0024 L 421.5 119.92997 L 426.5 124.23537 L 430.5 123.64974 L 434.5 117.24609 L 439.5 111.97543 L 443.5 109.165 L 447.5 100.44826 L 452.5 108.52346 L 456.5 106.53703 L 461.5 106.06617 L 465.5 110.20383 L 469.5 103.75014 L 474.5 101.15749 L 478.5 104.93906 L 482.5 109.6594 L 487.5 103.38229 L 491.5 100.85731 L 495.5 92.38483 L 500.5 83.81817 L 504.5 91.63146 L 509.5 92.67323 L 513.5 86.42554 L 517.5 93.90629 L 522.5 88.97406 L 526.5 87.82634 L 530.5 90.63971 L 535.5 95.14229 L 539.5 87.37903 L 543.5 83.51506 L 548.5 84.80991 L 552.5 76.4728 L 556.5 75.08377 L 561.5 78.14434 L 565.5 75.49871 L 570.5 81.14017 L 574.5 74.75711 L 578.5 75.57229 L 583.5 79.13314 L 587.5 79.65991 L 591.5 74.55111 L 596.5 72.10854 L 600.5 72.95314 L 604.5 67.7384 L 609.5 62.76497 L 613.5 72.51171 L 618.5 67.92969 L 622.5 70.65477 L 626.5 63.99509 L 631.5 66.35231" style="stroke:#F6871E;stroke-opacity:1; stroke-opacity: 0.5; stroke-width: 0; stroke-dasharray: none; stroke-linecap: butt; stroke-linejoin: round; stroke-miterlimit: 10; fill: none; fill-rule: nonzero; opacity: 1" transform=" matrix(1 0 0 1 15 55) " stroke-linecap="round"  clip-path="url(#AmChartsEl-59)" /><path d="M 2.5 265.36009 L 7.5 265.39834 L 11.5 257.22014 L 15.5 256.31962999999996 L 20.5 255.31023 L 24.5 257.20837 L 28.5 252.12017 L 33.5 251.15786 L 37.5 246.29037 L 42.5 212.35923 L 46.5 180.22911 L 50.5 181.23851 L 55.5 180.29091 L 59.5 175.14974 L 63.5 173.4782 L 68.5 190.84989 L 72.5 201.55894 L 76.5 188.80754 L 81.5 180.61169 L 85.5 190.23189 L 89.5 189.37846 L 94.5 191.62091 L 98.5 194.2018 L 103.5 202.51537 L 107.5 203.27463 L 111.5 202.98917 L 116.5 202.49771 L 120.5 204.10157 L 124.5 217.727 L 129.5 237.57363 L 133.5 238.03566 L 137.5 237.95031 L 142.5 241.9114 L 146.5 241.17569 L 151.5 236.73491 L 155.5 233.32709 L 159.5 240.40466 L 164.5 241.74954 L 168.5 243.51231 L 172.5 240.82843 L 177.5 228.22417 L 181.5 234.05103 L 185.5 234.0628 L 190.5 226.51143 L 194.5 232.22351 L 199.5 228.33894 L 203.5 224.834 L 207.5 223.43026 L 212.5 225.54323 L 216.5 220.23431 L 220.5 211.2998 L 225.5 210.24331 L 229.5 203.52183 L 233.5 203.616 L 238.5 201.51774 L 242.5 198.62786 L 247.5 196.95337 L 251.5 192.36546 L 255.5 190.67037 L 260.5 183.52511 L 264.5 184.75817 L 268.5 178.90483 L 273.5 173.28986 L 277.5 166.3506 L 281.5 153.69926 L 286.5 153.45206 L 290.5 149.52629 L 295.5 153.05771 L 299.5 154.279 L 303.5 147.94009 L 308.5 146.83063 L 312.5 143.79949 L 317.5 147.65169 L 321.5 148.65814 L 325.5 152.80169 L 329.5 144.56463 L 334.5 138.39051 L 338.5 142.7636 L 343.5 136.23634 L 347.5 142.1868 L 351.5 137.97851 L 356.5 136.78077 L 360.5 138.54649 L 364.5 135.54183 L 369.5 133.50537 L 373.5 137.39583 L 377.5 139.87077 L 382.5 132.21051 L 386.5 130.33003 L 390.5 130.42126 L 395.5 113.81766 L 399.5 121.78986 L 404.5 124.924 L 408.5 113.35857 L 412.5 116.40149 L 417.5 114.84471 L 421.5 116.71343 L 426.5 121.03649 L 430.5 120.57446 L 434.5 114.19729 L 439.5 108.85306 L 443.5 106.21331 L 447.5 97.47009 L 452.5 105.4776 L 456.5 103.49117 L 461.5 102.99089 L 465.5 107.12266 L 469.5 100.2452 L 474.5 97.6496 L 478.5 101.40763 L 482.5 105.972 L 487.5 99.74491 L 491.5 97.24054 L 495.5 88.98583 L 500.5 80.49274 L 504.5 88.31191 L 509.5 89.08589 L 513.5 82.83526 L 517.5 90.2954 L 522.5 85.54269 L 526.5 84.3832 L 530.5 87.14949 L 535.5 91.57554 L 539.5 83.83289 L 543.5 79.98951 L 548.5 81.07543 L 552.5 72.75009 L 556.5 71.35811 L 561.5 74.3304 L 565.5 71.64946 L 570.5 77.27031 L 574.5 70.96966 L 578.5 71.64357 L 583.5 75.18383 L 587.5 75.9166 L 591.5 70.80191 L 596.5 68.37111 L 600.5 69.39817 L 604.5 64.17754 L 609.5 59.20117 L 613.5 68.98911 L 618.5 64.41003 L 622.5 67.13806 L 626.5 60.41363 L 631.5 62.73554 L 631.5 66.35231 L 626.5 63.99509 L 622.5 70.65477 L 618.5 67.92969 L 613.5 72.51171 L 609.5 62.76497 L 604.5 67.7384 L 600.5 72.95314 L 596.5 72.10854 L 591.5 74.55111 L 587.5 79.65991 L 583.5 79.13314 L 578.5 75.57229 L 574.5 74.75711 L 570.5 81.14017 L 565.5 75.49871 L 561.5 78.14434 L 556.5 75.08377 L 552.5 76.4728 L 548.5 84.80991 L 543.5 83.51506 L 539.5 87.37903 L 535.5 95.14229 L 530.5 90.63971 L 526.5 87.82634 L 522.5 88.97406 L 517.5 93.90629 L 513.5 86.42554 L 509.5 92.67323 L 504.5 91.63146 L 500.5 83.81817 L 495.5 92.38483 L 491.5 100.85731 L 487.5 103.38229 L 482.5 109.6594 L 478.5 104.93906 L 474.5 101.15749 L 469.5 103.75014 L 465.5 110.20383 L 461.5 106.06617 L 456.5 106.53703 L 452.5 108.52346 L 447.5 100.44826 L 443.5 109.165 L 439.5 111.97543 L 434.5 117.24609 L 430.5 123.64974 L 426.5 124.23537 L 421.5 119.92997 L 417.5 118.0024 L 412.5 119.41203 L 408.5 116.34851 L 404.5 127.91394 L 399.5 124.8004 L 395.5 116.76934 L 390.5 133.30231 L 386.5 133.10809 L 382.5 134.93854 L 377.5 142.60469 L 373.5 140.09737 L 369.5 136.18631 L 364.5 138.11977 L 360.5 141.04497 L 356.5 139.26454 L 351.5 140.43874 L 347.5 144.68529 L 343.5 138.75249 L 338.5 145.2768 L 334.5 140.94197 L 329.5 147.10726 L 325.5 155.34137 L 321.5 151.28023 L 317.5 150.27083 L 312.5 146.33034 L 308.5 149.26437 L 303.5 150.36206 L 299.5 156.68626 L 295.5 155.32666 L 290.5 151.75109 L 286.5 155.75043 L 281.5 155.77397 L 277.5 168.4312 L 273.5 175.36163 L 268.5 180.79709 L 264.5 186.64454 L 260.5 185.41737 L 255.5 192.55674 L 251.5 194.23417 L 247.5 198.78971 L 242.5 200.48774 L 238.5 203.3894 L 233.5 205.48766 L 229.5 205.47589 L 225.5 212.17089 L 220.5 213.17734 L 216.5 222.10597 L 212.5 227.36191 L 207.5 225.25189 L 203.5 226.89106 L 199.5 230.36069 L 194.5 234.22171 L 190.5 228.6656 L 185.5 236.19343 L 181.5 236.19637 L 177.5 230.30477 L 172.5 242.86489 L 168.5 245.53111 L 164.5 243.76246 L 159.5 242.4058 L 155.5 234.33649 L 151.5 237.71489 L 146.5 242.15566 L 142.5 242.88843 L 137.5 238.93029 L 133.5 238.99797 L 129.5 238.53006 L 124.5 218.66577 L 120.5 205.02857 L 116.5 203.41294 L 111.5 203.89557 L 107.5 204.15749 L 103.5 203.42471 L 98.5 195.04346 L 94.5 192.44786 L 89.5 190.19657 L 85.5 191.0294 L 81.5 181.42686 L 76.5 189.58446 L 72.5 202.2976 L 68.5 191.59443 L 63.5 174.24334 L 59.5 175.91489 L 55.5 181.05017 L 50.5 182.32737 L 46.5 181.27971 L 42.5 213.38334 L 37.5 247.05551 L 33.5 251.92006 L 28.5 252.87354 L 24.5 257.97646 L 20.5 256.0636 L 15.5 257.073 L 11.5 257.99117 L 7.5 266.25766 L 2.5 266.20763 Z" style="stroke:#000000;stroke-opacity:1; stroke-opacity: 0; stroke-width: 1; stroke-dasharray: none; stroke-linecap: butt; stroke-linejoin: miter; stroke-miterlimit: 10;fill:#A92C90;fill-opacity:1; fill-opacity: 0.5; fill-rule: nonzero; opacity: 1" transform=" matrix(1 0 0 1 15 55) " stroke-linecap="round"  clip-path="url(#AmChartsEl-60)" /><path d="M 2.5 265.36009 L 7.5 265.39834 L 11.5 257.22014 L 15.5 256.31962999999996 L 20.5 255.31023 L 24.5 257.20837 L 28.5 252.12017 L 33.5 251.15786 L 37.5 246.29037 L 42.5 212.35923 L 46.5 180.22911 L 50.5 181.23851 L 55.5 180.29091 L 59.5 175.14974 L 63.5 173.4782 L 68.5 190.84989 L 72.5 201.55894 L 76.5 188.80754 L 81.5 180.61169 L 85.5 190.23189 L 89.5 189.37846 L 94.5 191.62091 L 98.5 194.2018 L 103.5 202.51537 L 107.5 203.27463 L 111.5 202.98917 L 116.5 202.49771 L 120.5 204.10157 L 124.5 217.727 L 129.5 237.57363 L 133.5 238.03566 L 137.5 237.95031 L 142.5 241.9114 L 146.5 241.17569 L 151.5 236.73491 L 155.5 233.32709 L 159.5 240.40466 L 164.5 241.74954 L 168.5 243.51231 L 172.5 240.82843 L 177.5 228.22417 L 181.5 234.05103 L 185.5 234.0628 L 190.5 226.51143 L 194.5 232.22351 L 199.5 228.33894 L 203.5 224.834 L 207.5 223.43026 L 212.5 225.54323 L 216.5 220.23431 L 220.5 211.2998 L 225.5 210.24331 L 229.5 203.52183 L 233.5 203.616 L 238.5 201.51774 L 242.5 198.62786 L 247.5 196.95337 L 251.5 192.36546 L 255.5 190.67037 L 260.5 183.52511 L 264.5 184.75817 L 268.5 178.90483 L 273.5 173.28986 L 277.5 166.3506 L 281.5 153.69926 L 286.5 153.45206 L 290.5 149.52629 L 295.5 153.05771 L 299.5 154.279 L 303.5 147.94009 L 308.5 146.83063 L 312.5 143.79949 L 317.5 147.65169 L 321.5 148.65814 L 325.5 152.80169 L 329.5 144.56463 L 334.5 138.39051 L 338.5 142.7636 L 343.5 136.23634 L 347.5 142.1868 L 351.5 137.97851 L 356.5 136.78077 L 360.5 138.54649 L 364.5 135.54183 L 369.5 133.50537 L 373.5 137.39583 L 377.5 139.87077 L 382.5 132.21051 L 386.5 130.33003 L 390.5 130.42126 L 395.5 113.81766 L 399.5 121.78986 L 404.5 124.924 L 408.5 113.35857 L 412.5 116.40149 L 417.5 114.84471 L 421.5 116.71343 L 426.5 121.03649 L 430.5 120.57446 L 434.5 114.19729 L 439.5 108.85306 L 443.5 106.21331 L 447.5 97.47009 L 452.5 105.4776 L 456.5 103.49117 L 461.5 102.99089 L 465.5 107.12266 L 469.5 100.2452 L 474.5 97.6496 L 478.5 101.40763 L 482.5 105.972 L 487.5 99.74491 L 491.5 97.24054 L 495.5 88.98583 L 500.5 80.49274 L 504.5 88.31191 L 509.5 89.08589 L 513.5 82.83526 L 517.5 90.2954 L 522.5 85.54269 L 526.5 84.3832 L 530.5 87.14949 L 535.5 91.57554 L 539.5 83.83289 L 543.5 79.98951 L 548.5 81.07543 L 552.5 72.75009 L 556.5 71.35811 L 561.5 74.3304 L 565.5 71.64946 L 570.5 77.27031 L 574.5 70.96966 L 578.5 71.64357 L 583.5 75.18383 L 587.5 75.9166 L 591.5 70.80191 L 596.5 68.37111 L 600.5 69.39817 L 604.5 64.17754 L 609.5 59.20117 L 613.5 68.98911 L 618.5 64.41003 L 622.5 67.13806 L 626.5 60.41363 L 631.5 62.73554" style="stroke:#A92C90;stroke-opacity:1; stroke-opacity: 0.5; stroke-width: 0; stroke-dasharray: none; stroke-linecap: butt; stroke-linejoin: round; stroke-miterlimit: 10; fill: none; fill-rule: nonzero; opacity: 1" transform=" matrix(1 0 0 1 15 55) " stroke-linecap="round"  clip-path="url(#AmChartsEl-60)" /><path d="M 0.5 412.5 L 633.5 412.5 L 633.5 412.5" style="stroke:#000000;stroke-opacity:1; stroke-opacity: 0.2; stroke-width: 1; stroke-dasharray: none; stroke-linecap: butt; stroke-linejoin: miter; stroke-miterlimit: 10; fill: none; fill-rule: nonzero; opacity: 1" transform=" matrix(1 0 0 1 15 55) " stroke-linecap="round" /><path d="M 0.5 0.5 L 633.5 0.5" style="stroke:#000000;stroke-opacity:1; stroke-opacity: 0.3; stroke-width: 1; stroke-dasharray: none; stroke-linecap: butt; stroke-linejoin: miter; stroke-miterlimit: 10; fill: none; fill-rule: nonzero; opacity: 1" transform=" matrix(1 0 0 1 15 467) " stroke-linecap="round" /><path d="M 0.5 0.5 L 0.5 412.5 L 0.5 412.5" style="stroke:#000000;stroke-opacity:1; stroke-opacity: 0; stroke-width: 1; stroke-dasharray: none; stroke-linecap: butt; stroke-linejoin: miter; stroke-miterlimit: 10; fill: none; fill-rule: nonzero; opacity: 1" transform=" matrix(1 0 0 1 648 55) " stroke-linecap="round" /><path d="M 0.5 0.5 L 0.5 412.5" style="stroke:#000000;stroke-opacity:1; stroke-opacity: 0; stroke-width: 1; stroke-dasharray: none; stroke-linecap: butt; stroke-linejoin: miter; stroke-miterlimit: 10; fill: none; fill-rule: nonzero; opacity: 0" transform=" matrix(1 0 0 1 15 55) " stroke-linecap="round" /><g  clip-path="url(#AmChartsEl-54)" ><path d="M 0.5 0.5 L 0.5 0.5 L 0.5 412.5" style="stroke:#000000;stroke-opacity:1; stroke-opacity: 0; stroke-width: 1; stroke-dasharray: none; stroke-linecap: butt; stroke-linejoin: miter; stroke-miterlimit: 10; fill: none; fill-rule: nonzero; opacity: 0" transform=" matrix(1 0 0 1 15 55) " stroke-linecap="round" /></g><g  clip-path="url(#AmChartsEl-54)" ><path d="M 0.5 0.5 L 633.5 0.5 L 633.5 0.5" style="stroke:#000000;stroke-opacity:1; stroke-opacity: 0; stroke-width: 1; stroke-dasharray: none; stroke-linecap: butt; stroke-linejoin: miter; stroke-miterlimit: 10; fill: none; fill-rule: nonzero; opacity: 0" transform=" matrix(1 0 0 1 15 55) " stroke-linecap="round" /></g><g transform=" matrix(1 0 0 1 332 20) "><text xml:space="preserve" font-family="Open Sans, sans serif" font-size="14" font-weight="bold" style="stroke: none; stroke-width: 1; stroke-dasharray: none; stroke-linecap: butt; stroke-linejoin: miter; stroke-miterlimit: 10;fill:#3E3F68;fill-opacity:1; fill-rule: nonzero; opacity: 1; white-space: pre" ><tspan x="-152.45" y="9.02" fill="rgba(62,63,104,1)">Chart 3: Bank of Canada assets (month end)</tspan></text></g><g transform=" matrix(1 0 0 1 18 480) "><text xml:space="preserve" font-family="Open Sans, sans serif" font-size="12" font-weight="normal" style="stroke: none; stroke-width: 1; stroke-dasharray: none; stroke-linecap: butt; stroke-linejoin: miter; stroke-miterlimit: 10;fill:#3E3F68;fill-opacity:1; fill-rule: nonzero; opacity: 1; white-space: pre" ><tspan x="0.5" y="7.66" fill="rgba(62,63,104,1)">2008</tspan></text></g><g transform=" matrix(1 0 0 1 123 480) "><text xml:space="preserve" font-family="Open Sans, sans serif" font-size="12" font-weight="normal" style="stroke: none; stroke-width: 1; stroke-dasharray: none; stroke-linecap: butt; stroke-linejoin: miter; stroke-miterlimit: 10;fill:#3E3F68;fill-opacity:1; fill-rule: nonzero; opacity: 1; white-space: pre" ><tspan x="0.5" y="7.66" fill="rgba(62,63,104,1)">2010</tspan></text></g><g transform=" matrix(1 0 0 1 228 480) "><text xml:space="preserve" font-family="Open Sans, sans serif" font-size="12" font-weight="normal" style="stroke: none; stroke-width: 1; stroke-dasharray: none; stroke-linecap: butt; stroke-linejoin: miter; stroke-miterlimit: 10;fill:#3E3F68;fill-opacity:1; fill-rule: nonzero; opacity: 1; white-space: pre" ><tspan x="0.5" y="7.66" fill="rgba(62,63,104,1)">2012</tspan></text></g><g transform=" matrix(1 0 0 1 332 480) "><text xml:space="preserve" font-family="Open Sans, sans serif" font-size="12" font-weight="normal" style="stroke: none; stroke-width: 1; stroke-dasharray: none; stroke-linecap: butt; stroke-linejoin: miter; stroke-miterlimit: 10;fill:#3E3F68;fill-opacity:1; fill-rule: nonzero; opacity: 1; white-space: pre" ><tspan x="0.5" y="7.66" fill="rgba(62,63,104,1)">2014</tspan></text></g><g transform=" matrix(1 0 0 1 437 480) "><text xml:space="preserve" font-family="Open Sans, sans serif" font-size="12" font-weight="normal" style="stroke: none; stroke-width: 1; stroke-dasharray: none; stroke-linecap: butt; stroke-linejoin: miter; stroke-miterlimit: 10;fill:#3E3F68;fill-opacity:1; fill-rule: nonzero; opacity: 1; white-space: pre" ><tspan x="0.5" y="7.66" fill="rgba(62,63,104,1)">2016</tspan></text></g><g transform=" matrix(1 0 0 1 542 480) "><text xml:space="preserve" font-family="Open Sans, sans serif" font-size="12" font-weight="normal" style="stroke: none; stroke-width: 1; stroke-dasharray: none; stroke-linecap: butt; stroke-linejoin: miter; stroke-miterlimit: 10;fill:#3E3F68;fill-opacity:1; fill-rule: nonzero; opacity: 1; white-space: pre" ><tspan x="0.5" y="7.66" fill="rgba(62,63,104,1)">2018</tspan></text></g><g transform=" matrix(1 0 0 1 647 480) "><text xml:space="preserve" font-family="Open Sans, sans serif" font-size="12" font-weight="normal" style="stroke: none; stroke-width: 1; stroke-dasharray: none; stroke-linecap: butt; stroke-linejoin: miter; stroke-miterlimit: 10;fill:#3E3F68;fill-opacity:1; fill-rule: nonzero; opacity: 1; white-space: pre" ><tspan x="0.5" y="7.66" fill="rgba(62,63,104,1)">2020</tspan></text></g><g transform=" matrix(1 0 0 1 658 464.3333330154419) "><text xml:space="preserve" font-family="Open Sans, sans serif" font-size="12" font-weight="normal" style="stroke: none; stroke-width: 1; stroke-dasharray: none; stroke-linecap: butt; stroke-linejoin: miter; stroke-miterlimit: 10;fill:#3E3F68;fill-opacity:1; fill-rule: nonzero; opacity: 1; white-space: pre" ><tspan x="0.5" y="7.66" fill="rgba(62,63,104,1)">0</tspan></text></g><g transform=" matrix(1 0 0 1 658 405.3333330154419) "><text xml:space="preserve" font-family="Open Sans, sans serif" font-size="12" font-weight="normal" style="stroke: none; stroke-width: 1; stroke-dasharray: none; stroke-linecap: butt; stroke-linejoin: miter; stroke-miterlimit: 10;fill:#3E3F68;fill-opacity:1; fill-rule: nonzero; opacity: 1; white-space: pre" ><tspan x="0.5" y="7.66" fill="rgba(62,63,104,1)">20,000</tspan></text></g><g transform=" matrix(1 0 0 1 658 346.3333330154419) "><text xml:space="preserve" font-family="Open Sans, sans serif" font-size="12" font-weight="normal" style="stroke: none; stroke-width: 1; stroke-dasharray: none; stroke-linecap: butt; stroke-linejoin: miter; stroke-miterlimit: 10;fill:#3E3F68;fill-opacity:1; fill-rule: nonzero; opacity: 1; white-space: pre" ><tspan x="0.5" y="7.66" fill="rgba(62,63,104,1)">40,000</tspan></text></g><g transform=" matrix(1 0 0 1 658 287.3333330154419) "><text xml:space="preserve" font-family="Open Sans, sans serif" font-size="12" font-weight="normal" style="stroke: none; stroke-width: 1; stroke-dasharray: none; stroke-linecap: butt; stroke-linejoin: miter; stroke-miterlimit: 10;fill:#3E3F68;fill-opacity:1; fill-rule: nonzero; opacity: 1; white-space: pre" ><tspan x="0.5" y="7.66" fill="rgba(62,63,104,1)">60,000</tspan></text></g><g transform=" matrix(1 0 0 1 658 229.3333330154419) "><text xml:space="preserve" font-family="Open Sans, sans serif" font-size="12" font-weight="normal" style="stroke: none; stroke-width: 1; stroke-dasharray: none; stroke-linecap: butt; stroke-linejoin: miter; stroke-miterlimit: 10;fill:#3E3F68;fill-opacity:1; fill-rule: nonzero; opacity: 1; white-space: pre" ><tspan x="0.5" y="7.66" fill="rgba(62,63,104,1)">80,000</tspan></text></g><g transform=" matrix(1 0 0 1 658 170.3333330154419) "><text xml:space="preserve" font-family="Open Sans, sans serif" font-size="12" font-weight="normal" style="stroke: none; stroke-width: 1; stroke-dasharray: none; stroke-linecap: butt; stroke-linejoin: miter; stroke-miterlimit: 10;fill:#3E3F68;fill-opacity:1; fill-rule: nonzero; opacity: 1; white-space: pre" ><tspan x="0.5" y="7.66" fill="rgba(62,63,104,1)">100,000</tspan></text></g><g transform=" matrix(1 0 0 1 658 111.3333330154419) "><text xml:space="preserve" font-family="Open Sans, sans serif" font-size="12" font-weight="normal" style="stroke: none; stroke-width: 1; stroke-dasharray: none; stroke-linecap: butt; stroke-linejoin: miter; stroke-miterlimit: 10;fill:#3E3F68;fill-opacity:1; fill-rule: nonzero; opacity: 1; white-space: pre" ><tspan x="0.5" y="7.66" fill="rgba(62,63,104,1)">120,000</tspan></text></g><g transform=" matrix(1 0 0 1 658 52.333333015441895) "><text xml:space="preserve" font-family="Open Sans, sans serif" font-size="12" font-weight="normal" style="stroke: none; stroke-width: 1; stroke-dasharray: none; stroke-linecap: butt; stroke-linejoin: miter; stroke-miterlimit: 10;fill:#3E3F68;fill-opacity:1; fill-rule: nonzero; opacity: 1; white-space: pre" ><tspan x="0.5" y="7.66" fill="rgba(62,63,104,1)">140,000</tspan></text></g><g transform=" matrix(6.123233995736766e-17 -1 1 6.123233995736766e-17 721 261) "><text xml:space="preserve" font-family="Open Sans, sans serif" font-size="13" font-weight="bold" style="stroke: none; stroke-width: 1; stroke-dasharray: none; stroke-linecap: butt; stroke-linejoin: miter; stroke-miterlimit: 10;fill:#3E3F68;fill-opacity:1; fill-rule: nonzero; opacity: 1; white-space: pre" ><tspan x="-28.04" y="8.84" fill="rgba(62,63,104,1)">$ million</tspan></text></g></g><g style="stroke: none; stroke-width: 1; stroke-dasharray: none; stroke-linecap: butt; stroke-linejoin: miter; stroke-miterlimit: 10; fill: none; fill-rule: nonzero; opacity: 1" transform="translate(0 500)" ><path d="M 0.5 0.5 L 709.5 0.5 L 709.5 97.5 L 0.5 97.5 Z" style="stroke:#000000;stroke-opacity:1; stroke-opacity: 0; stroke-width: 1; stroke-dasharray: none; stroke-linecap: butt; stroke-linejoin: miter; stroke-miterlimit: 10;fill:#FFFFFF;fill-opacity:1; fill-opacity: 0; fill-rule: nonzero; opacity: 1" transform=" matrix(1 0 0 1 20 0) " stroke-linecap="round" /><circle cx="0" cy="0" r="8" style="stroke:#67B7DC;stroke-opacity:1; stroke-width: 1; stroke-dasharray: none; stroke-linecap: butt; stroke-linejoin: miter; stroke-miterlimit: 10;fill:#67B7DC;fill-opacity:1; fill-opacity: 0.5; fill-rule: nonzero; opacity: 1" transform="  matrix(1 0 0 1 111 19) "/><path d="M -5.5 -5.5 L 6.5 6.5" style="stroke:#FFFFFF;stroke-opacity:1; stroke-opacity: 0; stroke-width: 3; stroke-dasharray: none; stroke-linecap: butt; stroke-linejoin: miter; stroke-miterlimit: 10; fill: none; fill-rule: nonzero; opacity: 0" transform=" matrix(1 0 0 1 111 19) " stroke-linecap="round" /><path d="M -5.5 6.5 L 6.5 -5.5" style="stroke:#FFFFFF;stroke-opacity:1; stroke-opacity: 0; stroke-width: 3; stroke-dasharray: none; stroke-linecap: butt; stroke-linejoin: miter; stroke-miterlimit: 10; fill: none; fill-rule: nonzero; opacity: 0" transform=" matrix(1 0 0 1 111 19) " stroke-linecap="round" /><g transform=" matrix(1 0 0 1 124 18) "><text xml:space="preserve" font-family="Open Sans, sans serif" font-size="12" font-weight="normal" style="stroke: none; stroke-width: 1; stroke-dasharray: none; stroke-linecap: butt; stroke-linejoin: miter; stroke-miterlimit: 10;fill:#000000;fill-opacity:1; fill-rule: nonzero; opacity: 1; white-space: pre" ><tspan x="0.5" y="7.66" fill="rgba(0,0,0,1)">Treasury bills</tspan></text></g><rect x="16" y="0" rx="0" ry="0" width="242.75" height="19" style="stroke: none; stroke-width: 0; stroke-dasharray: none; stroke-linecap: butt; stroke-linejoin: miter; stroke-miterlimit: 10;fill:#FFFFFF;fill-opacity:1; fill-opacity: 0.005; fill-rule: nonzero; opacity: 1" transform=" matrix(1 0 0 1 103 11) "/><circle cx="0" cy="0" r="8" style="stroke:#FDD400;stroke-opacity:1; stroke-width: 1; stroke-dasharray: none; stroke-linecap: butt; stroke-linejoin: miter; stroke-miterlimit: 10;fill:#FDD400;fill-opacity:1; fill-opacity: 0.5; fill-rule: nonzero; opacity: 1" transform="  matrix(1 0 0 1 390 19) "/><path d="M -5.5 -5.5 L 6.5 6.5" style="stroke:#FFFFFF;stroke-opacity:1; stroke-opacity: 0; stroke-width: 3; stroke-dasharray: none; stroke-linecap: butt; stroke-linejoin: miter; stroke-miterlimit: 10; fill: none; fill-rule: nonzero; opacity: 0" transform=" matrix(1 0 0 1 390 19) " stroke-linecap="round" /><path d="M -5.5 6.5 L 6.5 -5.5" style="stroke:#FFFFFF;stroke-opacity:1; stroke-opacity: 0; stroke-width: 3; stroke-dasharray: none; stroke-linecap: butt; stroke-linejoin: miter; stroke-miterlimit: 10; fill: none; fill-rule: nonzero; opacity: 0" transform=" matrix(1 0 0 1 390 19) " stroke-linecap="round" /><g transform=" matrix(1 0 0 1 403 18) "><text xml:space="preserve" font-family="Open Sans, sans serif" font-size="12" font-weight="normal" style="stroke: none; stroke-width: 1; stroke-dasharray: none; stroke-linecap: butt; stroke-linejoin: miter; stroke-miterlimit: 10;fill:#000000;fill-opacity:1; fill-rule: nonzero; opacity: 1; white-space: pre" ><tspan x="0.5" y="7.66" fill="rgba(0,0,0,1)">Government of Canada bonds</tspan></text></g><rect x="16" y="0" rx="0" ry="0" width="242.75" height="19" style="stroke: none; stroke-width: 0; stroke-dasharray: none; stroke-linecap: butt; stroke-linejoin: miter; stroke-miterlimit: 10;fill:#FFFFFF;fill-opacity:1; fill-opacity: 0.005; fill-rule: nonzero; opacity: 1" transform=" matrix(1 0 0 1 382 11) "/><circle cx="0" cy="0" r="8" style="stroke:#0EB663;stroke-opacity:1; stroke-width: 1; stroke-dasharray: none; stroke-linecap: butt; stroke-linejoin: miter; stroke-miterlimit: 10;fill:#0EB663;fill-opacity:1; fill-opacity: 0.5; fill-rule: nonzero; opacity: 1" transform="  matrix(1 0 0 1 111 48) "/><path d="M -5.5 -5.5 L 6.5 6.5" style="stroke:#FFFFFF;stroke-opacity:1; stroke-opacity: 0; stroke-width: 3; stroke-dasharray: none; stroke-linecap: butt; stroke-linejoin: miter; stroke-miterlimit: 10; fill: none; fill-rule: nonzero; opacity: 0" transform=" matrix(1 0 0 1 111 48) " stroke-linecap="round" /><path d="M -5.5 6.5 L 6.5 -5.5" style="stroke:#FFFFFF;stroke-opacity:1; stroke-opacity: 0; stroke-width: 3; stroke-dasharray: none; stroke-linecap: butt; stroke-linejoin: miter; stroke-miterlimit: 10; fill: none; fill-rule: nonzero; opacity: 0" transform=" matrix(1 0 0 1 111 48) " stroke-linecap="round" /><g transform=" matrix(1 0 0 1 124 47) "><text xml:space="preserve" font-family="Open Sans, sans serif" font-size="12" font-weight="normal" style="stroke: none; stroke-width: 1; stroke-dasharray: none; stroke-linecap: butt; stroke-linejoin: miter; stroke-miterlimit: 10;fill:#000000;fill-opacity:1; fill-rule: nonzero; opacity: 1; white-space: pre" ><tspan x="0.5" y="7.66" fill="rgba(0,0,0,1)">Canada Mortgage Bonds</tspan></text></g><rect x="16" y="0" rx="0" ry="0" width="242.75" height="19" style="stroke: none; stroke-width: 0; stroke-dasharray: none; stroke-linecap: butt; stroke-linejoin: miter; stroke-miterlimit: 10;fill:#FFFFFF;fill-opacity:1; fill-opacity: 0.005; fill-rule: nonzero; opacity: 1" transform=" matrix(1 0 0 1 103 40) "/><circle cx="0" cy="0" r="8" style="stroke:#B92020;stroke-opacity:1; stroke-width: 1; stroke-dasharray: none; stroke-linecap: butt; stroke-linejoin: miter; stroke-miterlimit: 10;fill:#B92020;fill-opacity:1; fill-opacity: 0.5; fill-rule: nonzero; opacity: 1" transform="  matrix(1 0 0 1 390 48) "/><path d="M -5.5 -5.5 L 6.5 6.5" style="stroke:#FFFFFF;stroke-opacity:1; stroke-opacity: 0; stroke-width: 3; stroke-dasharray: none; stroke-linecap: butt; stroke-linejoin: miter; stroke-miterlimit: 10; fill: none; fill-rule: nonzero; opacity: 0" transform=" matrix(1 0 0 1 390 48) " stroke-linecap="round" /><path d="M -5.5 6.5 L 6.5 -5.5" style="stroke:#FFFFFF;stroke-opacity:1; stroke-opacity: 0; stroke-width: 3; stroke-dasharray: none; stroke-linecap: butt; stroke-linejoin: miter; stroke-miterlimit: 10; fill: none; fill-rule: nonzero; opacity: 0" transform=" matrix(1 0 0 1 390 48) " stroke-linecap="round" /><g transform=" matrix(1 0 0 1 403 47) "><text xml:space="preserve" font-family="Open Sans, sans serif" font-size="12" font-weight="normal" style="stroke: none; stroke-width: 1; stroke-dasharray: none; stroke-linecap: butt; stroke-linejoin: miter; stroke-miterlimit: 10;fill:#000000;fill-opacity:1; fill-rule: nonzero; opacity: 1; white-space: pre" ><tspan x="0.5" y="7.66" fill="rgba(0,0,0,1)">Advances to members of Payments Canada</tspan></text></g><rect x="16" y="0" rx="0" ry="0" width="242.75" height="19" style="stroke: none; stroke-width: 0; stroke-dasharray: none; stroke-linecap: butt; stroke-linejoin: miter; stroke-miterlimit: 10;fill:#FFFFFF;fill-opacity:1; fill-opacity: 0.005; fill-rule: nonzero; opacity: 1" transform=" matrix(1 0 0 1 382 40) "/><circle cx="0" cy="0" r="8" style="stroke:#F6871E;stroke-opacity:1; stroke-width: 1; stroke-dasharray: none; stroke-linecap: butt; stroke-linejoin: miter; stroke-miterlimit: 10;fill:#F6871E;fill-opacity:1; fill-opacity: 0.5; fill-rule: nonzero; opacity: 1" transform="  matrix(1 0 0 1 111 78) "/><path d="M -5.5 -5.5 L 6.5 6.5" style="stroke:#FFFFFF;stroke-opacity:1; stroke-opacity: 0; stroke-width: 3; stroke-dasharray: none; stroke-linecap: butt; stroke-linejoin: miter; stroke-miterlimit: 10; fill: none; fill-rule: nonzero; opacity: 0" transform=" matrix(1 0 0 1 111 78) " stroke-linecap="round" /><path d="M -5.5 6.5 L 6.5 -5.5" style="stroke:#FFFFFF;stroke-opacity:1; stroke-opacity: 0; stroke-width: 3; stroke-dasharray: none; stroke-linecap: butt; stroke-linejoin: miter; stroke-miterlimit: 10; fill: none; fill-rule: nonzero; opacity: 0" transform=" matrix(1 0 0 1 111 78) " stroke-linecap="round" /><g transform=" matrix(1 0 0 1 124 77) "><text xml:space="preserve" font-family="Open Sans, sans serif" font-size="12" font-weight="normal" style="stroke: none; stroke-width: 1; stroke-dasharray: none; stroke-linecap: butt; stroke-linejoin: miter; stroke-miterlimit: 10;fill:#000000;fill-opacity:1; fill-rule: nonzero; opacity: 1; white-space: pre" ><tspan x="0.5" y="7.66" fill="rgba(0,0,0,1)">Repos</tspan></text></g><rect x="16" y="0" rx="0" ry="0" width="242.75" height="19" style="stroke: none; stroke-width: 0; stroke-dasharray: none; stroke-linecap: butt; stroke-linejoin: miter; stroke-miterlimit: 10;fill:#FFFFFF;fill-opacity:1; fill-opacity: 0.005; fill-rule: nonzero; opacity: 1" transform=" matrix(1 0 0 1 103 70) "/><circle cx="0" cy="0" r="8" style="stroke:#A92C90;stroke-opacity:1; stroke-width: 1; stroke-dasharray: none; stroke-linecap: butt; stroke-linejoin: miter; stroke-miterlimit: 10;fill:#A92C90;fill-opacity:1; fill-opacity: 0.5; fill-rule: nonzero; opacity: 1" transform="  matrix(1 0 0 1 390 78) "/><path d="M -5.5 -5.5 L 6.5 6.5" style="stroke:#FFFFFF;stroke-opacity:1; stroke-opacity: 0; stroke-width: 3; stroke-dasharray: none; stroke-linecap: butt; stroke-linejoin: miter; stroke-miterlimit: 10; fill: none; fill-rule: nonzero; opacity: 0" transform=" matrix(1 0 0 1 390 78) " stroke-linecap="round" /><path d="M -5.5 6.5 L 6.5 -5.5" style="stroke:#FFFFFF;stroke-opacity:1; stroke-opacity: 0; stroke-width: 3; stroke-dasharray: none; stroke-linecap: butt; stroke-linejoin: miter; stroke-miterlimit: 10; fill: none; fill-rule: nonzero; opacity: 0" transform=" matrix(1 0 0 1 390 78) " stroke-linecap="round" /><g transform=" matrix(1 0 0 1 403 77) "><text xml:space="preserve" font-family="Open Sans, sans serif" font-size="12" font-weight="normal" style="stroke: none; stroke-width: 1; stroke-dasharray: none; stroke-linecap: butt; stroke-linejoin: miter; stroke-miterlimit: 10;fill:#000000;fill-opacity:1; fill-rule: nonzero; opacity: 1; white-space: pre" ><tspan x="0.5" y="7.66" fill="rgba(0,0,0,1)">All other assets</tspan></text></g><rect x="16" y="0" rx="0" ry="0" width="242.75" height="19" style="stroke: none; stroke-width: 0; stroke-dasharray: none; stroke-linecap: butt; stroke-linejoin: miter; stroke-miterlimit: 10;fill:#FFFFFF;fill-opacity:1; fill-opacity: 0.005; fill-rule: nonzero; opacity: 1" transform=" matrix(1 0 0 1 382 70) "/></g><clipPath xmlns="http://www.w3.org/2000/svg" id="AmChartsEl-55"><rect x="0" y="0" width="633" height="412" rx="0" ry="0" stroke-width="0" fill="none" fill-opacity="0"/></clipPath><clipPath xmlns="http://www.w3.org/2000/svg" id="AmChartsEl-56"><rect x="0" y="0" width="633" height="412" rx="0" ry="0" stroke-width="0" fill="none" fill-opacity="0"/></clipPath><clipPath xmlns="http://www.w3.org/2000/svg" id="AmChartsEl-57"><rect x="0" y="0" width="633" height="412" rx="0" ry="0" stroke-width="0" fill="none" fill-opacity="0"/></clipPath><clipPath xmlns="http://www.w3.org/2000/svg" id="AmChartsEl-58"><rect x="0" y="0" width="633" height="412" rx="0" ry="0" stroke-width="0" fill="none" fill-opacity="0"/></clipPath><clipPath xmlns="http://www.w3.org/2000/svg" id="AmChartsEl-59"><rect x="0" y="0" width="633" height="412" rx="0" ry="0" stroke-width="0" fill="none" fill-opacity="0"/></clipPath><clipPath xmlns="http://www.w3.org/2000/svg" id="AmChartsEl-60"><rect x="0" y="0" width="633" height="412" rx="0" ry="0" stroke-width="0" fill="none" fill-opacity="0"/></clipPath><clipPath xmlns="http://www.w3.org/2000/svg" id="AmChartsEl-54"><rect x="0" y="0" width="633" height="412" rx="0" ry="0" stroke-width="0" fill="none" fill-opacity="0"/></clipPath></svg>