<?xml version="1.0" encoding="UTF-8" standalone="no" ?><!DOCTYPE svg PUBLIC "-//W3C//DTD SVG 1.1//EN" "http://www.w3.org/Graphics/SVG/1.1/DTD/svg11.dtd"><svg xmlns="http://www.w3.org/2000/svg" xmlns:xlink="http://www.w3.org/1999/xlink" version="1.1" width="750" height="598" viewBox="0 0 750 598" xml:space="preserve"><desc>Created with Fabric.js 1.7.19</desc><defs></defs><rect x="0" y="0" width="750" height="598" fill="#FFFFFF"></rect><g style="stroke: none; stroke-width: 1; stroke-dasharray: none; stroke-linecap: butt; stroke-linejoin: miter; stroke-miterlimit: 10; fill: none; fill-rule: nonzero; opacity: 1" transform="translate(0 0)" ><path d="M 0.5 0.5 L 749.5 0.5 L 749.5 499.5 L 0.5 499.5 Z" style="stroke:#000000;stroke-opacity:1; stroke-opacity: 0; stroke-width: 1; stroke-dasharray: none; stroke-linecap: butt; stroke-linejoin: miter; stroke-miterlimit: 10;fill:#FFFFFF;fill-opacity:1; fill-opacity: 0; fill-rule: nonzero; opacity: 1" transform="" stroke-linecap="round" /><path d="M 0.5 0.5 L 633.5 0.5 L 633.5 412.5 L 0.5 412.5 L 0.5 0.5 Z" style="stroke:#000000;stroke-opacity:1; stroke-opacity: 0; stroke-width: 1; stroke-dasharray: none; stroke-linecap: butt; stroke-linejoin: miter; stroke-miterlimit: 10;fill:#FFFFFF;fill-opacity:1; fill-opacity: 0; fill-rule: nonzero; opacity: 1" transform=" matrix(1 0 0 1 15 55) " stroke-linecap="round" /><path d="M 0.5 0.5 L 0.5 5.5" style="stroke:#000000;stroke-opacity:1; stroke-opacity: 0.3; stroke-width: 1; stroke-dasharray: none; stroke-linecap: butt; stroke-linejoin: miter; stroke-miterlimit: 10; fill: none; fill-rule: nonzero; opacity: 1" transform=" matrix(1 0 0 1 15 467) " stroke-linecap="round" /><path d="M 0.5 412.5 L 0.5 412.5 L 0.5 0.5" style="stroke:#000000;stroke-opacity:1; stroke-opacity: 0.1; stroke-width: 1; stroke-dasharray: 1 1; stroke-linecap: butt; stroke-linejoin: miter; stroke-miterlimit: 10; fill: none; fill-rule: nonzero; opacity: 1" transform=" matrix(1 0 0 1 15 55) " stroke-linecap="round" /><path d="M 105.5 0.5 L 105.5 5.5" style="stroke:#000000;stroke-opacity:1; stroke-opacity: 0.3; stroke-width: 1; stroke-dasharray: none; stroke-linecap: butt; stroke-linejoin: miter; stroke-miterlimit: 10; fill: none; fill-rule: nonzero; opacity: 1" transform=" matrix(1 0 0 1 15 467) " stroke-linecap="round" /><path d="M 105.5 412.5 L 105.5 412.5 L 105.5 0.5" style="stroke:#000000;stroke-opacity:1; stroke-opacity: 0.1; stroke-width: 1; stroke-dasharray: 1 1; stroke-linecap: butt; stroke-linejoin: miter; stroke-miterlimit: 10; fill: none; fill-rule: nonzero; opacity: 1" transform=" matrix(1 0 0 1 15 55) " stroke-linecap="round" /><path d="M 210.5 0.5 L 210.5 5.5" style="stroke:#000000;stroke-opacity:1; stroke-opacity: 0.3; stroke-width: 1; stroke-dasharray: none; stroke-linecap: butt; stroke-linejoin: miter; stroke-miterlimit: 10; fill: none; fill-rule: nonzero; opacity: 1" transform=" matrix(1 0 0 1 15 467) " stroke-linecap="round" /><path d="M 210.5 412.5 L 210.5 412.5 L 210.5 0.5" style="stroke:#000000;stroke-opacity:1; stroke-opacity: 0.1; stroke-width: 1; stroke-dasharray: 1 1; stroke-linecap: butt; stroke-linejoin: miter; stroke-miterlimit: 10; fill: none; fill-rule: nonzero; opacity: 1" transform=" matrix(1 0 0 1 15 55) " stroke-linecap="round" /><path d="M 314.5 0.5 L 314.5 5.5" style="stroke:#000000;stroke-opacity:1; stroke-opacity: 0.3; stroke-width: 1; stroke-dasharray: none; stroke-linecap: butt; stroke-linejoin: miter; stroke-miterlimit: 10; fill: none; fill-rule: nonzero; opacity: 1" transform=" matrix(1 0 0 1 15 467) " stroke-linecap="round" /><path d="M 314.5 412.5 L 314.5 412.5 L 314.5 0.5" style="stroke:#000000;stroke-opacity:1; stroke-opacity: 0.1; stroke-width: 1; stroke-dasharray: 1 1; stroke-linecap: butt; stroke-linejoin: miter; stroke-miterlimit: 10; fill: none; fill-rule: nonzero; opacity: 1" transform=" matrix(1 0 0 1 15 55) " stroke-linecap="round" /><path d="M 419.5 0.5 L 419.5 5.5" style="stroke:#000000;stroke-opacity:1; stroke-opacity: 0.3; stroke-width: 1; stroke-dasharray: none; stroke-linecap: butt; stroke-linejoin: miter; stroke-miterlimit: 10; fill: none; fill-rule: nonzero; opacity: 1" transform=" matrix(1 0 0 1 15 467) " stroke-linecap="round" /><path d="M 419.5 412.5 L 419.5 412.5 L 419.5 0.5" style="stroke:#000000;stroke-opacity:1; stroke-opacity: 0.1; stroke-width: 1; stroke-dasharray: 1 1; stroke-linecap: butt; stroke-linejoin: miter; stroke-miterlimit: 10; fill: none; fill-rule: nonzero; opacity: 1" transform=" matrix(1 0 0 1 15 55) " stroke-linecap="round" /><path d="M 524.5 0.5 L 524.5 5.5" style="stroke:#000000;stroke-opacity:1; stroke-opacity: 0.3; stroke-width: 1; stroke-dasharray: none; stroke-linecap: butt; stroke-linejoin: miter; stroke-miterlimit: 10; fill: none; fill-rule: nonzero; opacity: 1" transform=" matrix(1 0 0 1 15 467) " stroke-linecap="round" /><path d="M 524.5 412.5 L 524.5 412.5 L 524.5 0.5" style="stroke:#000000;stroke-opacity:1; stroke-opacity: 0.1; stroke-width: 1; stroke-dasharray: 1 1; stroke-linecap: butt; stroke-linejoin: miter; stroke-miterlimit: 10; fill: none; fill-rule: nonzero; opacity: 1" transform=" matrix(1 0 0 1 15 55) " stroke-linecap="round" /><path d="M 629.5 0.5 L 629.5 5.5" style="stroke:#000000;stroke-opacity:1; stroke-opacity: 0.3; stroke-width: 1; stroke-dasharray: none; stroke-linecap: butt; stroke-linejoin: miter; stroke-miterlimit: 10; fill: none; fill-rule: nonzero; opacity: 1" transform=" matrix(1 0 0 1 15 467) " stroke-linecap="round" /><path d="M 629.5 412.5 L 629.5 412.5 L 629.5 0.5" style="stroke:#000000;stroke-opacity:1; stroke-opacity: 0.1; stroke-width: 1; stroke-dasharray: 1 1; stroke-linecap: butt; stroke-linejoin: miter; stroke-miterlimit: 10; fill: none; fill-rule: nonzero; opacity: 1" transform=" matrix(1 0 0 1 15 55) " stroke-linecap="round" /><path d="M 0.5 412.5 L 0.5 412.5 L 633.5 412.5" style="stroke:#000000;stroke-opacity:1; stroke-opacity: 0.1; stroke-width: 1; stroke-dasharray: none; stroke-linecap: butt; stroke-linejoin: miter; stroke-miterlimit: 10; fill: none; fill-rule: nonzero; opacity: 1" transform=" matrix(1 0 0 1 15 55) " stroke-linecap="round" /><path d="M 0.5 353.5 L 0.5 353.5 L 633.5 353.5" style="stroke:#000000;stroke-opacity:1; stroke-opacity: 0.1; stroke-width: 1; stroke-dasharray: none; stroke-linecap: butt; stroke-linejoin: miter; stroke-miterlimit: 10; fill: none; fill-rule: nonzero; opacity: 1" transform=" matrix(1 0 0 1 15 55) " stroke-linecap="round" /><path d="M 0.5 294.5 L 0.5 294.5 L 633.5 294.5" style="stroke:#000000;stroke-opacity:1; stroke-opacity: 0.1; stroke-width: 1; stroke-dasharray: none; stroke-linecap: butt; stroke-linejoin: miter; stroke-miterlimit: 10; fill: none; fill-rule: nonzero; opacity: 1" transform=" matrix(1 0 0 1 15 55) " stroke-linecap="round" /><path d="M 0.5 235.5 L 0.5 235.5 L 633.5 235.5" style="stroke:#000000;stroke-opacity:1; stroke-opacity: 0.1; stroke-width: 1; stroke-dasharray: none; stroke-linecap: butt; stroke-linejoin: miter; stroke-miterlimit: 10; fill: none; fill-rule: nonzero; opacity: 1" transform=" matrix(1 0 0 1 15 55) " stroke-linecap="round" /><path d="M 0.5 177.5 L 0.5 177.5 L 633.5 177.5" style="stroke:#000000;stroke-opacity:1; stroke-opacity: 0.1; stroke-width: 1; stroke-dasharray: none; stroke-linecap: butt; stroke-linejoin: miter; stroke-miterlimit: 10; fill: none; fill-rule: nonzero; opacity: 1" transform=" matrix(1 0 0 1 15 55) " stroke-linecap="round" /><path d="M 0.5 118.5 L 0.5 118.5 L 633.5 118.5" style="stroke:#000000;stroke-opacity:1; stroke-opacity: 0.1; stroke-width: 1; stroke-dasharray: none; stroke-linecap: butt; stroke-linejoin: miter; stroke-miterlimit: 10; fill: none; fill-rule: nonzero; opacity: 1" transform=" matrix(1 0 0 1 15 55) " stroke-linecap="round" /><path d="M 0.5 59.5 L 0.5 59.5 L 633.5 59.5" style="stroke:#000000;stroke-opacity:1; stroke-opacity: 0.1; stroke-width: 1; stroke-dasharray: none; stroke-linecap: butt; stroke-linejoin: miter; stroke-miterlimit: 10; fill: none; fill-rule: nonzero; opacity: 1" transform=" matrix(1 0 0 1 15 55) " stroke-linecap="round" /><path d="M 0.5 0.5 L 0.5 0.5 L 633.5 0.5" style="stroke:#000000;stroke-opacity:1; stroke-opacity: 0.1; stroke-width: 1; stroke-dasharray: none; stroke-linecap: butt; stroke-linejoin: miter; stroke-miterlimit: 10; fill: none; fill-rule: nonzero; opacity: 1" transform=" matrix(1 0 0 1 15 55) " stroke-linecap="round" /><path d="M 2.5 272.97326 L 7.5 273.21751 L 11.5 272.71134 L 15.5 270.76023 L 20.5 268.72377 L 24.5 265.23943 L 28.5 264.40366 L 33.5 263.10291 L 37.5 264.76857 L 42.5 262.09646 L 46.5 261.19006 L 50.5 254.37734 L 55.5 261.86691 L 59.5 262.10234 L 63.5 261.96109 L 68.5 259.53323 L 72.5 258.13831 L 76.5 255.04831 L 81.5 254.395 L 85.5 256.03123 L 89.5 256.1666 L 94.5 255.68691 L 98.5 255.68986 L 103.5 249.2656 L 107.5 257.11714 L 111.5 257.15246 L 116.5 255.78697 L 120.5 256.0636 L 124.5 253.68283 L 129.5 249.83651 L 133.5 249.43334 L 137.5 250.5016 L 142.5 250.22791 L 146.5 249.8836 L 151.5 249.61286 L 155.5 242.18509 L 159.5 251.08429 L 164.5 251.27851 L 168.5 251.38151 L 172.5 249.33034 L 177.5 247.63526 L 181.5 243.44463 L 185.5 242.83251 L 190.5 242.8178 L 194.5 243.07677 L 199.5 242.29103 L 203.5 240.51354 L 207.5 232.90037 L 212.5 242.48231 L 216.5 243.20331 L 220.5 241.73777 L 225.5 240.62537 L 229.5 237.89146 L 233.5 234.03043 L 238.5 234.95743 L 242.5 233.20643 L 247.5 234.92211 L 251.5 234.3718 L 255.5 233.26529 L 260.5 225.04 L 264.5 234.86326 L 268.5 235.08103 L 273.5 233.22114 L 277.5 232.25 L 281.5 230.07523 L 286.5 226.1318 L 290.5 226.3584 L 295.5 224.32489 L 299.5 226.11414 L 303.5 225.05177 L 308.5 223.9276 L 312.5 216.45863 L 317.5 224.937 L 321.5 224.9782 L 325.5 224.53971 L 329.5 221.63217 L 334.5 219.63986 L 338.5 215.5434 L 343.5 215.06077 L 347.5 213.7924 L 351.5 215.35506 L 356.5 214.21029 L 360.5 213.55109 L 364.5 206.42937 L 369.5 214.33094 L 373.5 213.36274 L 377.5 211.29686 L 382.5 209.49289 L 386.5 207.3858 L 390.5 202.2976 L 395.5 200.33766 L 399.5 200.59369 L 404.5 199.46363 L 408.5 198.88683 L 412.5 197.97749 L 417.5 190.32311 L 421.5 198.06577 L 426.5 198.12757 L 430.5 195.96163 L 434.5 194.58437 L 439.5 190.51146 L 443.5 187.26843 L 447.5 186.24431 L 452.5 186.00889 L 456.5 186.02066 L 461.5 185.30849 L 465.5 183.76054 L 469.5 175.6618 L 474.5 184.87 L 478.5 184.89354 L 482.5 183.56337 L 487.5 180.338 L 491.5 175.11443 L 495.5 169.94677 L 500.5 170.83846 L 504.5 169.30229 L 509.5 170.91497 L 513.5 169.84377 L 517.5 169.21106 L 522.5 159.83806 L 526.5 171.07683 L 530.5 171.2328 L 535.5 168.35763 L 539.5 168.06629 L 543.5 164.0434 L 548.5 159.22594 L 552.5 157.93991 L 556.5 153.49031 L 561.5 153.33729 L 565.5 156.94523 L 570.5 156.2154 L 574.5 147.07489 L 578.5 158.16357 L 583.5 158.44903 L 587.5 157.83986 L 591.5 154.13186 L 596.5 151.38617 L 600.5 146.54223 L 604.5 146.2656 L 609.5 145.28563 L 613.5 148.25497 L 618.5 147.46334 L 622.5 147.03663 L 626.5 138.53766 L 631.5 149.14077 L 631.5 412.5 L 626.5 412.5 L 622.5 412.5 L 618.5 412.5 L 613.5 412.5 L 609.5 412.5 L 604.5 412.5 L 600.5 412.5 L 596.5 412.5 L 591.5 412.5 L 587.5 412.5 L 583.5 412.5 L 578.5 412.5 L 574.5 412.5 L 570.5 412.5 L 565.5 412.5 L 561.5 412.5 L 556.5 412.5 L 552.5 412.5 L 548.5 412.5 L 543.5 412.5 L 539.5 412.5 L 535.5 412.5 L 530.5 412.5 L 526.5 412.5 L 522.5 412.5 L 517.5 412.5 L 513.5 412.5 L 509.5 412.5 L 504.5 412.5 L 500.5 412.5 L 495.5 412.5 L 491.5 412.5 L 487.5 412.5 L 482.5 412.5 L 478.5 412.5 L 474.5 412.5 L 469.5 412.5 L 465.5 412.5 L 461.5 412.5 L 456.5 412.5 L 452.5 412.5 L 447.5 412.5 L 443.5 412.5 L 439.5 412.5 L 434.5 412.5 L 430.5 412.5 L 426.5 412.5 L 421.5 412.5 L 417.5 412.5 L 412.5 412.5 L 408.5 412.5 L 404.5 412.5 L 399.5 412.5 L 395.5 412.5 L 390.5 412.5 L 386.5 412.5 L 382.5 412.5 L 377.5 412.5 L 373.5 412.5 L 369.5 412.5 L 364.5 412.5 L 360.5 412.5 L 356.5 412.5 L 351.5 412.5 L 347.5 412.5 L 343.5 412.5 L 338.5 412.5 L 334.5 412.5 L 329.5 412.5 L 325.5 412.5 L 321.5 412.5 L 317.5 412.5 L 312.5 412.5 L 308.5 412.5 L 303.5 412.5 L 299.5 412.5 L 295.5 412.5 L 290.5 412.5 L 286.5 412.5 L 281.5 412.5 L 277.5 412.5 L 273.5 412.5 L 268.5 412.5 L 264.5 412.5 L 260.5 412.5 L 255.5 412.5 L 251.5 412.5 L 247.5 412.5 L 242.5 412.5 L 238.5 412.5 L 233.5 412.5 L 229.5 412.5 L 225.5 412.5 L 220.5 412.5 L 216.5 412.5 L 212.5 412.5 L 207.5 412.5 L 203.5 412.5 L 199.5 412.5 L 194.5 412.5 L 190.5 412.5 L 185.5 412.5 L 181.5 412.5 L 177.5 412.5 L 172.5 412.5 L 168.5 412.5 L 164.5 412.5 L 159.5 412.5 L 155.5 412.5 L 151.5 412.5 L 146.5 412.5 L 142.5 412.5 L 137.5 412.5 L 133.5 412.5 L 129.5 412.5 L 124.5 412.5 L 120.5 412.5 L 116.5 412.5 L 111.5 412.5 L 107.5 412.5 L 103.5 412.5 L 98.5 412.5 L 94.5 412.5 L 89.5 412.5 L 85.5 412.5 L 81.5 412.5 L 76.5 412.5 L 72.5 412.5 L 68.5 412.5 L 63.5 412.5 L 59.5 412.5 L 55.5 412.5 L 50.5 412.5 L 46.5 412.5 L 42.5 412.5 L 37.5 412.5 L 33.5 412.5 L 28.5 412.5 L 24.5 412.5 L 20.5 412.5 L 15.5 412.5 L 11.5 412.5 L 7.5 412.5 L 2.5 412.5 Z" style="stroke:#000000;stroke-opacity:1; stroke-opacity: 0; stroke-width: 1; stroke-dasharray: none; stroke-linecap: butt; stroke-linejoin: miter; stroke-miterlimit: 10;fill:#67B7DC;fill-opacity:1; fill-opacity: 0.5; fill-rule: nonzero; opacity: 1" transform=" matrix(1 0 0 1 15 55) " stroke-linecap="round"  clip-path="url(#AmChartsEl-65)" /><path d="M 2.5 272.97326 L 7.5 273.21751 L 11.5 272.71134 L 15.5 270.76023 L 20.5 268.72377 L 24.5 265.23943 L 28.5 264.40366 L 33.5 263.10291 L 37.5 264.76857 L 42.5 262.09646 L 46.5 261.19006 L 50.5 254.37734 L 55.5 261.86691 L 59.5 262.10234 L 63.5 261.96109 L 68.5 259.53323 L 72.5 258.13831 L 76.5 255.04831 L 81.5 254.395 L 85.5 256.03123 L 89.5 256.1666 L 94.5 255.68691 L 98.5 255.68986 L 103.5 249.2656 L 107.5 257.11714 L 111.5 257.15246 L 116.5 255.78697 L 120.5 256.0636 L 124.5 253.68283 L 129.5 249.83651 L 133.5 249.43334 L 137.5 250.5016 L 142.5 250.22791 L 146.5 249.8836 L 151.5 249.61286 L 155.5 242.18509 L 159.5 251.08429 L 164.5 251.27851 L 168.5 251.38151 L 172.5 249.33034 L 177.5 247.63526 L 181.5 243.44463 L 185.5 242.83251 L 190.5 242.8178 L 194.5 243.07677 L 199.5 242.29103 L 203.5 240.51354 L 207.5 232.90037 L 212.5 242.48231 L 216.5 243.20331 L 220.5 241.73777 L 225.5 240.62537 L 229.5 237.89146 L 233.5 234.03043 L 238.5 234.95743 L 242.5 233.20643 L 247.5 234.92211 L 251.5 234.3718 L 255.5 233.26529 L 260.5 225.04 L 264.5 234.86326 L 268.5 235.08103 L 273.5 233.22114 L 277.5 232.25 L 281.5 230.07523 L 286.5 226.1318 L 290.5 226.3584 L 295.5 224.32489 L 299.5 226.11414 L 303.5 225.05177 L 308.5 223.9276 L 312.5 216.45863 L 317.5 224.937 L 321.5 224.9782 L 325.5 224.53971 L 329.5 221.63217 L 334.5 219.63986 L 338.5 215.5434 L 343.5 215.06077 L 347.5 213.7924 L 351.5 215.35506 L 356.5 214.21029 L 360.5 213.55109 L 364.5 206.42937 L 369.5 214.33094 L 373.5 213.36274 L 377.5 211.29686 L 382.5 209.49289 L 386.5 207.3858 L 390.5 202.2976 L 395.5 200.33766 L 399.5 200.59369 L 404.5 199.46363 L 408.5 198.88683 L 412.5 197.97749 L 417.5 190.32311 L 421.5 198.06577 L 426.5 198.12757 L 430.5 195.96163 L 434.5 194.58437 L 439.5 190.51146 L 443.5 187.26843 L 447.5 186.24431 L 452.5 186.00889 L 456.5 186.02066 L 461.5 185.30849 L 465.5 183.76054 L 469.5 175.6618 L 474.5 184.87 L 478.5 184.89354 L 482.5 183.56337 L 487.5 180.338 L 491.5 175.11443 L 495.5 169.94677 L 500.5 170.83846 L 504.5 169.30229 L 509.5 170.91497 L 513.5 169.84377 L 517.5 169.21106 L 522.5 159.83806 L 526.5 171.07683 L 530.5 171.2328 L 535.5 168.35763 L 539.5 168.06629 L 543.5 164.0434 L 548.5 159.22594 L 552.5 157.93991 L 556.5 153.49031 L 561.5 153.33729 L 565.5 156.94523 L 570.5 156.2154 L 574.5 147.07489 L 578.5 158.16357 L 583.5 158.44903 L 587.5 157.83986 L 591.5 154.13186 L 596.5 151.38617 L 600.5 146.54223 L 604.5 146.2656 L 609.5 145.28563 L 613.5 148.25497 L 618.5 147.46334 L 622.5 147.03663 L 626.5 138.53766 L 631.5 149.14077" style="stroke:#67B7DC;stroke-opacity:1; stroke-opacity: 0.5; stroke-width: 0; stroke-dasharray: none; stroke-linecap: butt; stroke-linejoin: round; stroke-miterlimit: 10; fill: none; fill-rule: nonzero; opacity: 1" transform=" matrix(1 0 0 1 15 55) " stroke-linecap="round"  clip-path="url(#AmChartsEl-65)" /><path d="M 2.5 268.78851 L 7.5 269.00923 L 11.5 260.84574 L 15.5 261.69034 L 20.5 259.06531 L 24.5 260.99289 L 28.5 258.20011 L 33.5 254.79817 L 37.5 249.98954 L 42.5 217.79174 L 46.5 184.41386 L 50.5 184.91414 L 55.5 183.93711 L 59.5 179.26974 L 63.5 177.77183 L 68.5 203.25991 L 72.5 214.31623 L 76.5 201.76789 L 81.5 192.07117 L 85.5 202.48006 L 89.5 201.84146 L 94.5 204.06331 L 98.5 205.64069 L 103.5 214.39863 L 107.5 215.32563 L 111.5 215.46689 L 116.5 215.564 L 120.5 217.25614 L 124.5 230.07229 L 129.5 242.16154 L 133.5 241.60829 L 137.5 241.85549 L 142.5 245.66354 L 146.5 245.71651 L 151.5 240.53414 L 155.5 236.68489 L 159.5 245.30451 L 164.5 246.464 L 168.5 248.60051 L 172.5 245.89897 L 177.5 233.42714 L 181.5 240.05151 L 185.5 239.18043 L 190.5 232.8474 L 194.5 238.40351 L 199.5 233.97746 L 203.5 230.29594 L 207.5 228.45077 L 212.5 230.47251 L 216.5 225.84929 L 220.5 223.88051 L 225.5 216.52926 L 229.5 210.78186 L 233.5 210.63766 L 238.5 208.5806 L 242.5 205.71426 L 247.5 204.37526 L 251.5 199.78146 L 255.5 197.7862 L 260.5 190.60563 L 264.5 192.48317 L 268.5 185.63514 L 273.5 180.03194 L 277.5 173.18391 L 281.5 160.90926 L 286.5 160.15883 L 290.5 156.56854 L 295.5 159.7174 L 299.5 161.20943 L 303.5 155.34137 L 308.5 153.57271 L 312.5 150.74463 L 317.5 154.76163 L 321.5 156.16831 L 325.5 159.65266 L 329.5 151.18311 L 334.5 145.31211 L 338.5 149.75583 L 343.5 142.97843 L 347.5 148.93477 L 351.5 144.94131 L 356.5 144.185 L 360.5 146.28914 L 364.5 143.07849 L 369.5 141.57174 L 373.5 146.84829 L 377.5 148.13431 L 382.5 140.30926 L 386.5 137.85491 L 390.5 138.11683 L 395.5 123.15534 L 399.5 131.16286 L 404.5 133.44946 L 408.5 124.32071 L 412.5 125.42134 L 417.5 123.76451 L 421.5 125.97166 L 426.5 130.74791 L 430.5 129.87977 L 434.5 123.4408 L 439.5 117.90823 L 443.5 119.01769 L 447.5 109.9066 L 452.5 114.95654 L 456.5 117.56097 L 461.5 113.08194 L 465.5 117.40206 L 469.5 116.13369 L 474.5 109.72414 L 478.5 113.77646 L 482.5 117.33143 L 487.5 111.3074 L 491.5 108.99431 L 495.5 101.0898 L 500.5 92.19354 L 504.5 99.8126 L 509.5 104.65066 L 513.5 94.10346 L 517.5 101.34877 L 522.5 96.702 L 526.5 96.72849 L 530.5 101.74017 L 535.5 104.10917 L 539.5 95.90449 L 543.5 93.7974 L 548.5 94.40069 L 552.5 85.33669 L 556.5 84.1978 L 561.5 87.50263 L 565.5 83.26786 L 570.5 89.14474 L 574.5 83.13837 L 578.5 84.90997 L 583.5 88.61503 L 587.5 88.6062 L 591.5 83.10894 L 596.5 80.23377 L 600.5 81.10486 L 604.5 75.36334 L 609.5 71.3022 L 613.5 81.42269 L 618.5 76.29329 L 622.5 79.97774 L 626.5 74.48343 L 631.5 76.4522 L 631.5 149.14077 L 626.5 138.53766 L 622.5 147.03663 L 618.5 147.46334 L 613.5 148.25497 L 609.5 145.28563 L 604.5 146.2656 L 600.5 146.54223 L 596.5 151.38617 L 591.5 154.13186 L 587.5 157.83986 L 583.5 158.44903 L 578.5 158.16357 L 574.5 147.07489 L 570.5 156.2154 L 565.5 156.94523 L 561.5 153.33729 L 556.5 153.49031 L 552.5 157.93991 L 548.5 159.22594 L 543.5 164.0434 L 539.5 168.06629 L 535.5 168.35763 L 530.5 171.2328 L 526.5 171.07683 L 522.5 159.83806 L 517.5 169.21106 L 513.5 169.84377 L 509.5 170.91497 L 504.5 169.30229 L 500.5 170.83846 L 495.5 169.94677 L 491.5 175.11443 L 487.5 180.338 L 482.5 183.56337 L 478.5 184.89354 L 474.5 184.87 L 469.5 175.6618 L 465.5 183.76054 L 461.5 185.30849 L 456.5 186.02066 L 452.5 186.00889 L 447.5 186.24431 L 443.5 187.26843 L 439.5 190.51146 L 434.5 194.58437 L 430.5 195.96163 L 426.5 198.12757 L 421.5 198.06577 L 417.5 190.32311 L 412.5 197.97749 L 408.5 198.88683 L 404.5 199.46363 L 399.5 200.59369 L 395.5 200.33766 L 390.5 202.2976 L 386.5 207.3858 L 382.5 209.49289 L 377.5 211.29686 L 373.5 213.36274 L 369.5 214.33094 L 364.5 206.42937 L 360.5 213.55109 L 356.5 214.21029 L 351.5 215.35506 L 347.5 213.7924 L 343.5 215.06077 L 338.5 215.5434 L 334.5 219.63986 L 329.5 221.63217 L 325.5 224.53971 L 321.5 224.9782 L 317.5 224.937 L 312.5 216.45863 L 308.5 223.9276 L 303.5 225.05177 L 299.5 226.11414 L 295.5 224.32489 L 290.5 226.3584 L 286.5 226.1318 L 281.5 230.07523 L 277.5 232.25 L 273.5 233.22114 L 268.5 235.08103 L 264.5 234.86326 L 260.5 225.04 L 255.5 233.26529 L 251.5 234.3718 L 247.5 234.92211 L 242.5 233.20643 L 238.5 234.95743 L 233.5 234.03043 L 229.5 237.89146 L 225.5 240.62537 L 220.5 241.73777 L 216.5 243.20331 L 212.5 242.48231 L 207.5 232.90037 L 203.5 240.51354 L 199.5 242.29103 L 194.5 243.07677 L 190.5 242.8178 L 185.5 242.83251 L 181.5 243.44463 L 177.5 247.63526 L 172.5 249.33034 L 168.5 251.38151 L 164.5 251.27851 L 159.5 251.08429 L 155.5 242.18509 L 151.5 249.61286 L 146.5 249.8836 L 142.5 250.22791 L 137.5 250.5016 L 133.5 249.43334 L 129.5 249.83651 L 124.5 253.68283 L 120.5 256.0636 L 116.5 255.78697 L 111.5 257.15246 L 107.5 257.11714 L 103.5 249.2656 L 98.5 255.68986 L 94.5 255.68691 L 89.5 256.1666 L 85.5 256.03123 L 81.5 254.395 L 76.5 255.04831 L 72.5 258.13831 L 68.5 259.53323 L 63.5 261.96109 L 59.5 262.10234 L 55.5 261.86691 L 50.5 254.37734 L 46.5 261.19006 L 42.5 262.09646 L 37.5 264.76857 L 33.5 263.10291 L 28.5 264.40366 L 24.5 265.23943 L 20.5 268.72377 L 15.5 270.76023 L 11.5 272.71134 L 7.5 273.21751 L 2.5 272.97326 Z" style="stroke:#000000;stroke-opacity:1; stroke-opacity: 0; stroke-width: 1; stroke-dasharray: none; stroke-linecap: butt; stroke-linejoin: miter; stroke-miterlimit: 10;fill:#FDD400;fill-opacity:1; fill-opacity: 0.5; fill-rule: nonzero; opacity: 1" transform=" matrix(1 0 0 1 15 55) " stroke-linecap="round"  clip-path="url(#AmChartsEl-66)" /><path d="M 2.5 268.78851 L 7.5 269.00923 L 11.5 260.84574 L 15.5 261.69034 L 20.5 259.06531 L 24.5 260.99289 L 28.5 258.20011 L 33.5 254.79817 L 37.5 249.98954 L 42.5 217.79174 L 46.5 184.41386 L 50.5 184.91414 L 55.5 183.93711 L 59.5 179.26974 L 63.5 177.77183 L 68.5 203.25991 L 72.5 214.31623 L 76.5 201.76789 L 81.5 192.07117 L 85.5 202.48006 L 89.5 201.84146 L 94.5 204.06331 L 98.5 205.64069 L 103.5 214.39863 L 107.5 215.32563 L 111.5 215.46689 L 116.5 215.564 L 120.5 217.25614 L 124.5 230.07229 L 129.5 242.16154 L 133.5 241.60829 L 137.5 241.85549 L 142.5 245.66354 L 146.5 245.71651 L 151.5 240.53414 L 155.5 236.68489 L 159.5 245.30451 L 164.5 246.464 L 168.5 248.60051 L 172.5 245.89897 L 177.5 233.42714 L 181.5 240.05151 L 185.5 239.18043 L 190.5 232.8474 L 194.5 238.40351 L 199.5 233.97746 L 203.5 230.29594 L 207.5 228.45077 L 212.5 230.47251 L 216.5 225.84929 L 220.5 223.88051 L 225.5 216.52926 L 229.5 210.78186 L 233.5 210.63766 L 238.5 208.5806 L 242.5 205.71426 L 247.5 204.37526 L 251.5 199.78146 L 255.5 197.7862 L 260.5 190.60563 L 264.5 192.48317 L 268.5 185.63514 L 273.5 180.03194 L 277.5 173.18391 L 281.5 160.90926 L 286.5 160.15883 L 290.5 156.56854 L 295.5 159.7174 L 299.5 161.20943 L 303.5 155.34137 L 308.5 153.57271 L 312.5 150.74463 L 317.5 154.76163 L 321.5 156.16831 L 325.5 159.65266 L 329.5 151.18311 L 334.5 145.31211 L 338.5 149.75583 L 343.5 142.97843 L 347.5 148.93477 L 351.5 144.94131 L 356.5 144.185 L 360.5 146.28914 L 364.5 143.07849 L 369.5 141.57174 L 373.5 146.84829 L 377.5 148.13431 L 382.5 140.30926 L 386.5 137.85491 L 390.5 138.11683 L 395.5 123.15534 L 399.5 131.16286 L 404.5 133.44946 L 408.5 124.32071 L 412.5 125.42134 L 417.5 123.76451 L 421.5 125.97166 L 426.5 130.74791 L 430.5 129.87977 L 434.5 123.4408 L 439.5 117.90823 L 443.5 119.01769 L 447.5 109.9066 L 452.5 114.95654 L 456.5 117.56097 L 461.5 113.08194 L 465.5 117.40206 L 469.5 116.13369 L 474.5 109.72414 L 478.5 113.77646 L 482.5 117.33143 L 487.5 111.3074 L 491.5 108.99431 L 495.5 101.0898 L 500.5 92.19354 L 504.5 99.8126 L 509.5 104.65066 L 513.5 94.10346 L 517.5 101.34877 L 522.5 96.702 L 526.5 96.72849 L 530.5 101.74017 L 535.5 104.10917 L 539.5 95.90449 L 543.5 93.7974 L 548.5 94.40069 L 552.5 85.33669 L 556.5 84.1978 L 561.5 87.50263 L 565.5 83.26786 L 570.5 89.14474 L 574.5 83.13837 L 578.5 84.90997 L 583.5 88.61503 L 587.5 88.6062 L 591.5 83.10894 L 596.5 80.23377 L 600.5 81.10486 L 604.5 75.36334 L 609.5 71.3022 L 613.5 81.42269 L 618.5 76.29329 L 622.5 79.97774 L 626.5 74.48343 L 631.5 76.4522" style="stroke:#FDD400;stroke-opacity:1; stroke-opacity: 0.5; stroke-width: 0; stroke-dasharray: none; stroke-linecap: butt; stroke-linejoin: round; stroke-miterlimit: 10; fill: none; fill-rule: nonzero; opacity: 1" transform=" matrix(1 0 0 1 15 55) " stroke-linecap="round"  clip-path="url(#AmChartsEl-66)" /><path d="M 2.5 268.25586 L 7.5 268.68846 L 11.5 260.77217 L 15.5 259.76571 L 20.5 258.9476 L 24.5 260.46317 L 28.5 255.41323 L 33.5 254.56274 L 37.5 249.88949 L 42.5 216.31737 L 46.5 184.31674 L 50.5 184.83763 L 55.5 183.86354 L 59.5 179.16086 L 63.5 177.69826 L 68.5 194.43134 L 72.5 205.48766 L 76.5 192.38311 L 81.5 183.99597 L 85.5 193.65149 L 89.5 193.01289 L 94.5 195.23474 L 98.5 197.72146 L 103.5 205.57006 L 107.5 206.49706 L 111.5 206.4588 L 116.5 206.14686 L 120.5 207.839 L 124.5 221.69103 L 129.5 241.31989 L 133.5 241.51706 L 137.5 241.7672 L 142.5 245.58997 L 146.5 244.83366 L 151.5 240.30166 L 155.5 236.54657 L 159.5 245.23094 L 164.5 246.39043 L 168.5 248.49751 L 172.5 245.60763 L 177.5 233.35357 L 181.5 239.21574 L 185.5 239.10686 L 190.5 231.57609 L 194.5 237.14986 L 199.5 233.08283 L 203.5 229.6338 L 207.5 228.13589 L 212.5 230.39894 L 216.5 225.77571 L 220.5 217.45626 L 225.5 216.45569 L 229.5 210.70829 L 233.5 210.47874 L 238.5 208.50703 L 242.5 205.64069 L 247.5 204.01329 L 251.5 198.8986 L 255.5 197.10346 L 260.5 190.05826 L 264.5 191.17949 L 268.5 185.56157 L 273.5 179.95837 L 277.5 173.11034 L 281.5 160.24711 L 286.5 160.01169 L 290.5 155.83283 L 295.5 159.0788 L 299.5 160.71797 L 303.5 154.34963 L 308.5 153.0224 L 312.5 150.19431 L 317.5 154.15246 L 321.5 155.40317 L 325.5 159.21123 L 329.5 150.74169 L 334.5 144.87069 L 338.5 149.3144 L 343.5 142.537 L 347.5 148.49334 L 351.5 144.49989 L 356.5 143.30214 L 360.5 145.04431 L 364.5 142.63706 L 369.5 141.13031 L 373.5 145.14437 L 377.5 147.45451 L 382.5 139.86783 L 386.5 137.41349 L 390.5 137.6754 L 395.5 121.63389 L 399.5 130.02397 L 404.5 132.51951 L 408.5 120.81871 L 412.5 123.85574 L 417.5 122.29309 L 421.5 124.50023 L 426.5 129.46189 L 430.5 128.40834 L 434.5 121.83106 L 439.5 116.77229 L 443.5 114.17374 L 447.5 105.37166 L 452.5 113.48511 L 456.5 112.0078 L 461.5 111.61051 L 465.5 115.963 L 469.5 114.66226 L 474.5 108.25271 L 478.5 112.30503 L 482.5 115.86 L 487.5 109.83597 L 491.5 107.52289 L 495.5 99.61837 L 500.5 90.67503 L 504.5 98.4324 L 509.5 103.17923 L 513.5 92.4378 L 517.5 99.87734 L 522.5 95.23057 L 526.5 95.25706 L 530.5 100.26874 L 535.5 103.37346 L 539.5 95.16877 L 543.5 92.89983 L 548.5 93.66497 L 552.5 84.60097 L 556.5 83.46209 L 561.5 86.76691 L 565.5 82.53214 L 570.5 88.40903 L 574.5 82.40266 L 578.5 83.75343 L 583.5 87.87931 L 587.5 87.87049 L 591.5 82.37323 L 596.5 79.49511 L 600.5 80.36914 L 604.5 74.62763 L 609.5 70.56649 L 613.5 80.68697 L 618.5 75.55757 L 622.5 78.25911 L 626.5 73.74771 L 631.5 75.71649 L 631.5 76.4522 L 626.5 74.48343 L 622.5 79.97774 L 618.5 76.29329 L 613.5 81.42269 L 609.5 71.3022 L 604.5 75.36334 L 600.5 81.10486 L 596.5 80.23377 L 591.5 83.10894 L 587.5 88.6062 L 583.5 88.61503 L 578.5 84.90997 L 574.5 83.13837 L 570.5 89.14474 L 565.5 83.26786 L 561.5 87.50263 L 556.5 84.1978 L 552.5 85.33669 L 548.5 94.40069 L 543.5 93.7974 L 539.5 95.90449 L 535.5 104.10917 L 530.5 101.74017 L 526.5 96.72849 L 522.5 96.702 L 517.5 101.34877 L 513.5 94.10346 L 509.5 104.65066 L 504.5 99.8126 L 500.5 92.19354 L 495.5 101.0898 L 491.5 108.99431 L 487.5 111.3074 L 482.5 117.33143 L 478.5 113.77646 L 474.5 109.72414 L 469.5 116.13369 L 465.5 117.40206 L 461.5 113.08194 L 456.5 117.56097 L 452.5 114.95654 L 447.5 109.9066 L 443.5 119.01769 L 439.5 117.90823 L 434.5 123.4408 L 430.5 129.87977 L 426.5 130.74791 L 421.5 125.97166 L 417.5 123.76451 L 412.5 125.42134 L 408.5 124.32071 L 404.5 133.44946 L 399.5 131.16286 L 395.5 123.15534 L 390.5 138.11683 L 386.5 137.85491 L 382.5 140.30926 L 377.5 148.13431 L 373.5 146.84829 L 369.5 141.57174 L 364.5 143.07849 L 360.5 146.28914 L 356.5 144.185 L 351.5 144.94131 L 347.5 148.93477 L 343.5 142.97843 L 338.5 149.75583 L 334.5 145.31211 L 329.5 151.18311 L 325.5 159.65266 L 321.5 156.16831 L 317.5 154.76163 L 312.5 150.74463 L 308.5 153.57271 L 303.5 155.34137 L 299.5 161.20943 L 295.5 159.7174 L 290.5 156.56854 L 286.5 160.15883 L 281.5 160.90926 L 277.5 173.18391 L 273.5 180.03194 L 268.5 185.63514 L 264.5 192.48317 L 260.5 190.60563 L 255.5 197.7862 L 251.5 199.78146 L 247.5 204.37526 L 242.5 205.71426 L 238.5 208.5806 L 233.5 210.63766 L 229.5 210.78186 L 225.5 216.52926 L 220.5 223.88051 L 216.5 225.84929 L 212.5 230.47251 L 207.5 228.45077 L 203.5 230.29594 L 199.5 233.97746 L 194.5 238.40351 L 190.5 232.8474 L 185.5 239.18043 L 181.5 240.05151 L 177.5 233.42714 L 172.5 245.89897 L 168.5 248.60051 L 164.5 246.464 L 159.5 245.30451 L 155.5 236.68489 L 151.5 240.53414 L 146.5 245.71651 L 142.5 245.66354 L 137.5 241.85549 L 133.5 241.60829 L 129.5 242.16154 L 124.5 230.07229 L 120.5 217.25614 L 116.5 215.564 L 111.5 215.46689 L 107.5 215.32563 L 103.5 214.39863 L 98.5 205.64069 L 94.5 204.06331 L 89.5 201.84146 L 85.5 202.48006 L 81.5 192.07117 L 76.5 201.76789 L 72.5 214.31623 L 68.5 203.25991 L 63.5 177.77183 L 59.5 179.26974 L 55.5 183.93711 L 50.5 184.91414 L 46.5 184.41386 L 42.5 217.79174 L 37.5 249.98954 L 33.5 254.79817 L 28.5 258.20011 L 24.5 260.99289 L 20.5 259.06531 L 15.5 261.69034 L 11.5 260.84574 L 7.5 269.00923 L 2.5 268.78851 Z" style="stroke:#000000;stroke-opacity:1; stroke-opacity: 0; stroke-width: 1; stroke-dasharray: none; stroke-linecap: butt; stroke-linejoin: miter; stroke-miterlimit: 10;fill:#0EB663;fill-opacity:1; fill-opacity: 0.5; fill-rule: nonzero; opacity: 1" transform=" matrix(1 0 0 1 15 55) " stroke-linecap="round"  clip-path="url(#AmChartsEl-67)" /><path d="M 2.5 268.25586 L 7.5 268.68846 L 11.5 260.77217 L 15.5 259.76571 L 20.5 258.9476 L 24.5 260.46317 L 28.5 255.41323 L 33.5 254.56274 L 37.5 249.88949 L 42.5 216.31737 L 46.5 184.31674 L 50.5 184.83763 L 55.5 183.86354 L 59.5 179.16086 L 63.5 177.69826 L 68.5 194.43134 L 72.5 205.48766 L 76.5 192.38311 L 81.5 183.99597 L 85.5 193.65149 L 89.5 193.01289 L 94.5 195.23474 L 98.5 197.72146 L 103.5 205.57006 L 107.5 206.49706 L 111.5 206.4588 L 116.5 206.14686 L 120.5 207.839 L 124.5 221.69103 L 129.5 241.31989 L 133.5 241.51706 L 137.5 241.7672 L 142.5 245.58997 L 146.5 244.83366 L 151.5 240.30166 L 155.5 236.54657 L 159.5 245.23094 L 164.5 246.39043 L 168.5 248.49751 L 172.5 245.60763 L 177.5 233.35357 L 181.5 239.21574 L 185.5 239.10686 L 190.5 231.57609 L 194.5 237.14986 L 199.5 233.08283 L 203.5 229.6338 L 207.5 228.13589 L 212.5 230.39894 L 216.5 225.77571 L 220.5 217.45626 L 225.5 216.45569 L 229.5 210.70829 L 233.5 210.47874 L 238.5 208.50703 L 242.5 205.64069 L 247.5 204.01329 L 251.5 198.8986 L 255.5 197.10346 L 260.5 190.05826 L 264.5 191.17949 L 268.5 185.56157 L 273.5 179.95837 L 277.5 173.11034 L 281.5 160.24711 L 286.5 160.01169 L 290.5 155.83283 L 295.5 159.0788 L 299.5 160.71797 L 303.5 154.34963 L 308.5 153.0224 L 312.5 150.19431 L 317.5 154.15246 L 321.5 155.40317 L 325.5 159.21123 L 329.5 150.74169 L 334.5 144.87069 L 338.5 149.3144 L 343.5 142.537 L 347.5 148.49334 L 351.5 144.49989 L 356.5 143.30214 L 360.5 145.04431 L 364.5 142.63706 L 369.5 141.13031 L 373.5 145.14437 L 377.5 147.45451 L 382.5 139.86783 L 386.5 137.41349 L 390.5 137.6754 L 395.5 121.63389 L 399.5 130.02397 L 404.5 132.51951 L 408.5 120.81871 L 412.5 123.85574 L 417.5 122.29309 L 421.5 124.50023 L 426.5 129.46189 L 430.5 128.40834 L 434.5 121.83106 L 439.5 116.77229 L 443.5 114.17374 L 447.5 105.37166 L 452.5 113.48511 L 456.5 112.0078 L 461.5 111.61051 L 465.5 115.963 L 469.5 114.66226 L 474.5 108.25271 L 478.5 112.30503 L 482.5 115.86 L 487.5 109.83597 L 491.5 107.52289 L 495.5 99.61837 L 500.5 90.67503 L 504.5 98.4324 L 509.5 103.17923 L 513.5 92.4378 L 517.5 99.87734 L 522.5 95.23057 L 526.5 95.25706 L 530.5 100.26874 L 535.5 103.37346 L 539.5 95.16877 L 543.5 92.89983 L 548.5 93.66497 L 552.5 84.60097 L 556.5 83.46209 L 561.5 86.76691 L 565.5 82.53214 L 570.5 88.40903 L 574.5 82.40266 L 578.5 83.75343 L 583.5 87.87931 L 587.5 87.87049 L 591.5 82.37323 L 596.5 79.49511 L 600.5 80.36914 L 604.5 74.62763 L 609.5 70.56649 L 613.5 80.68697 L 618.5 75.55757 L 622.5 78.25911 L 626.5 73.74771 L 631.5 75.71649" style="stroke:#0EB663;stroke-opacity:1; stroke-opacity: 0.5; stroke-width: 0; stroke-dasharray: none; stroke-linecap: butt; stroke-linejoin: round; stroke-miterlimit: 10; fill: none; fill-rule: nonzero; opacity: 1" transform=" matrix(1 0 0 1 15 55) " stroke-linecap="round"  clip-path="url(#AmChartsEl-67)" /><path d="M 2.5 266.81386 L 7.5 267.30826 L 11.5 259.27426 L 15.5 258.1854 L 20.5 257.10243 L 24.5 258.88874 L 28.5 253.82409 L 33.5 252.93829 L 37.5 248.07963 L 42.5 214.13966 L 46.5 182.16551 L 50.5 182.53337 L 55.5 181.78589 L 59.5 177.07731 L 63.5 175.3116 L 68.5 192.65386 L 72.5 203.3688 L 76.5 190.535 L 81.5 182.32149 L 85.5 191.95051 L 89.5 191.10297 L 94.5 193.35131 L 98.5 195.93809 L 103.5 203.50123 L 107.5 204.47531 L 111.5 204.47826 L 116.5 204.26049 L 120.5 205.84963 L 124.5 219.43091 L 129.5 239.17749 L 133.5 239.63951 L 137.5 239.58654 L 142.5 243.63003 L 146.5 242.90903 L 151.5 238.52123 L 155.5 234.66314 L 159.5 243.03263 L 164.5 244.29511 L 168.5 246.30214 L 172.5 243.61531 L 177.5 231.03166 L 181.5 236.87911 L 185.5 236.82026 L 190.5 229.33363 L 194.5 234.8868 L 199.5 230.99634 L 203.5 227.48257 L 207.5 225.59914 L 212.5 227.97109 L 216.5 222.7328 L 220.5 214.05726 L 225.5 213.06257 L 229.5 206.3764 L 233.5 206.30577 L 238.5 204.30463 L 242.5 201.51186 L 247.5 199.78146 L 251.5 195.22003 L 255.5 193.60734 L 260.5 185.92943 L 264.5 187.3832 L 268.5 181.79766 L 273.5 176.35926 L 277.5 169.45237 L 281.5 156.78337 L 286.5 156.50674 L 290.5 152.50446 L 295.5 155.83283 L 299.5 157.22186 L 303.5 150.90649 L 308.5 149.67931 L 312.5 146.348 L 317.5 150.50626 L 321.5 151.80406 L 325.5 155.67686 L 329.5 147.43097 L 334.5 141.37163 L 338.5 145.62994 L 343.5 139.17037 L 347.5 145.10023 L 351.5 140.84191 L 356.5 139.79131 L 360.5 141.5482 L 364.5 138.16686 L 369.5 136.57771 L 373.5 140.71831 L 377.5 143.06377 L 382.5 135.33289 L 386.5 133.44357 L 390.5 133.64957 L 395.5 117.08129 L 399.5 125.04171 L 404.5 128.09346 L 408.5 116.46034 L 412.5 119.59743 L 417.5 117.95237 L 421.5 120.12126 L 426.5 124.66209 L 430.5 123.5644 L 434.5 117.26374 L 439.5 112.11374 L 443.5 109.25917 L 447.5 100.81317 L 452.5 108.90309 L 456.5 106.92843 L 461.5 106.38106 L 465.5 110.52754 L 469.5 108.47343 L 474.5 101.67249 L 478.5 105.67183 L 482.5 109.15323 L 487.5 102.95851 L 491.5 100.44237 L 495.5 92.01991 L 500.5 83.73577 L 504.5 91.58731 L 509.5 96.29589 L 513.5 85.99 L 517.5 93.45014 L 522.5 88.53851 L 526.5 87.63506 L 530.5 90.65443 L 535.5 94.79797 L 539.5 86.9376 L 543.5 83.14131 L 548.5 84.47443 L 552.5 75.91954 L 556.5 74.42751 L 561.5 77.58814 L 565.5 74.87189 L 570.5 80.44566 L 574.5 74.07437 L 578.5 75.14851 L 583.5 78.99483 L 587.5 79.22731 L 591.5 74.05671 L 596.5 71.82603 L 600.5 72.62943 L 604.5 67.59714 L 609.5 62.96509 L 613.5 72.63531 L 618.5 68.17394 L 622.5 70.87254 L 626.5 64.24817 L 631.5 66.90557 L 631.5 75.71649 L 626.5 73.74771 L 622.5 78.25911 L 618.5 75.55757 L 613.5 80.68697 L 609.5 70.56649 L 604.5 74.62763 L 600.5 80.36914 L 596.5 79.49511 L 591.5 82.37323 L 587.5 87.87049 L 583.5 87.87931 L 578.5 83.75343 L 574.5 82.40266 L 570.5 88.40903 L 565.5 82.53214 L 561.5 86.76691 L 556.5 83.46209 L 552.5 84.60097 L 548.5 93.66497 L 543.5 92.89983 L 539.5 95.16877 L 535.5 103.37346 L 530.5 100.26874 L 526.5 95.25706 L 522.5 95.23057 L 517.5 99.87734 L 513.5 92.4378 L 509.5 103.17923 L 504.5 98.4324 L 500.5 90.67503 L 495.5 99.61837 L 491.5 107.52289 L 487.5 109.83597 L 482.5 115.86 L 478.5 112.30503 L 474.5 108.25271 L 469.5 114.66226 L 465.5 115.963 L 461.5 111.61051 L 456.5 112.0078 L 452.5 113.48511 L 447.5 105.37166 L 443.5 114.17374 L 439.5 116.77229 L 434.5 121.83106 L 430.5 128.40834 L 426.5 129.46189 L 421.5 124.50023 L 417.5 122.29309 L 412.5 123.85574 L 408.5 120.81871 L 404.5 132.51951 L 399.5 130.02397 L 395.5 121.63389 L 390.5 137.6754 L 386.5 137.41349 L 382.5 139.86783 L 377.5 147.45451 L 373.5 145.14437 L 369.5 141.13031 L 364.5 142.63706 L 360.5 145.04431 L 356.5 143.30214 L 351.5 144.49989 L 347.5 148.49334 L 343.5 142.537 L 338.5 149.3144 L 334.5 144.87069 L 329.5 150.74169 L 325.5 159.21123 L 321.5 155.40317 L 317.5 154.15246 L 312.5 150.19431 L 308.5 153.0224 L 303.5 154.34963 L 299.5 160.71797 L 295.5 159.0788 L 290.5 155.83283 L 286.5 160.01169 L 281.5 160.24711 L 277.5 173.11034 L 273.5 179.95837 L 268.5 185.56157 L 264.5 191.17949 L 260.5 190.05826 L 255.5 197.10346 L 251.5 198.8986 L 247.5 204.01329 L 242.5 205.64069 L 238.5 208.50703 L 233.5 210.47874 L 229.5 210.70829 L 225.5 216.45569 L 220.5 217.45626 L 216.5 225.77571 L 212.5 230.39894 L 207.5 228.13589 L 203.5 229.6338 L 199.5 233.08283 L 194.5 237.14986 L 190.5 231.57609 L 185.5 239.10686 L 181.5 239.21574 L 177.5 233.35357 L 172.5 245.60763 L 168.5 248.49751 L 164.5 246.39043 L 159.5 245.23094 L 155.5 236.54657 L 151.5 240.30166 L 146.5 244.83366 L 142.5 245.58997 L 137.5 241.7672 L 133.5 241.51706 L 129.5 241.31989 L 124.5 221.69103 L 120.5 207.839 L 116.5 206.14686 L 111.5 206.4588 L 107.5 206.49706 L 103.5 205.57006 L 98.5 197.72146 L 94.5 195.23474 L 89.5 193.01289 L 85.5 193.65149 L 81.5 183.99597 L 76.5 192.38311 L 72.5 205.48766 L 68.5 194.43134 L 63.5 177.69826 L 59.5 179.16086 L 55.5 183.86354 L 50.5 184.83763 L 46.5 184.31674 L 42.5 216.31737 L 37.5 249.88949 L 33.5 254.56274 L 28.5 255.41323 L 24.5 260.46317 L 20.5 258.9476 L 15.5 259.76571 L 11.5 260.77217 L 7.5 268.68846 L 2.5 268.25586 Z" style="stroke:#000000;stroke-opacity:1; stroke-opacity: 0; stroke-width: 1; stroke-dasharray: none; stroke-linecap: butt; stroke-linejoin: miter; stroke-miterlimit: 10;fill:#B92020;fill-opacity:1; fill-opacity: 0.5; fill-rule: nonzero; opacity: 1" transform=" matrix(1 0 0 1 15 55) " stroke-linecap="round"  clip-path="url(#AmChartsEl-68)" /><path d="M 2.5 266.81386 L 7.5 267.30826 L 11.5 259.27426 L 15.5 258.1854 L 20.5 257.10243 L 24.5 258.88874 L 28.5 253.82409 L 33.5 252.93829 L 37.5 248.07963 L 42.5 214.13966 L 46.5 182.16551 L 50.5 182.53337 L 55.5 181.78589 L 59.5 177.07731 L 63.5 175.3116 L 68.5 192.65386 L 72.5 203.3688 L 76.5 190.535 L 81.5 182.32149 L 85.5 191.95051 L 89.5 191.10297 L 94.5 193.35131 L 98.5 195.93809 L 103.5 203.50123 L 107.5 204.47531 L 111.5 204.47826 L 116.5 204.26049 L 120.5 205.84963 L 124.5 219.43091 L 129.5 239.17749 L 133.5 239.63951 L 137.5 239.58654 L 142.5 243.63003 L 146.5 242.90903 L 151.5 238.52123 L 155.5 234.66314 L 159.5 243.03263 L 164.5 244.29511 L 168.5 246.30214 L 172.5 243.61531 L 177.5 231.03166 L 181.5 236.87911 L 185.5 236.82026 L 190.5 229.33363 L 194.5 234.8868 L 199.5 230.99634 L 203.5 227.48257 L 207.5 225.59914 L 212.5 227.97109 L 216.5 222.7328 L 220.5 214.05726 L 225.5 213.06257 L 229.5 206.3764 L 233.5 206.30577 L 238.5 204.30463 L 242.5 201.51186 L 247.5 199.78146 L 251.5 195.22003 L 255.5 193.60734 L 260.5 185.92943 L 264.5 187.3832 L 268.5 181.79766 L 273.5 176.35926 L 277.5 169.45237 L 281.5 156.78337 L 286.5 156.50674 L 290.5 152.50446 L 295.5 155.83283 L 299.5 157.22186 L 303.5 150.90649 L 308.5 149.67931 L 312.5 146.348 L 317.5 150.50626 L 321.5 151.80406 L 325.5 155.67686 L 329.5 147.43097 L 334.5 141.37163 L 338.5 145.62994 L 343.5 139.17037 L 347.5 145.10023 L 351.5 140.84191 L 356.5 139.79131 L 360.5 141.5482 L 364.5 138.16686 L 369.5 136.57771 L 373.5 140.71831 L 377.5 143.06377 L 382.5 135.33289 L 386.5 133.44357 L 390.5 133.64957 L 395.5 117.08129 L 399.5 125.04171 L 404.5 128.09346 L 408.5 116.46034 L 412.5 119.59743 L 417.5 117.95237 L 421.5 120.12126 L 426.5 124.66209 L 430.5 123.5644 L 434.5 117.26374 L 439.5 112.11374 L 443.5 109.25917 L 447.5 100.81317 L 452.5 108.90309 L 456.5 106.92843 L 461.5 106.38106 L 465.5 110.52754 L 469.5 108.47343 L 474.5 101.67249 L 478.5 105.67183 L 482.5 109.15323 L 487.5 102.95851 L 491.5 100.44237 L 495.5 92.01991 L 500.5 83.73577 L 504.5 91.58731 L 509.5 96.29589 L 513.5 85.99 L 517.5 93.45014 L 522.5 88.53851 L 526.5 87.63506 L 530.5 90.65443 L 535.5 94.79797 L 539.5 86.9376 L 543.5 83.14131 L 548.5 84.47443 L 552.5 75.91954 L 556.5 74.42751 L 561.5 77.58814 L 565.5 74.87189 L 570.5 80.44566 L 574.5 74.07437 L 578.5 75.14851 L 583.5 78.99483 L 587.5 79.22731 L 591.5 74.05671 L 596.5 71.82603 L 600.5 72.62943 L 604.5 67.59714 L 609.5 62.96509 L 613.5 72.63531 L 618.5 68.17394 L 622.5 70.87254 L 626.5 64.24817 L 631.5 66.90557" style="stroke:#B92020;stroke-opacity:1; stroke-opacity: 0.5; stroke-width: 0; stroke-dasharray: none; stroke-linecap: butt; stroke-linejoin: round; stroke-miterlimit: 10; fill: none; fill-rule: nonzero; opacity: 1" transform=" matrix(1 0 0 1 15 55) " stroke-linecap="round"  clip-path="url(#AmChartsEl-68)" /><path d="M 2.5 265.89274 L 7.5 265.9516 L 11.5 257.86463 L 15.5 256.82286 L 20.5 255.77814 L 24.5 257.64391 L 28.5 252.59103 L 33.5 251.61694 L 37.5 246.78477 L 42.5 212.85657 L 46.5 180.75883 L 50.5 181.86829 L 55.5 180.83829 L 59.5 175.71477 L 63.5 174.04911 L 68.5 191.40609 L 72.5 202.07394 L 76.5 189.28723 L 81.5 181.06489 L 85.5 190.66743 L 89.5 189.80517 L 94.5 192.0388 L 98.5 194.6138 L 103.5 202.91266 L 107.5 203.68369 L 111.5 203.40117 L 116.5 202.88323 L 120.5 204.48414 L 124.5 218.10957 L 129.5 237.97091 L 133.5 238.41529 L 137.5 238.35937 L 142.5 242.29691 L 146.5 241.55826 L 151.5 237.11454 L 155.5 233.70966 L 159.5 241.65243 L 164.5 242.9826 L 168.5 244.75126 L 172.5 242.05854 L 177.5 229.4896 L 181.5 235.33706 L 185.5 235.32529 L 190.5 227.79157 L 194.5 233.5478 L 199.5 229.63086 L 203.5 226.11414 L 207.5 224.67803 L 212.5 226.78511 L 216.5 221.49974 L 220.5 212.55346 L 225.5 211.49991 L 229.5 204.79903 L 233.5 204.90203 L 238.5 202.77434 L 242.5 199.87857 L 247.5 198.20997 L 251.5 193.6456 L 255.5 191.97111 L 260.5 184.81997 L 264.5 186.05009 L 268.5 180.20263 L 273.5 174.55529 L 277.5 167.62486 L 281.5 154.94703 L 286.5 154.70866 L 290.5 150.72991 L 295.5 154.30549 L 299.5 155.53266 L 303.5 149.20846 L 308.5 148.11077 L 312.5 145.07963 L 317.5 148.9642 L 321.5 149.99126 L 325.5 154.13186 L 329.5 145.8742 L 334.5 139.69714 L 338.5 144.04963 L 343.5 137.54297 L 347.5 143.47871 L 351.5 139.28809 L 356.5 138.09329 L 360.5 139.84134 L 364.5 136.86023 L 369.5 134.9768 L 373.5 138.84371 L 377.5 141.29217 L 382.5 133.57894 L 386.5 131.71023 L 390.5 131.83383 L 395.5 115.2832 L 399.5 123.25834 L 404.5 126.39543 L 408.5 114.77997 L 412.5 117.82583 L 417.5 116.30731 L 421.5 118.19957 L 426.5 122.49026 L 430.5 122.01646 L 434.5 115.60691 L 439.5 110.31271 L 443.5 107.65237 L 447.5 98.92091 L 452.5 106.95197 L 456.5 104.95966 L 461.5 104.47114 L 465.5 108.57937 L 469.5 101.67837 L 474.5 99.07394 L 478.5 102.85257 L 482.5 107.44049 L 487.5 101.25754 L 491.5 98.75906 L 495.5 90.45726 L 500.5 81.92297 L 504.5 89.75097 L 509.5 90.53083 L 513.5 84.30669 L 517.5 91.77566 L 522.5 87.00823 L 526.5 85.85169 L 530.5 88.65329 L 535.5 93.09111 L 539.5 85.34551 L 543.5 81.49626 L 548.5 82.59394 L 552.5 74.248 L 556.5 72.85309 L 561.5 75.81066 L 565.5 73.1356 L 570.5 78.78 L 574.5 72.51466 L 578.5 73.16797 L 583.5 76.72883 L 587.5 77.47043 L 591.5 72.36163 L 596.5 69.92789 L 600.5 70.952 L 604.5 65.72843 L 609.5 60.76677 L 613.5 70.56649 L 618.5 65.99034 L 622.5 68.73014 L 626.5 61.96746 L 631.5 64.33057 L 631.5 66.90557 L 626.5 64.24817 L 622.5 70.87254 L 618.5 68.17394 L 613.5 72.63531 L 609.5 62.96509 L 604.5 67.59714 L 600.5 72.62943 L 596.5 71.82603 L 591.5 74.05671 L 587.5 79.22731 L 583.5 78.99483 L 578.5 75.14851 L 574.5 74.07437 L 570.5 80.44566 L 565.5 74.87189 L 561.5 77.58814 L 556.5 74.42751 L 552.5 75.91954 L 548.5 84.47443 L 543.5 83.14131 L 539.5 86.9376 L 535.5 94.79797 L 530.5 90.65443 L 526.5 87.63506 L 522.5 88.53851 L 517.5 93.45014 L 513.5 85.99 L 509.5 96.29589 L 504.5 91.58731 L 500.5 83.73577 L 495.5 92.01991 L 491.5 100.44237 L 487.5 102.95851 L 482.5 109.15323 L 478.5 105.67183 L 474.5 101.67249 L 469.5 108.47343 L 465.5 110.52754 L 461.5 106.38106 L 456.5 106.92843 L 452.5 108.90309 L 447.5 100.81317 L 443.5 109.25917 L 439.5 112.11374 L 434.5 117.26374 L 430.5 123.5644 L 426.5 124.66209 L 421.5 120.12126 L 417.5 117.95237 L 412.5 119.59743 L 408.5 116.46034 L 404.5 128.09346 L 399.5 125.04171 L 395.5 117.08129 L 390.5 133.64957 L 386.5 133.44357 L 382.5 135.33289 L 377.5 143.06377 L 373.5 140.71831 L 369.5 136.57771 L 364.5 138.16686 L 360.5 141.5482 L 356.5 139.79131 L 351.5 140.84191 L 347.5 145.10023 L 343.5 139.17037 L 338.5 145.62994 L 334.5 141.37163 L 329.5 147.43097 L 325.5 155.67686 L 321.5 151.80406 L 317.5 150.50626 L 312.5 146.348 L 308.5 149.67931 L 303.5 150.90649 L 299.5 157.22186 L 295.5 155.83283 L 290.5 152.50446 L 286.5 156.50674 L 281.5 156.78337 L 277.5 169.45237 L 273.5 176.35926 L 268.5 181.79766 L 264.5 187.3832 L 260.5 185.92943 L 255.5 193.60734 L 251.5 195.22003 L 247.5 199.78146 L 242.5 201.51186 L 238.5 204.30463 L 233.5 206.30577 L 229.5 206.3764 L 225.5 213.06257 L 220.5 214.05726 L 216.5 222.7328 L 212.5 227.97109 L 207.5 225.59914 L 203.5 227.48257 L 199.5 230.99634 L 194.5 234.8868 L 190.5 229.33363 L 185.5 236.82026 L 181.5 236.87911 L 177.5 231.03166 L 172.5 243.61531 L 168.5 246.30214 L 164.5 244.29511 L 159.5 243.03263 L 155.5 234.66314 L 151.5 238.52123 L 146.5 242.90903 L 142.5 243.63003 L 137.5 239.58654 L 133.5 239.63951 L 129.5 239.17749 L 124.5 219.43091 L 120.5 205.84963 L 116.5 204.26049 L 111.5 204.47826 L 107.5 204.47531 L 103.5 203.50123 L 98.5 195.93809 L 94.5 193.35131 L 89.5 191.10297 L 85.5 191.95051 L 81.5 182.32149 L 76.5 190.535 L 72.5 203.3688 L 68.5 192.65386 L 63.5 175.3116 L 59.5 177.07731 L 55.5 181.78589 L 50.5 182.53337 L 46.5 182.16551 L 42.5 214.13966 L 37.5 248.07963 L 33.5 252.93829 L 28.5 253.82409 L 24.5 258.88874 L 20.5 257.10243 L 15.5 258.1854 L 11.5 259.27426 L 7.5 267.30826 L 2.5 266.81386 Z" style="stroke:#000000;stroke-opacity:1; stroke-opacity: 0; stroke-width: 1; stroke-dasharray: none; stroke-linecap: butt; stroke-linejoin: miter; stroke-miterlimit: 10;fill:#F6871E;fill-opacity:1; fill-opacity: 0.5; fill-rule: nonzero; opacity: 1" transform=" matrix(1 0 0 1 15 55) " stroke-linecap="round"  clip-path="url(#AmChartsEl-69)" /><path d="M 2.5 265.89274 L 7.5 265.9516 L 11.5 257.86463 L 15.5 256.82286 L 20.5 255.77814 L 24.5 257.64391 L 28.5 252.59103 L 33.5 251.61694 L 37.5 246.78477 L 42.5 212.85657 L 46.5 180.75883 L 50.5 181.86829 L 55.5 180.83829 L 59.5 175.71477 L 63.5 174.04911 L 68.5 191.40609 L 72.5 202.07394 L 76.5 189.28723 L 81.5 181.06489 L 85.5 190.66743 L 89.5 189.80517 L 94.5 192.0388 L 98.5 194.6138 L 103.5 202.91266 L 107.5 203.68369 L 111.5 203.40117 L 116.5 202.88323 L 120.5 204.48414 L 124.5 218.10957 L 129.5 237.97091 L 133.5 238.41529 L 137.5 238.35937 L 142.5 242.29691 L 146.5 241.55826 L 151.5 237.11454 L 155.5 233.70966 L 159.5 241.65243 L 164.5 242.9826 L 168.5 244.75126 L 172.5 242.05854 L 177.5 229.4896 L 181.5 235.33706 L 185.5 235.32529 L 190.5 227.79157 L 194.5 233.5478 L 199.5 229.63086 L 203.5 226.11414 L 207.5 224.67803 L 212.5 226.78511 L 216.5 221.49974 L 220.5 212.55346 L 225.5 211.49991 L 229.5 204.79903 L 233.5 204.90203 L 238.5 202.77434 L 242.5 199.87857 L 247.5 198.20997 L 251.5 193.6456 L 255.5 191.97111 L 260.5 184.81997 L 264.5 186.05009 L 268.5 180.20263 L 273.5 174.55529 L 277.5 167.62486 L 281.5 154.94703 L 286.5 154.70866 L 290.5 150.72991 L 295.5 154.30549 L 299.5 155.53266 L 303.5 149.20846 L 308.5 148.11077 L 312.5 145.07963 L 317.5 148.9642 L 321.5 149.99126 L 325.5 154.13186 L 329.5 145.8742 L 334.5 139.69714 L 338.5 144.04963 L 343.5 137.54297 L 347.5 143.47871 L 351.5 139.28809 L 356.5 138.09329 L 360.5 139.84134 L 364.5 136.86023 L 369.5 134.9768 L 373.5 138.84371 L 377.5 141.29217 L 382.5 133.57894 L 386.5 131.71023 L 390.5 131.83383 L 395.5 115.2832 L 399.5 123.25834 L 404.5 126.39543 L 408.5 114.77997 L 412.5 117.82583 L 417.5 116.30731 L 421.5 118.19957 L 426.5 122.49026 L 430.5 122.01646 L 434.5 115.60691 L 439.5 110.31271 L 443.5 107.65237 L 447.5 98.92091 L 452.5 106.95197 L 456.5 104.95966 L 461.5 104.47114 L 465.5 108.57937 L 469.5 101.67837 L 474.5 99.07394 L 478.5 102.85257 L 482.5 107.44049 L 487.5 101.25754 L 491.5 98.75906 L 495.5 90.45726 L 500.5 81.92297 L 504.5 89.75097 L 509.5 90.53083 L 513.5 84.30669 L 517.5 91.77566 L 522.5 87.00823 L 526.5 85.85169 L 530.5 88.65329 L 535.5 93.09111 L 539.5 85.34551 L 543.5 81.49626 L 548.5 82.59394 L 552.5 74.248 L 556.5 72.85309 L 561.5 75.81066 L 565.5 73.1356 L 570.5 78.78 L 574.5 72.51466 L 578.5 73.16797 L 583.5 76.72883 L 587.5 77.47043 L 591.5 72.36163 L 596.5 69.92789 L 600.5 70.952 L 604.5 65.72843 L 609.5 60.76677 L 613.5 70.56649 L 618.5 65.99034 L 622.5 68.73014 L 626.5 61.96746 L 631.5 64.33057" style="stroke:#F6871E;stroke-opacity:1; stroke-opacity: 0.5; stroke-width: 0; stroke-dasharray: none; stroke-linecap: butt; stroke-linejoin: round; stroke-miterlimit: 10; fill: none; fill-rule: nonzero; opacity: 1" transform=" matrix(1 0 0 1 15 55) " stroke-linecap="round"  clip-path="url(#AmChartsEl-69)" /><path d="M 2.5 265.36303 L 7.5 265.40129 L 11.5 257.22014 L 15.5 256.31962999999996 L 20.5 255.31023 L 24.5 257.20837 L 28.5 252.12017 L 33.5 251.1608 L 37.5 246.29037 L 42.5 212.35923 L 46.5 180.22911 L 50.5 181.24146 L 55.5 180.29091 L 59.5 175.1468 L 63.5 173.4782 L 68.5 190.85577 L 72.5 201.56483 L 76.5 188.8046 L 81.5 180.61169 L 85.5 190.226 L 89.5 189.3814 L 94.5 191.6268 L 98.5 194.2018 L 103.5 202.50949 L 107.5 203.27463 L 111.5 202.998 L 116.5 202.50066 L 120.5 204.10157 L 124.5 217.727 L 129.5 237.57951 L 133.5 238.03271 L 137.5 237.9562 L 142.5 241.91434 L 146.5 241.17569 L 151.5 236.73197 L 155.5 233.32709 L 159.5 240.40466 L 164.5 241.74954 L 168.5 243.51526 L 172.5 240.82843 L 177.5 228.22123 L 181.5 234.05397 L 185.5 234.0628 L 190.5 226.50849 L 194.5 232.22351 L 199.5 228.336 L 203.5 224.83694 L 207.5 223.42731 L 212.5 225.54617 L 216.5 220.2402 L 220.5 211.30274 L 225.5 210.24037 L 229.5 203.51889 L 233.5 203.61306 L 238.5 201.51774 L 242.5 198.6308 L 247.5 196.95337 L 251.5 192.36251 L 255.5 190.67331 L 260.5 183.52806 L 264.5 184.75817 L 268.5 178.90777 L 273.5 173.28397 L 277.5 166.34766 L 281.5 153.69926 L 286.5 153.44911 L 290.5 149.52629 L 295.5 153.05771 L 299.5 154.279 L 303.5 147.93714 L 308.5 146.83063 L 312.5 143.79949 L 317.5 147.65169 L 321.5 148.65814 L 325.5 152.80463 L 329.5 144.56757 L 334.5 138.39051 L 338.5 142.76066 L 343.5 136.23929 L 347.5 142.1868 L 351.5 137.97557 L 356.5 136.78077 L 360.5 138.54649 L 364.5 135.53889 L 369.5 133.50831 L 373.5 137.39583 L 377.5 139.87077 L 382.5 132.21346 L 386.5 130.32709 L 390.5 130.4242 L 395.5 113.81766 L 399.5 121.78691 L 404.5 124.92694 L 408.5 113.35563 L 412.5 116.40443 L 417.5 114.84177 L 421.5 116.71343 L 426.5 121.03649 L 430.5 120.56857 L 434.5 114.20023 L 439.5 108.856 L 443.5 106.21037 L 447.5 97.47009 L 452.5 105.48349 L 456.5 103.49117 L 461.5 102.99089 L 465.5 107.11971 L 469.5 100.2452 L 474.5 97.6496 L 478.5 101.40469 L 482.5 105.97494 L 487.5 99.74197 L 491.5 97.24054 L 495.5 88.98289 L 500.5 80.49569 L 504.5 88.30897 L 509.5 89.08589 L 513.5 82.83526 L 517.5 90.29246 L 522.5 85.54857 L 526.5 84.38614 L 530.5 87.14654 L 535.5 91.57554 L 539.5 83.83289 L 543.5 79.98951 L 548.5 81.07249 L 552.5 72.75303 L 556.5 71.35811 L 561.5 74.33334 L 565.5 71.64946 L 570.5 77.27326 L 574.5 70.96966 L 578.5 71.64357 L 583.5 75.18677 L 587.5 75.91954 L 591.5 70.80191 L 596.5 68.36817 L 600.5 69.39523 L 604.5 64.17754 L 609.5 59.20117 L 613.5 68.98911 L 618.5 64.41003 L 622.5 67.141 L 626.5 60.40774 L 631.5 62.73554 L 631.5 64.33057 L 626.5 61.96746 L 622.5 68.73014 L 618.5 65.99034 L 613.5 70.56649 L 609.5 60.76677 L 604.5 65.72843 L 600.5 70.952 L 596.5 69.92789 L 591.5 72.36163 L 587.5 77.47043 L 583.5 76.72883 L 578.5 73.16797 L 574.5 72.51466 L 570.5 78.78 L 565.5 73.1356 L 561.5 75.81066 L 556.5 72.85309 L 552.5 74.248 L 548.5 82.59394 L 543.5 81.49626 L 539.5 85.34551 L 535.5 93.09111 L 530.5 88.65329 L 526.5 85.85169 L 522.5 87.00823 L 517.5 91.77566 L 513.5 84.30669 L 509.5 90.53083 L 504.5 89.75097 L 500.5 81.92297 L 495.5 90.45726 L 491.5 98.75906 L 487.5 101.25754 L 482.5 107.44049 L 478.5 102.85257 L 474.5 99.07394 L 469.5 101.67837 L 465.5 108.57937 L 461.5 104.47114 L 456.5 104.95966 L 452.5 106.95197 L 447.5 98.92091 L 443.5 107.65237 L 439.5 110.31271 L 434.5 115.60691 L 430.5 122.01646 L 426.5 122.49026 L 421.5 118.19957 L 417.5 116.30731 L 412.5 117.82583 L 408.5 114.77997 L 404.5 126.39543 L 399.5 123.25834 L 395.5 115.2832 L 390.5 131.83383 L 386.5 131.71023 L 382.5 133.57894 L 377.5 141.29217 L 373.5 138.84371 L 369.5 134.9768 L 364.5 136.86023 L 360.5 139.84134 L 356.5 138.09329 L 351.5 139.28809 L 347.5 143.47871 L 343.5 137.54297 L 338.5 144.04963 L 334.5 139.69714 L 329.5 145.8742 L 325.5 154.13186 L 321.5 149.99126 L 317.5 148.9642 L 312.5 145.07963 L 308.5 148.11077 L 303.5 149.20846 L 299.5 155.53266 L 295.5 154.30549 L 290.5 150.72991 L 286.5 154.70866 L 281.5 154.94703 L 277.5 167.62486 L 273.5 174.55529 L 268.5 180.20263 L 264.5 186.05009 L 260.5 184.81997 L 255.5 191.97111 L 251.5 193.6456 L 247.5 198.20997 L 242.5 199.87857 L 238.5 202.77434 L 233.5 204.90203 L 229.5 204.79903 L 225.5 211.49991 L 220.5 212.55346 L 216.5 221.49974 L 212.5 226.78511 L 207.5 224.67803 L 203.5 226.11414 L 199.5 229.63086 L 194.5 233.5478 L 190.5 227.79157 L 185.5 235.32529 L 181.5 235.33706 L 177.5 229.4896 L 172.5 242.05854 L 168.5 244.75126 L 164.5 242.9826 L 159.5 241.65243 L 155.5 233.70966 L 151.5 237.11454 L 146.5 241.55826 L 142.5 242.29691 L 137.5 238.35937 L 133.5 238.41529 L 129.5 237.97091 L 124.5 218.10957 L 120.5 204.48414 L 116.5 202.88323 L 111.5 203.40117 L 107.5 203.68369 L 103.5 202.91266 L 98.5 194.6138 L 94.5 192.0388 L 89.5 189.80517 L 85.5 190.66743 L 81.5 181.06489 L 76.5 189.28723 L 72.5 202.07394 L 68.5 191.40609 L 63.5 174.04911 L 59.5 175.71477 L 55.5 180.83829 L 50.5 181.86829 L 46.5 180.75883 L 42.5 212.85657 L 37.5 246.78477 L 33.5 251.61694 L 28.5 252.59103 L 24.5 257.64391 L 20.5 255.77814 L 15.5 256.82286 L 11.5 257.86463 L 7.5 265.9516 L 2.5 265.89274 Z" style="stroke:#000000;stroke-opacity:1; stroke-opacity: 0; stroke-width: 1; stroke-dasharray: none; stroke-linecap: butt; stroke-linejoin: miter; stroke-miterlimit: 10;fill:#A92C90;fill-opacity:1; fill-opacity: 0.5; fill-rule: nonzero; opacity: 1" transform=" matrix(1 0 0 1 15 55) " stroke-linecap="round"  clip-path="url(#AmChartsEl-70)" /><path d="M 2.5 265.36303 L 7.5 265.40129 L 11.5 257.22014 L 15.5 256.31962999999996 L 20.5 255.31023 L 24.5 257.20837 L 28.5 252.12017 L 33.5 251.1608 L 37.5 246.29037 L 42.5 212.35923 L 46.5 180.22911 L 50.5 181.24146 L 55.5 180.29091 L 59.5 175.1468 L 63.5 173.4782 L 68.5 190.85577 L 72.5 201.56483 L 76.5 188.8046 L 81.5 180.61169 L 85.5 190.226 L 89.5 189.3814 L 94.5 191.6268 L 98.5 194.2018 L 103.5 202.50949 L 107.5 203.27463 L 111.5 202.998 L 116.5 202.50066 L 120.5 204.10157 L 124.5 217.727 L 129.5 237.57951 L 133.5 238.03271 L 137.5 237.9562 L 142.5 241.91434 L 146.5 241.17569 L 151.5 236.73197 L 155.5 233.32709 L 159.5 240.40466 L 164.5 241.74954 L 168.5 243.51526 L 172.5 240.82843 L 177.5 228.22123 L 181.5 234.05397 L 185.5 234.0628 L 190.5 226.50849 L 194.5 232.22351 L 199.5 228.336 L 203.5 224.83694 L 207.5 223.42731 L 212.5 225.54617 L 216.5 220.2402 L 220.5 211.30274 L 225.5 210.24037 L 229.5 203.51889 L 233.5 203.61306 L 238.5 201.51774 L 242.5 198.6308 L 247.5 196.95337 L 251.5 192.36251 L 255.5 190.67331 L 260.5 183.52806 L 264.5 184.75817 L 268.5 178.90777 L 273.5 173.28397 L 277.5 166.34766 L 281.5 153.69926 L 286.5 153.44911 L 290.5 149.52629 L 295.5 153.05771 L 299.5 154.279 L 303.5 147.93714 L 308.5 146.83063 L 312.5 143.79949 L 317.5 147.65169 L 321.5 148.65814 L 325.5 152.80463 L 329.5 144.56757 L 334.5 138.39051 L 338.5 142.76066 L 343.5 136.23929 L 347.5 142.1868 L 351.5 137.97557 L 356.5 136.78077 L 360.5 138.54649 L 364.5 135.53889 L 369.5 133.50831 L 373.5 137.39583 L 377.5 139.87077 L 382.5 132.21346 L 386.5 130.32709 L 390.5 130.4242 L 395.5 113.81766 L 399.5 121.78691 L 404.5 124.92694 L 408.5 113.35563 L 412.5 116.40443 L 417.5 114.84177 L 421.5 116.71343 L 426.5 121.03649 L 430.5 120.56857 L 434.5 114.20023 L 439.5 108.856 L 443.5 106.21037 L 447.5 97.47009 L 452.5 105.48349 L 456.5 103.49117 L 461.5 102.99089 L 465.5 107.11971 L 469.5 100.2452 L 474.5 97.6496 L 478.5 101.40469 L 482.5 105.97494 L 487.5 99.74197 L 491.5 97.24054 L 495.5 88.98289 L 500.5 80.49569 L 504.5 88.30897 L 509.5 89.08589 L 513.5 82.83526 L 517.5 90.29246 L 522.5 85.54857 L 526.5 84.38614 L 530.5 87.14654 L 535.5 91.57554 L 539.5 83.83289 L 543.5 79.98951 L 548.5 81.07249 L 552.5 72.75303 L 556.5 71.35811 L 561.5 74.33334 L 565.5 71.64946 L 570.5 77.27326 L 574.5 70.96966 L 578.5 71.64357 L 583.5 75.18677 L 587.5 75.91954 L 591.5 70.80191 L 596.5 68.36817 L 600.5 69.39523 L 604.5 64.17754 L 609.5 59.20117 L 613.5 68.98911 L 618.5 64.41003 L 622.5 67.141 L 626.5 60.40774 L 631.5 62.73554" style="stroke:#A92C90;stroke-opacity:1; stroke-opacity: 0.5; stroke-width: 0; stroke-dasharray: none; stroke-linecap: butt; stroke-linejoin: round; stroke-miterlimit: 10; fill: none; fill-rule: nonzero; opacity: 1" transform=" matrix(1 0 0 1 15 55) " stroke-linecap="round"  clip-path="url(#AmChartsEl-70)" /><path d="M 0.5 412.5 L 633.5 412.5 L 633.5 412.5" style="stroke:#000000;stroke-opacity:1; stroke-opacity: 0.2; stroke-width: 1; stroke-dasharray: none; stroke-linecap: butt; stroke-linejoin: miter; stroke-miterlimit: 10; fill: none; fill-rule: nonzero; opacity: 1" transform=" matrix(1 0 0 1 15 55) " stroke-linecap="round" /><path d="M 0.5 0.5 L 633.5 0.5" style="stroke:#000000;stroke-opacity:1; stroke-opacity: 0.3; stroke-width: 1; stroke-dasharray: none; stroke-linecap: butt; stroke-linejoin: miter; stroke-miterlimit: 10; fill: none; fill-rule: nonzero; opacity: 1" transform=" matrix(1 0 0 1 15 467) " stroke-linecap="round" /><path d="M 0.5 0.5 L 0.5 412.5 L 0.5 412.5" style="stroke:#000000;stroke-opacity:1; stroke-opacity: 0; stroke-width: 1; stroke-dasharray: none; stroke-linecap: butt; stroke-linejoin: miter; stroke-miterlimit: 10; fill: none; fill-rule: nonzero; opacity: 1" transform=" matrix(1 0 0 1 648 55) " stroke-linecap="round" /><path d="M 0.5 0.5 L 0.5 412.5" style="stroke:#000000;stroke-opacity:1; stroke-opacity: 0; stroke-width: 1; stroke-dasharray: none; stroke-linecap: butt; stroke-linejoin: miter; stroke-miterlimit: 10; fill: none; fill-rule: nonzero; opacity: 0" transform=" matrix(1 0 0 1 15 55) " stroke-linecap="round" /><g  clip-path="url(#AmChartsEl-64)" ><path d="M 0.5 0.5 L 0.5 0.5 L 0.5 412.5" style="stroke:#000000;stroke-opacity:1; stroke-opacity: 0; stroke-width: 1; stroke-dasharray: none; stroke-linecap: butt; stroke-linejoin: miter; stroke-miterlimit: 10; fill: none; fill-rule: nonzero; opacity: 0" transform=" matrix(1 0 0 1 15 55) " stroke-linecap="round" /></g><g  clip-path="url(#AmChartsEl-64)" ><path d="M 0.5 0.5 L 633.5 0.5 L 633.5 0.5" style="stroke:#000000;stroke-opacity:1; stroke-opacity: 0; stroke-width: 1; stroke-dasharray: none; stroke-linecap: butt; stroke-linejoin: miter; stroke-miterlimit: 10; fill: none; fill-rule: nonzero; opacity: 0" transform=" matrix(1 0 0 1 15 55) " stroke-linecap="round" /></g><g transform=" matrix(1 0 0 1 332 20) "><text xml:space="preserve" font-family="Open Sans, sans serif" font-size="14" font-weight="bold" style="stroke: none; stroke-width: 1; stroke-dasharray: none; stroke-linecap: butt; stroke-linejoin: miter; stroke-miterlimit: 10;fill:#3E3F68;fill-opacity:1; fill-rule: nonzero; opacity: 1; white-space: pre" ><tspan x="-162.75" y="9.02" fill="rgba(62,63,104,1)">Chart 2: Bank of Canada liabilities (month end)</tspan></text></g><g transform=" matrix(1 0 0 1 18 480) "><text xml:space="preserve" font-family="Open Sans, sans serif" font-size="12" font-weight="normal" style="stroke: none; stroke-width: 1; stroke-dasharray: none; stroke-linecap: butt; stroke-linejoin: miter; stroke-miterlimit: 10;fill:#3E3F68;fill-opacity:1; fill-rule: nonzero; opacity: 1; white-space: pre" ><tspan x="0.5" y="7.66" fill="rgba(62,63,104,1)">2008</tspan></text></g><g transform=" matrix(1 0 0 1 123 480) "><text xml:space="preserve" font-family="Open Sans, sans serif" font-size="12" font-weight="normal" style="stroke: none; stroke-width: 1; stroke-dasharray: none; stroke-linecap: butt; stroke-linejoin: miter; stroke-miterlimit: 10;fill:#3E3F68;fill-opacity:1; fill-rule: nonzero; opacity: 1; white-space: pre" ><tspan x="0.5" y="7.66" fill="rgba(62,63,104,1)">2010</tspan></text></g><g transform=" matrix(1 0 0 1 228 480) "><text xml:space="preserve" font-family="Open Sans, sans serif" font-size="12" font-weight="normal" style="stroke: none; stroke-width: 1; stroke-dasharray: none; stroke-linecap: butt; stroke-linejoin: miter; stroke-miterlimit: 10;fill:#3E3F68;fill-opacity:1; fill-rule: nonzero; opacity: 1; white-space: pre" ><tspan x="0.5" y="7.66" fill="rgba(62,63,104,1)">2012</tspan></text></g><g transform=" matrix(1 0 0 1 332 480) "><text xml:space="preserve" font-family="Open Sans, sans serif" font-size="12" font-weight="normal" style="stroke: none; stroke-width: 1; stroke-dasharray: none; stroke-linecap: butt; stroke-linejoin: miter; stroke-miterlimit: 10;fill:#3E3F68;fill-opacity:1; fill-rule: nonzero; opacity: 1; white-space: pre" ><tspan x="0.5" y="7.66" fill="rgba(62,63,104,1)">2014</tspan></text></g><g transform=" matrix(1 0 0 1 437 480) "><text xml:space="preserve" font-family="Open Sans, sans serif" font-size="12" font-weight="normal" style="stroke: none; stroke-width: 1; stroke-dasharray: none; stroke-linecap: butt; stroke-linejoin: miter; stroke-miterlimit: 10;fill:#3E3F68;fill-opacity:1; fill-rule: nonzero; opacity: 1; white-space: pre" ><tspan x="0.5" y="7.66" fill="rgba(62,63,104,1)">2016</tspan></text></g><g transform=" matrix(1 0 0 1 542 480) "><text xml:space="preserve" font-family="Open Sans, sans serif" font-size="12" font-weight="normal" style="stroke: none; stroke-width: 1; stroke-dasharray: none; stroke-linecap: butt; stroke-linejoin: miter; stroke-miterlimit: 10;fill:#3E3F68;fill-opacity:1; fill-rule: nonzero; opacity: 1; white-space: pre" ><tspan x="0.5" y="7.66" fill="rgba(62,63,104,1)">2018</tspan></text></g><g transform=" matrix(1 0 0 1 647 480) "><text xml:space="preserve" font-family="Open Sans, sans serif" font-size="12" font-weight="normal" style="stroke: none; stroke-width: 1; stroke-dasharray: none; stroke-linecap: butt; stroke-linejoin: miter; stroke-miterlimit: 10;fill:#3E3F68;fill-opacity:1; fill-rule: nonzero; opacity: 1; white-space: pre" ><tspan x="0.5" y="7.66" fill="rgba(62,63,104,1)">2020</tspan></text></g><g transform=" matrix(1 0 0 1 658 464.3333330154419) "><text xml:space="preserve" font-family="Open Sans, sans serif" font-size="12" font-weight="normal" style="stroke: none; stroke-width: 1; stroke-dasharray: none; stroke-linecap: butt; stroke-linejoin: miter; stroke-miterlimit: 10;fill:#3E3F68;fill-opacity:1; fill-rule: nonzero; opacity: 1; white-space: pre" ><tspan x="0.5" y="7.66" fill="rgba(62,63,104,1)">0</tspan></text></g><g transform=" matrix(1 0 0 1 658 405.3333330154419) "><text xml:space="preserve" font-family="Open Sans, sans serif" font-size="12" font-weight="normal" style="stroke: none; stroke-width: 1; stroke-dasharray: none; stroke-linecap: butt; stroke-linejoin: miter; stroke-miterlimit: 10;fill:#3E3F68;fill-opacity:1; fill-rule: nonzero; opacity: 1; white-space: pre" ><tspan x="0.5" y="7.66" fill="rgba(62,63,104,1)">20,000</tspan></text></g><g transform=" matrix(1 0 0 1 658 346.3333330154419) "><text xml:space="preserve" font-family="Open Sans, sans serif" font-size="12" font-weight="normal" style="stroke: none; stroke-width: 1; stroke-dasharray: none; stroke-linecap: butt; stroke-linejoin: miter; stroke-miterlimit: 10;fill:#3E3F68;fill-opacity:1; fill-rule: nonzero; opacity: 1; white-space: pre" ><tspan x="0.5" y="7.66" fill="rgba(62,63,104,1)">40,000</tspan></text></g><g transform=" matrix(1 0 0 1 658 287.3333330154419) "><text xml:space="preserve" font-family="Open Sans, sans serif" font-size="12" font-weight="normal" style="stroke: none; stroke-width: 1; stroke-dasharray: none; stroke-linecap: butt; stroke-linejoin: miter; stroke-miterlimit: 10;fill:#3E3F68;fill-opacity:1; fill-rule: nonzero; opacity: 1; white-space: pre" ><tspan x="0.5" y="7.66" fill="rgba(62,63,104,1)">60,000</tspan></text></g><g transform=" matrix(1 0 0 1 658 229.3333330154419) "><text xml:space="preserve" font-family="Open Sans, sans serif" font-size="12" font-weight="normal" style="stroke: none; stroke-width: 1; stroke-dasharray: none; stroke-linecap: butt; stroke-linejoin: miter; stroke-miterlimit: 10;fill:#3E3F68;fill-opacity:1; fill-rule: nonzero; opacity: 1; white-space: pre" ><tspan x="0.5" y="7.66" fill="rgba(62,63,104,1)">80,000</tspan></text></g><g transform=" matrix(1 0 0 1 658 170.3333330154419) "><text xml:space="preserve" font-family="Open Sans, sans serif" font-size="12" font-weight="normal" style="stroke: none; stroke-width: 1; stroke-dasharray: none; stroke-linecap: butt; stroke-linejoin: miter; stroke-miterlimit: 10;fill:#3E3F68;fill-opacity:1; fill-rule: nonzero; opacity: 1; white-space: pre" ><tspan x="0.5" y="7.66" fill="rgba(62,63,104,1)">100,000</tspan></text></g><g transform=" matrix(1 0 0 1 658 111.3333330154419) "><text xml:space="preserve" font-family="Open Sans, sans serif" font-size="12" font-weight="normal" style="stroke: none; stroke-width: 1; stroke-dasharray: none; stroke-linecap: butt; stroke-linejoin: miter; stroke-miterlimit: 10;fill:#3E3F68;fill-opacity:1; fill-rule: nonzero; opacity: 1; white-space: pre" ><tspan x="0.5" y="7.66" fill="rgba(62,63,104,1)">120,000</tspan></text></g><g transform=" matrix(1 0 0 1 658 52.333333015441895) "><text xml:space="preserve" font-family="Open Sans, sans serif" font-size="12" font-weight="normal" style="stroke: none; stroke-width: 1; stroke-dasharray: none; stroke-linecap: butt; stroke-linejoin: miter; stroke-miterlimit: 10;fill:#3E3F68;fill-opacity:1; fill-rule: nonzero; opacity: 1; white-space: pre" ><tspan x="0.5" y="7.66" fill="rgba(62,63,104,1)">140,000</tspan></text></g><g transform=" matrix(6.123233995736766e-17 -1 1 6.123233995736766e-17 721 261) "><text xml:space="preserve" font-family="Open Sans, sans serif" font-size="13" font-weight="bold" style="stroke: none; stroke-width: 1; stroke-dasharray: none; stroke-linecap: butt; stroke-linejoin: miter; stroke-miterlimit: 10;fill:#3E3F68;fill-opacity:1; fill-rule: nonzero; opacity: 1; white-space: pre" ><tspan x="-28.04" y="8.84" fill="rgba(62,63,104,1)">$ million</tspan></text></g></g><g style="stroke: none; stroke-width: 1; stroke-dasharray: none; stroke-linecap: butt; stroke-linejoin: miter; stroke-miterlimit: 10; fill: none; fill-rule: nonzero; opacity: 1" transform="translate(0 499.99999999999994)" ><path d="M 0.5 0.5 L 709.5 0.5 L 709.5 97.5 L 0.5 97.5 Z" style="stroke:#000000;stroke-opacity:1; stroke-opacity: 0; stroke-width: 1; stroke-dasharray: none; stroke-linecap: butt; stroke-linejoin: miter; stroke-miterlimit: 10;fill:#FFFFFF;fill-opacity:1; fill-opacity: 0; fill-rule: nonzero; opacity: 1" transform=" matrix(1 0 0 1 20 0) " stroke-linecap="round" /><circle cx="0" cy="0" r="8" style="stroke:#67B7DC;stroke-opacity:1; stroke-width: 1; stroke-dasharray: none; stroke-linecap: butt; stroke-linejoin: miter; stroke-miterlimit: 10;fill:#67B7DC;fill-opacity:1; fill-opacity: 0.5; fill-rule: nonzero; opacity: 1" transform="  matrix(1 0 0 1 149 19) "/><path d="M -5.5 -5.5 L 6.5 6.5" style="stroke:#FFFFFF;stroke-opacity:1; stroke-opacity: 0; stroke-width: 3; stroke-dasharray: none; stroke-linecap: butt; stroke-linejoin: miter; stroke-miterlimit: 10; fill: none; fill-rule: nonzero; opacity: 0" transform=" matrix(1 0 0 1 149 19) " stroke-linecap="round" /><path d="M -5.5 6.5 L 6.5 -5.5" style="stroke:#FFFFFF;stroke-opacity:1; stroke-opacity: 0; stroke-width: 3; stroke-dasharray: none; stroke-linecap: butt; stroke-linejoin: miter; stroke-miterlimit: 10; fill: none; fill-rule: nonzero; opacity: 0" transform=" matrix(1 0 0 1 149 19) " stroke-linecap="round" /><g transform=" matrix(1 0 0 1 162 18) "><text xml:space="preserve" font-family="Open Sans, sans serif" font-size="12" font-weight="normal" style="stroke: none; stroke-width: 1; stroke-dasharray: none; stroke-linecap: butt; stroke-linejoin: miter; stroke-miterlimit: 10;fill:#000000;fill-opacity:1; fill-rule: nonzero; opacity: 1; white-space: pre" ><tspan x="0.5" y="7.66" fill="rgba(0,0,0,1)">Bank notes in circulation</tspan></text></g><rect x="16" y="0" rx="0" ry="0" width="207.93333435058594" height="19" style="stroke: none; stroke-width: 0; stroke-dasharray: none; stroke-linecap: butt; stroke-linejoin: miter; stroke-miterlimit: 10;fill:#FFFFFF;fill-opacity:1; fill-opacity: 0.005; fill-rule: nonzero; opacity: 1" transform=" matrix(1 0 0 1 141 11) "/><circle cx="0" cy="0" r="8" style="stroke:#FDD400;stroke-opacity:1; stroke-width: 1; stroke-dasharray: none; stroke-linecap: butt; stroke-linejoin: miter; stroke-miterlimit: 10;fill:#FDD400;fill-opacity:1; fill-opacity: 0.5; fill-rule: nonzero; opacity: 1" transform="  matrix(1 0 0 1 393 19) "/><path d="M -5.5 -5.5 L 6.5 6.5" style="stroke:#FFFFFF;stroke-opacity:1; stroke-opacity: 0; stroke-width: 3; stroke-dasharray: none; stroke-linecap: butt; stroke-linejoin: miter; stroke-miterlimit: 10; fill: none; fill-rule: nonzero; opacity: 0" transform=" matrix(1 0 0 1 393 19) " stroke-linecap="round" /><path d="M -5.5 6.5 L 6.5 -5.5" style="stroke:#FFFFFF;stroke-opacity:1; stroke-opacity: 0; stroke-width: 3; stroke-dasharray: none; stroke-linecap: butt; stroke-linejoin: miter; stroke-miterlimit: 10; fill: none; fill-rule: nonzero; opacity: 0" transform=" matrix(1 0 0 1 393 19) " stroke-linecap="round" /><g transform=" matrix(1 0 0 1 406 18) "><text xml:space="preserve" font-family="Open Sans, sans serif" font-size="12" font-weight="normal" style="stroke: none; stroke-width: 1; stroke-dasharray: none; stroke-linecap: butt; stroke-linejoin: miter; stroke-miterlimit: 10;fill:#000000;fill-opacity:1; fill-rule: nonzero; opacity: 1; white-space: pre" ><tspan x="0.5" y="7.66" fill="rgba(0,0,0,1)">Government of Canada deposit</tspan></text></g><rect x="16" y="0" rx="0" ry="0" width="207.93333435058594" height="19" style="stroke: none; stroke-width: 0; stroke-dasharray: none; stroke-linecap: butt; stroke-linejoin: miter; stroke-miterlimit: 10;fill:#FFFFFF;fill-opacity:1; fill-opacity: 0.005; fill-rule: nonzero; opacity: 1" transform=" matrix(1 0 0 1 385 11) "/><circle cx="0" cy="0" r="8" style="stroke:#0EB663;stroke-opacity:1; stroke-width: 1; stroke-dasharray: none; stroke-linecap: butt; stroke-linejoin: miter; stroke-miterlimit: 10;fill:#0EB663;fill-opacity:1; fill-opacity: 0.5; fill-rule: nonzero; opacity: 1" transform="  matrix(1 0 0 1 149 48) "/><path d="M -5.5 -5.5 L 6.5 6.5" style="stroke:#FFFFFF;stroke-opacity:1; stroke-opacity: 0; stroke-width: 3; stroke-dasharray: none; stroke-linecap: butt; stroke-linejoin: miter; stroke-miterlimit: 10; fill: none; fill-rule: nonzero; opacity: 0" transform=" matrix(1 0 0 1 149 48) " stroke-linecap="round" /><path d="M -5.5 6.5 L 6.5 -5.5" style="stroke:#FFFFFF;stroke-opacity:1; stroke-opacity: 0; stroke-width: 3; stroke-dasharray: none; stroke-linecap: butt; stroke-linejoin: miter; stroke-miterlimit: 10; fill: none; fill-rule: nonzero; opacity: 0" transform=" matrix(1 0 0 1 149 48) " stroke-linecap="round" /><g transform=" matrix(1 0 0 1 162 47) "><text xml:space="preserve" font-family="Open Sans, sans serif" font-size="12" font-weight="normal" style="stroke: none; stroke-width: 1; stroke-dasharray: none; stroke-linecap: butt; stroke-linejoin: miter; stroke-miterlimit: 10;fill:#000000;fill-opacity:1; fill-rule: nonzero; opacity: 1; white-space: pre" ><tspan x="0.5" y="7.66" fill="rgba(0,0,0,1)">Payments Canada members deposits</tspan></text></g><rect x="16" y="0" rx="0" ry="0" width="207.93333435058594" height="19" style="stroke: none; stroke-width: 0; stroke-dasharray: none; stroke-linecap: butt; stroke-linejoin: miter; stroke-miterlimit: 10;fill:#FFFFFF;fill-opacity:1; fill-opacity: 0.005; fill-rule: nonzero; opacity: 1" transform=" matrix(1 0 0 1 141 40) "/><circle cx="0" cy="0" r="8" style="stroke:#B92020;stroke-opacity:1; stroke-width: 1; stroke-dasharray: none; stroke-linecap: butt; stroke-linejoin: miter; stroke-miterlimit: 10;fill:#B92020;fill-opacity:1; fill-opacity: 0.5; fill-rule: nonzero; opacity: 1" transform="  matrix(1 0 0 1 393 48) "/><path d="M -5.5 -5.5 L 6.5 6.5" style="stroke:#FFFFFF;stroke-opacity:1; stroke-opacity: 0; stroke-width: 3; stroke-dasharray: none; stroke-linecap: butt; stroke-linejoin: miter; stroke-miterlimit: 10; fill: none; fill-rule: nonzero; opacity: 0" transform=" matrix(1 0 0 1 393 48) " stroke-linecap="round" /><path d="M -5.5 6.5 L 6.5 -5.5" style="stroke:#FFFFFF;stroke-opacity:1; stroke-opacity: 0; stroke-width: 3; stroke-dasharray: none; stroke-linecap: butt; stroke-linejoin: miter; stroke-miterlimit: 10; fill: none; fill-rule: nonzero; opacity: 0" transform=" matrix(1 0 0 1 393 48) " stroke-linecap="round" /><g transform=" matrix(1 0 0 1 406 47) "><text xml:space="preserve" font-family="Open Sans, sans serif" font-size="12" font-weight="normal" style="stroke: none; stroke-width: 1; stroke-dasharray: none; stroke-linecap: butt; stroke-linejoin: miter; stroke-miterlimit: 10;fill:#000000;fill-opacity:1; fill-rule: nonzero; opacity: 1; white-space: pre" ><tspan x="0.5" y="7.66" fill="rgba(0,0,0,1)">Other deposits</tspan></text></g><rect x="16" y="0" rx="0" ry="0" width="207.93333435058594" height="19" style="stroke: none; stroke-width: 0; stroke-dasharray: none; stroke-linecap: butt; stroke-linejoin: miter; stroke-miterlimit: 10;fill:#FFFFFF;fill-opacity:1; fill-opacity: 0.005; fill-rule: nonzero; opacity: 1" transform=" matrix(1 0 0 1 385 40) "/><circle cx="0" cy="0" r="8" style="stroke:#F6871E;stroke-opacity:1; stroke-width: 1; stroke-dasharray: none; stroke-linecap: butt; stroke-linejoin: miter; stroke-miterlimit: 10;fill:#F6871E;fill-opacity:1; fill-opacity: 0.5; fill-rule: nonzero; opacity: 1" transform="  matrix(1 0 0 1 149 78) "/><path d="M -5.5 -5.5 L 6.5 6.5" style="stroke:#FFFFFF;stroke-opacity:1; stroke-opacity: 0; stroke-width: 3; stroke-dasharray: none; stroke-linecap: butt; stroke-linejoin: miter; stroke-miterlimit: 10; fill: none; fill-rule: nonzero; opacity: 0" transform=" matrix(1 0 0 1 149 78) " stroke-linecap="round" /><path d="M -5.5 6.5 L 6.5 -5.5" style="stroke:#FFFFFF;stroke-opacity:1; stroke-opacity: 0; stroke-width: 3; stroke-dasharray: none; stroke-linecap: butt; stroke-linejoin: miter; stroke-miterlimit: 10; fill: none; fill-rule: nonzero; opacity: 0" transform=" matrix(1 0 0 1 149 78) " stroke-linecap="round" /><g transform=" matrix(1 0 0 1 162 77) "><text xml:space="preserve" font-family="Open Sans, sans serif" font-size="12" font-weight="normal" style="stroke: none; stroke-width: 1; stroke-dasharray: none; stroke-linecap: butt; stroke-linejoin: miter; stroke-miterlimit: 10;fill:#000000;fill-opacity:1; fill-rule: nonzero; opacity: 1; white-space: pre" ><tspan x="0.5" y="7.66" fill="rgba(0,0,0,1)">All other liabilities</tspan></text></g><rect x="16" y="0" rx="0" ry="0" width="207.93333435058594" height="19" style="stroke: none; stroke-width: 0; stroke-dasharray: none; stroke-linecap: butt; stroke-linejoin: miter; stroke-miterlimit: 10;fill:#FFFFFF;fill-opacity:1; fill-opacity: 0.005; fill-rule: nonzero; opacity: 1" transform=" matrix(1 0 0 1 141 70) "/><circle cx="0" cy="0" r="8" style="stroke:#A92C90;stroke-opacity:1; stroke-width: 1; stroke-dasharray: none; stroke-linecap: butt; stroke-linejoin: miter; stroke-miterlimit: 10;fill:#A92C90;fill-opacity:1; fill-opacity: 0.5; fill-rule: nonzero; opacity: 1" transform="  matrix(1 0 0 1 393 78) "/><path d="M -5.5 -5.5 L 6.5 6.5" style="stroke:#FFFFFF;stroke-opacity:1; stroke-opacity: 0; stroke-width: 3; stroke-dasharray: none; stroke-linecap: butt; stroke-linejoin: miter; stroke-miterlimit: 10; fill: none; fill-rule: nonzero; opacity: 0" transform=" matrix(1 0 0 1 393 78) " stroke-linecap="round" /><path d="M -5.5 6.5 L 6.5 -5.5" style="stroke:#FFFFFF;stroke-opacity:1; stroke-opacity: 0; stroke-width: 3; stroke-dasharray: none; stroke-linecap: butt; stroke-linejoin: miter; stroke-miterlimit: 10; fill: none; fill-rule: nonzero; opacity: 0" transform=" matrix(1 0 0 1 393 78) " stroke-linecap="round" /><g transform=" matrix(1 0 0 1 406 77) "><text xml:space="preserve" font-family="Open Sans, sans serif" font-size="12" font-weight="normal" style="stroke: none; stroke-width: 1; stroke-dasharray: none; stroke-linecap: butt; stroke-linejoin: miter; stroke-miterlimit: 10;fill:#000000;fill-opacity:1; fill-rule: nonzero; opacity: 1; white-space: pre" ><tspan x="0.5" y="7.66" fill="rgba(0,0,0,1)">Equity</tspan></text></g><rect x="16" y="0" rx="0" ry="0" width="207.93333435058594" height="19" style="stroke: none; stroke-width: 0; stroke-dasharray: none; stroke-linecap: butt; stroke-linejoin: miter; stroke-miterlimit: 10;fill:#FFFFFF;fill-opacity:1; fill-opacity: 0.005; fill-rule: nonzero; opacity: 1" transform=" matrix(1 0 0 1 385 70) "/></g><clipPath xmlns="http://www.w3.org/2000/svg" id="AmChartsEl-65"><rect x="0" y="0" width="633" height="412" rx="0" ry="0" stroke-width="0" fill="none" fill-opacity="0"/></clipPath><clipPath xmlns="http://www.w3.org/2000/svg" id="AmChartsEl-66"><rect x="0" y="0" width="633" height="412" rx="0" ry="0" stroke-width="0" fill="none" fill-opacity="0"/></clipPath><clipPath xmlns="http://www.w3.org/2000/svg" id="AmChartsEl-67"><rect x="0" y="0" width="633" height="412" rx="0" ry="0" stroke-width="0" fill="none" fill-opacity="0"/></clipPath><clipPath xmlns="http://www.w3.org/2000/svg" id="AmChartsEl-68"><rect x="0" y="0" width="633" height="412" rx="0" ry="0" stroke-width="0" fill="none" fill-opacity="0"/></clipPath><clipPath xmlns="http://www.w3.org/2000/svg" id="AmChartsEl-69"><rect x="0" y="0" width="633" height="412" rx="0" ry="0" stroke-width="0" fill="none" fill-opacity="0"/></clipPath><clipPath xmlns="http://www.w3.org/2000/svg" id="AmChartsEl-70"><rect x="0" y="0" width="633" height="412" rx="0" ry="0" stroke-width="0" fill="none" fill-opacity="0"/></clipPath><clipPath xmlns="http://www.w3.org/2000/svg" id="AmChartsEl-64"><rect x="0" y="0" width="633" height="412" rx="0" ry="0" stroke-width="0" fill="none" fill-opacity="0"/></clipPath></svg>