<?xml version="1.0" encoding="utf-8" standalone="no"?>
<!DOCTYPE svg PUBLIC "-//W3C//DTD SVG 1.1//EN"
  "http://www.w3.org/Graphics/SVG/1.1/DTD/svg11.dtd">
<!-- Created with matplotlib (https://matplotlib.org/) -->
<svg height="576pt" version="1.1" viewBox="0 0 864 576" width="864pt" xmlns="http://www.w3.org/2000/svg" xmlns:xlink="http://www.w3.org/1999/xlink">
 <defs>
  <style type="text/css">
*{stroke-linecap:butt;stroke-linejoin:round;}
  </style>
 </defs>
 <g id="figure_1">
  <g id="patch_1">
   <path d="M 0 576 
L 864 576 
L 864 0 
L 0 0 
z
" style="fill:#ffffff;"/>
  </g>
  <g id="axes_1">
   <g id="patch_2">
    <path d="M 56.05 506.5 
L 853.2 506.5 
L 853.2 31.8 
L 56.05 31.8 
z
" style="fill:#ffffff;"/>
   </g>
   <g id="matplotlib.axis_1">
    <g id="xtick_1">
     <g id="line2d_1">
      <defs>
       <path d="M 0 0 
L 0 6 
" id="mae0362b4b5" style="stroke:#262626;stroke-width:0.8;"/>
      </defs>
      <g>
       <use style="fill:#262626;stroke:#262626;stroke-width:0.8;" x="56.05" xlink:href="#mae0362b4b5" y="506.5"/>
      </g>
     </g>
     <g id="text_1">
      <!-- 1970 -->
      <defs>
       <path d="M 7.625 0 
L 7.625 7.46875 
L 25.140625 7.46875 
L 25.140625 60.40625 
L 9.625 49.3125 
L 9.625 57.625 
L 25.875 68.796875 
L 33.984375 68.796875 
L 33.984375 7.46875 
L 50.734375 7.46875 
L 50.734375 0 
z
" id="LiberationSans-49"/>
       <path d="M 50.875 35.796875 
Q 50.875 18.0625 44.40625 8.53125 
Q 37.9375 -0.984375 25.984375 -0.984375 
Q 17.921875 -0.984375 13.0625 2.40625 
Q 8.203125 5.8125 6.109375 13.375 
L 14.5 14.703125 
Q 17.140625 6.109375 26.125 6.109375 
Q 33.6875 6.109375 37.84375 13.140625 
Q 42 20.171875 42.1875 33.203125 
Q 40.234375 28.8125 35.5 26.140625 
Q 30.765625 23.484375 25.09375 23.484375 
Q 15.828125 23.484375 10.25 29.828125 
Q 4.6875 36.1875 4.6875 46.6875 
Q 4.6875 57.46875 10.734375 63.640625 
Q 16.796875 69.828125 27.59375 69.828125 
Q 39.0625 69.828125 44.96875 61.328125 
Q 50.875 52.828125 50.875 35.796875 
z
M 41.3125 44.28125 
Q 41.3125 52.59375 37.5 57.640625 
Q 33.6875 62.703125 27.296875 62.703125 
Q 20.953125 62.703125 17.28125 58.375 
Q 13.625 54.046875 13.625 46.6875 
Q 13.625 39.15625 17.28125 34.78125 
Q 20.953125 30.421875 27.203125 30.421875 
Q 31 30.421875 34.265625 32.15625 
Q 37.546875 33.890625 39.421875 37.0625 
Q 41.3125 40.234375 41.3125 44.28125 
z
" id="LiberationSans-57"/>
       <path d="M 50.59375 61.671875 
Q 40.046875 45.5625 35.6875 36.421875 
Q 31.34375 27.296875 29.171875 18.40625 
Q 27 9.515625 27 0 
L 17.828125 0 
Q 17.828125 13.1875 23.40625 27.75 
Q 29 42.328125 42.09375 61.328125 
L 5.125 61.328125 
L 5.125 68.796875 
L 50.59375 68.796875 
z
" id="LiberationSans-55"/>
       <path d="M 51.703125 34.421875 
Q 51.703125 17.1875 45.625 8.09375 
Q 39.546875 -0.984375 27.6875 -0.984375 
Q 15.828125 -0.984375 9.859375 8.046875 
Q 3.90625 17.09375 3.90625 34.421875 
Q 3.90625 52.15625 9.6875 60.984375 
Q 15.484375 69.828125 27.984375 69.828125 
Q 40.140625 69.828125 45.921875 60.890625 
Q 51.703125 51.953125 51.703125 34.421875 
z
M 42.78125 34.421875 
Q 42.78125 49.3125 39.328125 56 
Q 35.890625 62.703125 27.984375 62.703125 
Q 19.875 62.703125 16.328125 56.109375 
Q 12.796875 49.515625 12.796875 34.421875 
Q 12.796875 19.78125 16.375 12.984375 
Q 19.96875 6.203125 27.78125 6.203125 
Q 35.546875 6.203125 39.15625 13.125 
Q 42.78125 20.0625 42.78125 34.421875 
z
" id="LiberationSans-48"/>
      </defs>
      <g style="fill:#262626;" transform="translate(38.255 527.595)scale(0.16 -0.16)">
       <use xlink:href="#LiberationSans-49"/>
       <use x="55.615234" xlink:href="#LiberationSans-57"/>
       <use x="111.230469" xlink:href="#LiberationSans-55"/>
       <use x="166.845703" xlink:href="#LiberationSans-48"/>
      </g>
     </g>
    </g>
    <g id="xtick_2">
     <g id="line2d_2">
      <g>
       <use style="fill:#262626;stroke:#262626;stroke-width:0.8;" x="136.023403" xlink:href="#mae0362b4b5" y="506.5"/>
      </g>
     </g>
     <g id="text_2">
      <!-- 1975 -->
      <defs>
       <path d="M 51.421875 22.40625 
Q 51.421875 11.53125 44.953125 5.265625 
Q 38.484375 -0.984375 27 -0.984375 
Q 17.390625 -0.984375 11.46875 3.21875 
Q 5.5625 7.421875 4 15.375 
L 12.890625 16.40625 
Q 15.671875 6.203125 27.203125 6.203125 
Q 34.28125 6.203125 38.28125 10.46875 
Q 42.28125 14.75 42.28125 22.21875 
Q 42.28125 28.71875 38.25 32.71875 
Q 34.234375 36.71875 27.390625 36.71875 
Q 23.828125 36.71875 20.75 35.59375 
Q 17.671875 34.46875 14.59375 31.78125 
L 6 31.78125 
L 8.296875 68.796875 
L 47.40625 68.796875 
L 47.40625 61.328125 
L 16.3125 61.328125 
L 14.984375 39.5 
Q 20.703125 43.890625 29.203125 43.890625 
Q 39.359375 43.890625 45.390625 37.9375 
Q 51.421875 31.984375 51.421875 22.40625 
z
" id="LiberationSans-53"/>
      </defs>
      <g style="fill:#262626;" transform="translate(118.228403 527.595)scale(0.16 -0.16)">
       <use xlink:href="#LiberationSans-49"/>
       <use x="55.615234" xlink:href="#LiberationSans-57"/>
       <use x="111.230469" xlink:href="#LiberationSans-55"/>
       <use x="166.845703" xlink:href="#LiberationSans-53"/>
      </g>
     </g>
    </g>
    <g id="xtick_3">
     <g id="line2d_3">
      <g>
       <use style="fill:#262626;stroke:#262626;stroke-width:0.8;" x="215.996805" xlink:href="#mae0362b4b5" y="506.5"/>
      </g>
     </g>
     <g id="text_3">
      <!-- 1980 -->
      <defs>
       <path d="M 51.265625 19.1875 
Q 51.265625 9.671875 45.203125 4.34375 
Q 39.15625 -0.984375 27.828125 -0.984375 
Q 16.796875 -0.984375 10.5625 4.234375 
Q 4.34375 9.46875 4.34375 19.09375 
Q 4.34375 25.828125 8.203125 30.421875 
Q 12.0625 35.015625 18.0625 35.984375 
L 18.0625 36.1875 
Q 12.453125 37.5 9.203125 41.890625 
Q 5.953125 46.296875 5.953125 52.203125 
Q 5.953125 60.0625 11.828125 64.9375 
Q 17.71875 69.828125 27.640625 69.828125 
Q 37.796875 69.828125 43.671875 65.03125 
Q 49.5625 60.25 49.5625 52.09375 
Q 49.5625 46.1875 46.28125 41.796875 
Q 43.015625 37.40625 37.359375 36.28125 
L 37.359375 36.078125 
Q 43.953125 35.015625 47.609375 30.5 
Q 51.265625 25.984375 51.265625 19.1875 
z
M 40.4375 51.609375 
Q 40.4375 63.28125 27.640625 63.28125 
Q 21.4375 63.28125 18.1875 60.34375 
Q 14.9375 57.421875 14.9375 51.609375 
Q 14.9375 45.703125 18.28125 42.59375 
Q 21.625 39.5 27.734375 39.5 
Q 33.9375 39.5 37.1875 42.359375 
Q 40.4375 45.21875 40.4375 51.609375 
z
M 42.140625 20.015625 
Q 42.140625 26.421875 38.328125 29.65625 
Q 34.515625 32.90625 27.640625 32.90625 
Q 20.953125 32.90625 17.1875 29.40625 
Q 13.421875 25.921875 13.421875 19.828125 
Q 13.421875 5.609375 27.9375 5.609375 
Q 35.109375 5.609375 38.625 9.046875 
Q 42.140625 12.5 42.140625 20.015625 
z
" id="LiberationSans-56"/>
      </defs>
      <g style="fill:#262626;" transform="translate(198.201805 527.595)scale(0.16 -0.16)">
       <use xlink:href="#LiberationSans-49"/>
       <use x="55.615234" xlink:href="#LiberationSans-57"/>
       <use x="111.230469" xlink:href="#LiberationSans-56"/>
       <use x="166.845703" xlink:href="#LiberationSans-48"/>
      </g>
     </g>
    </g>
    <g id="xtick_4">
     <g id="line2d_4">
      <g>
       <use style="fill:#262626;stroke:#262626;stroke-width:0.8;" x="296.014005" xlink:href="#mae0362b4b5" y="506.5"/>
      </g>
     </g>
     <g id="text_4">
      <!-- 1985 -->
      <g style="fill:#262626;" transform="translate(278.219005 527.595)scale(0.16 -0.16)">
       <use xlink:href="#LiberationSans-49"/>
       <use x="55.615234" xlink:href="#LiberationSans-57"/>
       <use x="111.230469" xlink:href="#LiberationSans-56"/>
       <use x="166.845703" xlink:href="#LiberationSans-53"/>
      </g>
     </g>
    </g>
    <g id="xtick_5">
     <g id="line2d_5">
      <g>
       <use style="fill:#262626;stroke:#262626;stroke-width:0.8;" x="375.987407" xlink:href="#mae0362b4b5" y="506.5"/>
      </g>
     </g>
     <g id="text_5">
      <!-- 1990 -->
      <g style="fill:#262626;" transform="translate(358.192407 527.595)scale(0.16 -0.16)">
       <use xlink:href="#LiberationSans-49"/>
       <use x="55.615234" xlink:href="#LiberationSans-57"/>
       <use x="111.230469" xlink:href="#LiberationSans-57"/>
       <use x="166.845703" xlink:href="#LiberationSans-48"/>
      </g>
     </g>
    </g>
    <g id="xtick_6">
     <g id="line2d_6">
      <g>
       <use style="fill:#262626;stroke:#262626;stroke-width:0.8;" x="455.96081" xlink:href="#mae0362b4b5" y="506.5"/>
      </g>
     </g>
     <g id="text_6">
      <!-- 1995 -->
      <g style="fill:#262626;" transform="translate(438.16581 527.595)scale(0.16 -0.16)">
       <use xlink:href="#LiberationSans-49"/>
       <use x="55.615234" xlink:href="#LiberationSans-57"/>
       <use x="111.230469" xlink:href="#LiberationSans-57"/>
       <use x="166.845703" xlink:href="#LiberationSans-53"/>
      </g>
     </g>
    </g>
    <g id="xtick_7">
     <g id="line2d_7">
      <g>
       <use style="fill:#262626;stroke:#262626;stroke-width:0.8;" x="535.934212" xlink:href="#mae0362b4b5" y="506.5"/>
      </g>
     </g>
     <g id="text_7">
      <!-- 2000 -->
      <defs>
       <path d="M 5.03125 0 
L 5.03125 6.203125 
Q 7.515625 11.921875 11.109375 16.28125 
Q 14.703125 20.65625 18.65625 24.1875 
Q 22.609375 27.734375 26.484375 30.765625 
Q 30.375 33.796875 33.5 36.8125 
Q 36.625 39.84375 38.546875 43.15625 
Q 40.484375 46.484375 40.484375 50.6875 
Q 40.484375 56.34375 37.15625 59.46875 
Q 33.84375 62.59375 27.9375 62.59375 
Q 22.3125 62.59375 18.671875 59.546875 
Q 15.046875 56.5 14.40625 50.984375 
L 5.421875 51.8125 
Q 6.390625 60.0625 12.421875 64.9375 
Q 18.453125 69.828125 27.9375 69.828125 
Q 38.328125 69.828125 43.921875 64.921875 
Q 49.515625 60.015625 49.515625 50.984375 
Q 49.515625 46.96875 47.671875 43.015625 
Q 45.84375 39.0625 42.234375 35.109375 
Q 38.625 31.15625 28.421875 22.859375 
Q 22.796875 18.265625 19.46875 14.578125 
Q 16.15625 10.890625 14.703125 7.46875 
L 50.59375 7.46875 
L 50.59375 0 
z
" id="LiberationSans-50"/>
      </defs>
      <g style="fill:#262626;" transform="translate(518.139212 527.595)scale(0.16 -0.16)">
       <use xlink:href="#LiberationSans-50"/>
       <use x="55.615234" xlink:href="#LiberationSans-48"/>
       <use x="111.230469" xlink:href="#LiberationSans-48"/>
       <use x="166.845703" xlink:href="#LiberationSans-48"/>
      </g>
     </g>
    </g>
    <g id="xtick_8">
     <g id="line2d_8">
      <g>
       <use style="fill:#262626;stroke:#262626;stroke-width:0.8;" x="615.951412" xlink:href="#mae0362b4b5" y="506.5"/>
      </g>
     </g>
     <g id="text_8">
      <!-- 2005 -->
      <g style="fill:#262626;" transform="translate(598.156412 527.595)scale(0.16 -0.16)">
       <use xlink:href="#LiberationSans-50"/>
       <use x="55.615234" xlink:href="#LiberationSans-48"/>
       <use x="111.230469" xlink:href="#LiberationSans-48"/>
       <use x="166.845703" xlink:href="#LiberationSans-53"/>
      </g>
     </g>
    </g>
    <g id="xtick_9">
     <g id="line2d_9">
      <g>
       <use style="fill:#262626;stroke:#262626;stroke-width:0.8;" x="695.924815" xlink:href="#mae0362b4b5" y="506.5"/>
      </g>
     </g>
     <g id="text_9">
      <!-- 2010 -->
      <g style="fill:#262626;" transform="translate(678.129815 527.595)scale(0.16 -0.16)">
       <use xlink:href="#LiberationSans-50"/>
       <use x="55.615234" xlink:href="#LiberationSans-48"/>
       <use x="111.230469" xlink:href="#LiberationSans-49"/>
       <use x="166.845703" xlink:href="#LiberationSans-48"/>
      </g>
     </g>
    </g>
    <g id="xtick_10">
     <g id="line2d_10">
      <g>
       <use style="fill:#262626;stroke:#262626;stroke-width:0.8;" x="775.898217" xlink:href="#mae0362b4b5" y="506.5"/>
      </g>
     </g>
     <g id="text_10">
      <!-- 2015 -->
      <g style="fill:#262626;" transform="translate(758.103217 527.595)scale(0.16 -0.16)">
       <use xlink:href="#LiberationSans-50"/>
       <use x="55.615234" xlink:href="#LiberationSans-48"/>
       <use x="111.230469" xlink:href="#LiberationSans-49"/>
       <use x="166.845703" xlink:href="#LiberationSans-53"/>
      </g>
     </g>
    </g>
    <g id="text_11">
     <!--  -->
     <g style="fill:#262626;" transform="translate(454.625 545.060625)scale(0.14 -0.14)"/>
     <!-- Data source: Staistics Canada -->
     <defs>
      <path d="M 67.4375 35.109375 
Q 67.4375 24.46875 63.28125 16.484375 
Q 59.125 8.5 51.5 4.25 
Q 43.890625 0 33.9375 0 
L 8.203125 0 
L 8.203125 68.796875 
L 30.953125 68.796875 
Q 48.4375 68.796875 57.9375 60.03125 
Q 67.4375 51.265625 67.4375 35.109375 
z
M 58.0625 35.109375 
Q 58.0625 47.90625 51.046875 54.609375 
Q 44.046875 61.328125 30.765625 61.328125 
L 17.53125 61.328125 
L 17.53125 7.46875 
L 32.859375 7.46875 
Q 40.4375 7.46875 46.171875 10.78125 
Q 51.90625 14.109375 54.984375 20.359375 
Q 58.0625 26.609375 58.0625 35.109375 
z
" id="LiberationSans-68"/>
      <path d="M 20.21875 -0.984375 
Q 12.25 -0.984375 8.25 3.21875 
Q 4.25 7.421875 4.25 14.75 
Q 4.25 22.953125 9.640625 27.34375 
Q 15.046875 31.734375 27.046875 32.03125 
L 38.921875 32.234375 
L 38.921875 35.109375 
Q 38.921875 41.546875 36.1875 44.328125 
Q 33.453125 47.125 27.59375 47.125 
Q 21.6875 47.125 19 45.109375 
Q 16.3125 43.109375 15.765625 38.71875 
L 6.59375 39.546875 
Q 8.84375 53.8125 27.78125 53.8125 
Q 37.75 53.8125 42.765625 49.234375 
Q 47.796875 44.671875 47.796875 36.03125 
L 47.796875 13.28125 
Q 47.796875 9.375 48.828125 7.390625 
Q 49.859375 5.421875 52.734375 5.421875 
Q 54 5.421875 55.609375 5.765625 
L 55.609375 0.296875 
Q 52.296875 -0.484375 48.828125 -0.484375 
Q 43.953125 -0.484375 41.71875 2.078125 
Q 39.5 4.640625 39.203125 10.109375 
L 38.921875 10.109375 
Q 35.546875 4.046875 31.078125 1.53125 
Q 26.609375 -0.984375 20.21875 -0.984375 
z
M 22.21875 5.609375 
Q 27.046875 5.609375 30.8125 7.8125 
Q 34.578125 10.015625 36.75 13.84375 
Q 38.921875 17.671875 38.921875 21.734375 
L 38.921875 26.078125 
L 29.296875 25.875 
Q 23.09375 25.78125 19.890625 24.609375 
Q 16.703125 23.4375 14.984375 21 
Q 13.28125 18.5625 13.28125 14.59375 
Q 13.28125 10.296875 15.59375 7.953125 
Q 17.921875 5.609375 22.21875 5.609375 
z
" id="LiberationSans-97"/>
      <path d="M 27.046875 0.390625 
Q 22.703125 -0.78125 18.171875 -0.78125 
Q 7.625 -0.78125 7.625 11.1875 
L 7.625 46.4375 
L 1.515625 46.4375 
L 1.515625 52.828125 
L 7.953125 52.828125 
L 10.546875 64.65625 
L 16.40625 64.65625 
L 16.40625 52.828125 
L 26.171875 52.828125 
L 26.171875 46.4375 
L 16.40625 46.4375 
L 16.40625 13.09375 
Q 16.40625 9.28125 17.640625 7.734375 
Q 18.890625 6.203125 21.96875 6.203125 
Q 23.734375 6.203125 27.046875 6.890625 
z
" id="LiberationSans-116"/>
      <path id="LiberationSans-32"/>
      <path d="M 46.390625 14.59375 
Q 46.390625 7.125 40.75 3.0625 
Q 35.109375 -0.984375 24.953125 -0.984375 
Q 15.09375 -0.984375 9.734375 2.265625 
Q 4.390625 5.515625 2.78125 12.40625 
L 10.546875 13.921875 
Q 11.671875 9.671875 15.1875 7.6875 
Q 18.703125 5.71875 24.953125 5.71875 
Q 31.640625 5.71875 34.734375 7.765625 
Q 37.84375 9.8125 37.84375 13.921875 
Q 37.84375 17.046875 35.6875 19 
Q 33.546875 20.953125 28.765625 22.21875 
L 22.46875 23.875 
Q 14.890625 25.828125 11.6875 27.703125 
Q 8.5 29.59375 6.6875 32.28125 
Q 4.890625 34.96875 4.890625 38.875 
Q 4.890625 46.09375 10.03125 49.875 
Q 15.1875 53.65625 25.046875 53.65625 
Q 33.796875 53.65625 38.9375 50.578125 
Q 44.09375 47.515625 45.453125 40.71875 
L 37.546875 39.75 
Q 36.8125 43.265625 33.609375 45.140625 
Q 30.421875 47.015625 25.046875 47.015625 
Q 19.09375 47.015625 16.25 45.203125 
Q 13.421875 43.40625 13.421875 39.75 
Q 13.421875 37.5 14.59375 36.03125 
Q 15.765625 34.578125 18.0625 33.546875 
Q 20.359375 32.515625 27.734375 30.71875 
Q 34.71875 28.953125 37.796875 27.46875 
Q 40.875 25.984375 42.65625 24.171875 
Q 44.4375 22.359375 45.40625 19.984375 
Q 46.390625 17.625 46.390625 14.59375 
z
" id="LiberationSans-115"/>
      <path d="M 51.421875 26.46875 
Q 51.421875 12.59375 45.3125 5.796875 
Q 39.203125 -0.984375 27.59375 -0.984375 
Q 16.015625 -0.984375 10.109375 6.078125 
Q 4.203125 13.140625 4.203125 26.46875 
Q 4.203125 53.8125 27.875 53.8125 
Q 39.984375 53.8125 45.703125 47.140625 
Q 51.421875 40.484375 51.421875 26.46875 
z
M 42.1875 26.46875 
Q 42.1875 37.40625 38.9375 42.359375 
Q 35.6875 47.3125 28.03125 47.3125 
Q 20.3125 47.3125 16.859375 42.25 
Q 13.421875 37.203125 13.421875 26.46875 
Q 13.421875 16.015625 16.8125 10.765625 
Q 20.21875 5.515625 27.484375 5.515625 
Q 35.40625 5.515625 38.796875 10.59375 
Q 42.1875 15.671875 42.1875 26.46875 
z
" id="LiberationSans-111"/>
      <path d="M 15.328125 52.828125 
L 15.328125 19.34375 
Q 15.328125 14.109375 16.359375 11.21875 
Q 17.390625 8.34375 19.625 7.078125 
Q 21.875 5.8125 26.21875 5.8125 
Q 32.5625 5.8125 36.21875 10.15625 
Q 39.890625 14.5 39.890625 22.21875 
L 39.890625 52.828125 
L 48.6875 52.828125 
L 48.6875 11.28125 
Q 48.6875 2.046875 48.96875 0 
L 40.671875 0 
Q 40.625 0.25 40.578125 1.3125 
Q 40.53125 2.390625 40.453125 3.78125 
Q 40.375 5.171875 40.28125 9.03125 
L 40.140625 9.03125 
Q 37.109375 3.5625 33.125 1.28125 
Q 29.15625 -0.984375 23.25 -0.984375 
Q 14.546875 -0.984375 10.515625 3.34375 
Q 6.5 7.671875 6.5 17.625 
L 6.5 52.828125 
z
" id="LiberationSans-117"/>
      <path d="M 6.9375 0 
L 6.9375 40.53125 
Q 6.9375 46.09375 6.640625 52.828125 
L 14.9375 52.828125 
Q 15.328125 43.84375 15.328125 42.046875 
L 15.53125 42.046875 
Q 17.625 48.828125 20.359375 51.3125 
Q 23.09375 53.8125 28.078125 53.8125 
Q 29.828125 53.8125 31.640625 53.328125 
L 31.640625 45.265625 
Q 29.890625 45.75 26.953125 45.75 
Q 21.484375 45.75 18.59375 41.03125 
Q 15.71875 36.328125 15.71875 27.546875 
L 15.71875 0 
z
" id="LiberationSans-114"/>
      <path d="M 13.421875 26.65625 
Q 13.421875 16.109375 16.734375 11.03125 
Q 20.0625 5.953125 26.765625 5.953125 
Q 31.453125 5.953125 34.59375 8.484375 
Q 37.75 11.03125 38.484375 16.3125 
L 47.359375 15.71875 
Q 46.34375 8.109375 40.875 3.5625 
Q 35.40625 -0.984375 27 -0.984375 
Q 15.921875 -0.984375 10.078125 6.015625 
Q 4.25 13.03125 4.25 26.46875 
Q 4.25 39.796875 10.109375 46.796875 
Q 15.96875 53.8125 26.90625 53.8125 
Q 35.015625 53.8125 40.359375 49.609375 
Q 45.703125 45.40625 47.078125 38.03125 
L 38.03125 37.359375 
Q 37.359375 41.75 34.5625 44.328125 
Q 31.78125 46.921875 26.65625 46.921875 
Q 19.671875 46.921875 16.546875 42.28125 
Q 13.421875 37.640625 13.421875 26.65625 
z
" id="LiberationSans-99"/>
      <path d="M 13.484375 24.5625 
Q 13.484375 15.484375 17.234375 10.546875 
Q 21 5.609375 28.21875 5.609375 
Q 33.9375 5.609375 37.375 7.90625 
Q 40.828125 10.203125 42.046875 13.71875 
L 49.75 11.53125 
Q 45.015625 -0.984375 28.21875 -0.984375 
Q 16.5 -0.984375 10.375 6 
Q 4.25 12.984375 4.25 26.765625 
Q 4.25 39.84375 10.375 46.828125 
Q 16.5 53.8125 27.875 53.8125 
Q 51.171875 53.8125 51.171875 25.734375 
L 51.171875 24.5625 
z
M 42.09375 31.296875 
Q 41.359375 39.65625 37.84375 43.484375 
Q 34.328125 47.3125 27.734375 47.3125 
Q 21.34375 47.3125 17.609375 43.03125 
Q 13.875 38.765625 13.578125 31.296875 
z
" id="LiberationSans-101"/>
      <path d="M 9.125 42.71875 
L 9.125 52.828125 
L 18.65625 52.828125 
L 18.65625 42.71875 
z
M 9.125 0 
L 9.125 10.109375 
L 18.65625 10.109375 
L 18.65625 0 
z
" id="LiberationSans-58"/>
      <path d="M 62.109375 19 
Q 62.109375 9.46875 54.65625 4.234375 
Q 47.21875 -0.984375 33.6875 -0.984375 
Q 8.546875 -0.984375 4.546875 16.5 
L 13.578125 18.3125 
Q 15.140625 12.109375 20.21875 9.203125 
Q 25.296875 6.296875 34.03125 6.296875 
Q 43.0625 6.296875 47.96875 9.390625 
Q 52.875 12.5 52.875 18.5 
Q 52.875 21.875 51.34375 23.96875 
Q 49.8125 26.078125 47.015625 27.4375 
Q 44.234375 28.8125 40.375 29.734375 
Q 36.53125 30.671875 31.84375 31.734375 
Q 23.6875 33.546875 19.453125 35.34375 
Q 15.234375 37.15625 12.796875 39.375 
Q 10.359375 41.609375 9.0625 44.578125 
Q 7.765625 47.5625 7.765625 51.421875 
Q 7.765625 60.25 14.53125 65.03125 
Q 21.296875 69.828125 33.890625 69.828125 
Q 45.609375 69.828125 51.8125 66.234375 
Q 58.015625 62.640625 60.5 54 
L 51.3125 52.390625 
Q 49.8125 57.859375 45.5625 60.328125 
Q 41.3125 62.796875 33.796875 62.796875 
Q 25.53125 62.796875 21.1875 60.0625 
Q 16.84375 57.328125 16.84375 51.90625 
Q 16.84375 48.734375 18.53125 46.65625 
Q 20.21875 44.578125 23.390625 43.140625 
Q 26.5625 41.703125 36.03125 39.59375 
Q 39.203125 38.875 42.359375 38.109375 
Q 45.515625 37.359375 48.390625 36.296875 
Q 51.265625 35.25 53.78125 33.828125 
Q 56.296875 32.421875 58.15625 30.375 
Q 60.015625 28.328125 61.0625 25.53125 
Q 62.109375 22.75 62.109375 19 
z
" id="LiberationSans-83"/>
      <path d="M 6.6875 64.0625 
L 6.6875 72.46875 
L 15.484375 72.46875 
L 15.484375 64.0625 
z
M 6.6875 0 
L 6.6875 52.828125 
L 15.484375 52.828125 
L 15.484375 0 
z
" id="LiberationSans-105"/>
      <path d="M 38.671875 62.203125 
Q 27.25 62.203125 20.890625 54.859375 
Q 14.546875 47.515625 14.546875 34.71875 
Q 14.546875 22.078125 21.15625 14.375 
Q 27.78125 6.6875 39.0625 6.6875 
Q 53.515625 6.6875 60.796875 21 
L 68.40625 17.1875 
Q 64.15625 8.296875 56.46875 3.65625 
Q 48.78125 -0.984375 38.625 -0.984375 
Q 28.21875 -0.984375 20.625 3.34375 
Q 13.03125 7.671875 9.046875 15.703125 
Q 5.078125 23.734375 5.078125 34.71875 
Q 5.078125 51.171875 13.96875 60.5 
Q 22.859375 69.828125 38.578125 69.828125 
Q 49.5625 69.828125 56.9375 65.53125 
Q 64.3125 61.234375 67.78125 52.78125 
L 58.9375 49.859375 
Q 56.546875 55.859375 51.25 59.03125 
Q 45.953125 62.203125 38.671875 62.203125 
z
" id="LiberationSans-67"/>
      <path d="M 40.28125 0 
L 40.28125 33.5 
Q 40.28125 38.71875 39.25 41.59375 
Q 38.234375 44.484375 35.984375 45.75 
Q 33.734375 47.015625 29.390625 47.015625 
Q 23.046875 47.015625 19.375 42.671875 
Q 15.71875 38.328125 15.71875 30.609375 
L 15.71875 0 
L 6.9375 0 
L 6.9375 41.546875 
Q 6.9375 50.78125 6.640625 52.828125 
L 14.9375 52.828125 
Q 14.984375 52.59375 15.03125 51.515625 
Q 15.09375 50.4375 15.15625 49.046875 
Q 15.234375 47.65625 15.328125 43.796875 
L 15.484375 43.796875 
Q 18.5 49.265625 22.484375 51.53125 
Q 26.46875 53.8125 32.375 53.8125 
Q 41.0625 53.8125 45.09375 49.484375 
Q 49.125 45.171875 49.125 35.203125 
L 49.125 0 
z
" id="LiberationSans-110"/>
      <path d="M 40.09375 8.5 
Q 37.640625 3.421875 33.609375 1.21875 
Q 29.59375 -0.984375 23.640625 -0.984375 
Q 13.625 -0.984375 8.90625 5.75 
Q 4.203125 12.5 4.203125 26.171875 
Q 4.203125 53.8125 23.640625 53.8125 
Q 29.640625 53.8125 33.640625 51.609375 
Q 37.640625 49.421875 40.09375 44.625 
L 40.1875 44.625 
L 40.09375 50.53125 
L 40.09375 72.46875 
L 48.875 72.46875 
L 48.875 10.890625 
Q 48.875 2.640625 49.171875 0 
L 40.765625 0 
Q 40.625 0.78125 40.453125 3.609375 
Q 40.28125 6.453125 40.28125 8.5 
z
M 13.421875 26.46875 
Q 13.421875 15.375 16.34375 10.59375 
Q 19.28125 5.8125 25.875 5.8125 
Q 33.34375 5.8125 36.71875 10.984375 
Q 40.09375 16.15625 40.09375 27.046875 
Q 40.09375 37.546875 36.71875 42.421875 
Q 33.34375 47.3125 25.984375 47.3125 
Q 19.34375 47.3125 16.375 42.40625 
Q 13.421875 37.5 13.421875 26.46875 
z
" id="LiberationSans-100"/>
     </defs>
     <g style="fill:#262626;" transform="translate(360.471719 560.140375)scale(0.14 -0.14)">
      <use xlink:href="#LiberationSans-68"/>
      <use x="72.216797" xlink:href="#LiberationSans-97"/>
      <use x="127.832031" xlink:href="#LiberationSans-116"/>
      <use x="155.615234" xlink:href="#LiberationSans-97"/>
      <use x="211.230469" xlink:href="#LiberationSans-32"/>
      <use x="239.013672" xlink:href="#LiberationSans-115"/>
      <use x="289.013672" xlink:href="#LiberationSans-111"/>
      <use x="344.628906" xlink:href="#LiberationSans-117"/>
      <use x="400.244141" xlink:href="#LiberationSans-114"/>
      <use x="433.544922" xlink:href="#LiberationSans-99"/>
      <use x="483.544922" xlink:href="#LiberationSans-101"/>
      <use x="539.160156" xlink:href="#LiberationSans-58"/>
      <use x="566.943359" xlink:href="#LiberationSans-32"/>
      <use x="594.726562" xlink:href="#LiberationSans-83"/>
      <use x="661.425781" xlink:href="#LiberationSans-116"/>
      <use x="689.208984" xlink:href="#LiberationSans-97"/>
      <use x="744.824219" xlink:href="#LiberationSans-105"/>
      <use x="767.041016" xlink:href="#LiberationSans-115"/>
      <use x="817.041016" xlink:href="#LiberationSans-116"/>
      <use x="844.824219" xlink:href="#LiberationSans-105"/>
      <use x="867.041016" xlink:href="#LiberationSans-99"/>
      <use x="917.041016" xlink:href="#LiberationSans-115"/>
      <use x="967.041016" xlink:href="#LiberationSans-32"/>
      <use x="994.824219" xlink:href="#LiberationSans-67"/>
      <use x="1067.041016" xlink:href="#LiberationSans-97"/>
      <use x="1122.65625" xlink:href="#LiberationSans-110"/>
      <use x="1178.271484" xlink:href="#LiberationSans-97"/>
      <use x="1233.886719" xlink:href="#LiberationSans-100"/>
      <use x="1289.501953" xlink:href="#LiberationSans-97"/>
     </g>
    </g>
   </g>
   <g id="matplotlib.axis_2">
    <g id="ytick_1">
     <g id="line2d_11">
      <defs>
       <path d="M 0 0 
L -6 0 
" id="m90229ee21d" style="stroke:#262626;stroke-width:0.8;"/>
      </defs>
      <g>
       <use style="fill:#262626;stroke:#262626;stroke-width:0.8;" x="56.05" xlink:href="#m90229ee21d" y="455.315937"/>
      </g>
     </g>
     <g id="text_12">
      <!-- 0 -->
      <g style="fill:#262626;" transform="translate(37.6525 461.113437)scale(0.16 -0.16)">
       <use xlink:href="#LiberationSans-48"/>
      </g>
     </g>
    </g>
    <g id="ytick_2">
     <g id="line2d_12">
      <g>
       <use style="fill:#262626;stroke:#262626;stroke-width:0.8;" x="56.05" xlink:href="#m90229ee21d" y="392.980186"/>
      </g>
     </g>
     <g id="text_13">
      <!-- 2 -->
      <g style="fill:#262626;" transform="translate(37.6525 398.777686)scale(0.16 -0.16)">
       <use xlink:href="#LiberationSans-50"/>
      </g>
     </g>
    </g>
    <g id="ytick_3">
     <g id="line2d_13">
      <g>
       <use style="fill:#262626;stroke:#262626;stroke-width:0.8;" x="56.05" xlink:href="#m90229ee21d" y="330.644436"/>
      </g>
     </g>
     <g id="text_14">
      <!-- 4 -->
      <defs>
       <path d="M 43.015625 15.578125 
L 43.015625 0 
L 34.71875 0 
L 34.71875 15.578125 
L 2.296875 15.578125 
L 2.296875 22.40625 
L 33.796875 68.796875 
L 43.015625 68.796875 
L 43.015625 22.515625 
L 52.6875 22.515625 
L 52.6875 15.578125 
z
M 34.71875 58.890625 
Q 34.625 58.59375 33.34375 56.296875 
Q 32.078125 54 31.453125 53.078125 
L 13.8125 27.09375 
L 11.1875 23.484375 
L 10.40625 22.515625 
L 34.71875 22.515625 
z
" id="LiberationSans-52"/>
      </defs>
      <g style="fill:#262626;" transform="translate(37.6525 336.441936)scale(0.16 -0.16)">
       <use xlink:href="#LiberationSans-52"/>
      </g>
     </g>
    </g>
    <g id="ytick_4">
     <g id="line2d_14">
      <g>
       <use style="fill:#262626;stroke:#262626;stroke-width:0.8;" x="56.05" xlink:href="#m90229ee21d" y="268.308685"/>
      </g>
     </g>
     <g id="text_15">
      <!-- 6 -->
      <defs>
       <path d="M 51.21875 22.515625 
Q 51.21875 11.625 45.3125 5.3125 
Q 39.40625 -0.984375 29 -0.984375 
Q 17.390625 -0.984375 11.234375 7.65625 
Q 5.078125 16.3125 5.078125 32.8125 
Q 5.078125 50.6875 11.46875 60.25 
Q 17.875 69.828125 29.6875 69.828125 
Q 45.265625 69.828125 49.3125 55.8125 
L 40.921875 54.296875 
Q 38.328125 62.703125 29.59375 62.703125 
Q 22.078125 62.703125 17.9375 55.6875 
Q 13.8125 48.6875 13.8125 35.40625 
Q 16.21875 39.84375 20.5625 42.15625 
Q 24.90625 44.484375 30.515625 44.484375 
Q 40.046875 44.484375 45.625 38.515625 
Q 51.21875 32.5625 51.21875 22.515625 
z
M 42.28125 22.125 
Q 42.28125 29.59375 38.625 33.640625 
Q 34.96875 37.703125 28.421875 37.703125 
Q 22.265625 37.703125 18.484375 34.109375 
Q 14.703125 30.515625 14.703125 24.21875 
Q 14.703125 16.265625 18.625 11.1875 
Q 22.5625 6.109375 28.71875 6.109375 
Q 35.0625 6.109375 38.671875 10.375 
Q 42.28125 14.65625 42.28125 22.125 
z
" id="LiberationSans-54"/>
      </defs>
      <g style="fill:#262626;" transform="translate(37.6525 274.106185)scale(0.16 -0.16)">
       <use xlink:href="#LiberationSans-54"/>
      </g>
     </g>
    </g>
    <g id="ytick_5">
     <g id="line2d_15">
      <g>
       <use style="fill:#262626;stroke:#262626;stroke-width:0.8;" x="56.05" xlink:href="#m90229ee21d" y="205.972934"/>
      </g>
     </g>
     <g id="text_16">
      <!-- 8 -->
      <g style="fill:#262626;" transform="translate(37.6525 211.770434)scale(0.16 -0.16)">
       <use xlink:href="#LiberationSans-56"/>
      </g>
     </g>
    </g>
    <g id="ytick_6">
     <g id="line2d_16">
      <g>
       <use style="fill:#262626;stroke:#262626;stroke-width:0.8;" x="56.05" xlink:href="#m90229ee21d" y="143.637183"/>
      </g>
     </g>
     <g id="text_17">
      <!-- 10 -->
      <g style="fill:#262626;" transform="translate(28.755 149.434683)scale(0.16 -0.16)">
       <use xlink:href="#LiberationSans-49"/>
       <use x="55.615234" xlink:href="#LiberationSans-48"/>
      </g>
     </g>
    </g>
    <g id="ytick_7">
     <g id="line2d_17">
      <g>
       <use style="fill:#262626;stroke:#262626;stroke-width:0.8;" x="56.05" xlink:href="#m90229ee21d" y="81.301433"/>
      </g>
     </g>
     <g id="text_18">
      <!-- 12 -->
      <g style="fill:#262626;" transform="translate(28.755 87.098933)scale(0.16 -0.16)">
       <use xlink:href="#LiberationSans-49"/>
       <use x="55.615234" xlink:href="#LiberationSans-50"/>
      </g>
     </g>
    </g>
    <g id="text_19">
     <!-- Percentage -->
     <defs>
      <path d="M 61.421875 48.09375 
Q 61.421875 38.328125 55.046875 32.5625 
Q 48.6875 26.8125 37.75 26.8125 
L 17.53125 26.8125 
L 17.53125 0 
L 8.203125 0 
L 8.203125 68.796875 
L 37.15625 68.796875 
Q 48.734375 68.796875 55.078125 63.375 
Q 61.421875 57.953125 61.421875 48.09375 
z
M 52.046875 48 
Q 52.046875 61.328125 36.03125 61.328125 
L 17.53125 61.328125 
L 17.53125 34.1875 
L 36.421875 34.1875 
Q 52.046875 34.1875 52.046875 48 
z
" id="LiberationSans-80"/>
      <path d="M 26.765625 -20.75 
Q 18.109375 -20.75 12.984375 -17.359375 
Q 7.859375 -13.96875 6.390625 -7.71875 
L 15.234375 -6.453125 
Q 16.109375 -10.109375 19.109375 -12.078125 
Q 22.125 -14.0625 27 -14.0625 
Q 40.140625 -14.0625 40.140625 1.3125 
L 40.140625 9.8125 
L 40.046875 9.8125 
Q 37.546875 4.734375 33.203125 2.171875 
Q 28.859375 -0.390625 23.046875 -0.390625 
Q 13.328125 -0.390625 8.765625 6.046875 
Q 4.203125 12.5 4.203125 26.3125 
Q 4.203125 40.328125 9.109375 46.984375 
Q 14.015625 53.65625 24.03125 53.65625 
Q 29.640625 53.65625 33.765625 51.09375 
Q 37.890625 48.53125 40.140625 43.796875 
L 40.234375 43.796875 
Q 40.234375 45.265625 40.421875 48.875 
Q 40.625 52.484375 40.828125 52.828125 
L 49.171875 52.828125 
Q 48.875 50.203125 48.875 41.890625 
L 48.875 1.515625 
Q 48.875 -20.75 26.765625 -20.75 
z
M 40.140625 26.421875 
Q 40.140625 32.859375 38.375 37.515625 
Q 36.625 42.1875 33.421875 44.65625 
Q 30.21875 47.125 26.171875 47.125 
Q 19.4375 47.125 16.359375 42.234375 
Q 13.28125 37.359375 13.28125 26.421875 
Q 13.28125 15.578125 16.15625 10.84375 
Q 19.046875 6.109375 26.03125 6.109375 
Q 30.171875 6.109375 33.390625 8.546875 
Q 36.625 10.984375 38.375 15.546875 
Q 40.140625 20.125 40.140625 26.421875 
z
" id="LiberationSans-103"/>
     </defs>
     <g style="fill:#262626;" transform="translate(21.85 304.950625)rotate(-90)scale(0.14 -0.14)">
      <use xlink:href="#LiberationSans-80"/>
      <use x="66.699219" xlink:href="#LiberationSans-101"/>
      <use x="122.314453" xlink:href="#LiberationSans-114"/>
      <use x="155.615234" xlink:href="#LiberationSans-99"/>
      <use x="205.615234" xlink:href="#LiberationSans-101"/>
      <use x="261.230469" xlink:href="#LiberationSans-110"/>
      <use x="316.845703" xlink:href="#LiberationSans-116"/>
      <use x="344.628906" xlink:href="#LiberationSans-97"/>
      <use x="400.244141" xlink:href="#LiberationSans-103"/>
      <use x="455.859375" xlink:href="#LiberationSans-101"/>
     </g>
    </g>
   </g>
   <g id="line2d_18">
    <path clip-path="url(#p46e56dba20)" d="M 56.05 292.983253 
L 57.407708 292.983253 
L 58.634026 309.973513 
L 59.991734 344.002097 
L 61.305645 344.002097 
L 62.663354 360.388398 
L 63.977265 345.126479 
L 66.692682 377.004693 
L 69.364301 377.004693 
L 70.678213 424.303126 
L 72.035921 424.456655 
L 73.393629 409.027013 
L 74.619947 409.027013 
L 75.977655 393.901404 
L 77.291566 393.901404 
L 78.649275 378.547771 
L 79.963186 379.296729 
L 81.320894 348.889046 
L 82.678603 348.367345 
L 83.992514 333.088975 
L 85.350223 333.088975 
L 86.664134 301.779605 
L 89.379551 303.277521 
L 90.649665 288.073679 
L 92.007373 304.746491 
L 93.321285 304.746491 
L 94.678993 320.454938 
L 95.992904 306.897483 
L 97.350613 308.297657 
L 98.708321 278.057878 
L 100.022232 293.595829 
L 101.379941 293.595829 
L 102.693852 294.355078 
L 105.409269 266.859016 
L 106.635586 282.161074 
L 107.993294 254.23287 
L 109.307206 239.869794 
L 110.664914 211.143642 
L 111.978825 214.473264 
L 113.336534 202.603434 
L 114.694242 203.736674 
L 116.008153 189.760048 
L 117.365862 161.806797 
L 118.679773 163.117105 
L 121.39519 168.243401 
L 122.621507 127.233038 
L 123.979215 144.986442 
L 125.293127 92.586353 
L 126.650835 95.686606 
L 127.964746 113.389878 
L 129.322455 117.663954 
L 130.680163 106.132271 
L 131.994075 81.816604 
L 133.351783 84.878074 
L 134.665694 60.946902 
L 136.023403 89.377319 
L 137.381111 79.799366 
L 138.607428 109.006211 
L 139.965137 111.733059 
L 141.279048 142.43379 
L 142.636756 132.88964 
L 143.950668 111.639745 
L 145.308376 115.515792 
L 146.666084 129.681418 
L 147.979996 144.787289 
L 149.337704 135.64542 
L 150.651615 161.705517 
L 152.009324 150.412808 
L 153.367032 164.862618 
L 154.637146 165.899951 
L 155.994855 179.004985 
L 158.666474 206.405821 
L 159.980386 231.163409 
L 161.338094 265.13907 
L 162.695802 255.251872 
L 164.009714 256.594584 
L 165.367422 279.284747 
L 166.681333 279.867632 
L 168.039042 259.873814 
L 169.39675 261.155402 
L 170.623067 231.233173 
L 171.980776 221.810682 
L 173.294687 203.148661 
L 174.652395 214.79214 
L 175.966307 196.413458 
L 177.324015 196.413458 
L 179.995635 180.016092 
L 182.667255 162.201122 
L 184.024963 174.611469 
L 185.382671 166.724498 
L 186.608989 179.746307 
L 187.966697 190.861237 
L 189.280608 184.69666 
L 190.638317 166.896792 
L 191.952228 161.105904 
L 193.309936 151.911841 
L 194.667645 191.026935 
L 195.981556 175.256767 
L 197.339264 176.870941 
L 198.653176 187.397238 
L 200.010884 188.92384 
L 201.368592 173.572431 
L 202.59491 167.209526 
L 203.952618 150.602072 
L 205.266529 163.385424 
L 206.624238 174.29411 
L 207.938149 194.883555 
L 209.295857 195.583642 
L 210.653566 152.878332 
L 211.967477 173.478766 
L 213.325185 158.479029 
L 214.639097 151.038526 
L 215.996805 152.635783 
L 217.354513 156.55651 
L 218.624628 167.612472 
L 219.982336 169.808682 
L 221.296247 164.834479 
L 222.653956 142.856034 
L 223.967867 145.187824 
L 225.325576 115.021516 
L 226.683284 126.023888 
L 227.997195 120.831421 
L 229.354904 109.006211 
L 230.668815 110.671161 
L 232.026523 75.038032 
L 233.384232 79.533042 
L 234.610549 60.230193 
L 235.968257 62.99303 
L 237.282169 74.694418 
L 238.639877 57.730283 
L 239.953788 53.377273 
L 241.311497 64.84591 
L 242.669205 60.522849 
L 243.983116 57.136031 
L 245.340825 75.880933 
L 246.654736 77.523508 
L 248.012444 103.099009 
L 249.370153 100.238876 
L 250.59647 98.184032 
L 251.954178 100.402242 
L 253.26809 84.117421 
L 254.625798 102.70967 
L 255.939709 111.782241 
L 257.297418 126.906912 
L 258.655126 135.64542 
L 259.969037 144.854678 
L 261.326746 153.301641 
L 262.640657 166.501648 
L 263.998365 198.569071 
L 265.356074 219.195669 
L 266.582391 228.110864 
L 267.940099 246.757663 
L 269.254011 283.749651 
L 270.611719 285.617886 
L 271.92563 286.536829 
L 273.283339 281.538215 
L 274.641047 299.197778 
L 275.954959 300.306965 
L 277.312667 317.648643 
L 278.626578 312.141951 
L 279.984287 284.306355 
L 281.341995 285.209575 
L 282.612109 314.137408 
L 283.969818 303.277521 
L 285.283729 308.962435 
L 286.641437 321.202876 
L 287.955349 327.228778 
L 289.313057 343.812465 
L 290.670765 338.502776 
L 291.984677 349.840894 
L 293.342385 334.019637 
L 296.014005 345.496242 
L 297.371713 340.842939 
L 298.59803 341.033727 
L 299.955739 336.236015 
L 301.26965 325.881239 
L 302.627358 331.878807 
L 303.94127 327.158555 
L 305.298978 327.158555 
L 306.656686 327.368994 
L 307.970598 327.787805 
L 309.328306 333.487108 
L 310.642217 318.258505 
L 311.999926 318.92491 
L 313.357634 324.822417 
L 314.583951 320.021301 
L 315.94166 335.631296 
L 317.255571 326.071159 
L 318.613279 336.581174 
L 319.927191 327.296228 
L 321.284899 322.372393 
L 322.642608 327.498152 
L 323.956519 318.098876 
L 325.314227 313.643776 
L 326.628139 324.031595 
L 327.985847 329.4829 
L 329.343555 330.066361 
L 330.569873 330.452338 
L 331.927581 311.242553 
L 333.241492 312.125085 
L 334.599201 307.578302 
L 335.913112 313.428796 
L 337.27082 313.643776 
L 338.628529 313.643776 
L 339.94244 323.885137 
L 341.300148 324.47628 
L 342.61406 324.672148 
L 343.971768 329.714051 
L 345.329476 330.273941 
L 346.599591 321.40951 
L 347.957299 331.378877 
L 349.27121 332.104717 
L 350.628919 332.464458 
L 351.94283 333.177674 
L 353.300538 333.354686 
L 354.658247 328.837602 
L 355.972158 320.19509 
L 357.329866 329.747518 
L 358.643778 334.406076 
L 360.001486 321.164393 
L 361.359195 312.834221 
L 362.585512 313.643776 
L 363.94322 314.045114 
L 365.257131 297.281639 
L 366.61484 293.348045 
L 367.928751 289.899839 
L 370.644168 290.360608 
L 371.958079 295.591368 
L 373.315788 291.501378 
L 374.629699 291.501378 
L 375.987407 283.828315 
L 377.345116 284.999678 
L 378.571433 290.160076 
L 379.929141 299.054231 
L 381.243053 317.441958 
L 382.600761 317.99419 
L 383.914672 327.172152 
L 385.272381 327.341879 
L 386.630089 323.388422 
L 387.944 307.484117 
L 389.301709 295.585695 
L 390.61562 299.681343 
L 391.973328 239.944699 
L 393.331037 261.526038 
L 394.557354 262.276193 
L 395.915062 262.276193 
L 397.228974 263.267411 
L 398.586682 260.018508 
L 399.900593 268.705728 
L 401.258302 268.943145 
L 402.61601 285.237429 
L 403.929921 318.098876 
L 405.28763 326.748451 
L 406.601541 338.290122 
L 407.959249 405.903452 
L 409.316958 405.903452 
L 410.587072 406.08357 
L 411.944781 402.296465 
L 413.258692 413.859271 
L 414.6164 421.560115 
L 415.930312 417.854549 
L 417.28802 421.641162 
L 419.95964 406.498783 
L 421.317348 402.932953 
L 422.631259 387.641419 
L 423.988968 391.708028 
L 425.346676 380.483103 
L 426.572993 395.664501 
L 427.930702 399.45953 
L 429.244613 395.806867 
L 430.602321 403.369478 
L 431.916233 403.492866 
L 433.273941 399.791219 
L 434.631649 399.791219 
L 435.945561 396.159827 
L 437.303269 396.439195 
L 438.61718 403.798788 
L 439.974889 414.98104 
L 441.332597 451.662024 
L 442.558914 447.999535 
L 443.916623 447.999535 
L 445.230534 462.615205 
L 446.588242 455.315937 
L 447.902154 451.67483 
L 449.259862 451.679079 
L 450.61757 448.042221 
L 451.931482 462.572718 
L 453.28919 458.92751 
L 455.96081 437.216126 
L 457.318518 396.921791 
L 458.544835 389.622523 
L 459.902544 378.673621 
L 461.216455 363.860904 
L 462.574164 371.374352 
L 463.888075 375.305055 
L 465.245783 386.296167 
L 466.603492 386.376515 
L 467.917403 382.578772 
L 469.275111 390.232207 
L 470.589023 401.142341 
L 471.946731 404.929072 
L 473.304439 415.908279 
L 474.574554 408.850068 
L 475.932262 412.571422 
L 477.246173 409.114982 
L 478.603882 409.114982 
L 479.917793 416.31177 
L 481.275501 409.114982 
L 482.63321 409.167602 
L 483.947121 398.453223 
L 485.304829 395.105269 
L 486.618741 387.868371 
L 487.976449 388.021661 
L 489.334157 384.560261 
L 490.560475 395.445442 
L 493.232094 409.789827 
L 494.589803 402.78581 
L 495.903714 402.78581 
L 497.261422 399.283802 
L 498.619131 402.844767 
L 499.933042 409.94277 
L 501.290751 427.518501 
L 502.604662 430.99318 
L 503.96237 420.646443 
L 505.320079 424.182654 
L 506.546396 424.21717 
L 507.904104 427.672589 
L 509.218015 420.800018 
L 510.575724 424.32026 
L 511.889635 424.32026 
L 513.247344 427.794634 
L 514.605052 434.67496 
L 515.918963 420.914309 
L 517.276672 417.432332 
L 518.590583 424.285973 
L 519.948291 434.743082 
L 521.306 434.76569 
L 522.532317 424.524403 
L 523.890025 403.940318 
L 525.203937 407.522919 
L 526.561645 404.165157 
L 529.233265 390.524949 
L 530.590973 373.295212 
L 531.904884 383.861201 
L 533.262593 387.263808 
L 534.576504 373.385049 
L 535.934212 387.189434 
L 537.291921 370.250775 
L 538.562035 360.457186 
L 539.919743 387.925936 
L 541.233655 381.346869 
L 542.591363 368.086146 
L 543.905274 364.925751 
L 545.262983 375.141338 
L 547.934602 368.830904 
L 549.292311 355.418901 
L 550.606222 355.525514 
L 551.963931 361.978984 
L 553.321639 365.886327 
L 554.547956 379.697674 
L 555.905665 346.475737 
L 557.219576 333.79735 
L 558.577284 350.879077 
L 559.891196 370.726714 
L 561.248904 367.381493 
L 562.606612 374.234055 
L 563.920524 397.058226 
L 565.278232 435.957008 
L 566.592143 432.753876 
L 567.949852 413.240924 
L 569.30756 410.238431 
L 570.533877 397.538207 
L 571.891586 401.138649 
L 573.205497 420.544474 
L 574.563205 417.421864 
L 575.877117 388.79913 
L 577.234825 376.129262 
L 578.592533 382.611968 
L 579.906445 356.82418 
L 581.264153 317.433361 
L 582.578064 336.916411 
L 583.935773 314.805024 
L 585.293481 309.315706 
L 586.519798 322.954889 
L 587.877507 364.474893 
L 589.191418 367.783288 
L 590.549126 374.198344 
L 591.863038 390.189033 
L 593.220746 393.536204 
L 594.578454 387.358231 
L 595.892366 406.038664 
L 597.250074 406.184311 
L 598.563985 390.575543 
L 599.921694 415.592174 
L 601.279402 434.092676 
L 602.549517 431.131359 
L 603.907225 403.572394 
L 605.221136 379.296729 
L 606.578845 376.255961 
L 607.892756 382.408626 
L 609.250464 397.765924 
L 610.608173 397.877564 
L 611.922084 382.550469 
L 613.279792 379.73913 
L 614.593704 388.872792 
L 615.951412 394.971551 
L 618.535438 383.320845 
L 619.893146 380.465132 
L 621.207057 404.853663 
L 622.564766 401.936132 
L 623.878677 392.980186 
L 625.236385 375.017022 
L 626.594094 354.391388 
L 627.908005 375.322341 
L 629.265713 393.334367 
L 630.579625 390.259651 
L 631.937333 369.478484 
L 633.295041 387.495584 
L 634.521359 387.878389 
L 635.879067 379.296729 
L 637.192978 367.683673 
L 638.550687 379.510066 
L 639.864598 382.561793 
L 641.222306 388.631181 
L 642.580015 432.313815 
L 643.893926 423.541458 
L 645.251635 411.90664 
L 646.565546 403.176369 
L 647.923254 420.748977 
L 649.280963 391.825821 
L 650.50728 383.566684 
L 651.864988 386.815112 
L 653.1789 387.127331 
L 654.536608 387.002786 
L 655.850519 387.065115 
L 657.208228 401.382455 
L 658.565936 378.252509 
L 659.879847 380.970546 
L 661.237556 378.252509 
L 662.551467 381.242376 
L 663.909175 386.940342 
L 665.266884 398.74992 
L 666.536998 413.235097 
L 667.894706 402.25235 
L 669.208618 385.806848 
L 670.566326 357.829285 
L 671.880237 349.567789 
L 673.237946 346.493454 
L 674.595654 349.473286 
L 675.909565 374.324146 
L 677.267274 394.038613 
L 678.581185 419.138939 
L 679.938893 421.862046 
L 681.296602 410.869769 
L 682.522919 416.563694 
L 683.880627 444.331664 
L 685.194539 452.596227 
L 686.552247 463.418504 
L 687.866158 484.922727 
L 689.223867 479.581584 
L 690.581575 482.254464 
L 691.895487 452.593852 
L 693.253195 425.268029 
L 694.567106 414.052201 
L 695.924815 397.393337 
L 697.282523 406.017013 
L 698.50884 411.571551 
L 699.866549 397.851022 
L 702.538168 425.529088 
L 703.85208 398.251824 
L 705.209788 400.969162 
L 706.567496 395.534485 
L 707.881408 379.16406 
L 709.239116 393.088408 
L 710.553027 382.011701 
L 711.910736 382.202763 
L 713.268444 387.911362 
L 714.494761 352.860983 
L 715.85247 353.214276 
L 717.166381 340.077877 
L 718.524089 358.754533 
L 719.838001 369.924498 
L 721.195709 359.16825 
L 722.553417 356.666545 
L 723.867329 365.051221 
L 725.225037 365.128042 
L 726.538948 383.696138 
L 729.254365 373.503563 
L 730.524479 395.277316 
L 731.882188 392.87612 
L 733.196099 416.549923 
L 734.553807 408.486074 
L 735.867719 416.356093 
L 737.225427 416.45325 
L 738.583136 419.134324 
L 739.897047 419.194227 
L 741.254755 429.536057 
L 742.568667 429.385924 
L 743.926375 439.822379 
L 745.284083 416.741834 
L 746.510401 424.583439 
L 747.868109 442.563124 
L 749.18202 432.342073 
L 750.539729 419.43187 
L 751.85364 414.271821 
L 753.211348 422.049732 
L 754.569057 422.104267 
L 755.882968 434.911436 
L 757.240676 427.190701 
L 758.554588 416.741834 
L 759.912296 409.065174 
L 761.270004 419.753569 
L 762.496322 407.131264 
L 763.85403 391.811709 
L 765.167941 384.364676 
L 766.52565 381.830703 
L 767.839561 389.486144 
L 769.197269 389.486144 
L 770.554978 392.120732 
L 771.868889 381.830703 
L 773.226597 394.500571 
L 775.898217 424.932955 
L 777.255925 422.666269 
L 778.482243 417.854549 
L 779.839951 430.421468 
L 781.153862 428.062628 
L 782.511571 423.133063 
L 783.825482 415.643224 
L 785.18319 415.643224 
L 786.540899 423.107481 
L 787.85481 423.133063 
L 789.212519 413.062837 
L 790.52643 405.247061 
L 791.884138 392.62914 
L 793.241847 413.062837 
L 794.511961 415.831693 
L 795.869669 403.451802 
L 797.183581 408.650088 
L 798.541289 408.760148 
L 799.8552 416.14186 
L 801.212909 421.038619 
L 802.570617 413.627984 
L 803.884528 408.760148 
L 805.242237 418.532449 
L 806.556148 408.502528 
L 807.913856 388.94901 
L 809.271565 391.557892 
L 810.497882 406.578055 
L 811.85559 404.300709 
L 814.52721 423.93078 
L 815.841121 419.046105 
L 817.19883 411.724503 
L 818.556538 406.918615 
L 819.870449 411.859566 
L 821.228158 389.877941 
L 822.542069 397.058226 
L 823.899777 402.366651 
L 825.257486 388.029853 
L 826.483803 383.334701 
L 827.841511 386.000877 
L 829.155423 386.053992 
L 830.513131 378.830353 
L 831.827042 362.099132 
L 833.184751 366.947248 
L 834.542459 386.21285 
L 835.856371 379.122506 
L 837.214079 403.092536 
L 838.52799 393.361445 
L 839.885699 410.350893 
L 841.243407 408.270088 
L 842.469724 396.685622 
L 843.827433 392.185207 
L 845.141344 380.550419 
L 846.499052 392.326967 
L 847.812964 392.655279 
L 850.52838 397.036439 
L 851.842292 397.210278 
L 853.2 387.61044 
L 853.2 387.61044 
" style="fill:none;stroke:#008000;stroke-linecap:round;stroke-width:1.6;"/>
   </g>
   <g id="line2d_19">
    <path clip-path="url(#p46e56dba20)" d="M 56.05 392.980186 
L 853.2 392.980186 
" style="fill:none;stroke:#000000;stroke-dasharray:5.18,2.24;stroke-dashoffset:0;stroke-width:1.4;"/>
   </g>
   <g id="patch_3">
    <path d="M 56.05 506.5 
L 56.05 31.8 
" style="fill:none;stroke:#262626;stroke-linecap:square;stroke-linejoin:miter;stroke-width:1.25;"/>
   </g>
   <g id="patch_4">
    <path d="M 853.2 506.5 
L 853.2 31.8 
" style="fill:none;stroke:#262626;stroke-linecap:square;stroke-linejoin:miter;stroke-width:1.25;"/>
   </g>
   <g id="patch_5">
    <path d="M 56.05 506.5 
L 853.2 506.5 
" style="fill:none;stroke:#262626;stroke-linecap:square;stroke-linejoin:miter;stroke-width:1.25;"/>
   </g>
   <g id="patch_6">
    <path d="M 56.05 31.8 
L 853.2 31.8 
" style="fill:none;stroke:#262626;stroke-linecap:square;stroke-linejoin:miter;stroke-width:1.25;"/>
   </g>
   <g id="text_20">
    <!-- Yearly Inflation Rate (month over month), all-items, Canada -->
    <defs>
     <path d="M 37.9375 28.515625 
L 37.9375 0 
L 28.65625 0 
L 28.65625 28.515625 
L 2.203125 68.796875 
L 12.453125 68.796875 
L 33.40625 36.03125 
L 54.25 68.796875 
L 64.5 68.796875 
z
" id="LiberationSans-89"/>
     <path d="M 6.734375 0 
L 6.734375 72.46875 
L 15.53125 72.46875 
L 15.53125 0 
z
" id="LiberationSans-108"/>
     <path d="M 9.328125 -20.75 
Q 5.71875 -20.75 3.265625 -20.21875 
L 3.265625 -13.625 
Q 5.125 -13.921875 7.375 -13.921875 
Q 15.578125 -13.921875 20.359375 -1.859375 
L 21.1875 0.25 
L 0.25 52.828125 
L 9.625 52.828125 
L 20.75 23.640625 
Q 21 22.953125 21.34375 22 
Q 21.6875 21.046875 23.53125 15.625 
Q 25.390625 10.203125 25.53125 9.578125 
L 28.953125 19.1875 
L 40.53125 52.828125 
L 49.8125 52.828125 
L 29.5 0 
Q 26.21875 -8.453125 23.390625 -12.578125 
Q 20.5625 -16.703125 17.109375 -18.71875 
Q 13.671875 -20.75 9.328125 -20.75 
z
" id="LiberationSans-121"/>
     <path d="M 9.234375 0 
L 9.234375 68.796875 
L 18.5625 68.796875 
L 18.5625 0 
z
" id="LiberationSans-73"/>
     <path d="M 17.625 46.4375 
L 17.625 0 
L 8.84375 0 
L 8.84375 46.4375 
L 1.421875 46.4375 
L 1.421875 52.828125 
L 8.84375 52.828125 
L 8.84375 58.796875 
Q 8.84375 66.015625 12.015625 69.1875 
Q 15.1875 72.359375 21.734375 72.359375 
Q 25.390625 72.359375 27.9375 71.78125 
L 27.9375 65.09375 
Q 25.734375 65.484375 24.03125 65.484375 
Q 20.65625 65.484375 19.140625 63.765625 
Q 17.625 62.0625 17.625 57.5625 
L 17.625 52.828125 
L 27.9375 52.828125 
L 27.9375 46.4375 
z
" id="LiberationSans-102"/>
     <path d="M 56.84375 0 
L 38.96875 28.5625 
L 17.53125 28.5625 
L 17.53125 0 
L 8.203125 0 
L 8.203125 68.796875 
L 40.578125 68.796875 
Q 52.203125 68.796875 58.515625 63.59375 
Q 64.84375 58.40625 64.84375 49.125 
Q 64.84375 41.453125 60.375 36.21875 
Q 55.90625 31 48.046875 29.640625 
L 67.578125 0 
z
M 55.46875 49.03125 
Q 55.46875 55.03125 51.390625 58.171875 
Q 47.3125 61.328125 39.65625 61.328125 
L 17.53125 61.328125 
L 17.53125 35.9375 
L 40.046875 35.9375 
Q 47.40625 35.9375 51.4375 39.375 
Q 55.46875 42.828125 55.46875 49.03125 
z
" id="LiberationSans-82"/>
     <path d="M 6.203125 25.984375 
Q 6.203125 40.09375 10.625 51.3125 
Q 15.046875 62.546875 24.21875 72.46875 
L 32.71875 72.46875 
Q 23.578125 62.3125 19.3125 50.875 
Q 15.046875 39.453125 15.046875 25.875 
Q 15.046875 12.359375 19.265625 0.96875 
Q 23.484375 -10.40625 32.71875 -20.703125 
L 24.21875 -20.703125 
Q 14.984375 -10.75 10.59375 0.5 
Q 6.203125 11.765625 6.203125 25.78125 
z
" id="LiberationSans-40"/>
     <path d="M 37.5 0 
L 37.5 33.5 
Q 37.5 41.15625 35.390625 44.078125 
Q 33.296875 47.015625 27.828125 47.015625 
Q 22.21875 47.015625 18.9375 42.71875 
Q 15.671875 38.421875 15.671875 30.609375 
L 15.671875 0 
L 6.9375 0 
L 6.9375 41.546875 
Q 6.9375 50.78125 6.640625 52.828125 
L 14.9375 52.828125 
Q 14.984375 52.59375 15.03125 51.515625 
Q 15.09375 50.4375 15.15625 49.046875 
Q 15.234375 47.65625 15.328125 43.796875 
L 15.484375 43.796875 
Q 18.3125 49.421875 21.96875 51.609375 
Q 25.640625 53.8125 30.90625 53.8125 
Q 36.921875 53.8125 40.40625 51.421875 
Q 43.890625 49.03125 45.265625 43.796875 
L 45.40625 43.796875 
Q 48.140625 49.125 52.015625 51.46875 
Q 55.90625 53.8125 61.421875 53.8125 
Q 69.4375 53.8125 73.0625 49.46875 
Q 76.703125 45.125 76.703125 35.203125 
L 76.703125 0 
L 68.015625 0 
L 68.015625 33.5 
Q 68.015625 41.15625 65.90625 44.078125 
Q 63.8125 47.015625 58.34375 47.015625 
Q 52.59375 47.015625 49.390625 42.75 
Q 46.1875 38.484375 46.1875 30.609375 
L 46.1875 0 
z
" id="LiberationSans-109"/>
     <path d="M 15.484375 43.796875 
Q 18.3125 48.96875 22.28125 51.390625 
Q 26.265625 53.8125 32.375 53.8125 
Q 40.96875 53.8125 45.046875 49.53125 
Q 49.125 45.265625 49.125 35.203125 
L 49.125 0 
L 40.28125 0 
L 40.28125 33.5 
Q 40.28125 39.0625 39.25 41.765625 
Q 38.234375 44.484375 35.890625 45.75 
Q 33.546875 47.015625 29.390625 47.015625 
Q 23.1875 47.015625 19.453125 42.71875 
Q 15.71875 38.421875 15.71875 31.15625 
L 15.71875 0 
L 6.9375 0 
L 6.9375 72.46875 
L 15.71875 72.46875 
L 15.71875 53.609375 
Q 15.71875 50.640625 15.546875 47.453125 
Q 15.375 44.28125 15.328125 43.796875 
z
" id="LiberationSans-104"/>
     <path d="M 29.9375 0 
L 19.53125 0 
L 0.34375 52.828125 
L 9.71875 52.828125 
L 21.34375 18.453125 
Q 21.96875 16.5 24.703125 6.890625 
L 26.421875 12.59375 
L 28.328125 18.359375 
L 40.328125 52.828125 
L 49.65625 52.828125 
z
" id="LiberationSans-118"/>
     <path d="M 27.09375 25.78125 
Q 27.09375 11.671875 22.671875 0.4375 
Q 18.265625 -10.796875 9.078125 -20.703125 
L 0.59375 -20.703125 
Q 9.765625 -10.453125 14.015625 0.890625 
Q 18.265625 12.25 18.265625 25.875 
Q 18.265625 39.5 13.984375 50.875 
Q 9.71875 62.25 0.59375 72.46875 
L 9.078125 72.46875 
Q 18.3125 62.5 22.703125 51.234375 
Q 27.09375 39.984375 27.09375 25.984375 
z
" id="LiberationSans-41"/>
     <path d="M 18.796875 10.6875 
L 18.796875 2.484375 
Q 18.796875 -2.6875 17.859375 -6.15625 
Q 16.9375 -9.625 14.984375 -12.796875 
L 8.984375 -12.796875 
Q 13.578125 -6.15625 13.578125 0 
L 9.28125 0 
L 9.28125 10.6875 
z
" id="LiberationSans-44"/>
     <path d="M 4.4375 22.65625 
L 4.4375 30.46875 
L 28.859375 30.46875 
L 28.859375 22.65625 
z
" id="LiberationSans-45"/>
    </defs>
    <g style="fill:#262626;" transform="translate(191.204687 25.8)scale(0.2 -0.2)">
     <use xlink:href="#LiberationSans-89"/>
     <use x="66.558594" xlink:href="#LiberationSans-101"/>
     <use x="122.173828" xlink:href="#LiberationSans-97"/>
     <use x="177.789062" xlink:href="#LiberationSans-114"/>
     <use x="211.089844" xlink:href="#LiberationSans-108"/>
     <use x="233.306641" xlink:href="#LiberationSans-121"/>
     <use x="283.306641" xlink:href="#LiberationSans-32"/>
     <use x="311.089844" xlink:href="#LiberationSans-73"/>
     <use x="338.873047" xlink:href="#LiberationSans-110"/>
     <use x="394.488281" xlink:href="#LiberationSans-102"/>
     <use x="422.271484" xlink:href="#LiberationSans-108"/>
     <use x="444.488281" xlink:href="#LiberationSans-97"/>
     <use x="500.103516" xlink:href="#LiberationSans-116"/>
     <use x="527.886719" xlink:href="#LiberationSans-105"/>
     <use x="550.103516" xlink:href="#LiberationSans-111"/>
     <use x="605.71875" xlink:href="#LiberationSans-110"/>
     <use x="661.333984" xlink:href="#LiberationSans-32"/>
     <use x="689.117188" xlink:href="#LiberationSans-82"/>
     <use x="761.333984" xlink:href="#LiberationSans-97"/>
     <use x="816.949219" xlink:href="#LiberationSans-116"/>
     <use x="844.732422" xlink:href="#LiberationSans-101"/>
     <use x="900.347656" xlink:href="#LiberationSans-32"/>
     <use x="928.130859" xlink:href="#LiberationSans-40"/>
     <use x="961.431641" xlink:href="#LiberationSans-109"/>
     <use x="1044.732422" xlink:href="#LiberationSans-111"/>
     <use x="1100.347656" xlink:href="#LiberationSans-110"/>
     <use x="1155.962891" xlink:href="#LiberationSans-116"/>
     <use x="1183.746094" xlink:href="#LiberationSans-104"/>
     <use x="1239.361328" xlink:href="#LiberationSans-32"/>
     <use x="1267.144531" xlink:href="#LiberationSans-111"/>
     <use x="1322.759766" xlink:href="#LiberationSans-118"/>
     <use x="1372.759766" xlink:href="#LiberationSans-101"/>
     <use x="1428.375" xlink:href="#LiberationSans-114"/>
     <use x="1461.675781" xlink:href="#LiberationSans-32"/>
     <use x="1489.458984" xlink:href="#LiberationSans-109"/>
     <use x="1572.759766" xlink:href="#LiberationSans-111"/>
     <use x="1628.375" xlink:href="#LiberationSans-110"/>
     <use x="1683.990234" xlink:href="#LiberationSans-116"/>
     <use x="1711.773438" xlink:href="#LiberationSans-104"/>
     <use x="1767.388672" xlink:href="#LiberationSans-41"/>
     <use x="1800.689453" xlink:href="#LiberationSans-44"/>
     <use x="1828.472656" xlink:href="#LiberationSans-32"/>
     <use x="1856.255859" xlink:href="#LiberationSans-97"/>
     <use x="1911.871094" xlink:href="#LiberationSans-108"/>
     <use x="1934.087891" xlink:href="#LiberationSans-108"/>
     <use x="1956.304688" xlink:href="#LiberationSans-45"/>
     <use x="1989.605469" xlink:href="#LiberationSans-105"/>
     <use x="2011.822266" xlink:href="#LiberationSans-116"/>
     <use x="2039.605469" xlink:href="#LiberationSans-101"/>
     <use x="2095.220703" xlink:href="#LiberationSans-109"/>
     <use x="2178.521484" xlink:href="#LiberationSans-115"/>
     <use x="2228.521484" xlink:href="#LiberationSans-44"/>
     <use x="2256.304688" xlink:href="#LiberationSans-32"/>
     <use x="2284.087891" xlink:href="#LiberationSans-67"/>
     <use x="2356.304688" xlink:href="#LiberationSans-97"/>
     <use x="2411.919922" xlink:href="#LiberationSans-110"/>
     <use x="2467.535156" xlink:href="#LiberationSans-97"/>
     <use x="2523.150391" xlink:href="#LiberationSans-100"/>
     <use x="2578.765625" xlink:href="#LiberationSans-97"/>
    </g>
   </g>
  </g>
 </g>
 <defs>
  <clipPath id="p46e56dba20">
   <rect height="474.7" width="797.15" x="56.05" y="31.8"/>
  </clipPath>
 </defs>
</svg>
