<?xml version="1.0" encoding="utf-8" standalone="no"?>
<!DOCTYPE svg PUBLIC "-//W3C//DTD SVG 1.1//EN"
  "http://www.w3.org/Graphics/SVG/1.1/DTD/svg11.dtd">
<!-- Created with matplotlib (https://matplotlib.org/) -->
<svg height="576pt" version="1.1" viewBox="0 0 864 576" width="864pt" xmlns="http://www.w3.org/2000/svg" xmlns:xlink="http://www.w3.org/1999/xlink">
 <defs>
  <style type="text/css">
*{stroke-linecap:butt;stroke-linejoin:round;}
  </style>
 </defs>
 <g id="figure_1">
  <g id="patch_1">
   <path d="M 0 576 
L 864 576 
L 864 0 
L 0 0 
z
" style="fill:#ffffff;"/>
  </g>
  <g id="axes_1">
   <g id="patch_2">
    <path d="M 57.55 506.5 
L 853.2 506.5 
L 853.2 31.8 
L 57.55 31.8 
z
" style="fill:#ffffff;"/>
   </g>
   <g id="matplotlib.axis_1">
    <g id="xtick_1">
     <g id="line2d_1">
      <defs>
       <path d="M 0 0 
L 0 6 
" id="m3cbddad83f" style="stroke:#262626;stroke-width:0.8;"/>
      </defs>
      <g>
       <use style="fill:#262626;stroke:#262626;stroke-width:0.8;" x="57.55" xlink:href="#m3cbddad83f" y="506.5"/>
      </g>
     </g>
     <g id="text_1">
      <!-- 1970 -->
      <defs>
       <path d="M 7.625 0 
L 7.625 7.46875 
L 25.140625 7.46875 
L 25.140625 60.40625 
L 9.625 49.3125 
L 9.625 57.625 
L 25.875 68.796875 
L 33.984375 68.796875 
L 33.984375 7.46875 
L 50.734375 7.46875 
L 50.734375 0 
z
" id="LiberationSans-49"/>
       <path d="M 50.875 35.796875 
Q 50.875 18.0625 44.40625 8.53125 
Q 37.9375 -0.984375 25.984375 -0.984375 
Q 17.921875 -0.984375 13.0625 2.40625 
Q 8.203125 5.8125 6.109375 13.375 
L 14.5 14.703125 
Q 17.140625 6.109375 26.125 6.109375 
Q 33.6875 6.109375 37.84375 13.140625 
Q 42 20.171875 42.1875 33.203125 
Q 40.234375 28.8125 35.5 26.140625 
Q 30.765625 23.484375 25.09375 23.484375 
Q 15.828125 23.484375 10.25 29.828125 
Q 4.6875 36.1875 4.6875 46.6875 
Q 4.6875 57.46875 10.734375 63.640625 
Q 16.796875 69.828125 27.59375 69.828125 
Q 39.0625 69.828125 44.96875 61.328125 
Q 50.875 52.828125 50.875 35.796875 
z
M 41.3125 44.28125 
Q 41.3125 52.59375 37.5 57.640625 
Q 33.6875 62.703125 27.296875 62.703125 
Q 20.953125 62.703125 17.28125 58.375 
Q 13.625 54.046875 13.625 46.6875 
Q 13.625 39.15625 17.28125 34.78125 
Q 20.953125 30.421875 27.203125 30.421875 
Q 31 30.421875 34.265625 32.15625 
Q 37.546875 33.890625 39.421875 37.0625 
Q 41.3125 40.234375 41.3125 44.28125 
z
" id="LiberationSans-57"/>
       <path d="M 50.59375 61.671875 
Q 40.046875 45.5625 35.6875 36.421875 
Q 31.34375 27.296875 29.171875 18.40625 
Q 27 9.515625 27 0 
L 17.828125 0 
Q 17.828125 13.1875 23.40625 27.75 
Q 29 42.328125 42.09375 61.328125 
L 5.125 61.328125 
L 5.125 68.796875 
L 50.59375 68.796875 
z
" id="LiberationSans-55"/>
       <path d="M 51.703125 34.421875 
Q 51.703125 17.1875 45.625 8.09375 
Q 39.546875 -0.984375 27.6875 -0.984375 
Q 15.828125 -0.984375 9.859375 8.046875 
Q 3.90625 17.09375 3.90625 34.421875 
Q 3.90625 52.15625 9.6875 60.984375 
Q 15.484375 69.828125 27.984375 69.828125 
Q 40.140625 69.828125 45.921875 60.890625 
Q 51.703125 51.953125 51.703125 34.421875 
z
M 42.78125 34.421875 
Q 42.78125 49.3125 39.328125 56 
Q 35.890625 62.703125 27.984375 62.703125 
Q 19.875 62.703125 16.328125 56.109375 
Q 12.796875 49.515625 12.796875 34.421875 
Q 12.796875 19.78125 16.375 12.984375 
Q 19.96875 6.203125 27.78125 6.203125 
Q 35.546875 6.203125 39.15625 13.125 
Q 42.78125 20.0625 42.78125 34.421875 
z
" id="LiberationSans-48"/>
      </defs>
      <g style="fill:#262626;" transform="translate(39.755 527.595)scale(0.16 -0.16)">
       <use xlink:href="#LiberationSans-49"/>
       <use x="55.615234" xlink:href="#LiberationSans-57"/>
       <use x="111.230469" xlink:href="#LiberationSans-55"/>
       <use x="166.845703" xlink:href="#LiberationSans-48"/>
      </g>
     </g>
    </g>
    <g id="xtick_2">
     <g id="line2d_2">
      <g>
       <use style="fill:#262626;stroke:#262626;stroke-width:0.8;" x="137.916019" xlink:href="#m3cbddad83f" y="506.5"/>
      </g>
     </g>
     <g id="text_2">
      <!-- 1975 -->
      <defs>
       <path d="M 51.421875 22.40625 
Q 51.421875 11.53125 44.953125 5.265625 
Q 38.484375 -0.984375 27 -0.984375 
Q 17.390625 -0.984375 11.46875 3.21875 
Q 5.5625 7.421875 4 15.375 
L 12.890625 16.40625 
Q 15.671875 6.203125 27.203125 6.203125 
Q 34.28125 6.203125 38.28125 10.46875 
Q 42.28125 14.75 42.28125 22.21875 
Q 42.28125 28.71875 38.25 32.71875 
Q 34.234375 36.71875 27.390625 36.71875 
Q 23.828125 36.71875 20.75 35.59375 
Q 17.671875 34.46875 14.59375 31.78125 
L 6 31.78125 
L 8.296875 68.796875 
L 47.40625 68.796875 
L 47.40625 61.328125 
L 16.3125 61.328125 
L 14.984375 39.5 
Q 20.703125 43.890625 29.203125 43.890625 
Q 39.359375 43.890625 45.390625 37.9375 
Q 51.421875 31.984375 51.421875 22.40625 
z
" id="LiberationSans-53"/>
      </defs>
      <g style="fill:#262626;" transform="translate(120.121019 527.595)scale(0.16 -0.16)">
       <use xlink:href="#LiberationSans-49"/>
       <use x="55.615234" xlink:href="#LiberationSans-57"/>
       <use x="111.230469" xlink:href="#LiberationSans-55"/>
       <use x="166.845703" xlink:href="#LiberationSans-53"/>
      </g>
     </g>
    </g>
    <g id="xtick_3">
     <g id="line2d_3">
      <g>
       <use style="fill:#262626;stroke:#262626;stroke-width:0.8;" x="218.282039" xlink:href="#m3cbddad83f" y="506.5"/>
      </g>
     </g>
     <g id="text_3">
      <!-- 1980 -->
      <defs>
       <path d="M 51.265625 19.1875 
Q 51.265625 9.671875 45.203125 4.34375 
Q 39.15625 -0.984375 27.828125 -0.984375 
Q 16.796875 -0.984375 10.5625 4.234375 
Q 4.34375 9.46875 4.34375 19.09375 
Q 4.34375 25.828125 8.203125 30.421875 
Q 12.0625 35.015625 18.0625 35.984375 
L 18.0625 36.1875 
Q 12.453125 37.5 9.203125 41.890625 
Q 5.953125 46.296875 5.953125 52.203125 
Q 5.953125 60.0625 11.828125 64.9375 
Q 17.71875 69.828125 27.640625 69.828125 
Q 37.796875 69.828125 43.671875 65.03125 
Q 49.5625 60.25 49.5625 52.09375 
Q 49.5625 46.1875 46.28125 41.796875 
Q 43.015625 37.40625 37.359375 36.28125 
L 37.359375 36.078125 
Q 43.953125 35.015625 47.609375 30.5 
Q 51.265625 25.984375 51.265625 19.1875 
z
M 40.4375 51.609375 
Q 40.4375 63.28125 27.640625 63.28125 
Q 21.4375 63.28125 18.1875 60.34375 
Q 14.9375 57.421875 14.9375 51.609375 
Q 14.9375 45.703125 18.28125 42.59375 
Q 21.625 39.5 27.734375 39.5 
Q 33.9375 39.5 37.1875 42.359375 
Q 40.4375 45.21875 40.4375 51.609375 
z
M 42.140625 20.015625 
Q 42.140625 26.421875 38.328125 29.65625 
Q 34.515625 32.90625 27.640625 32.90625 
Q 20.953125 32.90625 17.1875 29.40625 
Q 13.421875 25.921875 13.421875 19.828125 
Q 13.421875 5.609375 27.9375 5.609375 
Q 35.109375 5.609375 38.625 9.046875 
Q 42.140625 12.5 42.140625 20.015625 
z
" id="LiberationSans-56"/>
      </defs>
      <g style="fill:#262626;" transform="translate(200.487039 527.595)scale(0.16 -0.16)">
       <use xlink:href="#LiberationSans-49"/>
       <use x="55.615234" xlink:href="#LiberationSans-57"/>
       <use x="111.230469" xlink:href="#LiberationSans-56"/>
       <use x="166.845703" xlink:href="#LiberationSans-48"/>
      </g>
     </g>
    </g>
    <g id="xtick_4">
     <g id="line2d_4">
      <g>
       <use style="fill:#262626;stroke:#262626;stroke-width:0.8;" x="298.69207" xlink:href="#m3cbddad83f" y="506.5"/>
      </g>
     </g>
     <g id="text_4">
      <!-- 1985 -->
      <g style="fill:#262626;" transform="translate(280.89707 527.595)scale(0.16 -0.16)">
       <use xlink:href="#LiberationSans-49"/>
       <use x="55.615234" xlink:href="#LiberationSans-57"/>
       <use x="111.230469" xlink:href="#LiberationSans-56"/>
       <use x="166.845703" xlink:href="#LiberationSans-53"/>
      </g>
     </g>
    </g>
    <g id="xtick_5">
     <g id="line2d_5">
      <g>
       <use style="fill:#262626;stroke:#262626;stroke-width:0.8;" x="379.05809" xlink:href="#m3cbddad83f" y="506.5"/>
      </g>
     </g>
     <g id="text_5">
      <!-- 1990 -->
      <g style="fill:#262626;" transform="translate(361.26309 527.595)scale(0.16 -0.16)">
       <use xlink:href="#LiberationSans-49"/>
       <use x="55.615234" xlink:href="#LiberationSans-57"/>
       <use x="111.230469" xlink:href="#LiberationSans-57"/>
       <use x="166.845703" xlink:href="#LiberationSans-48"/>
      </g>
     </g>
    </g>
    <g id="xtick_6">
     <g id="line2d_6">
      <g>
       <use style="fill:#262626;stroke:#262626;stroke-width:0.8;" x="459.424109" xlink:href="#m3cbddad83f" y="506.5"/>
      </g>
     </g>
     <g id="text_6">
      <!-- 1995 -->
      <g style="fill:#262626;" transform="translate(441.629109 527.595)scale(0.16 -0.16)">
       <use xlink:href="#LiberationSans-49"/>
       <use x="55.615234" xlink:href="#LiberationSans-57"/>
       <use x="111.230469" xlink:href="#LiberationSans-57"/>
       <use x="166.845703" xlink:href="#LiberationSans-53"/>
      </g>
     </g>
    </g>
    <g id="xtick_7">
     <g id="line2d_7">
      <g>
       <use style="fill:#262626;stroke:#262626;stroke-width:0.8;" x="539.790129" xlink:href="#m3cbddad83f" y="506.5"/>
      </g>
     </g>
     <g id="text_7">
      <!-- 2000 -->
      <defs>
       <path d="M 5.03125 0 
L 5.03125 6.203125 
Q 7.515625 11.921875 11.109375 16.28125 
Q 14.703125 20.65625 18.65625 24.1875 
Q 22.609375 27.734375 26.484375 30.765625 
Q 30.375 33.796875 33.5 36.8125 
Q 36.625 39.84375 38.546875 43.15625 
Q 40.484375 46.484375 40.484375 50.6875 
Q 40.484375 56.34375 37.15625 59.46875 
Q 33.84375 62.59375 27.9375 62.59375 
Q 22.3125 62.59375 18.671875 59.546875 
Q 15.046875 56.5 14.40625 50.984375 
L 5.421875 51.8125 
Q 6.390625 60.0625 12.421875 64.9375 
Q 18.453125 69.828125 27.9375 69.828125 
Q 38.328125 69.828125 43.921875 64.921875 
Q 49.515625 60.015625 49.515625 50.984375 
Q 49.515625 46.96875 47.671875 43.015625 
Q 45.84375 39.0625 42.234375 35.109375 
Q 38.625 31.15625 28.421875 22.859375 
Q 22.796875 18.265625 19.46875 14.578125 
Q 16.15625 10.890625 14.703125 7.46875 
L 50.59375 7.46875 
L 50.59375 0 
z
" id="LiberationSans-50"/>
      </defs>
      <g style="fill:#262626;" transform="translate(521.995129 527.595)scale(0.16 -0.16)">
       <use xlink:href="#LiberationSans-50"/>
       <use x="55.615234" xlink:href="#LiberationSans-48"/>
       <use x="111.230469" xlink:href="#LiberationSans-48"/>
       <use x="166.845703" xlink:href="#LiberationSans-48"/>
      </g>
     </g>
    </g>
    <g id="xtick_8">
     <g id="line2d_8">
      <g>
       <use style="fill:#262626;stroke:#262626;stroke-width:0.8;" x="620.20016" xlink:href="#m3cbddad83f" y="506.5"/>
      </g>
     </g>
     <g id="text_8">
      <!-- 2005 -->
      <g style="fill:#262626;" transform="translate(602.40516 527.595)scale(0.16 -0.16)">
       <use xlink:href="#LiberationSans-50"/>
       <use x="55.615234" xlink:href="#LiberationSans-48"/>
       <use x="111.230469" xlink:href="#LiberationSans-48"/>
       <use x="166.845703" xlink:href="#LiberationSans-53"/>
      </g>
     </g>
    </g>
    <g id="xtick_9">
     <g id="line2d_9">
      <g>
       <use style="fill:#262626;stroke:#262626;stroke-width:0.8;" x="700.56618" xlink:href="#m3cbddad83f" y="506.5"/>
      </g>
     </g>
     <g id="text_9">
      <!-- 2010 -->
      <g style="fill:#262626;" transform="translate(682.77118 527.595)scale(0.16 -0.16)">
       <use xlink:href="#LiberationSans-50"/>
       <use x="55.615234" xlink:href="#LiberationSans-48"/>
       <use x="111.230469" xlink:href="#LiberationSans-49"/>
       <use x="166.845703" xlink:href="#LiberationSans-48"/>
      </g>
     </g>
    </g>
    <g id="xtick_10">
     <g id="line2d_10">
      <g>
       <use style="fill:#262626;stroke:#262626;stroke-width:0.8;" x="780.932199" xlink:href="#m3cbddad83f" y="506.5"/>
      </g>
     </g>
     <g id="text_10">
      <!-- 2015 -->
      <g style="fill:#262626;" transform="translate(763.137199 527.595)scale(0.16 -0.16)">
       <use xlink:href="#LiberationSans-50"/>
       <use x="55.615234" xlink:href="#LiberationSans-48"/>
       <use x="111.230469" xlink:href="#LiberationSans-49"/>
       <use x="166.845703" xlink:href="#LiberationSans-53"/>
      </g>
     </g>
    </g>
    <g id="text_11">
     <!--  -->
     <g style="fill:#262626;" transform="translate(455.375 545.060625)scale(0.14 -0.14)"/>
     <!-- Data source: Staistics Canada -->
     <defs>
      <path d="M 67.4375 35.109375 
Q 67.4375 24.46875 63.28125 16.484375 
Q 59.125 8.5 51.5 4.25 
Q 43.890625 0 33.9375 0 
L 8.203125 0 
L 8.203125 68.796875 
L 30.953125 68.796875 
Q 48.4375 68.796875 57.9375 60.03125 
Q 67.4375 51.265625 67.4375 35.109375 
z
M 58.0625 35.109375 
Q 58.0625 47.90625 51.046875 54.609375 
Q 44.046875 61.328125 30.765625 61.328125 
L 17.53125 61.328125 
L 17.53125 7.46875 
L 32.859375 7.46875 
Q 40.4375 7.46875 46.171875 10.78125 
Q 51.90625 14.109375 54.984375 20.359375 
Q 58.0625 26.609375 58.0625 35.109375 
z
" id="LiberationSans-68"/>
      <path d="M 20.21875 -0.984375 
Q 12.25 -0.984375 8.25 3.21875 
Q 4.25 7.421875 4.25 14.75 
Q 4.25 22.953125 9.640625 27.34375 
Q 15.046875 31.734375 27.046875 32.03125 
L 38.921875 32.234375 
L 38.921875 35.109375 
Q 38.921875 41.546875 36.1875 44.328125 
Q 33.453125 47.125 27.59375 47.125 
Q 21.6875 47.125 19 45.109375 
Q 16.3125 43.109375 15.765625 38.71875 
L 6.59375 39.546875 
Q 8.84375 53.8125 27.78125 53.8125 
Q 37.75 53.8125 42.765625 49.234375 
Q 47.796875 44.671875 47.796875 36.03125 
L 47.796875 13.28125 
Q 47.796875 9.375 48.828125 7.390625 
Q 49.859375 5.421875 52.734375 5.421875 
Q 54 5.421875 55.609375 5.765625 
L 55.609375 0.296875 
Q 52.296875 -0.484375 48.828125 -0.484375 
Q 43.953125 -0.484375 41.71875 2.078125 
Q 39.5 4.640625 39.203125 10.109375 
L 38.921875 10.109375 
Q 35.546875 4.046875 31.078125 1.53125 
Q 26.609375 -0.984375 20.21875 -0.984375 
z
M 22.21875 5.609375 
Q 27.046875 5.609375 30.8125 7.8125 
Q 34.578125 10.015625 36.75 13.84375 
Q 38.921875 17.671875 38.921875 21.734375 
L 38.921875 26.078125 
L 29.296875 25.875 
Q 23.09375 25.78125 19.890625 24.609375 
Q 16.703125 23.4375 14.984375 21 
Q 13.28125 18.5625 13.28125 14.59375 
Q 13.28125 10.296875 15.59375 7.953125 
Q 17.921875 5.609375 22.21875 5.609375 
z
" id="LiberationSans-97"/>
      <path d="M 27.046875 0.390625 
Q 22.703125 -0.78125 18.171875 -0.78125 
Q 7.625 -0.78125 7.625 11.1875 
L 7.625 46.4375 
L 1.515625 46.4375 
L 1.515625 52.828125 
L 7.953125 52.828125 
L 10.546875 64.65625 
L 16.40625 64.65625 
L 16.40625 52.828125 
L 26.171875 52.828125 
L 26.171875 46.4375 
L 16.40625 46.4375 
L 16.40625 13.09375 
Q 16.40625 9.28125 17.640625 7.734375 
Q 18.890625 6.203125 21.96875 6.203125 
Q 23.734375 6.203125 27.046875 6.890625 
z
" id="LiberationSans-116"/>
      <path id="LiberationSans-32"/>
      <path d="M 46.390625 14.59375 
Q 46.390625 7.125 40.75 3.0625 
Q 35.109375 -0.984375 24.953125 -0.984375 
Q 15.09375 -0.984375 9.734375 2.265625 
Q 4.390625 5.515625 2.78125 12.40625 
L 10.546875 13.921875 
Q 11.671875 9.671875 15.1875 7.6875 
Q 18.703125 5.71875 24.953125 5.71875 
Q 31.640625 5.71875 34.734375 7.765625 
Q 37.84375 9.8125 37.84375 13.921875 
Q 37.84375 17.046875 35.6875 19 
Q 33.546875 20.953125 28.765625 22.21875 
L 22.46875 23.875 
Q 14.890625 25.828125 11.6875 27.703125 
Q 8.5 29.59375 6.6875 32.28125 
Q 4.890625 34.96875 4.890625 38.875 
Q 4.890625 46.09375 10.03125 49.875 
Q 15.1875 53.65625 25.046875 53.65625 
Q 33.796875 53.65625 38.9375 50.578125 
Q 44.09375 47.515625 45.453125 40.71875 
L 37.546875 39.75 
Q 36.8125 43.265625 33.609375 45.140625 
Q 30.421875 47.015625 25.046875 47.015625 
Q 19.09375 47.015625 16.25 45.203125 
Q 13.421875 43.40625 13.421875 39.75 
Q 13.421875 37.5 14.59375 36.03125 
Q 15.765625 34.578125 18.0625 33.546875 
Q 20.359375 32.515625 27.734375 30.71875 
Q 34.71875 28.953125 37.796875 27.46875 
Q 40.875 25.984375 42.65625 24.171875 
Q 44.4375 22.359375 45.40625 19.984375 
Q 46.390625 17.625 46.390625 14.59375 
z
" id="LiberationSans-115"/>
      <path d="M 51.421875 26.46875 
Q 51.421875 12.59375 45.3125 5.796875 
Q 39.203125 -0.984375 27.59375 -0.984375 
Q 16.015625 -0.984375 10.109375 6.078125 
Q 4.203125 13.140625 4.203125 26.46875 
Q 4.203125 53.8125 27.875 53.8125 
Q 39.984375 53.8125 45.703125 47.140625 
Q 51.421875 40.484375 51.421875 26.46875 
z
M 42.1875 26.46875 
Q 42.1875 37.40625 38.9375 42.359375 
Q 35.6875 47.3125 28.03125 47.3125 
Q 20.3125 47.3125 16.859375 42.25 
Q 13.421875 37.203125 13.421875 26.46875 
Q 13.421875 16.015625 16.8125 10.765625 
Q 20.21875 5.515625 27.484375 5.515625 
Q 35.40625 5.515625 38.796875 10.59375 
Q 42.1875 15.671875 42.1875 26.46875 
z
" id="LiberationSans-111"/>
      <path d="M 15.328125 52.828125 
L 15.328125 19.34375 
Q 15.328125 14.109375 16.359375 11.21875 
Q 17.390625 8.34375 19.625 7.078125 
Q 21.875 5.8125 26.21875 5.8125 
Q 32.5625 5.8125 36.21875 10.15625 
Q 39.890625 14.5 39.890625 22.21875 
L 39.890625 52.828125 
L 48.6875 52.828125 
L 48.6875 11.28125 
Q 48.6875 2.046875 48.96875 0 
L 40.671875 0 
Q 40.625 0.25 40.578125 1.3125 
Q 40.53125 2.390625 40.453125 3.78125 
Q 40.375 5.171875 40.28125 9.03125 
L 40.140625 9.03125 
Q 37.109375 3.5625 33.125 1.28125 
Q 29.15625 -0.984375 23.25 -0.984375 
Q 14.546875 -0.984375 10.515625 3.34375 
Q 6.5 7.671875 6.5 17.625 
L 6.5 52.828125 
z
" id="LiberationSans-117"/>
      <path d="M 6.9375 0 
L 6.9375 40.53125 
Q 6.9375 46.09375 6.640625 52.828125 
L 14.9375 52.828125 
Q 15.328125 43.84375 15.328125 42.046875 
L 15.53125 42.046875 
Q 17.625 48.828125 20.359375 51.3125 
Q 23.09375 53.8125 28.078125 53.8125 
Q 29.828125 53.8125 31.640625 53.328125 
L 31.640625 45.265625 
Q 29.890625 45.75 26.953125 45.75 
Q 21.484375 45.75 18.59375 41.03125 
Q 15.71875 36.328125 15.71875 27.546875 
L 15.71875 0 
z
" id="LiberationSans-114"/>
      <path d="M 13.421875 26.65625 
Q 13.421875 16.109375 16.734375 11.03125 
Q 20.0625 5.953125 26.765625 5.953125 
Q 31.453125 5.953125 34.59375 8.484375 
Q 37.75 11.03125 38.484375 16.3125 
L 47.359375 15.71875 
Q 46.34375 8.109375 40.875 3.5625 
Q 35.40625 -0.984375 27 -0.984375 
Q 15.921875 -0.984375 10.078125 6.015625 
Q 4.25 13.03125 4.25 26.46875 
Q 4.25 39.796875 10.109375 46.796875 
Q 15.96875 53.8125 26.90625 53.8125 
Q 35.015625 53.8125 40.359375 49.609375 
Q 45.703125 45.40625 47.078125 38.03125 
L 38.03125 37.359375 
Q 37.359375 41.75 34.5625 44.328125 
Q 31.78125 46.921875 26.65625 46.921875 
Q 19.671875 46.921875 16.546875 42.28125 
Q 13.421875 37.640625 13.421875 26.65625 
z
" id="LiberationSans-99"/>
      <path d="M 13.484375 24.5625 
Q 13.484375 15.484375 17.234375 10.546875 
Q 21 5.609375 28.21875 5.609375 
Q 33.9375 5.609375 37.375 7.90625 
Q 40.828125 10.203125 42.046875 13.71875 
L 49.75 11.53125 
Q 45.015625 -0.984375 28.21875 -0.984375 
Q 16.5 -0.984375 10.375 6 
Q 4.25 12.984375 4.25 26.765625 
Q 4.25 39.84375 10.375 46.828125 
Q 16.5 53.8125 27.875 53.8125 
Q 51.171875 53.8125 51.171875 25.734375 
L 51.171875 24.5625 
z
M 42.09375 31.296875 
Q 41.359375 39.65625 37.84375 43.484375 
Q 34.328125 47.3125 27.734375 47.3125 
Q 21.34375 47.3125 17.609375 43.03125 
Q 13.875 38.765625 13.578125 31.296875 
z
" id="LiberationSans-101"/>
      <path d="M 9.125 42.71875 
L 9.125 52.828125 
L 18.65625 52.828125 
L 18.65625 42.71875 
z
M 9.125 0 
L 9.125 10.109375 
L 18.65625 10.109375 
L 18.65625 0 
z
" id="LiberationSans-58"/>
      <path d="M 62.109375 19 
Q 62.109375 9.46875 54.65625 4.234375 
Q 47.21875 -0.984375 33.6875 -0.984375 
Q 8.546875 -0.984375 4.546875 16.5 
L 13.578125 18.3125 
Q 15.140625 12.109375 20.21875 9.203125 
Q 25.296875 6.296875 34.03125 6.296875 
Q 43.0625 6.296875 47.96875 9.390625 
Q 52.875 12.5 52.875 18.5 
Q 52.875 21.875 51.34375 23.96875 
Q 49.8125 26.078125 47.015625 27.4375 
Q 44.234375 28.8125 40.375 29.734375 
Q 36.53125 30.671875 31.84375 31.734375 
Q 23.6875 33.546875 19.453125 35.34375 
Q 15.234375 37.15625 12.796875 39.375 
Q 10.359375 41.609375 9.0625 44.578125 
Q 7.765625 47.5625 7.765625 51.421875 
Q 7.765625 60.25 14.53125 65.03125 
Q 21.296875 69.828125 33.890625 69.828125 
Q 45.609375 69.828125 51.8125 66.234375 
Q 58.015625 62.640625 60.5 54 
L 51.3125 52.390625 
Q 49.8125 57.859375 45.5625 60.328125 
Q 41.3125 62.796875 33.796875 62.796875 
Q 25.53125 62.796875 21.1875 60.0625 
Q 16.84375 57.328125 16.84375 51.90625 
Q 16.84375 48.734375 18.53125 46.65625 
Q 20.21875 44.578125 23.390625 43.140625 
Q 26.5625 41.703125 36.03125 39.59375 
Q 39.203125 38.875 42.359375 38.109375 
Q 45.515625 37.359375 48.390625 36.296875 
Q 51.265625 35.25 53.78125 33.828125 
Q 56.296875 32.421875 58.15625 30.375 
Q 60.015625 28.328125 61.0625 25.53125 
Q 62.109375 22.75 62.109375 19 
z
" id="LiberationSans-83"/>
      <path d="M 6.6875 64.0625 
L 6.6875 72.46875 
L 15.484375 72.46875 
L 15.484375 64.0625 
z
M 6.6875 0 
L 6.6875 52.828125 
L 15.484375 52.828125 
L 15.484375 0 
z
" id="LiberationSans-105"/>
      <path d="M 38.671875 62.203125 
Q 27.25 62.203125 20.890625 54.859375 
Q 14.546875 47.515625 14.546875 34.71875 
Q 14.546875 22.078125 21.15625 14.375 
Q 27.78125 6.6875 39.0625 6.6875 
Q 53.515625 6.6875 60.796875 21 
L 68.40625 17.1875 
Q 64.15625 8.296875 56.46875 3.65625 
Q 48.78125 -0.984375 38.625 -0.984375 
Q 28.21875 -0.984375 20.625 3.34375 
Q 13.03125 7.671875 9.046875 15.703125 
Q 5.078125 23.734375 5.078125 34.71875 
Q 5.078125 51.171875 13.96875 60.5 
Q 22.859375 69.828125 38.578125 69.828125 
Q 49.5625 69.828125 56.9375 65.53125 
Q 64.3125 61.234375 67.78125 52.78125 
L 58.9375 49.859375 
Q 56.546875 55.859375 51.25 59.03125 
Q 45.953125 62.203125 38.671875 62.203125 
z
" id="LiberationSans-67"/>
      <path d="M 40.28125 0 
L 40.28125 33.5 
Q 40.28125 38.71875 39.25 41.59375 
Q 38.234375 44.484375 35.984375 45.75 
Q 33.734375 47.015625 29.390625 47.015625 
Q 23.046875 47.015625 19.375 42.671875 
Q 15.71875 38.328125 15.71875 30.609375 
L 15.71875 0 
L 6.9375 0 
L 6.9375 41.546875 
Q 6.9375 50.78125 6.640625 52.828125 
L 14.9375 52.828125 
Q 14.984375 52.59375 15.03125 51.515625 
Q 15.09375 50.4375 15.15625 49.046875 
Q 15.234375 47.65625 15.328125 43.796875 
L 15.484375 43.796875 
Q 18.5 49.265625 22.484375 51.53125 
Q 26.46875 53.8125 32.375 53.8125 
Q 41.0625 53.8125 45.09375 49.484375 
Q 49.125 45.171875 49.125 35.203125 
L 49.125 0 
z
" id="LiberationSans-110"/>
      <path d="M 40.09375 8.5 
Q 37.640625 3.421875 33.609375 1.21875 
Q 29.59375 -0.984375 23.640625 -0.984375 
Q 13.625 -0.984375 8.90625 5.75 
Q 4.203125 12.5 4.203125 26.171875 
Q 4.203125 53.8125 23.640625 53.8125 
Q 29.640625 53.8125 33.640625 51.609375 
Q 37.640625 49.421875 40.09375 44.625 
L 40.1875 44.625 
L 40.09375 50.53125 
L 40.09375 72.46875 
L 48.875 72.46875 
L 48.875 10.890625 
Q 48.875 2.640625 49.171875 0 
L 40.765625 0 
Q 40.625 0.78125 40.453125 3.609375 
Q 40.28125 6.453125 40.28125 8.5 
z
M 13.421875 26.46875 
Q 13.421875 15.375 16.34375 10.59375 
Q 19.28125 5.8125 25.875 5.8125 
Q 33.34375 5.8125 36.71875 10.984375 
Q 40.09375 16.15625 40.09375 27.046875 
Q 40.09375 37.546875 36.71875 42.421875 
Q 33.34375 47.3125 25.984375 47.3125 
Q 19.34375 47.3125 16.375 42.40625 
Q 13.421875 37.5 13.421875 26.46875 
z
" id="LiberationSans-100"/>
     </defs>
     <g style="fill:#262626;" transform="translate(361.221719 560.140375)scale(0.14 -0.14)">
      <use xlink:href="#LiberationSans-68"/>
      <use x="72.216797" xlink:href="#LiberationSans-97"/>
      <use x="127.832031" xlink:href="#LiberationSans-116"/>
      <use x="155.615234" xlink:href="#LiberationSans-97"/>
      <use x="211.230469" xlink:href="#LiberationSans-32"/>
      <use x="239.013672" xlink:href="#LiberationSans-115"/>
      <use x="289.013672" xlink:href="#LiberationSans-111"/>
      <use x="344.628906" xlink:href="#LiberationSans-117"/>
      <use x="400.244141" xlink:href="#LiberationSans-114"/>
      <use x="433.544922" xlink:href="#LiberationSans-99"/>
      <use x="483.544922" xlink:href="#LiberationSans-101"/>
      <use x="539.160156" xlink:href="#LiberationSans-58"/>
      <use x="566.943359" xlink:href="#LiberationSans-32"/>
      <use x="594.726562" xlink:href="#LiberationSans-83"/>
      <use x="661.425781" xlink:href="#LiberationSans-116"/>
      <use x="689.208984" xlink:href="#LiberationSans-97"/>
      <use x="744.824219" xlink:href="#LiberationSans-105"/>
      <use x="767.041016" xlink:href="#LiberationSans-115"/>
      <use x="817.041016" xlink:href="#LiberationSans-116"/>
      <use x="844.824219" xlink:href="#LiberationSans-105"/>
      <use x="867.041016" xlink:href="#LiberationSans-99"/>
      <use x="917.041016" xlink:href="#LiberationSans-115"/>
      <use x="967.041016" xlink:href="#LiberationSans-32"/>
      <use x="994.824219" xlink:href="#LiberationSans-67"/>
      <use x="1067.041016" xlink:href="#LiberationSans-97"/>
      <use x="1122.65625" xlink:href="#LiberationSans-110"/>
      <use x="1178.271484" xlink:href="#LiberationSans-97"/>
      <use x="1233.886719" xlink:href="#LiberationSans-100"/>
      <use x="1289.501953" xlink:href="#LiberationSans-97"/>
     </g>
    </g>
   </g>
   <g id="matplotlib.axis_2">
    <g id="ytick_1">
     <g id="line2d_11">
      <defs>
       <path d="M 0 0 
L -6 0 
" id="mf74c824838" style="stroke:#262626;stroke-width:0.8;"/>
      </defs>
      <g>
       <use style="fill:#262626;stroke:#262626;stroke-width:0.8;" x="57.55" xlink:href="#mf74c824838" y="502.226248"/>
      </g>
     </g>
     <g id="text_12">
      <!-- −5 -->
      <defs>
       <path d="M 4.9375 29.6875 
L 4.9375 36.8125 
L 53.515625 36.8125 
L 53.515625 29.6875 
z
" id="LiberationSans-8722"/>
      </defs>
      <g style="fill:#262626;" transform="translate(29.8075 508.023748)scale(0.16 -0.16)">
       <use xlink:href="#LiberationSans-8722"/>
       <use x="58.398438" xlink:href="#LiberationSans-53"/>
      </g>
     </g>
    </g>
    <g id="ytick_2">
     <g id="line2d_12">
      <g>
       <use style="fill:#262626;stroke:#262626;stroke-width:0.8;" x="57.55" xlink:href="#mf74c824838" y="397.069855"/>
      </g>
     </g>
     <g id="text_13">
      <!-- 0 -->
      <g style="fill:#262626;" transform="translate(39.1525 402.867355)scale(0.16 -0.16)">
       <use xlink:href="#LiberationSans-48"/>
      </g>
     </g>
    </g>
    <g id="ytick_3">
     <g id="line2d_13">
      <g>
       <use style="fill:#262626;stroke:#262626;stroke-width:0.8;" x="57.55" xlink:href="#mf74c824838" y="291.913462"/>
      </g>
     </g>
     <g id="text_14">
      <!-- 5 -->
      <g style="fill:#262626;" transform="translate(39.1525 297.710962)scale(0.16 -0.16)">
       <use xlink:href="#LiberationSans-53"/>
      </g>
     </g>
    </g>
    <g id="ytick_4">
     <g id="line2d_14">
      <g>
       <use style="fill:#262626;stroke:#262626;stroke-width:0.8;" x="57.55" xlink:href="#mf74c824838" y="186.757069"/>
      </g>
     </g>
     <g id="text_15">
      <!-- 10 -->
      <g style="fill:#262626;" transform="translate(30.255 192.554569)scale(0.16 -0.16)">
       <use xlink:href="#LiberationSans-49"/>
       <use x="55.615234" xlink:href="#LiberationSans-48"/>
      </g>
     </g>
    </g>
    <g id="ytick_5">
     <g id="line2d_15">
      <g>
       <use style="fill:#262626;stroke:#262626;stroke-width:0.8;" x="57.55" xlink:href="#mf74c824838" y="81.600676"/>
      </g>
     </g>
     <g id="text_16">
      <!-- 15 -->
      <g style="fill:#262626;" transform="translate(30.255 87.398176)scale(0.16 -0.16)">
       <use xlink:href="#LiberationSans-49"/>
       <use x="55.615234" xlink:href="#LiberationSans-53"/>
      </g>
     </g>
    </g>
    <g id="text_17">
     <!-- Percentage -->
     <defs>
      <path d="M 61.421875 48.09375 
Q 61.421875 38.328125 55.046875 32.5625 
Q 48.6875 26.8125 37.75 26.8125 
L 17.53125 26.8125 
L 17.53125 0 
L 8.203125 0 
L 8.203125 68.796875 
L 37.15625 68.796875 
Q 48.734375 68.796875 55.078125 63.375 
Q 61.421875 57.953125 61.421875 48.09375 
z
M 52.046875 48 
Q 52.046875 61.328125 36.03125 61.328125 
L 17.53125 61.328125 
L 17.53125 34.1875 
L 36.421875 34.1875 
Q 52.046875 34.1875 52.046875 48 
z
" id="LiberationSans-80"/>
      <path d="M 26.765625 -20.75 
Q 18.109375 -20.75 12.984375 -17.359375 
Q 7.859375 -13.96875 6.390625 -7.71875 
L 15.234375 -6.453125 
Q 16.109375 -10.109375 19.109375 -12.078125 
Q 22.125 -14.0625 27 -14.0625 
Q 40.140625 -14.0625 40.140625 1.3125 
L 40.140625 9.8125 
L 40.046875 9.8125 
Q 37.546875 4.734375 33.203125 2.171875 
Q 28.859375 -0.390625 23.046875 -0.390625 
Q 13.328125 -0.390625 8.765625 6.046875 
Q 4.203125 12.5 4.203125 26.3125 
Q 4.203125 40.328125 9.109375 46.984375 
Q 14.015625 53.65625 24.03125 53.65625 
Q 29.640625 53.65625 33.765625 51.09375 
Q 37.890625 48.53125 40.140625 43.796875 
L 40.234375 43.796875 
Q 40.234375 45.265625 40.421875 48.875 
Q 40.625 52.484375 40.828125 52.828125 
L 49.171875 52.828125 
Q 48.875 50.203125 48.875 41.890625 
L 48.875 1.515625 
Q 48.875 -20.75 26.765625 -20.75 
z
M 40.140625 26.421875 
Q 40.140625 32.859375 38.375 37.515625 
Q 36.625 42.1875 33.421875 44.65625 
Q 30.21875 47.125 26.171875 47.125 
Q 19.4375 47.125 16.359375 42.234375 
Q 13.28125 37.359375 13.28125 26.421875 
Q 13.28125 15.578125 16.15625 10.84375 
Q 19.046875 6.109375 26.03125 6.109375 
Q 30.171875 6.109375 33.390625 8.546875 
Q 36.625 10.984375 38.375 15.546875 
Q 40.140625 20.125 40.140625 26.421875 
z
" id="LiberationSans-103"/>
     </defs>
     <g style="fill:#262626;" transform="translate(22.4875 310.065)rotate(-90)scale(0.16 -0.16)">
      <use xlink:href="#LiberationSans-80"/>
      <use x="66.699219" xlink:href="#LiberationSans-101"/>
      <use x="122.314453" xlink:href="#LiberationSans-114"/>
      <use x="155.615234" xlink:href="#LiberationSans-99"/>
      <use x="205.615234" xlink:href="#LiberationSans-101"/>
      <use x="261.230469" xlink:href="#LiberationSans-110"/>
      <use x="316.845703" xlink:href="#LiberationSans-116"/>
      <use x="344.628906" xlink:href="#LiberationSans-97"/>
      <use x="400.244141" xlink:href="#LiberationSans-103"/>
      <use x="455.859375" xlink:href="#LiberationSans-101"/>
     </g>
    </g>
   </g>
   <g id="line2d_16">
    <path clip-path="url(#p31d27e5797)" d="M 57.55 287.531945 
L 58.914374 287.531945 
L 60.146711 298.996535 
L 61.511085 321.958145 
L 62.831447 321.958145 
L 64.195821 333.015199 
L 65.516183 322.71685 
L 68.24493 344.227446 
L 70.929666 344.227446 
L 72.250028 376.143209 
L 73.614401 376.246807 
L 74.978775 365.835283 
L 76.211113 365.835283 
L 77.575487 355.628912 
L 78.895849 355.628912 
L 80.260222 345.268676 
L 81.580584 345.774053 
L 82.944958 325.255733 
L 84.309332 324.903703 
L 85.629694 314.594252 
L 86.994067 314.594252 
L 88.314429 293.467497 
L 91.043177 294.478252 
L 92.319526 284.219092 
L 93.6839 295.469475 
L 95.004262 295.469475 
L 96.368636 306.06913 
L 97.688998 296.920909 
L 99.053372 297.86571 
L 100.417745 277.460687 
L 101.738107 287.945296 
L 103.102481 287.945296 
L 104.422843 288.457618 
L 107.15159 269.903984 
L 108.383928 280.229418 
L 109.748302 261.384186 
L 111.068664 251.692353 
L 112.433037 232.308686 
L 113.753399 234.555429 
L 115.117773 226.545974 
L 116.482147 227.310655 
L 117.802509 217.879589 
L 119.166882 199.017455 
L 120.487244 199.901618 
L 123.215992 203.36071 
L 124.448329 175.687975 
L 125.812703 187.667514 
L 127.133065 152.309285 
L 128.497439 154.401256 
L 129.817801 166.346967 
L 131.182174 169.231003 
L 132.546548 161.449721 
L 133.86691 145.042136 
L 135.231284 147.107937 
L 136.551646 130.959799 
L 137.916019 150.143912 
L 139.280393 143.680956 
L 140.512731 163.388981 
L 141.877105 165.228988 
L 143.197467 185.94505 
L 144.56184 179.504904 
L 145.882202 165.166022 
L 147.246576 167.781479 
L 148.61095 177.340078 
L 149.931312 187.533131 
L 151.295685 181.364433 
L 152.616047 198.949114 
L 153.980421 191.329086 
L 155.344795 201.079445 
L 156.621144 201.779411 
L 157.985518 210.622349 
L 160.670254 229.111727 
L 161.990616 245.817509 
L 163.354989 268.743409 
L 164.719363 262.071783 
L 166.039725 262.97781 
L 167.404099 278.288547 
L 168.724461 278.681863 
L 170.088834 265.19055 
L 171.453208 266.055332 
L 172.685546 245.864584 
L 174.04992 239.50653 
L 175.370282 226.913879 
L 176.734655 234.770599 
L 178.055017 222.369138 
L 179.419391 222.369138 
L 182.104127 211.304618 
L 184.788862 199.283536 
L 186.153236 207.657718 
L 187.51761 202.335794 
L 188.749947 211.122575 
L 190.114321 218.622642 
L 191.434683 214.462945 
L 192.799057 202.452053 
L 194.119419 198.544511 
L 195.483792 192.340594 
L 196.848166 218.734451 
L 198.168528 208.093149 
L 199.532902 209.182351 
L 200.853264 216.285225 
L 202.217637 217.315337 
L 203.582011 206.956602 
L 204.814349 202.663078 
L 206.178723 191.456796 
L 207.499085 200.082672 
L 208.863458 207.443572 
L 210.18382 221.336799 
L 211.548194 221.8092 
L 212.912568 192.992758 
L 214.23293 206.893399 
L 215.597303 196.771963 
L 216.917665 191.751304 
L 218.282039 192.829092 
L 219.646413 195.474697 
L 220.922762 202.934975 
L 222.287136 204.416921 
L 223.607498 201.060457 
L 224.971872 186.229969 
L 226.292234 187.803401 
L 227.656607 167.447954 
L 229.020981 174.872071 
L 230.341343 171.368328 
L 231.705717 163.388981 
L 233.026079 164.512447 
L 234.390452 140.46813 
L 235.754826 143.501248 
L 236.987164 130.476182 
L 238.351538 132.340474 
L 239.6719 140.236268 
L 241.036273 128.789308 
L 242.356635 125.852009 
L 243.721009 133.590749 
L 245.085383 130.673659 
L 246.405745 128.388322 
L 247.770118 141.036898 
L 249.09048 142.145266 
L 250.454854 159.402954 
L 251.819228 157.47301 
L 253.051565 156.086454 
L 254.415939 157.583246 
L 255.736301 146.594668 
L 257.100675 159.140238 
L 258.421037 165.262175 
L 259.78541 175.467913 
L 261.149784 181.364433 
L 262.470146 187.578603 
L 263.83452 193.278396 
L 265.154882 202.18542 
L 266.519255 223.82369 
L 267.883629 237.741987 
L 269.115967 243.75773 
L 270.480341 256.34011 
L 271.800703 281.301349 
L 273.165076 282.561986 
L 274.485438 283.182065 
L 275.849812 279.809129 
L 277.214186 291.725347 
L 278.534548 292.473798 
L 279.898921 304.175515 
L 281.219283 300.459741 
L 282.583657 281.676999 
L 283.948031 282.286468 
L 285.22438 301.806223 
L 286.588754 294.478252 
L 287.909116 298.314286 
L 289.27349 306.573819 
L 290.593852 310.639943 
L 291.958225 321.830187 
L 293.322599 318.247346 
L 294.642961 325.898015 
L 296.007335 315.222239 
L 298.69207 322.966356 
L 300.056444 319.826428 
L 301.288782 319.955167 
L 302.653156 316.717794 
L 303.973518 309.730658 
L 305.337891 313.777662 
L 306.658253 310.592558 
L 308.022627 310.592558 
L 309.387001 310.734557 
L 310.707363 311.01716 
L 312.071736 314.862903 
L 313.392098 304.587034 
L 314.756472 305.036707 
L 316.120846 309.016192 
L 317.353183 305.776523 
L 318.717557 316.309745 
L 320.037919 309.858811 
L 321.402293 316.950698 
L 322.722655 310.685456 
L 324.087028 307.362979 
L 325.451402 310.821709 
L 326.771764 304.47932 
L 328.136138 301.473134 
L 329.4565 308.482566 
L 330.820873 312.160966 
L 333.417585 312.815118 
L 334.781959 299.85285 
L 336.102321 300.44836 
L 337.466694 297.380308 
L 338.787056 301.328071 
L 340.15143 301.473134 
L 341.515804 301.473134 
L 342.836166 308.38374 
L 344.200539 308.782628 
L 345.520901 308.914795 
L 346.885275 312.316941 
L 348.249649 312.69474 
L 349.525998 306.71325 
L 350.890372 313.440323 
L 352.210734 313.9301 
L 353.575108 314.172844 
L 354.89547 314.654104 
L 356.259843 314.773547 
L 357.624217 311.725536 
L 358.944579 305.893791 
L 360.308953 312.339524 
L 361.629315 315.482998 
L 362.993688 306.547852 
L 364.358062 300.926867 
L 365.5904 301.473134 
L 366.954774 301.743946 
L 368.275136 290.432386 
L 370.959871 285.451337 
L 373.688619 285.762252 
L 375.008981 289.291834 
L 376.373354 286.532014 
L 377.693716 286.532014 
L 379.05809 281.354429 
L 380.422464 282.144835 
L 381.654801 285.626938 
L 383.019175 291.628485 
L 384.339537 304.036049 
L 385.703911 304.408681 
L 387.024273 310.601733 
L 388.388646 310.716261 
L 389.75302 308.04857 
L 391.073382 297.316755 
L 392.437756 289.288006 
L 393.758118 292.051644 
L 395.122491 251.742897 
L 396.486865 266.305428 
L 397.719203 266.811613 
L 399.083577 266.811613 
L 400.403938 267.480462 
L 401.768312 265.288186 
L 403.088674 271.150098 
L 404.453048 271.310301 
L 405.817422 282.305263 
L 407.137783 304.47932 
L 408.502157 310.315831 
L 409.822519 318.103853 
L 411.186893 363.727584 
L 412.551267 363.727584 
L 413.827616 363.849123 
L 415.19199 361.293682 
L 416.512352 369.095965 
L 417.876726 374.292297 
L 419.197088 371.791876 
L 420.561461 374.346985 
L 423.246197 364.129298 
L 424.610571 361.723168 
L 425.930933 351.404835 
L 427.295306 354.148878 
L 428.65968 346.574588 
L 429.892018 356.818604 
L 431.256392 359.379391 
L 432.576754 356.914669 
L 433.941127 362.017724 
L 435.261489 362.100983 
L 436.625863 359.603206 
L 437.990237 359.603206 
L 439.310599 357.152837 
L 440.674972 357.341347 
L 441.995334 362.307411 
L 443.359708 369.852906 
L 444.724082 394.604289 
L 445.956419 392.132935 
L 447.320793 392.132935 
L 448.641155 401.995213 
L 450.005529 397.069855 
L 451.325891 394.61293 
L 452.690264 394.615797 
L 454.054638 392.161738 
L 455.375 401.966544 
L 456.739374 399.506851 
L 459.424109 384.856569 
L 460.788483 357.666991 
L 462.020821 352.741633 
L 463.385195 345.353596 
L 464.705556 335.358357 
L 466.06993 340.428238 
L 467.390292 343.080575 
L 468.754666 350.497093 
L 470.11904 350.551311 
L 471.439401 347.988691 
L 472.803775 353.153032 
L 474.124137 360.514909 
L 475.488511 363.070097 
L 476.852885 370.478583 
L 478.129234 365.715884 
L 479.493608 368.226958 
L 480.81397 365.894641 
L 482.178344 365.894641 
L 483.498706 370.750849 
L 484.863079 365.894641 
L 486.227453 365.930148 
L 487.547815 358.700361 
L 488.912189 356.441248 
L 490.232551 351.557976 
L 491.596924 351.661412 
L 492.961298 349.325749 
L 494.193636 356.670789 
L 496.878372 366.35001 
L 498.242745 361.62388 
L 499.563107 361.62388 
L 500.927481 359.260815 
L 502.291855 361.663662 
L 503.612217 366.453212 
L 504.97659 378.312862 
L 506.296952 380.657486 
L 507.661326 373.675774 
L 509.0257 376.061918 
L 510.258037 376.085209 
L 511.622411 378.416836 
L 512.942773 373.779402 
L 514.307147 376.154771 
L 515.627509 376.154771 
L 516.991882 378.499189 
L 518.356256 383.141856 
L 519.676618 373.856523 
L 521.040992 371.506975 
L 522.361354 376.131635 
L 523.725727 383.187823 
L 525.090101 383.203078 
L 526.322439 376.292521 
L 527.686813 362.402912 
L 529.007174 364.820359 
L 530.371548 362.554627 
L 533.056284 353.350567 
L 534.420658 341.724385 
L 535.741019 348.854041 
L 537.105393 351.150032 
L 538.425755 341.785004 
L 539.790129 351.099847 
L 541.154503 339.670077 
L 542.430852 333.061616 
L 543.795226 351.59682 
L 545.115588 347.157435 
L 546.479962 338.209441 
L 547.800324 336.076888 
L 549.164697 342.970103 
L 551.849433 338.711985 
L 553.213807 329.661911 
L 554.534169 329.733851 
L 555.898542 334.088486 
L 557.262916 336.72506 
L 558.495254 346.044601 
L 559.859628 323.627295 
L 561.179989 315.072246 
L 562.544363 326.598555 
L 563.864725 339.991228 
L 565.229099 337.733959 
L 566.593473 342.357892 
L 567.913834 357.759054 
L 569.278208 384.006949 
L 570.59857 381.845558 
L 571.962944 368.678721 
L 573.327318 366.652716 
L 574.559655 358.082933 
L 575.924029 360.512417 
L 577.244391 373.606968 
L 578.608765 371.499911 
L 579.929127 352.186028 
L 581.2935 343.636728 
L 582.657874 348.011091 
L 583.978236 330.610157 
L 585.34261 304.030248 
L 586.662972 317.176907 
L 588.027345 302.256714 
L 589.391719 298.552664 
L 590.624057 307.756033 
L 591.988431 335.772661 
L 593.308792 338.00508 
L 594.673166 342.333794 
L 595.993528 353.123899 
L 597.357902 355.382484 
L 598.722276 351.213747 
L 600.042637 363.818821 
L 601.407011 363.9171 
L 602.727373 353.384706 
L 604.091747 370.265284 
L 605.456121 382.748945 
L 606.73247 380.750725 
L 608.096844 362.154646 
L 609.417206 345.774053 
L 610.78158 343.722221 
L 612.101942 347.873881 
L 613.466315 358.23659 
L 614.830689 358.311921 
L 616.151051 347.969593 
L 617.515425 346.072574 
L 618.835787 352.235734 
L 620.20016 356.351019 
L 622.796872 348.489423 
L 624.161246 346.562461 
L 625.481607 363.019213 
L 626.845981 361.050538 
L 628.166343 355.007298 
L 629.530717 342.886217 
L 630.895091 328.968572 
L 632.215452 343.092239 
L 633.579826 355.246289 
L 634.900188 353.17155 
L 636.264562 339.148955 
L 637.628936 351.306429 
L 638.861273 351.564736 
L 640.225647 345.774053 
L 641.546009 337.937862 
L 642.910383 345.918008 
L 644.230745 347.977234 
L 645.595118 352.072701 
L 646.959492 381.548616 
L 648.279854 375.629256 
L 649.644228 367.77838 
L 650.96459 361.887418 
L 652.328963 373.744962 
L 653.693337 354.228361 
L 654.925675 348.655309 
L 656.290049 350.847264 
L 657.61041 351.057942 
L 658.974784 350.973902 
L 660.295146 351.01596 
L 661.65952 360.676932 
L 663.023894 345.069441 
L 664.344255 346.903502 
L 665.708629 345.069441 
L 667.028991 347.086926 
L 668.393365 350.931766 
L 669.757739 358.900565 
L 671.034088 368.674789 
L 672.398462 361.263914 
L 673.718824 350.166914 
L 675.083198 331.288376 
L 676.40356 325.713731 
L 677.767933 323.639249 
L 679.132307 325.649963 
L 680.452669 342.418683 
L 681.817043 355.721496 
L 683.137405 372.658549 
L 684.501778 374.496032 
L 685.866152 367.078727 
L 687.09849 370.92084 
L 688.462864 389.65795 
L 689.783225 395.234665 
L 691.147599 402.537258 
L 692.467961 417.047753 
L 693.832335 413.443688 
L 695.196709 415.247278 
L 696.51707 395.233062 
L 697.881444 376.794301 
L 699.201806 369.22615 
L 700.56618 357.985178 
L 701.930554 363.804212 
L 703.162891 367.552271 
L 704.527265 358.294012 
L 707.212001 376.970457 
L 708.532363 358.564462 
L 709.896736 360.398052 
L 711.26111 356.730872 
L 712.581472 345.684532 
L 713.945846 355.080323 
L 715.266208 347.606046 
L 716.630581 347.73497 
L 717.994955 351.586986 
L 719.227293 327.935894 
L 720.591667 328.174287 
L 721.912028 319.310183 
L 723.276402 331.912709 
L 724.596764 339.449913 
L 725.961138 332.191874 
L 727.325512 330.503789 
L 728.645873 336.161552 
L 730.010247 336.213389 
L 731.330609 348.742661 
L 734.059357 341.864974 
L 735.335706 356.557342 
L 736.70008 354.937076 
L 738.020442 370.911548 
L 739.384816 365.470271 
L 740.705178 370.780756 
L 742.069551 370.846315 
L 743.433925 372.655435 
L 744.754287 372.695856 
L 746.118661 379.674256 
L 747.439023 379.572951 
L 748.803396 386.615201 
L 750.16777 371.041045 
L 751.400108 376.332357 
L 752.764482 388.464585 
L 754.084843 381.567684 
L 755.449217 372.856212 
L 756.769579 369.374344 
L 758.133953 374.622677 
L 759.498327 374.659476 
L 760.818688 383.301424 
L 762.183062 378.091671 
L 763.503424 371.041045 
L 764.867798 365.861032 
L 766.232172 373.073286 
L 767.464509 364.55608 
L 768.828883 354.218839 
L 770.149245 349.193773 
L 771.513619 347.483913 
L 772.833981 352.649607 
L 774.198354 352.649607 
L 775.562728 354.42736 
L 776.88309 347.483913 
L 778.247464 356.033214 
L 780.932199 376.568202 
L 782.296573 375.038701 
L 783.528911 371.791876 
L 784.893285 380.271709 
L 786.213646 378.680024 
L 787.57802 375.353681 
L 788.898382 370.299731 
L 790.262756 370.299731 
L 791.62713 375.336419 
L 792.947491 375.353681 
L 794.311865 368.558552 
L 795.632227 363.284668 
L 796.996601 354.770421 
L 798.360975 368.558552 
L 799.637324 370.426905 
L 801.001698 362.073274 
L 802.32206 365.580943 
L 803.686434 365.655209 
L 805.006796 370.636197 
L 806.371169 373.940405 
L 807.735543 368.939899 
L 809.055905 365.655209 
L 810.420279 372.249306 
L 811.740641 365.481373 
L 813.105014 352.287164 
L 814.469388 354.04757 
L 815.701726 364.182789 
L 817.0661 362.646094 
L 819.750835 375.89196 
L 821.071197 372.595908 
L 822.435571 367.655479 
L 823.799945 364.41259 
L 825.120306 367.746616 
L 826.48468 352.913982 
L 827.805042 357.759054 
L 829.169416 361.341042 
L 830.53379 351.66694 
L 831.766127 348.498773 
L 833.130501 350.297839 
L 834.450863 350.33368 
L 835.815237 345.459355 
L 837.135599 334.169558 
L 838.499972 337.440942 
L 839.864346 350.440873 
L 841.184708 345.656492 
L 842.549082 361.83085 
L 843.869444 355.264561 
L 845.233817 366.728602 
L 846.598191 365.324529 
L 847.830529 357.50763 
L 849.194903 354.470866 
L 850.515264 346.620011 
L 851.879638 354.566522 
L 853.2 354.788059 
L 855.928748 357.744352 
L 857.249109 357.861655 
L 858.613483 351.383931 
L 858.613483 351.383931 
" style="fill:none;stroke:#ff0000;stroke-linecap:round;stroke-width:1.6;"/>
   </g>
   <g id="line2d_17">
    <path clip-path="url(#p31d27e5797)" d="M 57.55 288.546708 
L 61.511085 301.77509 
L 65.516183 298.055226 
L 69.565292 306.321001 
L 73.614401 297.580548 
L 77.575487 290.107666 
L 81.580584 301.488931 
L 85.629694 282.046511 
L 89.678803 283.454245 
L 93.6839 290.22578 
L 97.688998 265.996043 
L 101.738107 259.595325 
L 105.787217 260.741115 
L 109.748302 212.334584 
L 113.753399 179.152811 
L 121.851618 82.739155 
L 125.812703 77.835476 
L 129.817801 53.377273 
L 133.86691 93.683439 
L 137.916019 139.399631 
L 141.877105 161.647194 
L 145.882202 186.830978 
L 149.931312 188.573414 
L 153.980421 180.817076 
L 157.985518 169.41053 
L 161.990616 223.430217 
L 166.039725 228.793472 
L 170.088834 241.136047 
L 174.04992 267.17652 
L 178.055017 244.097153 
L 182.104127 262.906928 
L 186.153236 271.051361 
L 190.114321 256.323301 
L 194.119419 256.353651 
L 198.168528 232.556663 
L 202.217637 212.684348 
L 206.178723 191.062529 
L 210.18382 174.52281 
L 214.23293 169.802049 
L 218.282039 179.413158 
L 222.287136 199.043002 
L 226.292234 196.736768 
L 230.341343 181.678298 
L 234.390452 164.038227 
L 238.351538 168.973297 
L 242.356635 174.79814 
L 246.405745 210.506597 
L 250.454854 204.982427 
L 254.415939 207.756327 
L 258.421037 220.111676 
L 262.470146 208.803712 
L 266.519255 256.726282 
L 270.480341 278.024067 
L 274.485438 270.501839 
L 278.534548 299.405793 
L 282.583657 300.820799 
L 286.588754 311.314227 
L 290.593852 337.53626 
L 294.642961 339.044441 
L 298.69207 338.208945 
L 302.653156 318.151647 
L 306.658253 325.839257 
L 310.707363 325.297641 
L 314.756472 324.269151 
L 318.717557 348.742378 
L 322.722655 334.949976 
L 326.771764 317.870191 
L 330.820873 309.540757 
L 334.781959 288.690302 
L 338.787056 291.169978 
L 342.836166 297.737835 
L 346.885275 299.52361 
L 350.890372 312.841094 
L 354.89547 298.534034 
L 358.944579 294.466095 
L 362.993688 302.045507 
L 366.954774 282.226354 
L 370.959871 295.400836 
L 375.008981 312.319106 
L 379.05809 314.641792 
L 383.019175 330.475118 
L 387.024273 330.950511 
L 391.073382 325.707805 
L 395.122491 316.536226 
L 399.083577 323.706134 
L 407.137783 353.046381 
L 411.186893 366.92731 
L 415.19199 368.548999 
L 419.197088 366.357581 
L 423.246197 363.626502 
L 427.295306 366.26816 
L 431.256392 364.276789 
L 435.261489 380.157809 
L 439.310599 369.384674 
L 443.359708 367.619248 
L 447.320793 381.916477 
L 451.325891 356.125853 
L 455.375 360.579322 
L 459.424109 353.360297 
L 463.385195 340.716092 
L 467.390292 352.069907 
L 471.439401 352.131945 
L 475.488511 359.375846 
L 479.493608 364.073867 
L 483.498706 361.271216 
L 487.547815 357.113484 
L 491.596924 358.62163 
L 495.55801 371.399922 
L 499.563107 376.079055 
L 503.612217 385.114667 
L 507.661326 396.463928 
L 511.622411 390.600479 
L 515.627509 407.215625 
L 519.676618 409.00322 
L 523.725727 393.982797 
L 527.686813 371.137836 
L 531.69191 335.590062 
L 535.741019 328.704231 
L 539.790129 312.968028 
L 543.795226 303.625829 
L 547.800324 306.752118 
L 551.849433 300.097485 
L 555.898542 304.807398 
L 559.859628 338.140035 
L 563.864725 384.297794 
L 567.913834 418.231744 
L 571.962944 428.954928 
L 575.924029 392.361308 
L 579.929127 353.524443 
L 583.978236 308.801848 
L 588.027345 288.169515 
L 591.988431 344.594305 
L 595.993528 331.401859 
L 600.042637 348.569784 
L 604.091747 354.736855 
L 608.096844 309.216099 
L 612.101942 324.669761 
L 616.151051 325.393353 
L 620.20016 335.808945 
L 624.161246 348.50495 
L 628.166343 329.835281 
L 632.215452 312.031615 
L 636.264562 333.385334 
L 640.225647 327.397592 
L 644.230745 343.877631 
L 648.279854 365.240742 
L 652.328963 325.418644 
L 656.290049 325.99411 
L 660.295146 341.865514 
L 664.344255 319.511518 
L 668.393365 309.451988 
L 672.398462 284.162954 
L 676.40356 278.448021 
L 680.452669 380.062215 
L 684.501778 453.90177 
L 688.462864 484.922727 
L 692.467961 472.73394 
L 696.51707 368.958372 
L 700.56618 317.491455 
L 704.527265 328.324274 
L 708.532363 345.058089 
L 712.581472 357.009941 
L 716.630581 344.61247 
L 720.591667 322.491502 
L 724.596764 321.062457 
L 728.645873 328.1137 
L 732.694983 356.061764 
L 736.70008 381.014565 
L 740.705178 372.268646 
L 744.754287 376.293178 
L 748.803396 359.241743 
L 752.764482 358.120883 
L 756.769579 357.133569 
L 760.818688 367.67243 
L 764.867798 356.460301 
L 768.828883 347.560943 
L 772.833981 352.597633 
L 776.88309 367.862731 
L 780.932199 416.871987 
L 784.893285 417.910241 
L 788.898382 415.144566 
L 792.947491 412.074421 
L 796.996601 396.929359 
L 801.001698 389.012213 
L 805.006796 385.313228 
L 809.055905 353.922323 
L 813.105014 331.148209 
L 817.0661 347.52309 
L 821.071197 355.496747 
L 825.120306 347.142505 
L 829.169416 357.074788 
L 833.130501 346.903342 
L 837.135599 341.738244 
L 841.184708 389.240777 
L 845.233817 373.073613 
L 849.194903 358.279631 
L 853.2 367.050317 
L 853.2 367.050317 
" style="fill:none;stroke:#0000ff;stroke-dasharray:5.92,2.56;stroke-dashoffset:0;stroke-width:1.6;"/>
   </g>
   <g id="patch_3">
    <path d="M 57.55 506.5 
L 57.55 31.8 
" style="fill:none;stroke:#262626;stroke-linecap:square;stroke-linejoin:miter;stroke-width:1.25;"/>
   </g>
   <g id="patch_4">
    <path d="M 853.2 506.5 
L 853.2 31.8 
" style="fill:none;stroke:#262626;stroke-linecap:square;stroke-linejoin:miter;stroke-width:1.25;"/>
   </g>
   <g id="patch_5">
    <path d="M 57.55 506.5 
L 853.2 506.5 
" style="fill:none;stroke:#262626;stroke-linecap:square;stroke-linejoin:miter;stroke-width:1.25;"/>
   </g>
   <g id="patch_6">
    <path d="M 57.55 31.8 
L 853.2 31.8 
" style="fill:none;stroke:#262626;stroke-linecap:square;stroke-linejoin:miter;stroke-width:1.25;"/>
   </g>
   <g id="text_18">
    <!-- Yearly inflation rates in Canada -->
    <defs>
     <path d="M 37.9375 28.515625 
L 37.9375 0 
L 28.65625 0 
L 28.65625 28.515625 
L 2.203125 68.796875 
L 12.453125 68.796875 
L 33.40625 36.03125 
L 54.25 68.796875 
L 64.5 68.796875 
z
" id="LiberationSans-89"/>
     <path d="M 6.734375 0 
L 6.734375 72.46875 
L 15.53125 72.46875 
L 15.53125 0 
z
" id="LiberationSans-108"/>
     <path d="M 9.328125 -20.75 
Q 5.71875 -20.75 3.265625 -20.21875 
L 3.265625 -13.625 
Q 5.125 -13.921875 7.375 -13.921875 
Q 15.578125 -13.921875 20.359375 -1.859375 
L 21.1875 0.25 
L 0.25 52.828125 
L 9.625 52.828125 
L 20.75 23.640625 
Q 21 22.953125 21.34375 22 
Q 21.6875 21.046875 23.53125 15.625 
Q 25.390625 10.203125 25.53125 9.578125 
L 28.953125 19.1875 
L 40.53125 52.828125 
L 49.8125 52.828125 
L 29.5 0 
Q 26.21875 -8.453125 23.390625 -12.578125 
Q 20.5625 -16.703125 17.109375 -18.71875 
Q 13.671875 -20.75 9.328125 -20.75 
z
" id="LiberationSans-121"/>
     <path d="M 17.625 46.4375 
L 17.625 0 
L 8.84375 0 
L 8.84375 46.4375 
L 1.421875 46.4375 
L 1.421875 52.828125 
L 8.84375 52.828125 
L 8.84375 58.796875 
Q 8.84375 66.015625 12.015625 69.1875 
Q 15.1875 72.359375 21.734375 72.359375 
Q 25.390625 72.359375 27.9375 71.78125 
L 27.9375 65.09375 
Q 25.734375 65.484375 24.03125 65.484375 
Q 20.65625 65.484375 19.140625 63.765625 
Q 17.625 62.0625 17.625 57.5625 
L 17.625 52.828125 
L 27.9375 52.828125 
L 27.9375 46.4375 
z
" id="LiberationSans-102"/>
    </defs>
    <g style="fill:#262626;" transform="translate(316.428125 25.8)scale(0.2 -0.2)">
     <use xlink:href="#LiberationSans-89"/>
     <use x="66.558594" xlink:href="#LiberationSans-101"/>
     <use x="122.173828" xlink:href="#LiberationSans-97"/>
     <use x="177.789062" xlink:href="#LiberationSans-114"/>
     <use x="211.089844" xlink:href="#LiberationSans-108"/>
     <use x="233.306641" xlink:href="#LiberationSans-121"/>
     <use x="283.306641" xlink:href="#LiberationSans-32"/>
     <use x="311.089844" xlink:href="#LiberationSans-105"/>
     <use x="333.306641" xlink:href="#LiberationSans-110"/>
     <use x="388.921875" xlink:href="#LiberationSans-102"/>
     <use x="416.705078" xlink:href="#LiberationSans-108"/>
     <use x="438.921875" xlink:href="#LiberationSans-97"/>
     <use x="494.537109" xlink:href="#LiberationSans-116"/>
     <use x="522.320312" xlink:href="#LiberationSans-105"/>
     <use x="544.537109" xlink:href="#LiberationSans-111"/>
     <use x="600.152344" xlink:href="#LiberationSans-110"/>
     <use x="655.767578" xlink:href="#LiberationSans-32"/>
     <use x="683.550781" xlink:href="#LiberationSans-114"/>
     <use x="716.851562" xlink:href="#LiberationSans-97"/>
     <use x="772.466797" xlink:href="#LiberationSans-116"/>
     <use x="800.25" xlink:href="#LiberationSans-101"/>
     <use x="855.865234" xlink:href="#LiberationSans-115"/>
     <use x="905.865234" xlink:href="#LiberationSans-32"/>
     <use x="933.648438" xlink:href="#LiberationSans-105"/>
     <use x="955.865234" xlink:href="#LiberationSans-110"/>
     <use x="1011.480469" xlink:href="#LiberationSans-32"/>
     <use x="1039.263672" xlink:href="#LiberationSans-67"/>
     <use x="1111.480469" xlink:href="#LiberationSans-97"/>
     <use x="1167.095703" xlink:href="#LiberationSans-110"/>
     <use x="1222.710938" xlink:href="#LiberationSans-97"/>
     <use x="1278.326172" xlink:href="#LiberationSans-100"/>
     <use x="1333.941406" xlink:href="#LiberationSans-97"/>
    </g>
   </g>
   <g id="legend_1">
    <g id="line2d_18">
     <path d="M 720.482188 49.645625 
L 748.482188 49.645625 
" style="fill:none;stroke:#ff0000;stroke-linecap:round;stroke-width:1.6;"/>
    </g>
    <g id="line2d_19"/>
    <g id="text_19">
     <!-- CPI -->
     <defs>
      <path d="M 9.234375 0 
L 9.234375 68.796875 
L 18.5625 68.796875 
L 18.5625 0 
z
" id="LiberationSans-73"/>
     </defs>
     <g style="fill:#262626;" transform="translate(759.682188 54.545625)scale(0.14 -0.14)">
      <use xlink:href="#LiberationSans-67"/>
      <use x="72.216797" xlink:href="#LiberationSans-80"/>
      <use x="138.916016" xlink:href="#LiberationSans-73"/>
     </g>
    </g>
    <g id="line2d_20">
     <path d="M 720.482188 69.69625 
L 748.482188 69.69625 
" style="fill:none;stroke:#0000ff;stroke-dasharray:5.92,2.56;stroke-dashoffset:0;stroke-width:1.6;"/>
    </g>
    <g id="line2d_21"/>
    <g id="text_20">
     <!-- GDP deflator -->
     <defs>
      <path d="M 5.03125 34.71875 
Q 5.03125 51.46875 14.015625 60.640625 
Q 23 69.828125 39.265625 69.828125 
Q 50.6875 69.828125 57.8125 65.96875 
Q 64.9375 62.109375 68.796875 53.609375 
L 59.90625 50.984375 
Q 56.984375 56.84375 51.828125 59.515625 
Q 46.6875 62.203125 39.015625 62.203125 
Q 27.09375 62.203125 20.796875 55 
Q 14.5 47.796875 14.5 34.71875 
Q 14.5 21.6875 21.1875 14.140625 
Q 27.875 6.59375 39.703125 6.59375 
Q 46.4375 6.59375 52.265625 8.640625 
Q 58.109375 10.6875 61.71875 14.203125 
L 61.71875 26.609375 
L 41.15625 26.609375 
L 41.15625 34.421875 
L 70.3125 34.421875 
L 70.3125 10.6875 
Q 64.84375 5.125 56.90625 2.0625 
Q 48.96875 -0.984375 39.703125 -0.984375 
Q 28.90625 -0.984375 21.09375 3.3125 
Q 13.28125 7.625 9.15625 15.703125 
Q 5.03125 23.78125 5.03125 34.71875 
z
" id="LiberationSans-71"/>
     </defs>
     <g style="fill:#262626;" transform="translate(759.682188 74.59625)scale(0.14 -0.14)">
      <use xlink:href="#LiberationSans-71"/>
      <use x="77.783203" xlink:href="#LiberationSans-68"/>
      <use x="150" xlink:href="#LiberationSans-80"/>
      <use x="216.683594" xlink:href="#LiberationSans-32"/>
      <use x="244.466797" xlink:href="#LiberationSans-100"/>
      <use x="300.082031" xlink:href="#LiberationSans-101"/>
      <use x="355.697266" xlink:href="#LiberationSans-102"/>
      <use x="383.480469" xlink:href="#LiberationSans-108"/>
      <use x="405.697266" xlink:href="#LiberationSans-97"/>
      <use x="461.3125" xlink:href="#LiberationSans-116"/>
      <use x="489.095703" xlink:href="#LiberationSans-111"/>
      <use x="544.710938" xlink:href="#LiberationSans-114"/>
     </g>
    </g>
   </g>
  </g>
 </g>
 <defs>
  <clipPath id="p31d27e5797">
   <rect height="474.7" width="795.65" x="57.55" y="31.8"/>
  </clipPath>
 </defs>
</svg>
