<?xml version="1.0" encoding="utf-8" standalone="no"?>
<!DOCTYPE svg PUBLIC "-//W3C//DTD SVG 1.1//EN"
  "http://www.w3.org/Graphics/SVG/1.1/DTD/svg11.dtd">
<!-- Created with matplotlib (https://matplotlib.org/) -->
<svg height="576pt" version="1.1" viewBox="0 0 864 576" width="864pt" xmlns="http://www.w3.org/2000/svg" xmlns:xlink="http://www.w3.org/1999/xlink">
 <defs>
  <style type="text/css">
*{stroke-linecap:butt;stroke-linejoin:round;}
  </style>
 </defs>
 <g id="figure_1">
  <g id="patch_1">
   <path d="M 0 576 
L 864 576 
L 864 0 
L 0 0 
z
" style="fill:#ffffff;"/>
  </g>
  <g id="axes_1">
   <g id="patch_2">
    <path d="M 83.335 508.74 
L 851.04 508.74 
L 851.04 30.96 
L 83.335 30.96 
z
" style="fill:#ffffff;"/>
   </g>
   <g id="matplotlib.axis_1">
    <g id="xtick_1">
     <g id="line2d_1">
      <defs>
       <path d="M 0 0 
L 0 6 
" id="m99e611b162" style="stroke:#262626;stroke-width:1.25;"/>
      </defs>
      <g>
       <use style="fill:#262626;stroke:#262626;stroke-width:1.25;" x="153.174133" xlink:href="#m99e611b162" y="508.74"/>
      </g>
     </g>
     <g id="text_1">
      <!-- 1980 -->
      <defs>
       <path d="M 7.625 0 
L 7.625 7.46875 
L 25.140625 7.46875 
L 25.140625 60.40625 
L 9.625 49.3125 
L 9.625 57.625 
L 25.875 68.796875 
L 33.984375 68.796875 
L 33.984375 7.46875 
L 50.734375 7.46875 
L 50.734375 0 
z
" id="LiberationSans-49"/>
       <path d="M 50.875 35.796875 
Q 50.875 18.0625 44.40625 8.53125 
Q 37.9375 -0.984375 25.984375 -0.984375 
Q 17.921875 -0.984375 13.0625 2.40625 
Q 8.203125 5.8125 6.109375 13.375 
L 14.5 14.703125 
Q 17.140625 6.109375 26.125 6.109375 
Q 33.6875 6.109375 37.84375 13.140625 
Q 42 20.171875 42.1875 33.203125 
Q 40.234375 28.8125 35.5 26.140625 
Q 30.765625 23.484375 25.09375 23.484375 
Q 15.828125 23.484375 10.25 29.828125 
Q 4.6875 36.1875 4.6875 46.6875 
Q 4.6875 57.46875 10.734375 63.640625 
Q 16.796875 69.828125 27.59375 69.828125 
Q 39.0625 69.828125 44.96875 61.328125 
Q 50.875 52.828125 50.875 35.796875 
z
M 41.3125 44.28125 
Q 41.3125 52.59375 37.5 57.640625 
Q 33.6875 62.703125 27.296875 62.703125 
Q 20.953125 62.703125 17.28125 58.375 
Q 13.625 54.046875 13.625 46.6875 
Q 13.625 39.15625 17.28125 34.78125 
Q 20.953125 30.421875 27.203125 30.421875 
Q 31 30.421875 34.265625 32.15625 
Q 37.546875 33.890625 39.421875 37.0625 
Q 41.3125 40.234375 41.3125 44.28125 
z
" id="LiberationSans-57"/>
       <path d="M 51.265625 19.1875 
Q 51.265625 9.671875 45.203125 4.34375 
Q 39.15625 -0.984375 27.828125 -0.984375 
Q 16.796875 -0.984375 10.5625 4.234375 
Q 4.34375 9.46875 4.34375 19.09375 
Q 4.34375 25.828125 8.203125 30.421875 
Q 12.0625 35.015625 18.0625 35.984375 
L 18.0625 36.1875 
Q 12.453125 37.5 9.203125 41.890625 
Q 5.953125 46.296875 5.953125 52.203125 
Q 5.953125 60.0625 11.828125 64.9375 
Q 17.71875 69.828125 27.640625 69.828125 
Q 37.796875 69.828125 43.671875 65.03125 
Q 49.5625 60.25 49.5625 52.09375 
Q 49.5625 46.1875 46.28125 41.796875 
Q 43.015625 37.40625 37.359375 36.28125 
L 37.359375 36.078125 
Q 43.953125 35.015625 47.609375 30.5 
Q 51.265625 25.984375 51.265625 19.1875 
z
M 40.4375 51.609375 
Q 40.4375 63.28125 27.640625 63.28125 
Q 21.4375 63.28125 18.1875 60.34375 
Q 14.9375 57.421875 14.9375 51.609375 
Q 14.9375 45.703125 18.28125 42.59375 
Q 21.625 39.5 27.734375 39.5 
Q 33.9375 39.5 37.1875 42.359375 
Q 40.4375 45.21875 40.4375 51.609375 
z
M 42.140625 20.015625 
Q 42.140625 26.421875 38.328125 29.65625 
Q 34.515625 32.90625 27.640625 32.90625 
Q 20.953125 32.90625 17.1875 29.40625 
Q 13.421875 25.921875 13.421875 19.828125 
Q 13.421875 5.609375 27.9375 5.609375 
Q 35.109375 5.609375 38.625 9.046875 
Q 42.140625 12.5 42.140625 20.015625 
z
" id="LiberationSans-56"/>
       <path d="M 51.703125 34.421875 
Q 51.703125 17.1875 45.625 8.09375 
Q 39.546875 -0.984375 27.6875 -0.984375 
Q 15.828125 -0.984375 9.859375 8.046875 
Q 3.90625 17.09375 3.90625 34.421875 
Q 3.90625 52.15625 9.6875 60.984375 
Q 15.484375 69.828125 27.984375 69.828125 
Q 40.140625 69.828125 45.921875 60.890625 
Q 51.703125 51.953125 51.703125 34.421875 
z
M 42.78125 34.421875 
Q 42.78125 49.3125 39.328125 56 
Q 35.890625 62.703125 27.984375 62.703125 
Q 19.875 62.703125 16.328125 56.109375 
Q 12.796875 49.515625 12.796875 34.421875 
Q 12.796875 19.78125 16.375 12.984375 
Q 19.96875 6.203125 27.78125 6.203125 
Q 35.546875 6.203125 39.15625 13.125 
Q 42.78125 20.0625 42.78125 34.421875 
z
" id="LiberationSans-48"/>
      </defs>
      <g style="fill:#262626;" transform="translate(135.379133 529.835)scale(0.16 -0.16)">
       <use xlink:href="#LiberationSans-49"/>
       <use x="55.615234" xlink:href="#LiberationSans-57"/>
       <use x="111.230469" xlink:href="#LiberationSans-56"/>
       <use x="166.845703" xlink:href="#LiberationSans-48"/>
      </g>
     </g>
    </g>
    <g id="xtick_2">
     <g id="line2d_2">
      <g>
       <use style="fill:#262626;stroke:#262626;stroke-width:1.25;" x="240.449165" xlink:href="#m99e611b162" y="508.74"/>
      </g>
     </g>
     <g id="text_2">
      <!-- 1985 -->
      <defs>
       <path d="M 51.421875 22.40625 
Q 51.421875 11.53125 44.953125 5.265625 
Q 38.484375 -0.984375 27 -0.984375 
Q 17.390625 -0.984375 11.46875 3.21875 
Q 5.5625 7.421875 4 15.375 
L 12.890625 16.40625 
Q 15.671875 6.203125 27.203125 6.203125 
Q 34.28125 6.203125 38.28125 10.46875 
Q 42.28125 14.75 42.28125 22.21875 
Q 42.28125 28.71875 38.25 32.71875 
Q 34.234375 36.71875 27.390625 36.71875 
Q 23.828125 36.71875 20.75 35.59375 
Q 17.671875 34.46875 14.59375 31.78125 
L 6 31.78125 
L 8.296875 68.796875 
L 47.40625 68.796875 
L 47.40625 61.328125 
L 16.3125 61.328125 
L 14.984375 39.5 
Q 20.703125 43.890625 29.203125 43.890625 
Q 39.359375 43.890625 45.390625 37.9375 
Q 51.421875 31.984375 51.421875 22.40625 
z
" id="LiberationSans-53"/>
      </defs>
      <g style="fill:#262626;" transform="translate(222.654165 529.835)scale(0.16 -0.16)">
       <use xlink:href="#LiberationSans-49"/>
       <use x="55.615234" xlink:href="#LiberationSans-57"/>
       <use x="111.230469" xlink:href="#LiberationSans-56"/>
       <use x="166.845703" xlink:href="#LiberationSans-53"/>
      </g>
     </g>
    </g>
    <g id="xtick_3">
     <g id="line2d_3">
      <g>
       <use style="fill:#262626;stroke:#262626;stroke-width:1.25;" x="327.676427" xlink:href="#m99e611b162" y="508.74"/>
      </g>
     </g>
     <g id="text_3">
      <!-- 1990 -->
      <g style="fill:#262626;" transform="translate(309.881427 529.835)scale(0.16 -0.16)">
       <use xlink:href="#LiberationSans-49"/>
       <use x="55.615234" xlink:href="#LiberationSans-57"/>
       <use x="111.230469" xlink:href="#LiberationSans-57"/>
       <use x="166.845703" xlink:href="#LiberationSans-48"/>
      </g>
     </g>
    </g>
    <g id="xtick_4">
     <g id="line2d_4">
      <g>
       <use style="fill:#262626;stroke:#262626;stroke-width:1.25;" x="414.903689" xlink:href="#m99e611b162" y="508.74"/>
      </g>
     </g>
     <g id="text_4">
      <!-- 1995 -->
      <g style="fill:#262626;" transform="translate(397.108689 529.835)scale(0.16 -0.16)">
       <use xlink:href="#LiberationSans-49"/>
       <use x="55.615234" xlink:href="#LiberationSans-57"/>
       <use x="111.230469" xlink:href="#LiberationSans-57"/>
       <use x="166.845703" xlink:href="#LiberationSans-53"/>
      </g>
     </g>
    </g>
    <g id="xtick_5">
     <g id="line2d_5">
      <g>
       <use style="fill:#262626;stroke:#262626;stroke-width:1.25;" x="502.130951" xlink:href="#m99e611b162" y="508.74"/>
      </g>
     </g>
     <g id="text_5">
      <!-- 2000 -->
      <defs>
       <path d="M 5.03125 0 
L 5.03125 6.203125 
Q 7.515625 11.921875 11.109375 16.28125 
Q 14.703125 20.65625 18.65625 24.1875 
Q 22.609375 27.734375 26.484375 30.765625 
Q 30.375 33.796875 33.5 36.8125 
Q 36.625 39.84375 38.546875 43.15625 
Q 40.484375 46.484375 40.484375 50.6875 
Q 40.484375 56.34375 37.15625 59.46875 
Q 33.84375 62.59375 27.9375 62.59375 
Q 22.3125 62.59375 18.671875 59.546875 
Q 15.046875 56.5 14.40625 50.984375 
L 5.421875 51.8125 
Q 6.390625 60.0625 12.421875 64.9375 
Q 18.453125 69.828125 27.9375 69.828125 
Q 38.328125 69.828125 43.921875 64.921875 
Q 49.515625 60.015625 49.515625 50.984375 
Q 49.515625 46.96875 47.671875 43.015625 
Q 45.84375 39.0625 42.234375 35.109375 
Q 38.625 31.15625 28.421875 22.859375 
Q 22.796875 18.265625 19.46875 14.578125 
Q 16.15625 10.890625 14.703125 7.46875 
L 50.59375 7.46875 
L 50.59375 0 
z
" id="LiberationSans-50"/>
      </defs>
      <g style="fill:#262626;" transform="translate(484.335951 529.835)scale(0.16 -0.16)">
       <use xlink:href="#LiberationSans-50"/>
       <use x="55.615234" xlink:href="#LiberationSans-48"/>
       <use x="111.230469" xlink:href="#LiberationSans-48"/>
       <use x="166.845703" xlink:href="#LiberationSans-48"/>
      </g>
     </g>
    </g>
    <g id="xtick_6">
     <g id="line2d_6">
      <g>
       <use style="fill:#262626;stroke:#262626;stroke-width:1.25;" x="589.405983" xlink:href="#m99e611b162" y="508.74"/>
      </g>
     </g>
     <g id="text_6">
      <!-- 2005 -->
      <g style="fill:#262626;" transform="translate(571.610983 529.835)scale(0.16 -0.16)">
       <use xlink:href="#LiberationSans-50"/>
       <use x="55.615234" xlink:href="#LiberationSans-48"/>
       <use x="111.230469" xlink:href="#LiberationSans-48"/>
       <use x="166.845703" xlink:href="#LiberationSans-53"/>
      </g>
     </g>
    </g>
    <g id="xtick_7">
     <g id="line2d_7">
      <g>
       <use style="fill:#262626;stroke:#262626;stroke-width:1.25;" x="676.633245" xlink:href="#m99e611b162" y="508.74"/>
      </g>
     </g>
     <g id="text_7">
      <!-- 2010 -->
      <g style="fill:#262626;" transform="translate(658.838245 529.835)scale(0.16 -0.16)">
       <use xlink:href="#LiberationSans-50"/>
       <use x="55.615234" xlink:href="#LiberationSans-48"/>
       <use x="111.230469" xlink:href="#LiberationSans-49"/>
       <use x="166.845703" xlink:href="#LiberationSans-48"/>
      </g>
     </g>
    </g>
    <g id="xtick_8">
     <g id="line2d_8">
      <g>
       <use style="fill:#262626;stroke:#262626;stroke-width:1.25;" x="763.860507" xlink:href="#m99e611b162" y="508.74"/>
      </g>
     </g>
     <g id="text_8">
      <!-- 2015 -->
      <g style="fill:#262626;" transform="translate(746.065507 529.835)scale(0.16 -0.16)">
       <use xlink:href="#LiberationSans-50"/>
       <use x="55.615234" xlink:href="#LiberationSans-48"/>
       <use x="111.230469" xlink:href="#LiberationSans-49"/>
       <use x="166.845703" xlink:href="#LiberationSans-53"/>
      </g>
     </g>
    </g>
    <g id="text_9">
     <!--  -->
     <g style="fill:#262626;" transform="translate(467.1875 545.85125)scale(0.12 -0.12)"/>
     <!-- Data source: Staistics Canada. -->
     <defs>
      <path d="M 67.4375 35.109375 
Q 67.4375 24.46875 63.28125 16.484375 
Q 59.125 8.5 51.5 4.25 
Q 43.890625 0 33.9375 0 
L 8.203125 0 
L 8.203125 68.796875 
L 30.953125 68.796875 
Q 48.4375 68.796875 57.9375 60.03125 
Q 67.4375 51.265625 67.4375 35.109375 
z
M 58.0625 35.109375 
Q 58.0625 47.90625 51.046875 54.609375 
Q 44.046875 61.328125 30.765625 61.328125 
L 17.53125 61.328125 
L 17.53125 7.46875 
L 32.859375 7.46875 
Q 40.4375 7.46875 46.171875 10.78125 
Q 51.90625 14.109375 54.984375 20.359375 
Q 58.0625 26.609375 58.0625 35.109375 
z
" id="LiberationSans-68"/>
      <path d="M 20.21875 -0.984375 
Q 12.25 -0.984375 8.25 3.21875 
Q 4.25 7.421875 4.25 14.75 
Q 4.25 22.953125 9.640625 27.34375 
Q 15.046875 31.734375 27.046875 32.03125 
L 38.921875 32.234375 
L 38.921875 35.109375 
Q 38.921875 41.546875 36.1875 44.328125 
Q 33.453125 47.125 27.59375 47.125 
Q 21.6875 47.125 19 45.109375 
Q 16.3125 43.109375 15.765625 38.71875 
L 6.59375 39.546875 
Q 8.84375 53.8125 27.78125 53.8125 
Q 37.75 53.8125 42.765625 49.234375 
Q 47.796875 44.671875 47.796875 36.03125 
L 47.796875 13.28125 
Q 47.796875 9.375 48.828125 7.390625 
Q 49.859375 5.421875 52.734375 5.421875 
Q 54 5.421875 55.609375 5.765625 
L 55.609375 0.296875 
Q 52.296875 -0.484375 48.828125 -0.484375 
Q 43.953125 -0.484375 41.71875 2.078125 
Q 39.5 4.640625 39.203125 10.109375 
L 38.921875 10.109375 
Q 35.546875 4.046875 31.078125 1.53125 
Q 26.609375 -0.984375 20.21875 -0.984375 
z
M 22.21875 5.609375 
Q 27.046875 5.609375 30.8125 7.8125 
Q 34.578125 10.015625 36.75 13.84375 
Q 38.921875 17.671875 38.921875 21.734375 
L 38.921875 26.078125 
L 29.296875 25.875 
Q 23.09375 25.78125 19.890625 24.609375 
Q 16.703125 23.4375 14.984375 21 
Q 13.28125 18.5625 13.28125 14.59375 
Q 13.28125 10.296875 15.59375 7.953125 
Q 17.921875 5.609375 22.21875 5.609375 
z
" id="LiberationSans-97"/>
      <path d="M 27.046875 0.390625 
Q 22.703125 -0.78125 18.171875 -0.78125 
Q 7.625 -0.78125 7.625 11.1875 
L 7.625 46.4375 
L 1.515625 46.4375 
L 1.515625 52.828125 
L 7.953125 52.828125 
L 10.546875 64.65625 
L 16.40625 64.65625 
L 16.40625 52.828125 
L 26.171875 52.828125 
L 26.171875 46.4375 
L 16.40625 46.4375 
L 16.40625 13.09375 
Q 16.40625 9.28125 17.640625 7.734375 
Q 18.890625 6.203125 21.96875 6.203125 
Q 23.734375 6.203125 27.046875 6.890625 
z
" id="LiberationSans-116"/>
      <path id="LiberationSans-32"/>
      <path d="M 46.390625 14.59375 
Q 46.390625 7.125 40.75 3.0625 
Q 35.109375 -0.984375 24.953125 -0.984375 
Q 15.09375 -0.984375 9.734375 2.265625 
Q 4.390625 5.515625 2.78125 12.40625 
L 10.546875 13.921875 
Q 11.671875 9.671875 15.1875 7.6875 
Q 18.703125 5.71875 24.953125 5.71875 
Q 31.640625 5.71875 34.734375 7.765625 
Q 37.84375 9.8125 37.84375 13.921875 
Q 37.84375 17.046875 35.6875 19 
Q 33.546875 20.953125 28.765625 22.21875 
L 22.46875 23.875 
Q 14.890625 25.828125 11.6875 27.703125 
Q 8.5 29.59375 6.6875 32.28125 
Q 4.890625 34.96875 4.890625 38.875 
Q 4.890625 46.09375 10.03125 49.875 
Q 15.1875 53.65625 25.046875 53.65625 
Q 33.796875 53.65625 38.9375 50.578125 
Q 44.09375 47.515625 45.453125 40.71875 
L 37.546875 39.75 
Q 36.8125 43.265625 33.609375 45.140625 
Q 30.421875 47.015625 25.046875 47.015625 
Q 19.09375 47.015625 16.25 45.203125 
Q 13.421875 43.40625 13.421875 39.75 
Q 13.421875 37.5 14.59375 36.03125 
Q 15.765625 34.578125 18.0625 33.546875 
Q 20.359375 32.515625 27.734375 30.71875 
Q 34.71875 28.953125 37.796875 27.46875 
Q 40.875 25.984375 42.65625 24.171875 
Q 44.4375 22.359375 45.40625 19.984375 
Q 46.390625 17.625 46.390625 14.59375 
z
" id="LiberationSans-115"/>
      <path d="M 51.421875 26.46875 
Q 51.421875 12.59375 45.3125 5.796875 
Q 39.203125 -0.984375 27.59375 -0.984375 
Q 16.015625 -0.984375 10.109375 6.078125 
Q 4.203125 13.140625 4.203125 26.46875 
Q 4.203125 53.8125 27.875 53.8125 
Q 39.984375 53.8125 45.703125 47.140625 
Q 51.421875 40.484375 51.421875 26.46875 
z
M 42.1875 26.46875 
Q 42.1875 37.40625 38.9375 42.359375 
Q 35.6875 47.3125 28.03125 47.3125 
Q 20.3125 47.3125 16.859375 42.25 
Q 13.421875 37.203125 13.421875 26.46875 
Q 13.421875 16.015625 16.8125 10.765625 
Q 20.21875 5.515625 27.484375 5.515625 
Q 35.40625 5.515625 38.796875 10.59375 
Q 42.1875 15.671875 42.1875 26.46875 
z
" id="LiberationSans-111"/>
      <path d="M 15.328125 52.828125 
L 15.328125 19.34375 
Q 15.328125 14.109375 16.359375 11.21875 
Q 17.390625 8.34375 19.625 7.078125 
Q 21.875 5.8125 26.21875 5.8125 
Q 32.5625 5.8125 36.21875 10.15625 
Q 39.890625 14.5 39.890625 22.21875 
L 39.890625 52.828125 
L 48.6875 52.828125 
L 48.6875 11.28125 
Q 48.6875 2.046875 48.96875 0 
L 40.671875 0 
Q 40.625 0.25 40.578125 1.3125 
Q 40.53125 2.390625 40.453125 3.78125 
Q 40.375 5.171875 40.28125 9.03125 
L 40.140625 9.03125 
Q 37.109375 3.5625 33.125 1.28125 
Q 29.15625 -0.984375 23.25 -0.984375 
Q 14.546875 -0.984375 10.515625 3.34375 
Q 6.5 7.671875 6.5 17.625 
L 6.5 52.828125 
z
" id="LiberationSans-117"/>
      <path d="M 6.9375 0 
L 6.9375 40.53125 
Q 6.9375 46.09375 6.640625 52.828125 
L 14.9375 52.828125 
Q 15.328125 43.84375 15.328125 42.046875 
L 15.53125 42.046875 
Q 17.625 48.828125 20.359375 51.3125 
Q 23.09375 53.8125 28.078125 53.8125 
Q 29.828125 53.8125 31.640625 53.328125 
L 31.640625 45.265625 
Q 29.890625 45.75 26.953125 45.75 
Q 21.484375 45.75 18.59375 41.03125 
Q 15.71875 36.328125 15.71875 27.546875 
L 15.71875 0 
z
" id="LiberationSans-114"/>
      <path d="M 13.421875 26.65625 
Q 13.421875 16.109375 16.734375 11.03125 
Q 20.0625 5.953125 26.765625 5.953125 
Q 31.453125 5.953125 34.59375 8.484375 
Q 37.75 11.03125 38.484375 16.3125 
L 47.359375 15.71875 
Q 46.34375 8.109375 40.875 3.5625 
Q 35.40625 -0.984375 27 -0.984375 
Q 15.921875 -0.984375 10.078125 6.015625 
Q 4.25 13.03125 4.25 26.46875 
Q 4.25 39.796875 10.109375 46.796875 
Q 15.96875 53.8125 26.90625 53.8125 
Q 35.015625 53.8125 40.359375 49.609375 
Q 45.703125 45.40625 47.078125 38.03125 
L 38.03125 37.359375 
Q 37.359375 41.75 34.5625 44.328125 
Q 31.78125 46.921875 26.65625 46.921875 
Q 19.671875 46.921875 16.546875 42.28125 
Q 13.421875 37.640625 13.421875 26.65625 
z
" id="LiberationSans-99"/>
      <path d="M 13.484375 24.5625 
Q 13.484375 15.484375 17.234375 10.546875 
Q 21 5.609375 28.21875 5.609375 
Q 33.9375 5.609375 37.375 7.90625 
Q 40.828125 10.203125 42.046875 13.71875 
L 49.75 11.53125 
Q 45.015625 -0.984375 28.21875 -0.984375 
Q 16.5 -0.984375 10.375 6 
Q 4.25 12.984375 4.25 26.765625 
Q 4.25 39.84375 10.375 46.828125 
Q 16.5 53.8125 27.875 53.8125 
Q 51.171875 53.8125 51.171875 25.734375 
L 51.171875 24.5625 
z
M 42.09375 31.296875 
Q 41.359375 39.65625 37.84375 43.484375 
Q 34.328125 47.3125 27.734375 47.3125 
Q 21.34375 47.3125 17.609375 43.03125 
Q 13.875 38.765625 13.578125 31.296875 
z
" id="LiberationSans-101"/>
      <path d="M 9.125 42.71875 
L 9.125 52.828125 
L 18.65625 52.828125 
L 18.65625 42.71875 
z
M 9.125 0 
L 9.125 10.109375 
L 18.65625 10.109375 
L 18.65625 0 
z
" id="LiberationSans-58"/>
      <path d="M 62.109375 19 
Q 62.109375 9.46875 54.65625 4.234375 
Q 47.21875 -0.984375 33.6875 -0.984375 
Q 8.546875 -0.984375 4.546875 16.5 
L 13.578125 18.3125 
Q 15.140625 12.109375 20.21875 9.203125 
Q 25.296875 6.296875 34.03125 6.296875 
Q 43.0625 6.296875 47.96875 9.390625 
Q 52.875 12.5 52.875 18.5 
Q 52.875 21.875 51.34375 23.96875 
Q 49.8125 26.078125 47.015625 27.4375 
Q 44.234375 28.8125 40.375 29.734375 
Q 36.53125 30.671875 31.84375 31.734375 
Q 23.6875 33.546875 19.453125 35.34375 
Q 15.234375 37.15625 12.796875 39.375 
Q 10.359375 41.609375 9.0625 44.578125 
Q 7.765625 47.5625 7.765625 51.421875 
Q 7.765625 60.25 14.53125 65.03125 
Q 21.296875 69.828125 33.890625 69.828125 
Q 45.609375 69.828125 51.8125 66.234375 
Q 58.015625 62.640625 60.5 54 
L 51.3125 52.390625 
Q 49.8125 57.859375 45.5625 60.328125 
Q 41.3125 62.796875 33.796875 62.796875 
Q 25.53125 62.796875 21.1875 60.0625 
Q 16.84375 57.328125 16.84375 51.90625 
Q 16.84375 48.734375 18.53125 46.65625 
Q 20.21875 44.578125 23.390625 43.140625 
Q 26.5625 41.703125 36.03125 39.59375 
Q 39.203125 38.875 42.359375 38.109375 
Q 45.515625 37.359375 48.390625 36.296875 
Q 51.265625 35.25 53.78125 33.828125 
Q 56.296875 32.421875 58.15625 30.375 
Q 60.015625 28.328125 61.0625 25.53125 
Q 62.109375 22.75 62.109375 19 
z
" id="LiberationSans-83"/>
      <path d="M 6.6875 64.0625 
L 6.6875 72.46875 
L 15.484375 72.46875 
L 15.484375 64.0625 
z
M 6.6875 0 
L 6.6875 52.828125 
L 15.484375 52.828125 
L 15.484375 0 
z
" id="LiberationSans-105"/>
      <path d="M 38.671875 62.203125 
Q 27.25 62.203125 20.890625 54.859375 
Q 14.546875 47.515625 14.546875 34.71875 
Q 14.546875 22.078125 21.15625 14.375 
Q 27.78125 6.6875 39.0625 6.6875 
Q 53.515625 6.6875 60.796875 21 
L 68.40625 17.1875 
Q 64.15625 8.296875 56.46875 3.65625 
Q 48.78125 -0.984375 38.625 -0.984375 
Q 28.21875 -0.984375 20.625 3.34375 
Q 13.03125 7.671875 9.046875 15.703125 
Q 5.078125 23.734375 5.078125 34.71875 
Q 5.078125 51.171875 13.96875 60.5 
Q 22.859375 69.828125 38.578125 69.828125 
Q 49.5625 69.828125 56.9375 65.53125 
Q 64.3125 61.234375 67.78125 52.78125 
L 58.9375 49.859375 
Q 56.546875 55.859375 51.25 59.03125 
Q 45.953125 62.203125 38.671875 62.203125 
z
" id="LiberationSans-67"/>
      <path d="M 40.28125 0 
L 40.28125 33.5 
Q 40.28125 38.71875 39.25 41.59375 
Q 38.234375 44.484375 35.984375 45.75 
Q 33.734375 47.015625 29.390625 47.015625 
Q 23.046875 47.015625 19.375 42.671875 
Q 15.71875 38.328125 15.71875 30.609375 
L 15.71875 0 
L 6.9375 0 
L 6.9375 41.546875 
Q 6.9375 50.78125 6.640625 52.828125 
L 14.9375 52.828125 
Q 14.984375 52.59375 15.03125 51.515625 
Q 15.09375 50.4375 15.15625 49.046875 
Q 15.234375 47.65625 15.328125 43.796875 
L 15.484375 43.796875 
Q 18.5 49.265625 22.484375 51.53125 
Q 26.46875 53.8125 32.375 53.8125 
Q 41.0625 53.8125 45.09375 49.484375 
Q 49.125 45.171875 49.125 35.203125 
L 49.125 0 
z
" id="LiberationSans-110"/>
      <path d="M 40.09375 8.5 
Q 37.640625 3.421875 33.609375 1.21875 
Q 29.59375 -0.984375 23.640625 -0.984375 
Q 13.625 -0.984375 8.90625 5.75 
Q 4.203125 12.5 4.203125 26.171875 
Q 4.203125 53.8125 23.640625 53.8125 
Q 29.640625 53.8125 33.640625 51.609375 
Q 37.640625 49.421875 40.09375 44.625 
L 40.1875 44.625 
L 40.09375 50.53125 
L 40.09375 72.46875 
L 48.875 72.46875 
L 48.875 10.890625 
Q 48.875 2.640625 49.171875 0 
L 40.765625 0 
Q 40.625 0.78125 40.453125 3.609375 
Q 40.28125 6.453125 40.28125 8.5 
z
M 13.421875 26.46875 
Q 13.421875 15.375 16.34375 10.59375 
Q 19.28125 5.8125 25.875 5.8125 
Q 33.34375 5.8125 36.71875 10.984375 
Q 40.09375 16.15625 40.09375 27.046875 
Q 40.09375 37.546875 36.71875 42.421875 
Q 33.34375 47.3125 25.984375 47.3125 
Q 19.34375 47.3125 16.375 42.40625 
Q 13.421875 37.5 13.421875 26.46875 
z
" id="LiberationSans-100"/>
      <path d="M 9.125 0 
L 9.125 10.6875 
L 18.65625 10.6875 
L 18.65625 0 
z
" id="LiberationSans-46"/>
     </defs>
     <g style="fill:#262626;" transform="translate(384.817813 558.77675)scale(0.12 -0.12)">
      <use xlink:href="#LiberationSans-68"/>
      <use x="72.216797" xlink:href="#LiberationSans-97"/>
      <use x="127.832031" xlink:href="#LiberationSans-116"/>
      <use x="155.615234" xlink:href="#LiberationSans-97"/>
      <use x="211.230469" xlink:href="#LiberationSans-32"/>
      <use x="239.013672" xlink:href="#LiberationSans-115"/>
      <use x="289.013672" xlink:href="#LiberationSans-111"/>
      <use x="344.628906" xlink:href="#LiberationSans-117"/>
      <use x="400.244141" xlink:href="#LiberationSans-114"/>
      <use x="433.544922" xlink:href="#LiberationSans-99"/>
      <use x="483.544922" xlink:href="#LiberationSans-101"/>
      <use x="539.160156" xlink:href="#LiberationSans-58"/>
      <use x="566.943359" xlink:href="#LiberationSans-32"/>
      <use x="594.726562" xlink:href="#LiberationSans-83"/>
      <use x="661.425781" xlink:href="#LiberationSans-116"/>
      <use x="689.208984" xlink:href="#LiberationSans-97"/>
      <use x="744.824219" xlink:href="#LiberationSans-105"/>
      <use x="767.041016" xlink:href="#LiberationSans-115"/>
      <use x="817.041016" xlink:href="#LiberationSans-116"/>
      <use x="844.824219" xlink:href="#LiberationSans-105"/>
      <use x="867.041016" xlink:href="#LiberationSans-99"/>
      <use x="917.041016" xlink:href="#LiberationSans-115"/>
      <use x="967.041016" xlink:href="#LiberationSans-32"/>
      <use x="994.824219" xlink:href="#LiberationSans-67"/>
      <use x="1067.041016" xlink:href="#LiberationSans-97"/>
      <use x="1122.65625" xlink:href="#LiberationSans-110"/>
      <use x="1178.271484" xlink:href="#LiberationSans-97"/>
      <use x="1233.886719" xlink:href="#LiberationSans-100"/>
      <use x="1289.501953" xlink:href="#LiberationSans-97"/>
      <use x="1345.117188" xlink:href="#LiberationSans-46"/>
     </g>
    </g>
   </g>
   <g id="matplotlib.axis_2">
    <g id="ytick_1">
     <g id="line2d_9">
      <defs>
       <path d="M 0 0 
L -6 0 
" id="m0998ea1f2d" style="stroke:#262626;stroke-width:1.25;"/>
      </defs>
      <g>
       <use style="fill:#262626;stroke:#262626;stroke-width:1.25;" x="83.335" xlink:href="#m0998ea1f2d" y="500.863754"/>
      </g>
     </g>
     <g id="text_10">
      <!-- 0 -->
      <g style="fill:#262626;" transform="translate(67.717969 504.849535)scale(0.11 -0.11)">
       <use xlink:href="#LiberationSans-48"/>
      </g>
     </g>
    </g>
    <g id="ytick_2">
     <g id="line2d_10">
      <g>
       <use style="fill:#262626;stroke:#262626;stroke-width:1.25;" x="83.335" xlink:href="#m0998ea1f2d" y="417.593599"/>
      </g>
     </g>
     <g id="text_11">
      <!-- 200000 -->
      <g style="fill:#262626;" transform="translate(37.132813 421.57938)scale(0.11 -0.11)">
       <use xlink:href="#LiberationSans-50"/>
       <use x="55.615234" xlink:href="#LiberationSans-48"/>
       <use x="111.230469" xlink:href="#LiberationSans-48"/>
       <use x="166.845703" xlink:href="#LiberationSans-48"/>
       <use x="222.460938" xlink:href="#LiberationSans-48"/>
       <use x="278.076172" xlink:href="#LiberationSans-48"/>
      </g>
     </g>
    </g>
    <g id="ytick_3">
     <g id="line2d_11">
      <g>
       <use style="fill:#262626;stroke:#262626;stroke-width:1.25;" x="83.335" xlink:href="#m0998ea1f2d" y="334.323444"/>
      </g>
     </g>
     <g id="text_12">
      <!-- 400000 -->
      <defs>
       <path d="M 43.015625 15.578125 
L 43.015625 0 
L 34.71875 0 
L 34.71875 15.578125 
L 2.296875 15.578125 
L 2.296875 22.40625 
L 33.796875 68.796875 
L 43.015625 68.796875 
L 43.015625 22.515625 
L 52.6875 22.515625 
L 52.6875 15.578125 
z
M 34.71875 58.890625 
Q 34.625 58.59375 33.34375 56.296875 
Q 32.078125 54 31.453125 53.078125 
L 13.8125 27.09375 
L 11.1875 23.484375 
L 10.40625 22.515625 
L 34.71875 22.515625 
z
" id="LiberationSans-52"/>
      </defs>
      <g style="fill:#262626;" transform="translate(37.132813 338.309225)scale(0.11 -0.11)">
       <use xlink:href="#LiberationSans-52"/>
       <use x="55.615234" xlink:href="#LiberationSans-48"/>
       <use x="111.230469" xlink:href="#LiberationSans-48"/>
       <use x="166.845703" xlink:href="#LiberationSans-48"/>
       <use x="222.460938" xlink:href="#LiberationSans-48"/>
       <use x="278.076172" xlink:href="#LiberationSans-48"/>
      </g>
     </g>
    </g>
    <g id="ytick_4">
     <g id="line2d_12">
      <g>
       <use style="fill:#262626;stroke:#262626;stroke-width:1.25;" x="83.335" xlink:href="#m0998ea1f2d" y="251.053289"/>
      </g>
     </g>
     <g id="text_13">
      <!-- 600000 -->
      <defs>
       <path d="M 51.21875 22.515625 
Q 51.21875 11.625 45.3125 5.3125 
Q 39.40625 -0.984375 29 -0.984375 
Q 17.390625 -0.984375 11.234375 7.65625 
Q 5.078125 16.3125 5.078125 32.8125 
Q 5.078125 50.6875 11.46875 60.25 
Q 17.875 69.828125 29.6875 69.828125 
Q 45.265625 69.828125 49.3125 55.8125 
L 40.921875 54.296875 
Q 38.328125 62.703125 29.59375 62.703125 
Q 22.078125 62.703125 17.9375 55.6875 
Q 13.8125 48.6875 13.8125 35.40625 
Q 16.21875 39.84375 20.5625 42.15625 
Q 24.90625 44.484375 30.515625 44.484375 
Q 40.046875 44.484375 45.625 38.515625 
Q 51.21875 32.5625 51.21875 22.515625 
z
M 42.28125 22.125 
Q 42.28125 29.59375 38.625 33.640625 
Q 34.96875 37.703125 28.421875 37.703125 
Q 22.265625 37.703125 18.484375 34.109375 
Q 14.703125 30.515625 14.703125 24.21875 
Q 14.703125 16.265625 18.625 11.1875 
Q 22.5625 6.109375 28.71875 6.109375 
Q 35.0625 6.109375 38.671875 10.375 
Q 42.28125 14.65625 42.28125 22.125 
z
" id="LiberationSans-54"/>
      </defs>
      <g style="fill:#262626;" transform="translate(37.132813 255.03907)scale(0.11 -0.11)">
       <use xlink:href="#LiberationSans-54"/>
       <use x="55.615234" xlink:href="#LiberationSans-48"/>
       <use x="111.230469" xlink:href="#LiberationSans-48"/>
       <use x="166.845703" xlink:href="#LiberationSans-48"/>
       <use x="222.460938" xlink:href="#LiberationSans-48"/>
       <use x="278.076172" xlink:href="#LiberationSans-48"/>
      </g>
     </g>
    </g>
    <g id="ytick_5">
     <g id="line2d_13">
      <g>
       <use style="fill:#262626;stroke:#262626;stroke-width:1.25;" x="83.335" xlink:href="#m0998ea1f2d" y="167.783134"/>
      </g>
     </g>
     <g id="text_14">
      <!-- 800000 -->
      <g style="fill:#262626;" transform="translate(37.132813 171.768916)scale(0.11 -0.11)">
       <use xlink:href="#LiberationSans-56"/>
       <use x="55.615234" xlink:href="#LiberationSans-48"/>
       <use x="111.230469" xlink:href="#LiberationSans-48"/>
       <use x="166.845703" xlink:href="#LiberationSans-48"/>
       <use x="222.460938" xlink:href="#LiberationSans-48"/>
       <use x="278.076172" xlink:href="#LiberationSans-48"/>
      </g>
     </g>
    </g>
    <g id="ytick_6">
     <g id="line2d_14">
      <g>
       <use style="fill:#262626;stroke:#262626;stroke-width:1.25;" x="83.335" xlink:href="#m0998ea1f2d" y="84.51298"/>
      </g>
     </g>
     <g id="text_15">
      <!-- 1000000 -->
      <g style="fill:#262626;" transform="translate(31.015781 88.498761)scale(0.11 -0.11)">
       <use xlink:href="#LiberationSans-49"/>
       <use x="55.615234" xlink:href="#LiberationSans-48"/>
       <use x="111.230469" xlink:href="#LiberationSans-48"/>
       <use x="166.845703" xlink:href="#LiberationSans-48"/>
       <use x="222.460938" xlink:href="#LiberationSans-48"/>
       <use x="278.076172" xlink:href="#LiberationSans-48"/>
       <use x="333.691406" xlink:href="#LiberationSans-48"/>
      </g>
     </g>
    </g>
    <g id="text_16">
     <!-- Million dollars -->
     <defs>
      <path d="M 66.703125 0 
L 66.703125 45.90625 
Q 66.703125 53.515625 67.140625 60.546875 
Q 64.75 51.8125 62.84375 46.875 
L 45.0625 0 
L 38.53125 0 
L 20.515625 46.875 
L 17.78125 55.171875 
L 16.15625 60.546875 
L 16.3125 55.125 
L 16.5 45.90625 
L 16.5 0 
L 8.203125 0 
L 8.203125 68.796875 
L 20.453125 68.796875 
L 38.765625 21.09375 
Q 39.75 18.21875 40.640625 14.921875 
Q 41.546875 11.625 41.84375 10.15625 
Q 42.234375 12.109375 43.484375 16.078125 
Q 44.734375 20.0625 45.171875 21.09375 
L 63.140625 68.796875 
L 75.09375 68.796875 
L 75.09375 0 
z
" id="LiberationSans-77"/>
      <path d="M 6.734375 0 
L 6.734375 72.46875 
L 15.53125 72.46875 
L 15.53125 0 
z
" id="LiberationSans-108"/>
     </defs>
     <g style="fill:#262626;" transform="translate(24.110781 312.251406)rotate(-90)scale(0.14 -0.14)">
      <use xlink:href="#LiberationSans-77"/>
      <use x="83.300781" xlink:href="#LiberationSans-105"/>
      <use x="105.517578" xlink:href="#LiberationSans-108"/>
      <use x="127.734375" xlink:href="#LiberationSans-108"/>
      <use x="149.951172" xlink:href="#LiberationSans-105"/>
      <use x="172.167969" xlink:href="#LiberationSans-111"/>
      <use x="227.783203" xlink:href="#LiberationSans-110"/>
      <use x="283.398438" xlink:href="#LiberationSans-32"/>
      <use x="311.181641" xlink:href="#LiberationSans-100"/>
      <use x="366.796875" xlink:href="#LiberationSans-111"/>
      <use x="422.412109" xlink:href="#LiberationSans-108"/>
      <use x="444.628906" xlink:href="#LiberationSans-108"/>
      <use x="466.845703" xlink:href="#LiberationSans-97"/>
      <use x="522.460938" xlink:href="#LiberationSans-114"/>
      <use x="555.761719" xlink:href="#LiberationSans-115"/>
     </g>
    </g>
   </g>
   <g id="line2d_15">
    <path clip-path="url(#pef5528ffaf)" d="M 83.335 487.022727 
L 92.029064 486.766672 
L 100.818668 486.473144 
L 105.117931 486.102037 
L 109.464963 485.609216 
L 113.859765 485.346499 
L 135.690465 483.379936 
L 139.989728 483.49235 
L 148.731562 482.622871 
L 153.126364 482.621483 
L 161.820428 482.094522 
L 166.21523 481.405461 
L 170.610032 480.386512 
L 174.909294 480.574842 
L 179.256327 480.275902 
L 183.651128 480.229409 
L 188.04593 480.695445 
L 192.345193 480.446189 
L 196.692225 479.730205 
L 201.087027 479.70675 
L 205.481829 478.930534 
L 209.781091 477.794035 
L 218.522925 476.231748 
L 222.917727 475.661625 
L 227.26476 475.658433 
L 231.611792 475.108434 
L 236.006594 474.116686 
L 240.401395 472.771318 
L 249.04769 469.169467 
L 253.442492 467.118107 
L 257.837294 464.859127 
L 262.136557 463.678356 
L 275.273192 459.613939 
L 279.572455 457.8797 
L 283.919487 455.927847 
L 288.314289 455.694691 
L 292.709091 456.518649 
L 297.056123 456.63953 
L 301.403155 455.807661 
L 305.797957 454.469509 
L 314.492022 453.377838 
L 318.839054 453.087641 
L 323.233856 452.06092 
L 327.628658 450.393158 
L 331.92792 449.773489 
L 336.274952 449.492452 
L 340.669754 450.1328 
L 345.064556 449.290383 
L 349.363819 448.00039 
L 353.710851 447.258175 
L 358.105653 446.826558 
L 362.500455 446.677505 
L 366.847487 445.937927 
L 371.194519 445.503395 
L 375.589321 444.496243 
L 379.984123 443.798161 
L 384.283385 444.160664 
L 388.630418 443.126449 
L 393.025219 441.210541 
L 397.420021 439.747901 
L 401.719284 437.712501 
L 406.066316 436.798611 
L 414.85592 437.106572 
L 419.155182 437.042315 
L 423.502215 437.409814 
L 427.897016 436.553242 
L 432.291818 435.57107 
L 436.63885 434.296759 
L 440.985883 432.095096 
L 445.380684 430.735156 
L 449.775486 428.404285 
L 454.074749 426.278954 
L 458.421781 424.365544 
L 462.816583 422.836288 
L 467.211385 421.055833 
L 471.510647 419.663972 
L 475.85768 419.188777 
L 480.252481 417.851598 
L 484.647283 417.340041 
L 488.946546 416.100287 
L 493.293578 414.556459 
L 502.083182 411.842268 
L 506.430214 408.789029 
L 510.777246 405.568556 
L 515.172048 403.732588 
L 519.56685 401.379651 
L 523.866113 399.249045 
L 528.213145 396.557476 
L 532.607947 394.725949 
L 537.002748 390.697755 
L 541.302011 387.112142 
L 545.649043 385.903892 
L 550.043845 383.947876 
L 554.438647 382.725609 
L 558.73791 382.889652 
L 563.084942 382.386145 
L 567.479744 378.78596 
L 571.874545 377.807952 
L 576.221578 374.50171 
L 580.56861 370.527781 
L 589.358214 368.164019 
L 593.657476 364.902327 
L 598.004508 362.432395 
L 602.39931 362.131651 
L 606.794112 359.743324 
L 611.093375 356.238761 
L 615.440407 352.232217 
L 619.835209 349.108199 
L 624.230011 345.382692 
L 628.529273 342.222035 
L 637.271107 334.397971 
L 641.665909 334.289858 
L 646.012941 330.695225 
L 650.359974 325.809209 
L 654.754775 321.64251 
L 659.149577 314.999356 
L 663.44884 310.951177 
L 667.795872 305.345153 
L 672.190674 298.167959 
L 676.585476 291.548537 
L 680.884738 286.367468 
L 685.231771 280.583245 
L 694.021374 273.347208 
L 698.320637 269.312075 
L 702.667669 266.085911 
L 707.062471 260.215366 
L 711.457273 253.381523 
L 715.804305 247.305022 
L 720.151337 240.258563 
L 724.546139 235.83553 
L 728.940941 233.758911 
L 733.240203 225.827428 
L 737.587236 220.241389 
L 741.982038 216.156016 
L 746.376839 209.876614 
L 750.676102 203.17295 
L 755.023134 200.132479 
L 759.417936 195.012475 
L 763.812738 188.484789 
L 768.112 183.923111 
L 772.459033 177.882833 
L 776.853835 167.873482 
L 781.248636 162.3585 
L 785.595669 156.135166 
L 789.942701 151.517559 
L 794.337503 139.750237 
L 798.732304 130.263962 
L 803.031567 122.381193 
L 807.378599 111.730524 
L 811.773401 106.388882 
L 816.168203 101.746571 
L 820.467466 98.133201 
L 824.814498 94.802395 
L 829.2093 89.886264 
L 833.604101 83.861668 
L 837.903364 82.648006 
L 842.250396 75.957665 
L 846.645198 63.397056 
L 851.04 52.677273 
L 851.04 52.677273 
" style="fill:none;stroke:#ff0000;stroke-linecap:round;stroke-width:1.5;"/>
   </g>
   <g id="patch_3">
    <path d="M 83.335 508.74 
L 83.335 30.96 
" style="fill:none;stroke:#262626;stroke-linecap:square;stroke-linejoin:miter;stroke-width:1.25;"/>
   </g>
   <g id="patch_4">
    <path d="M 851.04 508.74 
L 851.04 30.96 
" style="fill:none;stroke:#262626;stroke-linecap:square;stroke-linejoin:miter;stroke-width:1.25;"/>
   </g>
   <g id="patch_5">
    <path d="M 83.335 508.74 
L 851.04 508.74 
" style="fill:none;stroke:#262626;stroke-linecap:square;stroke-linejoin:miter;stroke-width:1.25;"/>
   </g>
   <g id="patch_6">
    <path d="M 83.335 30.96 
L 851.04 30.96 
" style="fill:none;stroke:#262626;stroke-linecap:square;stroke-linejoin:miter;stroke-width:1.25;"/>
   </g>
   <g id="text_17">
    <!-- M1+ in Canada, in million dollars -->
    <defs>
     <path d="M 32.765625 29.6875 
L 32.765625 8.796875 
L 25.59375 8.796875 
L 25.59375 29.6875 
L 4.890625 29.6875 
L 4.890625 36.8125 
L 25.59375 36.8125 
L 25.59375 57.71875 
L 32.765625 57.71875 
L 32.765625 36.8125 
L 53.46875 36.8125 
L 53.46875 29.6875 
z
" id="LiberationSans-43"/>
     <path d="M 18.796875 10.6875 
L 18.796875 2.484375 
Q 18.796875 -2.6875 17.859375 -6.15625 
Q 16.9375 -9.625 14.984375 -12.796875 
L 8.984375 -12.796875 
Q 13.578125 -6.15625 13.578125 0 
L 9.28125 0 
L 9.28125 10.6875 
z
" id="LiberationSans-44"/>
     <path d="M 37.5 0 
L 37.5 33.5 
Q 37.5 41.15625 35.390625 44.078125 
Q 33.296875 47.015625 27.828125 47.015625 
Q 22.21875 47.015625 18.9375 42.71875 
Q 15.671875 38.421875 15.671875 30.609375 
L 15.671875 0 
L 6.9375 0 
L 6.9375 41.546875 
Q 6.9375 50.78125 6.640625 52.828125 
L 14.9375 52.828125 
Q 14.984375 52.59375 15.03125 51.515625 
Q 15.09375 50.4375 15.15625 49.046875 
Q 15.234375 47.65625 15.328125 43.796875 
L 15.484375 43.796875 
Q 18.3125 49.421875 21.96875 51.609375 
Q 25.640625 53.8125 30.90625 53.8125 
Q 36.921875 53.8125 40.40625 51.421875 
Q 43.890625 49.03125 45.265625 43.796875 
L 45.40625 43.796875 
Q 48.140625 49.125 52.015625 51.46875 
Q 55.90625 53.8125 61.421875 53.8125 
Q 69.4375 53.8125 73.0625 49.46875 
Q 76.703125 45.125 76.703125 35.203125 
L 76.703125 0 
L 68.015625 0 
L 68.015625 33.5 
Q 68.015625 41.15625 65.90625 44.078125 
Q 63.8125 47.015625 58.34375 47.015625 
Q 52.59375 47.015625 49.390625 42.75 
Q 46.1875 38.484375 46.1875 30.609375 
L 46.1875 0 
z
" id="LiberationSans-109"/>
    </defs>
    <g style="fill:#262626;" transform="translate(351.3575 24.96)scale(0.16 -0.16)">
     <use xlink:href="#LiberationSans-77"/>
     <use x="83.300781" xlink:href="#LiberationSans-49"/>
     <use x="138.916016" xlink:href="#LiberationSans-43"/>
     <use x="197.314453" xlink:href="#LiberationSans-32"/>
     <use x="225.097656" xlink:href="#LiberationSans-105"/>
     <use x="247.314453" xlink:href="#LiberationSans-110"/>
     <use x="302.929688" xlink:href="#LiberationSans-32"/>
     <use x="330.712891" xlink:href="#LiberationSans-67"/>
     <use x="402.929688" xlink:href="#LiberationSans-97"/>
     <use x="458.544922" xlink:href="#LiberationSans-110"/>
     <use x="514.160156" xlink:href="#LiberationSans-97"/>
     <use x="569.775391" xlink:href="#LiberationSans-100"/>
     <use x="625.390625" xlink:href="#LiberationSans-97"/>
     <use x="681.005859" xlink:href="#LiberationSans-44"/>
     <use x="708.789062" xlink:href="#LiberationSans-32"/>
     <use x="736.572266" xlink:href="#LiberationSans-105"/>
     <use x="758.789062" xlink:href="#LiberationSans-110"/>
     <use x="814.404297" xlink:href="#LiberationSans-32"/>
     <use x="842.1875" xlink:href="#LiberationSans-109"/>
     <use x="925.488281" xlink:href="#LiberationSans-105"/>
     <use x="947.705078" xlink:href="#LiberationSans-108"/>
     <use x="969.921875" xlink:href="#LiberationSans-108"/>
     <use x="992.138672" xlink:href="#LiberationSans-105"/>
     <use x="1014.355469" xlink:href="#LiberationSans-111"/>
     <use x="1069.970703" xlink:href="#LiberationSans-110"/>
     <use x="1125.585938" xlink:href="#LiberationSans-32"/>
     <use x="1153.369141" xlink:href="#LiberationSans-100"/>
     <use x="1208.984375" xlink:href="#LiberationSans-111"/>
     <use x="1264.599609" xlink:href="#LiberationSans-108"/>
     <use x="1286.816406" xlink:href="#LiberationSans-108"/>
     <use x="1309.033203" xlink:href="#LiberationSans-97"/>
     <use x="1364.648438" xlink:href="#LiberationSans-114"/>
     <use x="1397.949219" xlink:href="#LiberationSans-115"/>
    </g>
   </g>
   <g id="legend_1">
    <g id="line2d_16">
     <path d="M 771.61625 488.335 
L 799.61625 488.335 
" style="fill:none;stroke:#ff0000;stroke-linecap:round;stroke-width:1.5;"/>
    </g>
    <g id="line2d_17"/>
    <g id="text_18">
     <!-- M1+ -->
     <g style="fill:#262626;" transform="translate(810.81625 493.235)scale(0.14 -0.14)">
      <use xlink:href="#LiberationSans-77"/>
      <use x="83.300781" xlink:href="#LiberationSans-49"/>
      <use x="138.916016" xlink:href="#LiberationSans-43"/>
     </g>
    </g>
   </g>
  </g>
 </g>
 <defs>
  <clipPath id="pef5528ffaf">
   <rect height="477.78" width="767.705" x="83.335" y="30.96"/>
  </clipPath>
 </defs>
</svg>
