<?xml version="1.0" encoding="utf-8" standalone="no"?>
<!DOCTYPE svg PUBLIC "-//W3C//DTD SVG 1.1//EN"
  "http://www.w3.org/Graphics/SVG/1.1/DTD/svg11.dtd">
<!-- Created with matplotlib (https://matplotlib.org/) -->
<svg height="576pt" version="1.1" viewBox="0 0 864 576" width="864pt" xmlns="http://www.w3.org/2000/svg" xmlns:xlink="http://www.w3.org/1999/xlink">
 <defs>
  <style type="text/css">
*{stroke-linecap:butt;stroke-linejoin:round;}
  </style>
 </defs>
 <g id="figure_1">
  <g id="patch_1">
   <path d="M 0 576 
L 864 576 
L 864 0 
L 0 0 
z
" style="fill:#ffffff;"/>
  </g>
  <g id="axes_1">
   <g id="patch_2">
    <path d="M 56.05 540.7 
L 812.575 540.7 
L 812.575 31.8 
L 56.05 31.8 
z
" style="fill:#ffffff;"/>
   </g>
   <g id="matplotlib.axis_1">
    <g id="xtick_1">
     <g id="line2d_1">
      <defs>
       <path d="M 0 0 
L 0 6 
" id="m9c7afe338c" style="stroke:#262626;stroke-width:0.8;"/>
      </defs>
      <g>
       <use style="fill:#262626;stroke:#262626;stroke-width:0.8;" x="56.05" xlink:href="#m9c7afe338c" y="540.7"/>
      </g>
     </g>
     <g id="text_1">
      <!-- 1980 -->
      <defs>
       <path d="M 7.625 0 
L 7.625 7.46875 
L 25.140625 7.46875 
L 25.140625 60.40625 
L 9.625 49.3125 
L 9.625 57.625 
L 25.875 68.796875 
L 33.984375 68.796875 
L 33.984375 7.46875 
L 50.734375 7.46875 
L 50.734375 0 
z
" id="LiberationSans-49"/>
       <path d="M 50.875 35.796875 
Q 50.875 18.0625 44.40625 8.53125 
Q 37.9375 -0.984375 25.984375 -0.984375 
Q 17.921875 -0.984375 13.0625 2.40625 
Q 8.203125 5.8125 6.109375 13.375 
L 14.5 14.703125 
Q 17.140625 6.109375 26.125 6.109375 
Q 33.6875 6.109375 37.84375 13.140625 
Q 42 20.171875 42.1875 33.203125 
Q 40.234375 28.8125 35.5 26.140625 
Q 30.765625 23.484375 25.09375 23.484375 
Q 15.828125 23.484375 10.25 29.828125 
Q 4.6875 36.1875 4.6875 46.6875 
Q 4.6875 57.46875 10.734375 63.640625 
Q 16.796875 69.828125 27.59375 69.828125 
Q 39.0625 69.828125 44.96875 61.328125 
Q 50.875 52.828125 50.875 35.796875 
z
M 41.3125 44.28125 
Q 41.3125 52.59375 37.5 57.640625 
Q 33.6875 62.703125 27.296875 62.703125 
Q 20.953125 62.703125 17.28125 58.375 
Q 13.625 54.046875 13.625 46.6875 
Q 13.625 39.15625 17.28125 34.78125 
Q 20.953125 30.421875 27.203125 30.421875 
Q 31 30.421875 34.265625 32.15625 
Q 37.546875 33.890625 39.421875 37.0625 
Q 41.3125 40.234375 41.3125 44.28125 
z
" id="LiberationSans-57"/>
       <path d="M 51.265625 19.1875 
Q 51.265625 9.671875 45.203125 4.34375 
Q 39.15625 -0.984375 27.828125 -0.984375 
Q 16.796875 -0.984375 10.5625 4.234375 
Q 4.34375 9.46875 4.34375 19.09375 
Q 4.34375 25.828125 8.203125 30.421875 
Q 12.0625 35.015625 18.0625 35.984375 
L 18.0625 36.1875 
Q 12.453125 37.5 9.203125 41.890625 
Q 5.953125 46.296875 5.953125 52.203125 
Q 5.953125 60.0625 11.828125 64.9375 
Q 17.71875 69.828125 27.640625 69.828125 
Q 37.796875 69.828125 43.671875 65.03125 
Q 49.5625 60.25 49.5625 52.09375 
Q 49.5625 46.1875 46.28125 41.796875 
Q 43.015625 37.40625 37.359375 36.28125 
L 37.359375 36.078125 
Q 43.953125 35.015625 47.609375 30.5 
Q 51.265625 25.984375 51.265625 19.1875 
z
M 40.4375 51.609375 
Q 40.4375 63.28125 27.640625 63.28125 
Q 21.4375 63.28125 18.1875 60.34375 
Q 14.9375 57.421875 14.9375 51.609375 
Q 14.9375 45.703125 18.28125 42.59375 
Q 21.625 39.5 27.734375 39.5 
Q 33.9375 39.5 37.1875 42.359375 
Q 40.4375 45.21875 40.4375 51.609375 
z
M 42.140625 20.015625 
Q 42.140625 26.421875 38.328125 29.65625 
Q 34.515625 32.90625 27.640625 32.90625 
Q 20.953125 32.90625 17.1875 29.40625 
Q 13.421875 25.921875 13.421875 19.828125 
Q 13.421875 5.609375 27.9375 5.609375 
Q 35.109375 5.609375 38.625 9.046875 
Q 42.140625 12.5 42.140625 20.015625 
z
" id="LiberationSans-56"/>
       <path d="M 51.703125 34.421875 
Q 51.703125 17.1875 45.625 8.09375 
Q 39.546875 -0.984375 27.6875 -0.984375 
Q 15.828125 -0.984375 9.859375 8.046875 
Q 3.90625 17.09375 3.90625 34.421875 
Q 3.90625 52.15625 9.6875 60.984375 
Q 15.484375 69.828125 27.984375 69.828125 
Q 40.140625 69.828125 45.921875 60.890625 
Q 51.703125 51.953125 51.703125 34.421875 
z
M 42.78125 34.421875 
Q 42.78125 49.3125 39.328125 56 
Q 35.890625 62.703125 27.984375 62.703125 
Q 19.875 62.703125 16.328125 56.109375 
Q 12.796875 49.515625 12.796875 34.421875 
Q 12.796875 19.78125 16.375 12.984375 
Q 19.96875 6.203125 27.78125 6.203125 
Q 35.546875 6.203125 39.15625 13.125 
Q 42.78125 20.0625 42.78125 34.421875 
z
" id="LiberationSans-48"/>
      </defs>
      <g style="fill:#262626;" transform="translate(38.255 561.795)scale(0.16 -0.16)">
       <use xlink:href="#LiberationSans-49"/>
       <use x="55.615234" xlink:href="#LiberationSans-57"/>
       <use x="111.230469" xlink:href="#LiberationSans-56"/>
       <use x="166.845703" xlink:href="#LiberationSans-48"/>
      </g>
     </g>
    </g>
    <g id="xtick_2">
     <g id="line2d_2">
      <g>
       <use style="fill:#262626;stroke:#262626;stroke-width:0.8;" x="131.863363" xlink:href="#m9c7afe338c" y="540.7"/>
      </g>
     </g>
     <g id="text_2">
      <!-- 1984 -->
      <defs>
       <path d="M 43.015625 15.578125 
L 43.015625 0 
L 34.71875 0 
L 34.71875 15.578125 
L 2.296875 15.578125 
L 2.296875 22.40625 
L 33.796875 68.796875 
L 43.015625 68.796875 
L 43.015625 22.515625 
L 52.6875 22.515625 
L 52.6875 15.578125 
z
M 34.71875 58.890625 
Q 34.625 58.59375 33.34375 56.296875 
Q 32.078125 54 31.453125 53.078125 
L 13.8125 27.09375 
L 11.1875 23.484375 
L 10.40625 22.515625 
L 34.71875 22.515625 
z
" id="LiberationSans-52"/>
      </defs>
      <g style="fill:#262626;" transform="translate(114.068363 561.795)scale(0.16 -0.16)">
       <use xlink:href="#LiberationSans-49"/>
       <use x="55.615234" xlink:href="#LiberationSans-57"/>
       <use x="111.230469" xlink:href="#LiberationSans-56"/>
       <use x="166.845703" xlink:href="#LiberationSans-52"/>
      </g>
     </g>
    </g>
    <g id="xtick_3">
     <g id="line2d_3">
      <g>
       <use style="fill:#262626;stroke:#262626;stroke-width:0.8;" x="207.676727" xlink:href="#m9c7afe338c" y="540.7"/>
      </g>
     </g>
     <g id="text_3">
      <!-- 1988 -->
      <g style="fill:#262626;" transform="translate(189.881727 561.795)scale(0.16 -0.16)">
       <use xlink:href="#LiberationSans-49"/>
       <use x="55.615234" xlink:href="#LiberationSans-57"/>
       <use x="111.230469" xlink:href="#LiberationSans-56"/>
       <use x="166.845703" xlink:href="#LiberationSans-56"/>
      </g>
     </g>
    </g>
    <g id="xtick_4">
     <g id="line2d_4">
      <g>
       <use style="fill:#262626;stroke:#262626;stroke-width:0.8;" x="283.49009" xlink:href="#m9c7afe338c" y="540.7"/>
      </g>
     </g>
     <g id="text_4">
      <!-- 1992 -->
      <defs>
       <path d="M 5.03125 0 
L 5.03125 6.203125 
Q 7.515625 11.921875 11.109375 16.28125 
Q 14.703125 20.65625 18.65625 24.1875 
Q 22.609375 27.734375 26.484375 30.765625 
Q 30.375 33.796875 33.5 36.8125 
Q 36.625 39.84375 38.546875 43.15625 
Q 40.484375 46.484375 40.484375 50.6875 
Q 40.484375 56.34375 37.15625 59.46875 
Q 33.84375 62.59375 27.9375 62.59375 
Q 22.3125 62.59375 18.671875 59.546875 
Q 15.046875 56.5 14.40625 50.984375 
L 5.421875 51.8125 
Q 6.390625 60.0625 12.421875 64.9375 
Q 18.453125 69.828125 27.9375 69.828125 
Q 38.328125 69.828125 43.921875 64.921875 
Q 49.515625 60.015625 49.515625 50.984375 
Q 49.515625 46.96875 47.671875 43.015625 
Q 45.84375 39.0625 42.234375 35.109375 
Q 38.625 31.15625 28.421875 22.859375 
Q 22.796875 18.265625 19.46875 14.578125 
Q 16.15625 10.890625 14.703125 7.46875 
L 50.59375 7.46875 
L 50.59375 0 
z
" id="LiberationSans-50"/>
      </defs>
      <g style="fill:#262626;" transform="translate(265.69509 561.795)scale(0.16 -0.16)">
       <use xlink:href="#LiberationSans-49"/>
       <use x="55.615234" xlink:href="#LiberationSans-57"/>
       <use x="111.230469" xlink:href="#LiberationSans-57"/>
       <use x="166.845703" xlink:href="#LiberationSans-50"/>
      </g>
     </g>
    </g>
    <g id="xtick_5">
     <g id="line2d_5">
      <g>
       <use style="fill:#262626;stroke:#262626;stroke-width:0.8;" x="359.303454" xlink:href="#m9c7afe338c" y="540.7"/>
      </g>
     </g>
     <g id="text_5">
      <!-- 1996 -->
      <defs>
       <path d="M 51.21875 22.515625 
Q 51.21875 11.625 45.3125 5.3125 
Q 39.40625 -0.984375 29 -0.984375 
Q 17.390625 -0.984375 11.234375 7.65625 
Q 5.078125 16.3125 5.078125 32.8125 
Q 5.078125 50.6875 11.46875 60.25 
Q 17.875 69.828125 29.6875 69.828125 
Q 45.265625 69.828125 49.3125 55.8125 
L 40.921875 54.296875 
Q 38.328125 62.703125 29.59375 62.703125 
Q 22.078125 62.703125 17.9375 55.6875 
Q 13.8125 48.6875 13.8125 35.40625 
Q 16.21875 39.84375 20.5625 42.15625 
Q 24.90625 44.484375 30.515625 44.484375 
Q 40.046875 44.484375 45.625 38.515625 
Q 51.21875 32.5625 51.21875 22.515625 
z
M 42.28125 22.125 
Q 42.28125 29.59375 38.625 33.640625 
Q 34.96875 37.703125 28.421875 37.703125 
Q 22.265625 37.703125 18.484375 34.109375 
Q 14.703125 30.515625 14.703125 24.21875 
Q 14.703125 16.265625 18.625 11.1875 
Q 22.5625 6.109375 28.71875 6.109375 
Q 35.0625 6.109375 38.671875 10.375 
Q 42.28125 14.65625 42.28125 22.125 
z
" id="LiberationSans-54"/>
      </defs>
      <g style="fill:#262626;" transform="translate(341.508454 561.795)scale(0.16 -0.16)">
       <use xlink:href="#LiberationSans-49"/>
       <use x="55.615234" xlink:href="#LiberationSans-57"/>
       <use x="111.230469" xlink:href="#LiberationSans-57"/>
       <use x="166.845703" xlink:href="#LiberationSans-54"/>
      </g>
     </g>
    </g>
    <g id="xtick_6">
     <g id="line2d_6">
      <g>
       <use style="fill:#262626;stroke:#262626;stroke-width:0.8;" x="435.116817" xlink:href="#m9c7afe338c" y="540.7"/>
      </g>
     </g>
     <g id="text_6">
      <!-- 2000 -->
      <g style="fill:#262626;" transform="translate(417.321817 561.795)scale(0.16 -0.16)">
       <use xlink:href="#LiberationSans-50"/>
       <use x="55.615234" xlink:href="#LiberationSans-48"/>
       <use x="111.230469" xlink:href="#LiberationSans-48"/>
       <use x="166.845703" xlink:href="#LiberationSans-48"/>
      </g>
     </g>
    </g>
    <g id="xtick_7">
     <g id="line2d_7">
      <g>
       <use style="fill:#262626;stroke:#262626;stroke-width:0.8;" x="510.93018" xlink:href="#m9c7afe338c" y="540.7"/>
      </g>
     </g>
     <g id="text_7">
      <!-- 2004 -->
      <g style="fill:#262626;" transform="translate(493.13518 561.795)scale(0.16 -0.16)">
       <use xlink:href="#LiberationSans-50"/>
       <use x="55.615234" xlink:href="#LiberationSans-48"/>
       <use x="111.230469" xlink:href="#LiberationSans-48"/>
       <use x="166.845703" xlink:href="#LiberationSans-52"/>
      </g>
     </g>
    </g>
    <g id="xtick_8">
     <g id="line2d_8">
      <g>
       <use style="fill:#262626;stroke:#262626;stroke-width:0.8;" x="586.743544" xlink:href="#m9c7afe338c" y="540.7"/>
      </g>
     </g>
     <g id="text_8">
      <!-- 2008 -->
      <g style="fill:#262626;" transform="translate(568.948544 561.795)scale(0.16 -0.16)">
       <use xlink:href="#LiberationSans-50"/>
       <use x="55.615234" xlink:href="#LiberationSans-48"/>
       <use x="111.230469" xlink:href="#LiberationSans-48"/>
       <use x="166.845703" xlink:href="#LiberationSans-56"/>
      </g>
     </g>
    </g>
    <g id="xtick_9">
     <g id="line2d_9">
      <g>
       <use style="fill:#262626;stroke:#262626;stroke-width:0.8;" x="662.556907" xlink:href="#m9c7afe338c" y="540.7"/>
      </g>
     </g>
     <g id="text_9">
      <!-- 2012 -->
      <g style="fill:#262626;" transform="translate(644.761907 561.795)scale(0.16 -0.16)">
       <use xlink:href="#LiberationSans-50"/>
       <use x="55.615234" xlink:href="#LiberationSans-48"/>
       <use x="111.230469" xlink:href="#LiberationSans-49"/>
       <use x="166.845703" xlink:href="#LiberationSans-50"/>
      </g>
     </g>
    </g>
    <g id="xtick_10">
     <g id="line2d_10">
      <g>
       <use style="fill:#262626;stroke:#262626;stroke-width:0.8;" x="738.370271" xlink:href="#m9c7afe338c" y="540.7"/>
      </g>
     </g>
     <g id="text_10">
      <!-- 2016 -->
      <g style="fill:#262626;" transform="translate(720.575271 561.795)scale(0.16 -0.16)">
       <use xlink:href="#LiberationSans-50"/>
       <use x="55.615234" xlink:href="#LiberationSans-48"/>
       <use x="111.230469" xlink:href="#LiberationSans-49"/>
       <use x="166.845703" xlink:href="#LiberationSans-54"/>
      </g>
     </g>
    </g>
   </g>
   <g id="matplotlib.axis_2">
    <g id="ytick_1">
     <g id="line2d_11">
      <defs>
       <path d="M 0 0 
L -6 0 
" id="me2b360eed9" style="stroke:#262626;stroke-width:0.8;"/>
      </defs>
      <g>
       <use style="fill:#262626;stroke:#262626;stroke-width:0.8;" x="56.05" xlink:href="#me2b360eed9" y="481.518595"/>
      </g>
     </g>
     <g id="text_11">
      <!-- 6 -->
      <g style="fill:#262626;" transform="translate(37.6525 487.316095)scale(0.16 -0.16)">
       <use xlink:href="#LiberationSans-54"/>
      </g>
     </g>
    </g>
    <g id="ytick_2">
     <g id="line2d_12">
      <g>
       <use style="fill:#262626;stroke:#262626;stroke-width:0.8;" x="56.05" xlink:href="#me2b360eed9" y="421.43595"/>
      </g>
     </g>
     <g id="text_12">
      <!-- 7 -->
      <defs>
       <path d="M 50.59375 61.671875 
Q 40.046875 45.5625 35.6875 36.421875 
Q 31.34375 27.296875 29.171875 18.40625 
Q 27 9.515625 27 0 
L 17.828125 0 
Q 17.828125 13.1875 23.40625 27.75 
Q 29 42.328125 42.09375 61.328125 
L 5.125 61.328125 
L 5.125 68.796875 
L 50.59375 68.796875 
z
" id="LiberationSans-55"/>
      </defs>
      <g style="fill:#262626;" transform="translate(37.6525 427.23345)scale(0.16 -0.16)">
       <use xlink:href="#LiberationSans-55"/>
      </g>
     </g>
    </g>
    <g id="ytick_3">
     <g id="line2d_13">
      <g>
       <use style="fill:#262626;stroke:#262626;stroke-width:0.8;" x="56.05" xlink:href="#me2b360eed9" y="361.353306"/>
      </g>
     </g>
     <g id="text_13">
      <!-- 8 -->
      <g style="fill:#262626;" transform="translate(37.6525 367.150806)scale(0.16 -0.16)">
       <use xlink:href="#LiberationSans-56"/>
      </g>
     </g>
    </g>
    <g id="ytick_4">
     <g id="line2d_14">
      <g>
       <use style="fill:#262626;stroke:#262626;stroke-width:0.8;" x="56.05" xlink:href="#me2b360eed9" y="301.270661"/>
      </g>
     </g>
     <g id="text_14">
      <!-- 9 -->
      <g style="fill:#262626;" transform="translate(37.6525 307.068161)scale(0.16 -0.16)">
       <use xlink:href="#LiberationSans-57"/>
      </g>
     </g>
    </g>
    <g id="ytick_5">
     <g id="line2d_15">
      <g>
       <use style="fill:#262626;stroke:#262626;stroke-width:0.8;" x="56.05" xlink:href="#me2b360eed9" y="241.188017"/>
      </g>
     </g>
     <g id="text_15">
      <!-- 10 -->
      <g style="fill:#262626;" transform="translate(28.755 246.985517)scale(0.16 -0.16)">
       <use xlink:href="#LiberationSans-49"/>
       <use x="55.615234" xlink:href="#LiberationSans-48"/>
      </g>
     </g>
    </g>
    <g id="ytick_6">
     <g id="line2d_16">
      <g>
       <use style="fill:#262626;stroke:#262626;stroke-width:0.8;" x="56.05" xlink:href="#me2b360eed9" y="181.105372"/>
      </g>
     </g>
     <g id="text_16">
      <!-- 11 -->
      <g style="fill:#262626;" transform="translate(28.7725 186.902872)scale(0.16 -0.16)">
       <use xlink:href="#LiberationSans-49"/>
       <use x="55.505859" xlink:href="#LiberationSans-49"/>
      </g>
     </g>
    </g>
    <g id="ytick_7">
     <g id="line2d_17">
      <g>
       <use style="fill:#262626;stroke:#262626;stroke-width:0.8;" x="56.05" xlink:href="#me2b360eed9" y="121.022727"/>
      </g>
     </g>
     <g id="text_17">
      <!-- 12 -->
      <g style="fill:#262626;" transform="translate(28.755 126.820227)scale(0.16 -0.16)">
       <use xlink:href="#LiberationSans-49"/>
       <use x="55.615234" xlink:href="#LiberationSans-50"/>
      </g>
     </g>
    </g>
    <g id="ytick_8">
     <g id="line2d_18">
      <g>
       <use style="fill:#262626;stroke:#262626;stroke-width:0.8;" x="56.05" xlink:href="#me2b360eed9" y="60.940083"/>
      </g>
     </g>
     <g id="text_18">
      <!-- 13 -->
      <defs>
       <path d="M 51.21875 19 
Q 51.21875 9.46875 45.15625 4.234375 
Q 39.109375 -0.984375 27.875 -0.984375 
Q 17.4375 -0.984375 11.203125 3.734375 
Q 4.984375 8.453125 3.8125 17.671875 
L 12.890625 18.5 
Q 14.65625 6.296875 27.875 6.296875 
Q 34.515625 6.296875 38.296875 9.5625 
Q 42.09375 12.84375 42.09375 19.28125 
Q 42.09375 24.90625 37.765625 28.046875 
Q 33.453125 31.203125 25.296875 31.203125 
L 20.3125 31.203125 
L 20.3125 38.8125 
L 25.09375 38.8125 
Q 32.328125 38.8125 36.296875 41.96875 
Q 40.28125 45.125 40.28125 50.6875 
Q 40.28125 56.203125 37.03125 59.390625 
Q 33.796875 62.59375 27.390625 62.59375 
Q 21.578125 62.59375 17.984375 59.609375 
Q 14.40625 56.640625 13.8125 51.21875 
L 4.984375 51.90625 
Q 5.953125 60.359375 11.984375 65.09375 
Q 18.015625 69.828125 27.484375 69.828125 
Q 37.84375 69.828125 43.578125 65.015625 
Q 49.3125 60.203125 49.3125 51.609375 
Q 49.3125 45.015625 45.625 40.890625 
Q 41.9375 36.765625 34.90625 35.296875 
L 34.90625 35.109375 
Q 42.625 34.28125 46.921875 29.9375 
Q 51.21875 25.59375 51.21875 19 
z
" id="LiberationSans-51"/>
      </defs>
      <g style="fill:#262626;" transform="translate(28.755 66.737583)scale(0.16 -0.16)">
       <use xlink:href="#LiberationSans-49"/>
       <use x="55.615234" xlink:href="#LiberationSans-51"/>
      </g>
     </g>
    </g>
    <g id="text_19">
     <!-- Percentage -->
     <defs>
      <path d="M 61.421875 48.09375 
Q 61.421875 38.328125 55.046875 32.5625 
Q 48.6875 26.8125 37.75 26.8125 
L 17.53125 26.8125 
L 17.53125 0 
L 8.203125 0 
L 8.203125 68.796875 
L 37.15625 68.796875 
Q 48.734375 68.796875 55.078125 63.375 
Q 61.421875 57.953125 61.421875 48.09375 
z
M 52.046875 48 
Q 52.046875 61.328125 36.03125 61.328125 
L 17.53125 61.328125 
L 17.53125 34.1875 
L 36.421875 34.1875 
Q 52.046875 34.1875 52.046875 48 
z
" id="LiberationSans-80"/>
      <path d="M 13.484375 24.5625 
Q 13.484375 15.484375 17.234375 10.546875 
Q 21 5.609375 28.21875 5.609375 
Q 33.9375 5.609375 37.375 7.90625 
Q 40.828125 10.203125 42.046875 13.71875 
L 49.75 11.53125 
Q 45.015625 -0.984375 28.21875 -0.984375 
Q 16.5 -0.984375 10.375 6 
Q 4.25 12.984375 4.25 26.765625 
Q 4.25 39.84375 10.375 46.828125 
Q 16.5 53.8125 27.875 53.8125 
Q 51.171875 53.8125 51.171875 25.734375 
L 51.171875 24.5625 
z
M 42.09375 31.296875 
Q 41.359375 39.65625 37.84375 43.484375 
Q 34.328125 47.3125 27.734375 47.3125 
Q 21.34375 47.3125 17.609375 43.03125 
Q 13.875 38.765625 13.578125 31.296875 
z
" id="LiberationSans-101"/>
      <path d="M 6.9375 0 
L 6.9375 40.53125 
Q 6.9375 46.09375 6.640625 52.828125 
L 14.9375 52.828125 
Q 15.328125 43.84375 15.328125 42.046875 
L 15.53125 42.046875 
Q 17.625 48.828125 20.359375 51.3125 
Q 23.09375 53.8125 28.078125 53.8125 
Q 29.828125 53.8125 31.640625 53.328125 
L 31.640625 45.265625 
Q 29.890625 45.75 26.953125 45.75 
Q 21.484375 45.75 18.59375 41.03125 
Q 15.71875 36.328125 15.71875 27.546875 
L 15.71875 0 
z
" id="LiberationSans-114"/>
      <path d="M 13.421875 26.65625 
Q 13.421875 16.109375 16.734375 11.03125 
Q 20.0625 5.953125 26.765625 5.953125 
Q 31.453125 5.953125 34.59375 8.484375 
Q 37.75 11.03125 38.484375 16.3125 
L 47.359375 15.71875 
Q 46.34375 8.109375 40.875 3.5625 
Q 35.40625 -0.984375 27 -0.984375 
Q 15.921875 -0.984375 10.078125 6.015625 
Q 4.25 13.03125 4.25 26.46875 
Q 4.25 39.796875 10.109375 46.796875 
Q 15.96875 53.8125 26.90625 53.8125 
Q 35.015625 53.8125 40.359375 49.609375 
Q 45.703125 45.40625 47.078125 38.03125 
L 38.03125 37.359375 
Q 37.359375 41.75 34.5625 44.328125 
Q 31.78125 46.921875 26.65625 46.921875 
Q 19.671875 46.921875 16.546875 42.28125 
Q 13.421875 37.640625 13.421875 26.65625 
z
" id="LiberationSans-99"/>
      <path d="M 40.28125 0 
L 40.28125 33.5 
Q 40.28125 38.71875 39.25 41.59375 
Q 38.234375 44.484375 35.984375 45.75 
Q 33.734375 47.015625 29.390625 47.015625 
Q 23.046875 47.015625 19.375 42.671875 
Q 15.71875 38.328125 15.71875 30.609375 
L 15.71875 0 
L 6.9375 0 
L 6.9375 41.546875 
Q 6.9375 50.78125 6.640625 52.828125 
L 14.9375 52.828125 
Q 14.984375 52.59375 15.03125 51.515625 
Q 15.09375 50.4375 15.15625 49.046875 
Q 15.234375 47.65625 15.328125 43.796875 
L 15.484375 43.796875 
Q 18.5 49.265625 22.484375 51.53125 
Q 26.46875 53.8125 32.375 53.8125 
Q 41.0625 53.8125 45.09375 49.484375 
Q 49.125 45.171875 49.125 35.203125 
L 49.125 0 
z
" id="LiberationSans-110"/>
      <path d="M 27.046875 0.390625 
Q 22.703125 -0.78125 18.171875 -0.78125 
Q 7.625 -0.78125 7.625 11.1875 
L 7.625 46.4375 
L 1.515625 46.4375 
L 1.515625 52.828125 
L 7.953125 52.828125 
L 10.546875 64.65625 
L 16.40625 64.65625 
L 16.40625 52.828125 
L 26.171875 52.828125 
L 26.171875 46.4375 
L 16.40625 46.4375 
L 16.40625 13.09375 
Q 16.40625 9.28125 17.640625 7.734375 
Q 18.890625 6.203125 21.96875 6.203125 
Q 23.734375 6.203125 27.046875 6.890625 
z
" id="LiberationSans-116"/>
      <path d="M 20.21875 -0.984375 
Q 12.25 -0.984375 8.25 3.21875 
Q 4.25 7.421875 4.25 14.75 
Q 4.25 22.953125 9.640625 27.34375 
Q 15.046875 31.734375 27.046875 32.03125 
L 38.921875 32.234375 
L 38.921875 35.109375 
Q 38.921875 41.546875 36.1875 44.328125 
Q 33.453125 47.125 27.59375 47.125 
Q 21.6875 47.125 19 45.109375 
Q 16.3125 43.109375 15.765625 38.71875 
L 6.59375 39.546875 
Q 8.84375 53.8125 27.78125 53.8125 
Q 37.75 53.8125 42.765625 49.234375 
Q 47.796875 44.671875 47.796875 36.03125 
L 47.796875 13.28125 
Q 47.796875 9.375 48.828125 7.390625 
Q 49.859375 5.421875 52.734375 5.421875 
Q 54 5.421875 55.609375 5.765625 
L 55.609375 0.296875 
Q 52.296875 -0.484375 48.828125 -0.484375 
Q 43.953125 -0.484375 41.71875 2.078125 
Q 39.5 4.640625 39.203125 10.109375 
L 38.921875 10.109375 
Q 35.546875 4.046875 31.078125 1.53125 
Q 26.609375 -0.984375 20.21875 -0.984375 
z
M 22.21875 5.609375 
Q 27.046875 5.609375 30.8125 7.8125 
Q 34.578125 10.015625 36.75 13.84375 
Q 38.921875 17.671875 38.921875 21.734375 
L 38.921875 26.078125 
L 29.296875 25.875 
Q 23.09375 25.78125 19.890625 24.609375 
Q 16.703125 23.4375 14.984375 21 
Q 13.28125 18.5625 13.28125 14.59375 
Q 13.28125 10.296875 15.59375 7.953125 
Q 17.921875 5.609375 22.21875 5.609375 
z
" id="LiberationSans-97"/>
      <path d="M 26.765625 -20.75 
Q 18.109375 -20.75 12.984375 -17.359375 
Q 7.859375 -13.96875 6.390625 -7.71875 
L 15.234375 -6.453125 
Q 16.109375 -10.109375 19.109375 -12.078125 
Q 22.125 -14.0625 27 -14.0625 
Q 40.140625 -14.0625 40.140625 1.3125 
L 40.140625 9.8125 
L 40.046875 9.8125 
Q 37.546875 4.734375 33.203125 2.171875 
Q 28.859375 -0.390625 23.046875 -0.390625 
Q 13.328125 -0.390625 8.765625 6.046875 
Q 4.203125 12.5 4.203125 26.3125 
Q 4.203125 40.328125 9.109375 46.984375 
Q 14.015625 53.65625 24.03125 53.65625 
Q 29.640625 53.65625 33.765625 51.09375 
Q 37.890625 48.53125 40.140625 43.796875 
L 40.234375 43.796875 
Q 40.234375 45.265625 40.421875 48.875 
Q 40.625 52.484375 40.828125 52.828125 
L 49.171875 52.828125 
Q 48.875 50.203125 48.875 41.890625 
L 48.875 1.515625 
Q 48.875 -20.75 26.765625 -20.75 
z
M 40.140625 26.421875 
Q 40.140625 32.859375 38.375 37.515625 
Q 36.625 42.1875 33.421875 44.65625 
Q 30.21875 47.125 26.171875 47.125 
Q 19.4375 47.125 16.359375 42.234375 
Q 13.28125 37.359375 13.28125 26.421875 
Q 13.28125 15.578125 16.15625 10.84375 
Q 19.046875 6.109375 26.03125 6.109375 
Q 30.171875 6.109375 33.390625 8.546875 
Q 36.625 10.984375 38.375 15.546875 
Q 40.140625 20.125 40.140625 26.421875 
z
" id="LiberationSans-103"/>
     </defs>
     <g style="fill:#262626;" transform="translate(21.85 322.050625)rotate(-90)scale(0.14 -0.14)">
      <use xlink:href="#LiberationSans-80"/>
      <use x="66.699219" xlink:href="#LiberationSans-101"/>
      <use x="122.314453" xlink:href="#LiberationSans-114"/>
      <use x="155.615234" xlink:href="#LiberationSans-99"/>
      <use x="205.615234" xlink:href="#LiberationSans-101"/>
      <use x="261.230469" xlink:href="#LiberationSans-110"/>
      <use x="316.845703" xlink:href="#LiberationSans-116"/>
      <use x="344.628906" xlink:href="#LiberationSans-97"/>
      <use x="400.244141" xlink:href="#LiberationSans-103"/>
      <use x="455.859375" xlink:href="#LiberationSans-101"/>
     </g>
    </g>
   </g>
   <g id="line2d_19">
    <path clip-path="url(#p991640f44d)" d="M 56.05 391.394628 
L 57.658634 385.386364 
L 59.163485 385.386364 
L 62.328862 373.369835 
L 65.494238 385.386364 
L 67.102872 385.386364 
L 68.711506 403.411157 
L 70.268249 403.411157 
L 71.876883 409.419421 
L 75.042259 397.402893 
L 78.103853 397.402893 
L 79.712487 415.427686 
L 81.26923 409.419421 
L 84.434606 409.419421 
L 86.04324 415.427686 
L 87.651874 355.345041 
L 89.208617 343.328512 
L 90.817251 343.328512 
L 92.373993 319.295455 
L 93.982627 325.303719 
L 95.591261 307.278926 
L 97.044221 283.245868 
L 100.209598 223.163223 
L 103.374974 127.030992 
L 104.983608 121.022727 
L 106.592242 96.989669 
L 108.148985 66.948347 
L 109.757619 66.948347 
L 111.314361 54.931818 
L 112.922995 78.964876 
L 114.531629 78.964876 
L 115.984589 90.981405 
L 117.593223 96.989669 
L 120.7586 96.989669 
L 122.315342 127.030992 
L 123.923976 139.047521 
L 125.53261 157.072314 
L 127.089353 163.080579 
L 134.976849 163.080579 
L 138.142225 139.047521 
L 139.750859 163.080579 
L 141.307602 169.088843 
L 142.916236 163.080579 
L 144.52487 133.039256 
L 146.081612 163.080579 
L 147.690246 157.072314 
L 149.246989 175.097107 
L 150.855623 205.13843 
L 152.464257 193.121901 
L 153.917217 181.105372 
L 157.082593 205.13843 
L 158.691227 199.130165 
L 160.24797 217.154959 
L 163.465238 229.171488 
L 165.02198 223.163223 
L 166.630614 223.163223 
L 168.187357 235.179752 
L 169.795991 253.204545 
L 171.404625 247.196281 
L 172.857585 253.204545 
L 174.466219 259.21281 
L 176.022961 271.229339 
L 177.631595 265.221074 
L 180.796972 265.221074 
L 183.962348 277.237603 
L 185.570982 277.237603 
L 187.127725 271.229339 
L 190.344993 271.229339 
L 191.797953 277.237603 
L 193.406587 289.254132 
L 194.963329 307.278926 
L 196.571963 307.278926 
L 198.128706 319.295455 
L 199.73734 325.303719 
L 201.345974 337.320248 
L 204.51135 349.336777 
L 206.068093 361.353306 
L 207.676727 355.345041 
L 209.285361 373.369835 
L 210.790212 373.369835 
L 212.398846 379.378099 
L 213.955589 373.369835 
L 215.564223 385.386364 
L 217.120965 373.369835 
L 223.50361 373.369835 
L 225.060352 391.394628 
L 226.668986 391.394628 
L 228.27762 385.386364 
L 229.73058 391.394628 
L 231.339214 373.369835 
L 232.895957 379.378099 
L 234.504591 391.394628 
L 236.061333 391.394628 
L 237.669967 403.411157 
L 239.278601 403.411157 
L 240.835344 409.419421 
L 242.443978 391.394628 
L 245.609354 367.36157 
L 247.217988 379.378099 
L 248.670948 403.411157 
L 250.279582 385.386364 
L 251.836325 373.369835 
L 253.444959 385.386364 
L 255.001701 367.36157 
L 256.610335 355.345041 
L 258.218969 331.311983 
L 261.384346 295.262397 
L 262.941088 271.229339 
L 264.549722 253.204545 
L 266.158356 229.171488 
L 267.611316 211.146694 
L 269.21995 223.163223 
L 270.776693 229.171488 
L 272.385326 211.146694 
L 275.550703 211.146694 
L 277.159337 223.163223 
L 278.71608 223.163223 
L 280.324714 217.154959 
L 281.881456 223.163223 
L 285.098724 211.146694 
L 286.603575 187.113636 
L 288.212209 199.130165 
L 289.768952 187.113636 
L 291.377586 157.072314 
L 292.934328 163.080579 
L 294.542962 139.047521 
L 296.151596 145.055785 
L 297.708339 157.072314 
L 299.316973 115.014463 
L 300.873716 139.047521 
L 302.48235 169.088843 
L 304.090984 181.105372 
L 305.543943 169.088843 
L 307.152577 145.055785 
L 308.70932 145.055785 
L 310.317954 139.047521 
L 311.874696 145.055785 
L 313.48333 169.088843 
L 315.091964 151.06405 
L 316.648707 163.080579 
L 318.257341 169.088843 
L 319.814084 157.072314 
L 321.422718 157.072314 
L 323.031352 175.097107 
L 324.484311 205.13843 
L 326.092945 187.113636 
L 327.649688 199.130165 
L 329.258322 223.163223 
L 330.815064 235.179752 
L 332.423698 229.171488 
L 335.589075 241.188017 
L 337.197709 259.21281 
L 338.754452 265.221074 
L 341.97172 265.221074 
L 343.424679 259.21281 
L 345.033313 271.229339 
L 348.19869 271.229339 
L 349.755432 265.221074 
L 351.364066 271.229339 
L 352.9727 289.254132 
L 354.529443 283.245868 
L 356.138077 289.254132 
L 357.69482 277.237603 
L 359.303454 277.237603 
L 362.416939 265.221074 
L 364.025573 283.245868 
L 365.582315 289.254132 
L 367.190949 253.204545 
L 368.747692 259.21281 
L 370.356326 277.237603 
L 371.96496 247.196281 
L 375.130336 247.196281 
L 378.295713 271.229339 
L 379.904347 271.229339 
L 381.357307 283.245868 
L 382.965941 277.237603 
L 384.522683 277.237603 
L 386.131317 295.262397 
L 387.68806 307.278926 
L 389.296694 307.278926 
L 390.905328 313.28719 
L 392.46207 307.278926 
L 394.070704 307.278926 
L 395.627447 331.311983 
L 397.236081 313.28719 
L 398.844715 325.303719 
L 400.297675 337.320248 
L 401.906309 343.328512 
L 403.463051 343.328512 
L 405.071685 337.320248 
L 406.628428 343.328512 
L 408.237062 355.345041 
L 409.845696 349.336777 
L 411.402438 361.353306 
L 413.011072 361.353306 
L 414.567815 355.345041 
L 416.176449 367.36157 
L 419.238043 367.36157 
L 420.846677 349.336777 
L 424.012053 385.386364 
L 425.568796 385.386364 
L 427.17743 397.402893 
L 428.786064 391.394628 
L 431.95144 427.444215 
L 433.508183 433.452479 
L 435.116817 433.452479 
L 436.725451 427.444215 
L 438.230302 427.444215 
L 439.838936 439.460744 
L 441.395679 445.469008 
L 444.561055 433.452479 
L 446.169689 421.43595 
L 447.778323 427.444215 
L 449.335066 421.43595 
L 452.500442 433.452479 
L 455.71771 421.43595 
L 457.17067 415.427686 
L 458.779304 415.427686 
L 460.336047 421.43595 
L 461.944681 409.419421 
L 463.501423 415.427686 
L 465.110057 409.419421 
L 466.718691 409.419421 
L 468.275434 403.411157 
L 469.884068 391.394628 
L 471.44081 355.345041 
L 474.658078 367.36157 
L 476.111038 367.36157 
L 477.719672 379.378099 
L 480.885049 379.378099 
L 482.441791 385.386364 
L 484.050425 397.402893 
L 485.659059 391.394628 
L 488.824436 391.394628 
L 490.381178 385.386364 
L 491.989812 397.402893 
L 495.051406 397.402893 
L 498.216783 373.369835 
L 499.825417 385.386364 
L 501.382159 385.386364 
L 502.990793 373.369835 
L 504.599427 367.36157 
L 506.15617 385.386364 
L 507.764804 397.402893 
L 509.321546 397.402893 
L 510.93018 403.411157 
L 512.538814 397.402893 
L 515.6523 409.419421 
L 517.209042 415.427686 
L 518.817676 409.419421 
L 520.374419 421.43595 
L 523.591687 421.43595 
L 526.757063 409.419421 
L 528.313806 415.427686 
L 529.92244 427.444215 
L 531.531074 421.43595 
L 532.984034 427.444215 
L 534.592668 433.452479 
L 536.14941 421.43595 
L 537.758044 433.452479 
L 539.314787 439.460744 
L 544.088797 439.460744 
L 545.697431 463.493802 
L 547.254174 445.469008 
L 548.862808 445.469008 
L 550.471442 457.485537 
L 551.924402 457.485537 
L 553.533036 463.493802 
L 555.089778 475.510331 
L 556.698412 475.510331 
L 558.255155 457.485537 
L 561.472423 457.485537 
L 563.029165 475.510331 
L 564.637799 469.502066 
L 566.194542 475.510331 
L 567.803176 469.502066 
L 569.41181 469.502066 
L 570.86477 475.510331 
L 572.473404 469.502066 
L 574.030146 481.518595 
L 575.63878 475.510331 
L 578.804157 487.52686 
L 580.412791 487.52686 
L 581.969533 493.535124 
L 583.578167 481.518595 
L 585.13491 481.518595 
L 586.743544 487.52686 
L 588.352178 487.52686 
L 589.857029 475.510331 
L 591.465663 481.518595 
L 594.63104 481.518595 
L 596.187782 475.510331 
L 599.40505 475.510331 
L 600.961793 469.502066 
L 602.570427 445.469008 
L 604.127169 427.444215 
L 605.735803 397.402893 
L 607.344437 361.353306 
L 608.797397 355.345041 
L 610.406031 343.328512 
L 611.962774 325.303719 
L 613.571408 319.295455 
L 616.736784 319.295455 
L 618.345418 337.320248 
L 619.902161 337.320248 
L 621.510795 331.311983 
L 623.067537 331.311983 
L 624.676171 343.328512 
L 626.284805 349.336777 
L 627.737765 349.336777 
L 632.511775 367.36157 
L 634.068518 355.345041 
L 637.285786 355.345041 
L 638.842529 373.369835 
L 640.451163 385.386364 
L 642.007905 385.386364 
L 643.616539 379.378099 
L 646.678133 379.378099 
L 649.843509 391.394628 
L 651.452143 391.394628 
L 653.008886 403.411157 
L 654.61752 403.411157 
L 656.226154 397.402893 
L 657.782897 397.402893 
L 659.391531 391.394628 
L 660.948273 397.402893 
L 662.556907 385.386364 
L 664.165541 391.394628 
L 665.670392 403.411157 
L 667.279026 403.411157 
L 668.835769 397.402893 
L 670.444403 409.419421 
L 672.001145 403.411157 
L 673.609779 409.419421 
L 676.775156 397.402893 
L 678.38379 409.419421 
L 679.940533 409.419421 
L 681.549167 415.427686 
L 683.157801 415.427686 
L 684.61076 403.411157 
L 686.219394 415.427686 
L 687.776137 421.43595 
L 690.941513 409.419421 
L 694.158781 421.43595 
L 697.324158 421.43595 
L 698.880901 409.419421 
L 700.489535 421.43595 
L 708.325139 421.43595 
L 709.881881 415.427686 
L 713.099149 427.444215 
L 714.655892 439.460744 
L 717.821269 439.460744 
L 719.429903 445.469008 
L 721.038537 433.452479 
L 725.656873 433.452479 
L 727.265507 427.444215 
L 728.822249 433.452479 
L 730.430883 421.43595 
L 732.039517 415.427686 
L 733.59626 421.43595 
L 735.204894 415.427686 
L 736.761637 415.427686 
L 739.978905 403.411157 
L 741.483756 415.427686 
L 743.09239 415.427686 
L 744.649132 427.444215 
L 746.257766 433.452479 
L 747.814509 421.43595 
L 749.423143 427.444215 
L 755.753896 427.444215 
L 757.36253 433.452479 
L 758.971164 445.469008 
L 760.424124 439.460744 
L 762.032758 457.485537 
L 763.5895 445.469008 
L 765.198134 457.485537 
L 766.754877 463.493802 
L 768.363511 475.510331 
L 769.972145 475.510331 
L 771.528887 469.502066 
L 774.694264 493.535124 
L 776.302898 487.52686 
L 777.911532 493.535124 
L 779.364492 493.535124 
L 780.973126 487.52686 
L 782.529868 487.52686 
L 784.138502 481.518595 
L 785.695245 487.52686 
L 787.303879 481.518595 
L 788.912513 493.535124 
L 792.077889 505.551653 
L 793.634632 505.551653 
L 795.243266 493.535124 
L 798.30486 493.535124 
L 799.913494 499.543388 
L 801.470236 517.568182 
L 803.07887 511.559917 
L 804.635613 499.543388 
L 806.244247 499.543388 
L 807.852881 511.559917 
L 809.409623 511.559917 
L 811.018257 487.52686 
L 812.575 505.551653 
L 812.575 505.551653 
" style="fill:none;stroke:#0000ff;stroke-linecap:round;stroke-width:1.6;"/>
   </g>
   <g id="patch_3">
    <path d="M 56.05 540.7 
L 56.05 31.8 
" style="fill:none;stroke:#262626;stroke-linecap:square;stroke-linejoin:miter;stroke-width:1.25;"/>
   </g>
   <g id="patch_4">
    <path d="M 812.575 540.7 
L 812.575 31.8 
" style="fill:none;stroke:#262626;stroke-linecap:square;stroke-linejoin:miter;stroke-width:1.25;"/>
   </g>
   <g id="patch_5">
    <path d="M 56.05 540.7 
L 812.575 540.7 
" style="fill:none;stroke:#262626;stroke-linecap:square;stroke-linejoin:miter;stroke-width:1.25;"/>
   </g>
   <g id="patch_6">
    <path d="M 56.05 31.8 
L 812.575 31.8 
" style="fill:none;stroke:#262626;stroke-linecap:square;stroke-linejoin:miter;stroke-width:1.25;"/>
   </g>
   <g id="text_20">
    <!-- Unemployment rate and labor force participation rate, Canada -->
    <defs>
     <path d="M 35.6875 -0.984375 
Q 27.25 -0.984375 20.953125 2.09375 
Q 14.65625 5.171875 11.1875 11.03125 
Q 7.71875 16.890625 7.71875 25 
L 7.71875 68.796875 
L 17.046875 68.796875 
L 17.046875 25.78125 
Q 17.046875 16.359375 21.828125 11.46875 
Q 26.609375 6.59375 35.640625 6.59375 
Q 44.921875 6.59375 50.0625 11.640625 
Q 55.21875 16.703125 55.21875 26.421875 
L 55.21875 68.796875 
L 64.5 68.796875 
L 64.5 25.875 
Q 64.5 17.53125 60.953125 11.46875 
Q 57.421875 5.421875 50.953125 2.21875 
Q 44.484375 -0.984375 35.6875 -0.984375 
z
" id="LiberationSans-85"/>
     <path d="M 37.5 0 
L 37.5 33.5 
Q 37.5 41.15625 35.390625 44.078125 
Q 33.296875 47.015625 27.828125 47.015625 
Q 22.21875 47.015625 18.9375 42.71875 
Q 15.671875 38.421875 15.671875 30.609375 
L 15.671875 0 
L 6.9375 0 
L 6.9375 41.546875 
Q 6.9375 50.78125 6.640625 52.828125 
L 14.9375 52.828125 
Q 14.984375 52.59375 15.03125 51.515625 
Q 15.09375 50.4375 15.15625 49.046875 
Q 15.234375 47.65625 15.328125 43.796875 
L 15.484375 43.796875 
Q 18.3125 49.421875 21.96875 51.609375 
Q 25.640625 53.8125 30.90625 53.8125 
Q 36.921875 53.8125 40.40625 51.421875 
Q 43.890625 49.03125 45.265625 43.796875 
L 45.40625 43.796875 
Q 48.140625 49.125 52.015625 51.46875 
Q 55.90625 53.8125 61.421875 53.8125 
Q 69.4375 53.8125 73.0625 49.46875 
Q 76.703125 45.125 76.703125 35.203125 
L 76.703125 0 
L 68.015625 0 
L 68.015625 33.5 
Q 68.015625 41.15625 65.90625 44.078125 
Q 63.8125 47.015625 58.34375 47.015625 
Q 52.59375 47.015625 49.390625 42.75 
Q 46.1875 38.484375 46.1875 30.609375 
L 46.1875 0 
z
" id="LiberationSans-109"/>
     <path d="M 51.421875 26.65625 
Q 51.421875 -0.984375 31.984375 -0.984375 
Q 19.78125 -0.984375 15.578125 8.203125 
L 15.328125 8.203125 
Q 15.53125 7.8125 15.53125 -0.09375 
L 15.53125 -20.75 
L 6.734375 -20.75 
L 6.734375 42.046875 
Q 6.734375 50.203125 6.453125 52.828125 
L 14.9375 52.828125 
Q 14.984375 52.640625 15.078125 51.4375 
Q 15.1875 50.25 15.3125 47.75 
Q 15.4375 45.265625 15.4375 44.34375 
L 15.625 44.34375 
Q 17.96875 49.21875 21.828125 51.484375 
Q 25.6875 53.765625 31.984375 53.765625 
Q 41.75 53.765625 46.578125 47.21875 
Q 51.421875 40.671875 51.421875 26.65625 
z
M 42.1875 26.46875 
Q 42.1875 37.5 39.203125 42.234375 
Q 36.234375 46.96875 29.734375 46.96875 
Q 24.515625 46.96875 21.5625 44.765625 
Q 18.609375 42.578125 17.0625 37.90625 
Q 15.53125 33.25 15.53125 25.78125 
Q 15.53125 15.375 18.84375 10.4375 
Q 22.171875 5.515625 29.640625 5.515625 
Q 36.1875 5.515625 39.1875 10.328125 
Q 42.1875 15.140625 42.1875 26.46875 
z
" id="LiberationSans-112"/>
     <path d="M 6.734375 0 
L 6.734375 72.46875 
L 15.53125 72.46875 
L 15.53125 0 
z
" id="LiberationSans-108"/>
     <path d="M 51.421875 26.46875 
Q 51.421875 12.59375 45.3125 5.796875 
Q 39.203125 -0.984375 27.59375 -0.984375 
Q 16.015625 -0.984375 10.109375 6.078125 
Q 4.203125 13.140625 4.203125 26.46875 
Q 4.203125 53.8125 27.875 53.8125 
Q 39.984375 53.8125 45.703125 47.140625 
Q 51.421875 40.484375 51.421875 26.46875 
z
M 42.1875 26.46875 
Q 42.1875 37.40625 38.9375 42.359375 
Q 35.6875 47.3125 28.03125 47.3125 
Q 20.3125 47.3125 16.859375 42.25 
Q 13.421875 37.203125 13.421875 26.46875 
Q 13.421875 16.015625 16.8125 10.765625 
Q 20.21875 5.515625 27.484375 5.515625 
Q 35.40625 5.515625 38.796875 10.59375 
Q 42.1875 15.671875 42.1875 26.46875 
z
" id="LiberationSans-111"/>
     <path d="M 9.328125 -20.75 
Q 5.71875 -20.75 3.265625 -20.21875 
L 3.265625 -13.625 
Q 5.125 -13.921875 7.375 -13.921875 
Q 15.578125 -13.921875 20.359375 -1.859375 
L 21.1875 0.25 
L 0.25 52.828125 
L 9.625 52.828125 
L 20.75 23.640625 
Q 21 22.953125 21.34375 22 
Q 21.6875 21.046875 23.53125 15.625 
Q 25.390625 10.203125 25.53125 9.578125 
L 28.953125 19.1875 
L 40.53125 52.828125 
L 49.8125 52.828125 
L 29.5 0 
Q 26.21875 -8.453125 23.390625 -12.578125 
Q 20.5625 -16.703125 17.109375 -18.71875 
Q 13.671875 -20.75 9.328125 -20.75 
z
" id="LiberationSans-121"/>
     <path id="LiberationSans-32"/>
     <path d="M 40.09375 8.5 
Q 37.640625 3.421875 33.609375 1.21875 
Q 29.59375 -0.984375 23.640625 -0.984375 
Q 13.625 -0.984375 8.90625 5.75 
Q 4.203125 12.5 4.203125 26.171875 
Q 4.203125 53.8125 23.640625 53.8125 
Q 29.640625 53.8125 33.640625 51.609375 
Q 37.640625 49.421875 40.09375 44.625 
L 40.1875 44.625 
L 40.09375 50.53125 
L 40.09375 72.46875 
L 48.875 72.46875 
L 48.875 10.890625 
Q 48.875 2.640625 49.171875 0 
L 40.765625 0 
Q 40.625 0.78125 40.453125 3.609375 
Q 40.28125 6.453125 40.28125 8.5 
z
M 13.421875 26.46875 
Q 13.421875 15.375 16.34375 10.59375 
Q 19.28125 5.8125 25.875 5.8125 
Q 33.34375 5.8125 36.71875 10.984375 
Q 40.09375 16.15625 40.09375 27.046875 
Q 40.09375 37.546875 36.71875 42.421875 
Q 33.34375 47.3125 25.984375 47.3125 
Q 19.34375 47.3125 16.375 42.40625 
Q 13.421875 37.5 13.421875 26.46875 
z
" id="LiberationSans-100"/>
     <path d="M 51.421875 26.65625 
Q 51.421875 -0.984375 31.984375 -0.984375 
Q 25.984375 -0.984375 22 1.1875 
Q 18.015625 3.375 15.53125 8.203125 
L 15.4375 8.203125 
Q 15.4375 6.6875 15.234375 3.578125 
Q 15.046875 0.484375 14.9375 0 
L 6.453125 0 
Q 6.734375 2.640625 6.734375 10.890625 
L 6.734375 72.46875 
L 15.53125 72.46875 
L 15.53125 51.8125 
Q 15.53125 48.640625 15.328125 44.34375 
L 15.53125 44.34375 
Q 17.96875 49.421875 22 51.609375 
Q 26.03125 53.8125 31.984375 53.8125 
Q 42 53.8125 46.703125 47.0625 
Q 51.421875 40.328125 51.421875 26.65625 
z
M 42.1875 26.375 
Q 42.1875 37.453125 39.25 42.234375 
Q 36.328125 47.015625 29.734375 47.015625 
Q 22.3125 47.015625 18.921875 41.9375 
Q 15.53125 36.859375 15.53125 25.828125 
Q 15.53125 15.4375 18.84375 10.46875 
Q 22.171875 5.515625 29.640625 5.515625 
Q 36.28125 5.515625 39.234375 10.421875 
Q 42.1875 15.328125 42.1875 26.375 
z
" id="LiberationSans-98"/>
     <path d="M 17.625 46.4375 
L 17.625 0 
L 8.84375 0 
L 8.84375 46.4375 
L 1.421875 46.4375 
L 1.421875 52.828125 
L 8.84375 52.828125 
L 8.84375 58.796875 
Q 8.84375 66.015625 12.015625 69.1875 
Q 15.1875 72.359375 21.734375 72.359375 
Q 25.390625 72.359375 27.9375 71.78125 
L 27.9375 65.09375 
Q 25.734375 65.484375 24.03125 65.484375 
Q 20.65625 65.484375 19.140625 63.765625 
Q 17.625 62.0625 17.625 57.5625 
L 17.625 52.828125 
L 27.9375 52.828125 
L 27.9375 46.4375 
z
" id="LiberationSans-102"/>
     <path d="M 6.6875 64.0625 
L 6.6875 72.46875 
L 15.484375 72.46875 
L 15.484375 64.0625 
z
M 6.6875 0 
L 6.6875 52.828125 
L 15.484375 52.828125 
L 15.484375 0 
z
" id="LiberationSans-105"/>
     <path d="M 18.796875 10.6875 
L 18.796875 2.484375 
Q 18.796875 -2.6875 17.859375 -6.15625 
Q 16.9375 -9.625 14.984375 -12.796875 
L 8.984375 -12.796875 
Q 13.578125 -6.15625 13.578125 0 
L 9.28125 0 
L 9.28125 10.6875 
z
" id="LiberationSans-44"/>
     <path d="M 38.671875 62.203125 
Q 27.25 62.203125 20.890625 54.859375 
Q 14.546875 47.515625 14.546875 34.71875 
Q 14.546875 22.078125 21.15625 14.375 
Q 27.78125 6.6875 39.0625 6.6875 
Q 53.515625 6.6875 60.796875 21 
L 68.40625 17.1875 
Q 64.15625 8.296875 56.46875 3.65625 
Q 48.78125 -0.984375 38.625 -0.984375 
Q 28.21875 -0.984375 20.625 3.34375 
Q 13.03125 7.671875 9.046875 15.703125 
Q 5.078125 23.734375 5.078125 34.71875 
Q 5.078125 51.171875 13.96875 60.5 
Q 22.859375 69.828125 38.578125 69.828125 
Q 49.5625 69.828125 56.9375 65.53125 
Q 64.3125 61.234375 67.78125 52.78125 
L 58.9375 49.859375 
Q 56.546875 55.859375 51.25 59.03125 
Q 45.953125 62.203125 38.671875 62.203125 
z
" id="LiberationSans-67"/>
    </defs>
    <g style="fill:#262626;" transform="translate(160.290625 25.8)scale(0.2 -0.2)">
     <use xlink:href="#LiberationSans-85"/>
     <use x="72.216797" xlink:href="#LiberationSans-110"/>
     <use x="127.832031" xlink:href="#LiberationSans-101"/>
     <use x="183.447266" xlink:href="#LiberationSans-109"/>
     <use x="266.748047" xlink:href="#LiberationSans-112"/>
     <use x="322.363281" xlink:href="#LiberationSans-108"/>
     <use x="344.580078" xlink:href="#LiberationSans-111"/>
     <use x="400.195312" xlink:href="#LiberationSans-121"/>
     <use x="450.195312" xlink:href="#LiberationSans-109"/>
     <use x="533.496094" xlink:href="#LiberationSans-101"/>
     <use x="589.111328" xlink:href="#LiberationSans-110"/>
     <use x="644.726562" xlink:href="#LiberationSans-116"/>
     <use x="672.509766" xlink:href="#LiberationSans-32"/>
     <use x="700.292969" xlink:href="#LiberationSans-114"/>
     <use x="733.59375" xlink:href="#LiberationSans-97"/>
     <use x="789.208984" xlink:href="#LiberationSans-116"/>
     <use x="816.992188" xlink:href="#LiberationSans-101"/>
     <use x="872.607422" xlink:href="#LiberationSans-32"/>
     <use x="900.390625" xlink:href="#LiberationSans-97"/>
     <use x="956.005859" xlink:href="#LiberationSans-110"/>
     <use x="1011.621094" xlink:href="#LiberationSans-100"/>
     <use x="1067.236328" xlink:href="#LiberationSans-32"/>
     <use x="1095.019531" xlink:href="#LiberationSans-108"/>
     <use x="1117.236328" xlink:href="#LiberationSans-97"/>
     <use x="1172.851562" xlink:href="#LiberationSans-98"/>
     <use x="1228.466797" xlink:href="#LiberationSans-111"/>
     <use x="1284.082031" xlink:href="#LiberationSans-114"/>
     <use x="1317.382812" xlink:href="#LiberationSans-32"/>
     <use x="1345.166016" xlink:href="#LiberationSans-102"/>
     <use x="1372.949219" xlink:href="#LiberationSans-111"/>
     <use x="1428.564453" xlink:href="#LiberationSans-114"/>
     <use x="1461.865234" xlink:href="#LiberationSans-99"/>
     <use x="1511.865234" xlink:href="#LiberationSans-101"/>
     <use x="1567.480469" xlink:href="#LiberationSans-32"/>
     <use x="1595.263672" xlink:href="#LiberationSans-112"/>
     <use x="1650.878906" xlink:href="#LiberationSans-97"/>
     <use x="1706.494141" xlink:href="#LiberationSans-114"/>
     <use x="1739.794922" xlink:href="#LiberationSans-116"/>
     <use x="1767.578125" xlink:href="#LiberationSans-105"/>
     <use x="1789.794922" xlink:href="#LiberationSans-99"/>
     <use x="1839.794922" xlink:href="#LiberationSans-105"/>
     <use x="1862.011719" xlink:href="#LiberationSans-112"/>
     <use x="1917.626953" xlink:href="#LiberationSans-97"/>
     <use x="1973.242188" xlink:href="#LiberationSans-116"/>
     <use x="2001.025391" xlink:href="#LiberationSans-105"/>
     <use x="2023.242188" xlink:href="#LiberationSans-111"/>
     <use x="2078.857422" xlink:href="#LiberationSans-110"/>
     <use x="2134.472656" xlink:href="#LiberationSans-32"/>
     <use x="2162.255859" xlink:href="#LiberationSans-114"/>
     <use x="2195.556641" xlink:href="#LiberationSans-97"/>
     <use x="2251.171875" xlink:href="#LiberationSans-116"/>
     <use x="2278.955078" xlink:href="#LiberationSans-101"/>
     <use x="2334.570312" xlink:href="#LiberationSans-44"/>
     <use x="2362.353516" xlink:href="#LiberationSans-32"/>
     <use x="2390.136719" xlink:href="#LiberationSans-67"/>
     <use x="2462.353516" xlink:href="#LiberationSans-97"/>
     <use x="2517.96875" xlink:href="#LiberationSans-110"/>
     <use x="2573.583984" xlink:href="#LiberationSans-97"/>
     <use x="2629.199219" xlink:href="#LiberationSans-100"/>
     <use x="2684.814453" xlink:href="#LiberationSans-97"/>
    </g>
   </g>
   <g id="legend_1">
    <g id="line2d_20">
     <path d="M 68.65 49.645625 
L 96.65 49.645625 
" style="fill:none;stroke:#0000ff;stroke-linecap:round;stroke-width:1.6;"/>
    </g>
    <g id="line2d_21"/>
    <g id="text_21">
     <!-- Unemployment rate -->
     <g style="fill:#262626;" transform="translate(107.85 54.545625)scale(0.14 -0.14)">
      <use xlink:href="#LiberationSans-85"/>
      <use x="72.216797" xlink:href="#LiberationSans-110"/>
      <use x="127.832031" xlink:href="#LiberationSans-101"/>
      <use x="183.447266" xlink:href="#LiberationSans-109"/>
      <use x="266.748047" xlink:href="#LiberationSans-112"/>
      <use x="322.363281" xlink:href="#LiberationSans-108"/>
      <use x="344.580078" xlink:href="#LiberationSans-111"/>
      <use x="400.195312" xlink:href="#LiberationSans-121"/>
      <use x="450.195312" xlink:href="#LiberationSans-109"/>
      <use x="533.496094" xlink:href="#LiberationSans-101"/>
      <use x="589.111328" xlink:href="#LiberationSans-110"/>
      <use x="644.726562" xlink:href="#LiberationSans-116"/>
      <use x="672.509766" xlink:href="#LiberationSans-32"/>
      <use x="700.292969" xlink:href="#LiberationSans-114"/>
      <use x="733.59375" xlink:href="#LiberationSans-97"/>
      <use x="789.208984" xlink:href="#LiberationSans-116"/>
      <use x="816.992188" xlink:href="#LiberationSans-101"/>
     </g>
    </g>
   </g>
  </g>
  <g id="axes_2">
   <g id="matplotlib.axis_3">
    <g id="ytick_9">
     <g id="line2d_22">
      <defs>
       <path d="M 0 0 
L 6 0 
" id="me7bd8ec558" style="stroke:#262626;stroke-width:0.8;"/>
      </defs>
      <g>
       <use style="fill:#262626;stroke:#262626;stroke-width:0.8;" x="812.575" xlink:href="#me7bd8ec558" y="517.568182"/>
      </g>
     </g>
     <g id="text_22">
      <!-- 64.0 -->
      <defs>
       <path d="M 9.125 0 
L 9.125 10.6875 
L 18.65625 10.6875 
L 18.65625 0 
z
" id="LiberationSans-46"/>
      </defs>
      <g style="fill:#262626;" transform="translate(822.075 523.365682)scale(0.16 -0.16)">
       <use xlink:href="#LiberationSans-54"/>
       <use x="55.615234" xlink:href="#LiberationSans-52"/>
       <use x="111.230469" xlink:href="#LiberationSans-46"/>
       <use x="139.013672" xlink:href="#LiberationSans-48"/>
      </g>
     </g>
    </g>
    <g id="ytick_10">
     <g id="line2d_23">
      <g>
       <use style="fill:#262626;stroke:#262626;stroke-width:0.8;" x="812.575" xlink:href="#me7bd8ec558" y="455.049754"/>
      </g>
     </g>
     <g id="text_23">
      <!-- 64.5 -->
      <defs>
       <path d="M 51.421875 22.40625 
Q 51.421875 11.53125 44.953125 5.265625 
Q 38.484375 -0.984375 27 -0.984375 
Q 17.390625 -0.984375 11.46875 3.21875 
Q 5.5625 7.421875 4 15.375 
L 12.890625 16.40625 
Q 15.671875 6.203125 27.203125 6.203125 
Q 34.28125 6.203125 38.28125 10.46875 
Q 42.28125 14.75 42.28125 22.21875 
Q 42.28125 28.71875 38.25 32.71875 
Q 34.234375 36.71875 27.390625 36.71875 
Q 23.828125 36.71875 20.75 35.59375 
Q 17.671875 34.46875 14.59375 31.78125 
L 6 31.78125 
L 8.296875 68.796875 
L 47.40625 68.796875 
L 47.40625 61.328125 
L 16.3125 61.328125 
L 14.984375 39.5 
Q 20.703125 43.890625 29.203125 43.890625 
Q 39.359375 43.890625 45.390625 37.9375 
Q 51.421875 31.984375 51.421875 22.40625 
z
" id="LiberationSans-53"/>
      </defs>
      <g style="fill:#262626;" transform="translate(822.075 460.847254)scale(0.16 -0.16)">
       <use xlink:href="#LiberationSans-54"/>
       <use x="55.615234" xlink:href="#LiberationSans-52"/>
       <use x="111.230469" xlink:href="#LiberationSans-46"/>
       <use x="139.013672" xlink:href="#LiberationSans-53"/>
      </g>
     </g>
    </g>
    <g id="ytick_11">
     <g id="line2d_24">
      <g>
       <use style="fill:#262626;stroke:#262626;stroke-width:0.8;" x="812.575" xlink:href="#me7bd8ec558" y="392.531327"/>
      </g>
     </g>
     <g id="text_24">
      <!-- 65.0 -->
      <g style="fill:#262626;" transform="translate(822.075 398.328827)scale(0.16 -0.16)">
       <use xlink:href="#LiberationSans-54"/>
       <use x="55.615234" xlink:href="#LiberationSans-53"/>
       <use x="111.230469" xlink:href="#LiberationSans-46"/>
       <use x="139.013672" xlink:href="#LiberationSans-48"/>
      </g>
     </g>
    </g>
    <g id="ytick_12">
     <g id="line2d_25">
      <g>
       <use style="fill:#262626;stroke:#262626;stroke-width:0.8;" x="812.575" xlink:href="#me7bd8ec558" y="330.012899"/>
      </g>
     </g>
     <g id="text_25">
      <!-- 65.5 -->
      <g style="fill:#262626;" transform="translate(822.075 335.810399)scale(0.16 -0.16)">
       <use xlink:href="#LiberationSans-54"/>
       <use x="55.615234" xlink:href="#LiberationSans-53"/>
       <use x="111.230469" xlink:href="#LiberationSans-46"/>
       <use x="139.013672" xlink:href="#LiberationSans-53"/>
      </g>
     </g>
    </g>
    <g id="ytick_13">
     <g id="line2d_26">
      <g>
       <use style="fill:#262626;stroke:#262626;stroke-width:0.8;" x="812.575" xlink:href="#me7bd8ec558" y="267.494472"/>
      </g>
     </g>
     <g id="text_26">
      <!-- 66.0 -->
      <g style="fill:#262626;" transform="translate(822.075 273.291972)scale(0.16 -0.16)">
       <use xlink:href="#LiberationSans-54"/>
       <use x="55.615234" xlink:href="#LiberationSans-54"/>
       <use x="111.230469" xlink:href="#LiberationSans-46"/>
       <use x="139.013672" xlink:href="#LiberationSans-48"/>
      </g>
     </g>
    </g>
    <g id="ytick_14">
     <g id="line2d_27">
      <g>
       <use style="fill:#262626;stroke:#262626;stroke-width:0.8;" x="812.575" xlink:href="#me7bd8ec558" y="204.976044"/>
      </g>
     </g>
     <g id="text_27">
      <!-- 66.5 -->
      <g style="fill:#262626;" transform="translate(822.075 210.773544)scale(0.16 -0.16)">
       <use xlink:href="#LiberationSans-54"/>
       <use x="55.615234" xlink:href="#LiberationSans-54"/>
       <use x="111.230469" xlink:href="#LiberationSans-46"/>
       <use x="139.013672" xlink:href="#LiberationSans-53"/>
      </g>
     </g>
    </g>
    <g id="ytick_15">
     <g id="line2d_28">
      <g>
       <use style="fill:#262626;stroke:#262626;stroke-width:0.8;" x="812.575" xlink:href="#me7bd8ec558" y="142.457617"/>
      </g>
     </g>
     <g id="text_28">
      <!-- 67.0 -->
      <g style="fill:#262626;" transform="translate(822.075 148.255117)scale(0.16 -0.16)">
       <use xlink:href="#LiberationSans-54"/>
       <use x="55.615234" xlink:href="#LiberationSans-55"/>
       <use x="111.230469" xlink:href="#LiberationSans-46"/>
       <use x="139.013672" xlink:href="#LiberationSans-48"/>
      </g>
     </g>
    </g>
    <g id="ytick_16">
     <g id="line2d_29">
      <g>
       <use style="fill:#262626;stroke:#262626;stroke-width:0.8;" x="812.575" xlink:href="#me7bd8ec558" y="79.939189"/>
      </g>
     </g>
     <g id="text_29">
      <!-- 67.5 -->
      <g style="fill:#262626;" transform="translate(822.075 85.736689)scale(0.16 -0.16)">
       <use xlink:href="#LiberationSans-54"/>
       <use x="55.615234" xlink:href="#LiberationSans-55"/>
       <use x="111.230469" xlink:href="#LiberationSans-46"/>
       <use x="139.013672" xlink:href="#LiberationSans-53"/>
      </g>
     </g>
    </g>
   </g>
   <g id="line2d_30">
    <path clip-path="url(#p991640f44d)" d="M 56.05 492.560811 
L 57.658634 480.057125 
L 59.163485 492.560811 
L 60.772119 467.55344 
L 62.328862 505.064496 
L 63.937496 492.560811 
L 65.494238 517.568182 
L 67.102872 505.064496 
L 68.711506 480.057125 
L 70.268249 480.057125 
L 71.876883 467.55344 
L 73.433625 467.55344 
L 75.042259 417.538698 
L 76.650893 380.027641 
L 78.103853 380.027641 
L 79.712487 392.531327 
L 82.877864 367.523956 
L 84.434606 405.035012 
L 86.04324 417.538698 
L 87.651874 355.02027 
L 89.208617 367.523956 
L 90.817251 392.531327 
L 92.373993 405.035012 
L 93.982627 442.546069 
L 95.591261 455.049754 
L 97.044221 442.546069 
L 98.652855 455.049754 
L 100.209598 455.049754 
L 101.818232 467.55344 
L 103.374974 430.042383 
L 104.983608 480.057125 
L 106.592242 467.55344 
L 108.148985 442.546069 
L 109.757619 467.55344 
L 111.314361 455.049754 
L 112.922995 480.057125 
L 114.531629 480.057125 
L 115.984589 455.049754 
L 117.593223 430.042383 
L 119.149966 430.042383 
L 120.7586 392.531327 
L 122.315342 405.035012 
L 123.923976 392.531327 
L 125.53261 392.531327 
L 127.089353 417.538698 
L 128.697987 430.042383 
L 130.254729 417.538698 
L 131.863363 442.546069 
L 133.471997 430.042383 
L 136.585483 430.042383 
L 138.142225 380.027641 
L 139.750859 380.027641 
L 141.307602 367.523956 
L 142.916236 367.523956 
L 144.52487 305.005528 
L 146.081612 355.02027 
L 147.690246 355.02027 
L 150.855623 380.027641 
L 152.464257 355.02027 
L 153.917217 330.012899 
L 155.525851 317.509214 
L 157.082593 317.509214 
L 158.691227 305.005528 
L 161.856604 305.005528 
L 163.465238 317.509214 
L 166.630614 267.494472 
L 168.187357 254.990786 
L 172.857585 254.990786 
L 174.466219 229.983415 
L 176.022961 267.494472 
L 177.631595 242.487101 
L 179.188338 254.990786 
L 180.796972 254.990786 
L 182.405606 267.494472 
L 183.962348 267.494472 
L 185.570982 254.990786 
L 188.736359 254.990786 
L 190.344993 242.487101 
L 191.797953 229.983415 
L 193.406587 217.47973 
L 194.963329 217.47973 
L 196.571963 204.976044 
L 198.128706 217.47973 
L 199.73734 217.47973 
L 201.345974 204.976044 
L 202.902716 179.968673 
L 204.51135 179.968673 
L 207.676727 154.961302 
L 209.285361 167.464988 
L 210.790212 154.961302 
L 212.398846 167.464988 
L 213.955589 167.464988 
L 215.564223 179.968673 
L 217.120965 167.464988 
L 220.338233 167.464988 
L 223.50361 142.457617 
L 225.060352 142.457617 
L 226.668986 104.94656 
L 228.27762 92.442875 
L 229.73058 79.939189 
L 231.339214 79.939189 
L 232.895957 104.94656 
L 236.061333 129.953931 
L 239.278601 129.953931 
L 240.835344 154.961302 
L 242.443978 117.450246 
L 244.00072 104.94656 
L 245.609354 79.939189 
L 247.217988 79.939189 
L 248.670948 129.953931 
L 250.279582 117.450246 
L 251.836325 129.953931 
L 256.610335 129.953931 
L 258.218969 117.450246 
L 264.549722 167.464988 
L 266.158356 167.464988 
L 267.611316 179.968673 
L 270.776693 179.968673 
L 272.385326 154.961302 
L 273.942069 179.968673 
L 275.550703 179.968673 
L 277.159337 217.47973 
L 278.71608 229.983415 
L 281.881456 279.998157 
L 285.098724 305.005528 
L 286.603575 292.501843 
L 288.212209 330.012899 
L 289.768952 305.005528 
L 291.377586 292.501843 
L 292.934328 305.005528 
L 294.542962 292.501843 
L 296.151596 305.005528 
L 297.708339 330.012899 
L 299.316973 279.998157 
L 300.873716 317.509214 
L 304.090984 367.523956 
L 305.543943 342.516585 
L 308.70932 342.516585 
L 310.317954 330.012899 
L 311.874696 330.012899 
L 313.48333 367.523956 
L 315.091964 330.012899 
L 316.648707 367.523956 
L 318.257341 342.516585 
L 319.814084 355.02027 
L 321.422718 355.02027 
L 323.031352 380.027641 
L 324.484311 405.035012 
L 326.092945 380.027641 
L 327.649688 367.523956 
L 329.258322 380.027641 
L 330.815064 380.027641 
L 332.423698 367.523956 
L 334.032332 342.516585 
L 335.589075 380.027641 
L 337.197709 355.02027 
L 338.754452 380.027641 
L 340.363086 380.027641 
L 341.97172 392.531327 
L 343.424679 367.523956 
L 345.033313 405.035012 
L 346.590056 417.538698 
L 351.364066 417.538698 
L 352.9727 442.546069 
L 354.529443 430.042383 
L 356.138077 467.55344 
L 357.69482 430.042383 
L 359.303454 430.042383 
L 360.912088 417.538698 
L 364.025573 442.546069 
L 365.582315 455.049754 
L 367.190949 417.538698 
L 368.747692 417.538698 
L 370.356326 442.546069 
L 371.96496 430.042383 
L 373.521702 442.546069 
L 376.687079 442.546069 
L 378.295713 430.042383 
L 379.904347 430.042383 
L 381.357307 442.546069 
L 382.965941 442.546069 
L 384.522683 417.538698 
L 387.68806 417.538698 
L 389.296694 392.531327 
L 390.905328 392.531327 
L 392.46207 380.027641 
L 394.070704 380.027641 
L 395.627447 417.538698 
L 397.236081 392.531327 
L 398.844715 392.531327 
L 400.297675 405.035012 
L 401.906309 392.531327 
L 405.071685 392.531327 
L 406.628428 367.523956 
L 408.237062 367.523956 
L 409.845696 342.516585 
L 411.402438 367.523956 
L 413.011072 342.516585 
L 414.567815 342.516585 
L 416.176449 330.012899 
L 417.785083 342.516585 
L 419.238043 342.516585 
L 420.846677 305.005528 
L 422.403419 305.005528 
L 424.012053 342.516585 
L 425.568796 317.509214 
L 427.17743 330.012899 
L 428.786064 317.509214 
L 431.95144 342.516585 
L 433.508183 330.012899 
L 435.116817 305.005528 
L 436.725451 305.005528 
L 438.230302 292.501843 
L 441.395679 317.509214 
L 443.004313 305.005528 
L 444.561055 317.509214 
L 446.169689 292.501843 
L 449.335066 267.494472 
L 452.500442 267.494472 
L 454.109076 279.998157 
L 455.71771 279.998157 
L 457.17067 267.494472 
L 460.336047 267.494472 
L 463.501423 292.501843 
L 466.718691 292.501843 
L 469.884068 267.494472 
L 471.44081 242.487101 
L 473.049444 229.983415 
L 474.658078 229.983415 
L 476.111038 204.976044 
L 479.276415 179.968673 
L 480.885049 154.961302 
L 482.441791 154.961302 
L 484.050425 129.953931 
L 487.215802 129.953931 
L 490.381178 104.94656 
L 491.989812 104.94656 
L 493.598446 79.939189 
L 495.051406 92.442875 
L 496.66004 79.939189 
L 501.382159 79.939189 
L 504.599427 54.931818 
L 506.15617 67.435504 
L 515.6523 67.435504 
L 517.209042 79.939189 
L 518.817676 67.435504 
L 521.983053 117.450246 
L 523.591687 92.442875 
L 525.148429 92.442875 
L 526.757063 79.939189 
L 528.313806 79.939189 
L 529.92244 104.94656 
L 531.531074 92.442875 
L 532.984034 117.450246 
L 536.14941 117.450246 
L 537.758044 129.953931 
L 542.532055 129.953931 
L 544.088797 117.450246 
L 545.697431 154.961302 
L 547.254174 142.457617 
L 548.862808 154.961302 
L 550.471442 154.961302 
L 551.924402 142.457617 
L 553.533036 142.457617 
L 555.089778 129.953931 
L 556.698412 142.457617 
L 558.255155 117.450246 
L 559.863789 129.953931 
L 561.472423 129.953931 
L 563.029165 154.961302 
L 564.637799 129.953931 
L 566.194542 129.953931 
L 567.803176 92.442875 
L 569.41181 92.442875 
L 570.86477 79.939189 
L 574.030146 104.94656 
L 575.63878 79.939189 
L 577.195523 79.939189 
L 578.804157 92.442875 
L 583.578167 54.931818 
L 585.13491 67.435504 
L 586.743544 67.435504 
L 588.352178 54.931818 
L 591.465663 54.931818 
L 593.022406 67.435504 
L 594.63104 92.442875 
L 597.796416 92.442875 
L 600.961793 67.435504 
L 602.570427 92.442875 
L 604.127169 92.442875 
L 605.735803 117.450246 
L 607.344437 92.442875 
L 608.797397 104.94656 
L 610.406031 117.450246 
L 613.571408 117.450246 
L 616.736784 142.457617 
L 618.345418 167.464988 
L 619.902161 167.464988 
L 621.510795 129.953931 
L 623.067537 142.457617 
L 624.676171 142.457617 
L 626.284805 154.961302 
L 627.737765 154.961302 
L 629.346399 129.953931 
L 630.903142 142.457617 
L 632.511775 129.953931 
L 634.068518 142.457617 
L 635.677152 129.953931 
L 638.842529 179.968673 
L 640.451163 192.472359 
L 642.007905 179.968673 
L 643.616539 154.961302 
L 645.225173 167.464988 
L 646.678133 154.961302 
L 648.286767 154.961302 
L 649.843509 179.968673 
L 651.452143 167.464988 
L 653.008886 192.472359 
L 656.226154 192.472359 
L 657.782897 204.976044 
L 662.556907 204.976044 
L 664.165541 229.983415 
L 667.279026 179.968673 
L 672.001145 217.47973 
L 673.609779 217.47973 
L 675.218413 192.472359 
L 676.775156 179.968673 
L 678.38379 192.472359 
L 679.940533 179.968673 
L 681.549167 192.472359 
L 684.61076 192.472359 
L 686.219394 204.976044 
L 689.384771 204.976044 
L 690.941513 217.47973 
L 692.550147 204.976044 
L 694.158781 229.983415 
L 698.880901 229.983415 
L 700.489535 242.487101 
L 703.551128 242.487101 
L 705.159762 254.990786 
L 706.716505 279.998157 
L 709.881881 254.990786 
L 711.490515 279.998157 
L 713.099149 292.501843 
L 714.655892 279.998157 
L 717.821269 305.005528 
L 719.429903 305.005528 
L 721.038537 292.501843 
L 724.10013 292.501843 
L 725.656873 279.998157 
L 727.265507 292.501843 
L 730.430883 267.494472 
L 732.039517 279.998157 
L 739.978905 279.998157 
L 741.483756 292.501843 
L 743.09239 292.501843 
L 744.649132 305.005528 
L 746.257766 330.012899 
L 747.814509 330.012899 
L 752.588519 292.501843 
L 754.197153 305.005528 
L 757.36253 279.998157 
L 758.971164 292.501843 
L 760.424124 292.501843 
L 762.032758 305.005528 
L 763.5895 279.998157 
L 766.754877 305.005528 
L 768.363511 305.005528 
L 769.972145 317.509214 
L 771.528887 305.005528 
L 774.694264 305.005528 
L 776.302898 330.012899 
L 777.911532 342.516585 
L 779.364492 330.012899 
L 780.973126 330.012899 
L 782.529868 342.516585 
L 784.138502 330.012899 
L 787.303879 355.02027 
L 788.912513 342.516585 
L 790.469255 355.02027 
L 792.077889 342.516585 
L 793.634632 342.516585 
L 796.8519 292.501843 
L 798.30486 305.005528 
L 799.913494 279.998157 
L 801.470236 305.005528 
L 803.07887 305.005528 
L 804.635613 317.509214 
L 806.244247 292.501843 
L 807.852881 305.005528 
L 809.409623 305.005528 
L 812.575 330.012899 
L 812.575 330.012899 
" style="fill:none;stroke:#ff0000;stroke-dasharray:5.92,2.56;stroke-dashoffset:0;stroke-width:1.6;"/>
   </g>
   <g id="patch_7">
    <path d="M 56.05 540.7 
L 56.05 31.8 
" style="fill:none;stroke:#262626;stroke-linecap:square;stroke-linejoin:miter;stroke-width:1.25;"/>
   </g>
   <g id="patch_8">
    <path d="M 812.575 540.7 
L 812.575 31.8 
" style="fill:none;stroke:#262626;stroke-linecap:square;stroke-linejoin:miter;stroke-width:1.25;"/>
   </g>
   <g id="patch_9">
    <path d="M 56.05 540.7 
L 812.575 540.7 
" style="fill:none;stroke:#262626;stroke-linecap:square;stroke-linejoin:miter;stroke-width:1.25;"/>
   </g>
   <g id="patch_10">
    <path d="M 56.05 31.8 
L 812.575 31.8 
" style="fill:none;stroke:#262626;stroke-linecap:square;stroke-linejoin:miter;stroke-width:1.25;"/>
   </g>
   <g id="legend_2">
    <g id="line2d_31">
     <path d="M 560.039063 49.645625 
L 588.039063 49.645625 
" style="fill:none;stroke:#ff0000;stroke-dasharray:5.92,2.56;stroke-dashoffset:0;stroke-width:1.6;"/>
    </g>
    <g id="line2d_32"/>
    <g id="text_30">
     <!-- LF participation rate (right scale) -->
     <defs>
      <path d="M 8.203125 0 
L 8.203125 68.796875 
L 17.53125 68.796875 
L 17.53125 7.625 
L 52.296875 7.625 
L 52.296875 0 
z
" id="LiberationSans-76"/>
      <path d="M 17.53125 61.1875 
L 17.53125 35.59375 
L 55.90625 35.59375 
L 55.90625 27.875 
L 17.53125 27.875 
L 17.53125 0 
L 8.203125 0 
L 8.203125 68.796875 
L 57.078125 68.796875 
L 57.078125 61.1875 
z
" id="LiberationSans-70"/>
      <path d="M 6.203125 25.984375 
Q 6.203125 40.09375 10.625 51.3125 
Q 15.046875 62.546875 24.21875 72.46875 
L 32.71875 72.46875 
Q 23.578125 62.3125 19.3125 50.875 
Q 15.046875 39.453125 15.046875 25.875 
Q 15.046875 12.359375 19.265625 0.96875 
Q 23.484375 -10.40625 32.71875 -20.703125 
L 24.21875 -20.703125 
Q 14.984375 -10.75 10.59375 0.5 
Q 6.203125 11.765625 6.203125 25.78125 
z
" id="LiberationSans-40"/>
      <path d="M 15.484375 43.796875 
Q 18.3125 48.96875 22.28125 51.390625 
Q 26.265625 53.8125 32.375 53.8125 
Q 40.96875 53.8125 45.046875 49.53125 
Q 49.125 45.265625 49.125 35.203125 
L 49.125 0 
L 40.28125 0 
L 40.28125 33.5 
Q 40.28125 39.0625 39.25 41.765625 
Q 38.234375 44.484375 35.890625 45.75 
Q 33.546875 47.015625 29.390625 47.015625 
Q 23.1875 47.015625 19.453125 42.71875 
Q 15.71875 38.421875 15.71875 31.15625 
L 15.71875 0 
L 6.9375 0 
L 6.9375 72.46875 
L 15.71875 72.46875 
L 15.71875 53.609375 
Q 15.71875 50.640625 15.546875 47.453125 
Q 15.375 44.28125 15.328125 43.796875 
z
" id="LiberationSans-104"/>
      <path d="M 46.390625 14.59375 
Q 46.390625 7.125 40.75 3.0625 
Q 35.109375 -0.984375 24.953125 -0.984375 
Q 15.09375 -0.984375 9.734375 2.265625 
Q 4.390625 5.515625 2.78125 12.40625 
L 10.546875 13.921875 
Q 11.671875 9.671875 15.1875 7.6875 
Q 18.703125 5.71875 24.953125 5.71875 
Q 31.640625 5.71875 34.734375 7.765625 
Q 37.84375 9.8125 37.84375 13.921875 
Q 37.84375 17.046875 35.6875 19 
Q 33.546875 20.953125 28.765625 22.21875 
L 22.46875 23.875 
Q 14.890625 25.828125 11.6875 27.703125 
Q 8.5 29.59375 6.6875 32.28125 
Q 4.890625 34.96875 4.890625 38.875 
Q 4.890625 46.09375 10.03125 49.875 
Q 15.1875 53.65625 25.046875 53.65625 
Q 33.796875 53.65625 38.9375 50.578125 
Q 44.09375 47.515625 45.453125 40.71875 
L 37.546875 39.75 
Q 36.8125 43.265625 33.609375 45.140625 
Q 30.421875 47.015625 25.046875 47.015625 
Q 19.09375 47.015625 16.25 45.203125 
Q 13.421875 43.40625 13.421875 39.75 
Q 13.421875 37.5 14.59375 36.03125 
Q 15.765625 34.578125 18.0625 33.546875 
Q 20.359375 32.515625 27.734375 30.71875 
Q 34.71875 28.953125 37.796875 27.46875 
Q 40.875 25.984375 42.65625 24.171875 
Q 44.4375 22.359375 45.40625 19.984375 
Q 46.390625 17.625 46.390625 14.59375 
z
" id="LiberationSans-115"/>
      <path d="M 27.09375 25.78125 
Q 27.09375 11.671875 22.671875 0.4375 
Q 18.265625 -10.796875 9.078125 -20.703125 
L 0.59375 -20.703125 
Q 9.765625 -10.453125 14.015625 0.890625 
Q 18.265625 12.25 18.265625 25.875 
Q 18.265625 39.5 13.984375 50.875 
Q 9.71875 62.25 0.59375 72.46875 
L 9.078125 72.46875 
Q 18.3125 62.5 22.703125 51.234375 
Q 27.09375 39.984375 27.09375 25.984375 
z
" id="LiberationSans-41"/>
     </defs>
     <g style="fill:#262626;" transform="translate(599.239063 54.545625)scale(0.14 -0.14)">
      <use xlink:href="#LiberationSans-76"/>
      <use x="55.615234" xlink:href="#LiberationSans-70"/>
      <use x="116.699219" xlink:href="#LiberationSans-32"/>
      <use x="144.482422" xlink:href="#LiberationSans-112"/>
      <use x="200.097656" xlink:href="#LiberationSans-97"/>
      <use x="255.712891" xlink:href="#LiberationSans-114"/>
      <use x="289.013672" xlink:href="#LiberationSans-116"/>
      <use x="316.796875" xlink:href="#LiberationSans-105"/>
      <use x="339.013672" xlink:href="#LiberationSans-99"/>
      <use x="389.013672" xlink:href="#LiberationSans-105"/>
      <use x="411.230469" xlink:href="#LiberationSans-112"/>
      <use x="466.845703" xlink:href="#LiberationSans-97"/>
      <use x="522.460938" xlink:href="#LiberationSans-116"/>
      <use x="550.244141" xlink:href="#LiberationSans-105"/>
      <use x="572.460938" xlink:href="#LiberationSans-111"/>
      <use x="628.076172" xlink:href="#LiberationSans-110"/>
      <use x="683.691406" xlink:href="#LiberationSans-32"/>
      <use x="711.474609" xlink:href="#LiberationSans-114"/>
      <use x="744.775391" xlink:href="#LiberationSans-97"/>
      <use x="800.390625" xlink:href="#LiberationSans-116"/>
      <use x="828.173828" xlink:href="#LiberationSans-101"/>
      <use x="883.789062" xlink:href="#LiberationSans-32"/>
      <use x="911.572266" xlink:href="#LiberationSans-40"/>
      <use x="944.873047" xlink:href="#LiberationSans-114"/>
      <use x="978.173828" xlink:href="#LiberationSans-105"/>
      <use x="1000.390625" xlink:href="#LiberationSans-103"/>
      <use x="1056.005859" xlink:href="#LiberationSans-104"/>
      <use x="1111.621094" xlink:href="#LiberationSans-116"/>
      <use x="1139.404297" xlink:href="#LiberationSans-32"/>
      <use x="1167.1875" xlink:href="#LiberationSans-115"/>
      <use x="1217.1875" xlink:href="#LiberationSans-99"/>
      <use x="1267.1875" xlink:href="#LiberationSans-97"/>
      <use x="1322.802734" xlink:href="#LiberationSans-108"/>
      <use x="1345.019531" xlink:href="#LiberationSans-101"/>
      <use x="1400.634766" xlink:href="#LiberationSans-41"/>
     </g>
    </g>
   </g>
  </g>
 </g>
 <defs>
  <clipPath id="p991640f44d">
   <rect height="508.9" width="756.525" x="56.05" y="31.8"/>
  </clipPath>
 </defs>
</svg>
